<svg enable-background="new 0 0 448.9 403.5" viewBox="0 0 448.9 403.5" xmlns="http://www.w3.org/2000/svg"><g fill="#3e76f9"><path d="m64.9 360c-.1-.4-.3-.9-.5-1.3.2.4.4.9.5 1.3z"/><path d="m59.4 353.4c.5.2.9.5 1.3.8-.4-.3-.8-.6-1.3-.8z"/><path d="m61.9 355.1c.7.6 1.3 1.3 1.8 2.1-.5-.7-1.1-1.5-1.8-2.1z"/><path d="m60.7 354.2c.4.2.7.5 1 .8-.3-.3-.6-.6-1-.8z"/><path d="m64.4 358.5c-.2-.3-.3-.7-.5-1 .1.4.3.7.5 1z"/><path d="m65.2 361.4c-.1-.4-.1-.7-.2-1.1.1.4.2.7.2 1.1z"/><path d="m398.9 300.7h-63.7c3-2.1 4.8-5.5 4.8-9.1v-29.2c0-6.1-5-11.1-11.1-11.1h-73.2c4.6-1.4 7.7-5.7 7.7-10.5v-29.2c0-3.6-1.8-7-4.8-9.1h70.3c6.1 0 11.1-5 11.1-11.1v-29.2c0-6.1-5-11.1-11.1-11.1h-78.3c4.6-1.4 7.7-5.7 7.7-10.5v-29.2c0-3.6-1.8-7-4.8-9.1h75.3c6.1 0 11.1-5 11.1-11.1v-29.2c0-6.1-4.9-11.1-11-11.1h-39.5c4.6-1.5 7.7-5.8 7.7-10.6v-29.2c0-6.1-5-11.1-11.1-11.1h-106.8c-6.1 0-11.1 5-11.1 11.1 0-6.1-5-11.1-11.1-11.1h-106.9c-4.3 0-8.2 2.5-10 6.4.1.7.2 1.5.2 2.2v29.3c0 1.6-.3 3.2-1 4.6.5 2.5 1.9 4.8 3.8 6.4h27.5c2.6 0 5 .9 7 2.5h12c-4.6 1.5-7.7 5.8-7.7 10.6 0-.7-.1-1.4-.3-2.1v29.3c0 .9-.1 1.9-.4 2.8.2.2.3.4.5.6.1-.5.1-.9.1-1.4 0 .6.1 1.3.2 1.9.1.4.2.7.2 1.1.7 2.5 2.2 4.6 4.3 6.1h-9.5l.2-.2c-.9 0-1.8-.1-2.7-.1-.3 0-.6-.1-.9-.2-1 .3-2.1.5-3.2.5l-65.6 2c-3 2.1-4.8 5.5-4.8 9.1v29.2c0 4.8 3.1 9.1 7.7 10.5l62.7.5c1.1 0 2.2.2 3.2.5.7.1 1.4.2 2.1.4h.2c-.6-.3-1.2-.6-1.9-.8h15.4c-4.6 1.4-7.7 5.7-7.7 10.5 0-.6-.1-1.3-.2-1.9-.1.1-.2.2-.2.3.1.7.2 1.4.2 2.1v29.2c0 1.4.2 1 .2-.5 0 3.6 1.8 7 4.8 9.1l39.1 1.2c1.3 0 2.7.2 3.9.7h9.4c-1.7 1.2-3 2.8-3.8 4.7 1 1.7 1.6 3.7 1.6 5.7v29.2c0 1.5-.3 3-.9 4.4 1.4 2.3 3.6 4 6.1 4.9h-10.3c-1.8 1.2-3.9 1.8-6 1.8h-38.8c-3.2 2-5.1 5.5-5.1 9.3 0-3.9-1.5 34.6-1.5 34.6 0 3.5 60.3 5 60.3 5 1.5 0 3.1.3 4.5.9.6-.1 1.3-.2 1.9-.2h9.4c-3 2.1-4.8 5.5-4.8 9.1 0-.5 0-1.1-.1-1.6 0 .1-.1.2-.2.4.2.8.3 1.7.3 2.5v28c0 6.1 5 11.1 11.1 11.1h-17c-1.6.8-3.3 1.3-5.1 1.2h-69.1c-3.7 1.9-6 5.7-6 9.8v29.2c0 6.1 5 11.1 11.1 11.1h106.9c6.1 0 11.1-5 11.1-11.1 0 6.1 5 11.1 11.1 11.1h106.8c6.1 0 11.1-5 11.1-11.1v-29.3c0-6.1-5-11.1-11.1-11.1h86.4c6.1 0 11.1-5 11.1-11.1v-29.2c0-6.1-4.9-11-11-11zm-264.9-198.4c-3 2.1-4.8 5.5-4.8 9.1 0-3.6-1.8-7-4.8-9.1zm-12.4 48.8c4.6-1.4 7.7-5.7 7.7-10.5 0 4.8 3.1 9.1 7.7 10.5zm38.8-100.2c4.6-1.5 7.7-5.8 7.7-10.6 0 4.8 3.1 9.1 7.7 10.6zm34 312.3c0-6.1-5-11.1-11.1-11.1h22.2c-6.1 0-11.1 5-11.1 11.1zm11.7-62.5c3-2.1 4.8-5.5 4.8-9.1 0 3.6 1.8 7 4.8 9.1zm4.8-38.3c0-4.8-3.1-9.1-7.7-10.5h15.5c-4.6 1.4-7.8 5.7-7.8 10.5zm-4.8-61.9c3-2.1 4.8-5.5 4.8-9.1 0 3.6 1.8 7 4.8 9.1zm4.8-38.3c0-4.8-3.1-9.1-7.7-10.5h15.5c-4.6 1.4-7.8 5.7-7.8 10.5zm-4.8-62c3-2.1 4.8-5.5 4.8-9.1 0 3.6 1.8 7 4.8 9.1zm4.8-38.3c0-4.8-3.1-9.1-7.7-10.6h15.5c-4.6 1.5-7.8 5.8-7.8 10.6zm74.8 240.8c-3 2.1-4.8 5.5-4.8 9.1 0-3.6-1.8-7-4.8-9.1zm-15.9 49.4c6.1 0 11.1-5 11.1-11.1 0 6.1 5 11.1 11.1 11.1z"/><path d="m65.4 363.2c0-.5 0-.9-.1-1.4 0 .4.1.9.1 1.4z"/></g><path d="m159.3 51.4h-111.4c-4.9 0-8.8-3.9-8.8-8.8v-33.7c0-4.9 3.9-8.8 8.8-8.8h111.4c4.9 0 8.8 3.9 8.8 8.8v33.7c0 4.8-3.9 8.8-8.7 8.8z" opacity=".1"/><path d="m330.9 101.5h-111.3c-4.9 0-8.8-3.9-8.8-8.8v-33.7c0-4.9 3.9-8.8 8.8-8.8h111.4c4.9 0 8.8 3.9 8.8 8.8v33.7c0 4.9-4 8.8-8.9 8.8z" opacity=".1"/><path d="m120.4 151.6h-111.3c-4.9 0-8.8-3.9-8.8-8.8v-33.7c0-4.9 3.9-8.8 8.8-8.8h111.3c4.9 0 8.8 3.9 8.8 8.8v33.7c.1 4.8-3.8 8.7-8.6 8.8-.1 0-.1 0-.2 0z" opacity=".1"/><path d="m330.9 203h-111.3c-4.9 0-8.8-3.9-8.8-8.8v-33.7c0-4.9 3.9-8.8 8.8-8.8h111.4c4.9 0 8.8 3.9 8.8 8.8v33.7c0 4.9-4 8.8-8.9 8.8z" opacity=".1"/><path d="m330.9 303.2h-111.3c-4.9 0-8.8-3.9-8.8-8.8v-33.7c0-4.9 3.9-8.8 8.8-8.8h111.4c4.9 0 8.8 3.9 8.8 8.8v33.7c0 4.9-4 8.8-8.9 8.8z" opacity=".1"/><path d="m272.8 302h-112.9c-3.6 0-6.7 2.4-7.7 5.8 0 .5 0 .9-.1 1.4-.1.3-.1.5-.2.8v35.3c0 4.5 3.6 8.1 8 8.1h.1 112.9c4.5 0 8.1-3.6 8.1-8 0 0 0 0 0-.1v-35.2c-.1-4.5-3.7-8.1-8.2-8.1z" opacity=".1"/><path d="m185.6 403.5h-111.4c-4.9 0-8.8-3.9-8.8-8.8v-33.7c0-4.9 3.9-8.8 8.8-8.8h111.4c4.9 0 8.8 3.9 8.8 8.8v33.6c0 4.9-3.9 8.9-8.8 8.9z" opacity=".1"/><path d="m380.8 253.1h-111.4c-4.9 0-8.8-3.9-8.8-8.8v-33.7c0-4.9 3.9-8.8 8.8-8.8h111.4c4.9 0 8.8 3.9 8.8 8.8v33.7c0 4.9-3.9 8.8-8.8 8.8z" fill="#f7bf41"/><path d="m375.3 151.8h-111.4c-4.9 0-8.8-3.9-8.8-8.8v-33.7c0-4.9 3.9-8.8 8.8-8.8h111.4c4.9 0 8.8 3.9 8.8 8.8v33.7c.1 4.8-3.8 8.7-8.6 8.8-.1 0-.1 0-.2 0z" fill="#f93ed4"/><path d="m440.1 402.7h-111.4c-4.9 0-8.8-3.9-8.8-8.8v-33.7c0-4.9 3.9-8.8 8.8-8.8h111.4c4.9 0 8.8 3.9 8.8 8.8v33.7c0 4.9-3.9 8.8-8.8 8.8z" fill="#47e2aa"/></svg>