<svg id="Layer_1" data-name="Layer 1" xmlns="http://www.w3.org/2000/svg" viewBox="0 0 448.19 320"><defs><style>.cls-1{fill:#fff;}</style></defs><title>burger-white</title><path class="cls-1" d="M299.05,453.89q-95.73,0-191.44,0c-13.57,0-23.77-6.23-29.53-18.54-5.68-12.13-3.86-23.78,4.61-34.09,6.28-7.64,14.7-11.28,24.58-11.31,16-.06,32,0,48,0q167.19,0,334.39,0c18.56,0,32.84,13.25,33.34,30.81a31.9,31.9,0,0,1-32,33.14c-32.32.13-64.64,0-97,0Z" transform="translate(-74.8 -261.89)"/><path class="cls-1" d="M299.27,517.89q95.48,0,190.94,0c19.08,0,33.44,14.73,32.77,33.37a32.2,32.2,0,0,1-30.08,30.56c-1.16.06-2.33,0-3.5,0q-190.44,0-380.88,0c-18.64,0-32.94-13.14-33.5-30.65a31.86,31.86,0,0,1,31.81-33.3c27.32-.14,54.65,0,82,0Z" transform="translate(-74.8 -261.89)"/><path class="cls-1" d="M298.67,325.89q-95.21,0-190.43,0c-19.34,0-33.67-14.34-33.21-32.95a32.08,32.08,0,0,1,30.13-31c.84,0,1.67-.05,2.5-.05q191.43,0,382.86,0c17.77,0,31.91,13.51,32.46,30.68a31.93,31.93,0,0,1-31.88,33.26c-24.66.15-49.31,0-74,0Z" transform="translate(-74.8 -261.89)"/></svg>