<svg enable-background="new 0 0 949.8 661.5" viewBox="0 0 949.8 661.5" xmlns="http://www.w3.org/2000/svg" xmlns:xlink="http://www.w3.org/1999/xlink"><linearGradient id="a"><stop offset="0" stop-color="#808080" stop-opacity=".25"/><stop offset=".54" stop-color="#808080" stop-opacity=".12"/><stop offset="1" stop-color="#808080" stop-opacity=".1"/></linearGradient><linearGradient id="b" gradientTransform="matrix(1 0 0 -1 -125.1 542.6498)" gradientUnits="userSpaceOnUse" x1="596.6353" x2="596.6353" xlink:href="#a" y1="-1.8689" y2="412.0962"/><linearGradient id="c" gradientTransform="matrix(1 0 0 -1 -125.1 542.6498)" gradientUnits="userSpaceOnUse" x1="277.1814" x2="277.1814" xlink:href="#a" y1="131.9323" y2="132.1522"/><linearGradient id="d" gradientTransform="matrix(1 0 0 -1 -125.1 542.6498)" gradientUnits="userSpaceOnUse" x1="263.5567" x2="263.5567" xlink:href="#a" y1="14.1048" y2="348.067"/><linearGradient id="e" gradientTransform="matrix(1 0 0 -1 -125.1 542.6498)" gradientUnits="userSpaceOnUse" x1="878.6248" x2="878.6248" xlink:href="#a" y1="14.2503" y2="421.2741"/><circle cx="892.9" cy="83.7" fill="#f9c03f" r="46.5"/><path d="m79.4 199.1c19.5 44.1-5.4 94.9-34.7 133.1-9.8 12.8-20.6 26.3-22 42.3-1.6 19.7 11.7 37.8 27.5 49.6 28.8 21.5 68.2 28.2 102.5 17.3 29.6-9.4 54.6-30.6 84.5-39.1 50-14.3 103 9.4 145.8 39 30.3 20.9 62.8 46.4 99.3 41.9 25.7-3.2 47.5-21.2 62.3-42.5 7.2-10.3 13.4-21.8 23.8-28.7 6.2-4.1 13.5-6.3 20.7-7.9 66.4-14.2 136.8 20.4 202.4 2.6 44.2-12 79.5-47 101.5-87.3s32.2-85.7 40.7-130.8c6.1-32 11.1-66.6-2.8-96-14.7-31.2-48.9-50.1-83.2-53.6s-68.7 6.2-100.3 20c-39.5 17.3-78.2 41.4-121.2 41.5-29.3.1-57.3-11.2-85.4-19.8-46.9-14.4-95.7-21.5-144.3-28.1-46.5-6.1-93.5-11.9-140.3-8.2-33.2 2.6-62.4 15.3-94.5 21.1-21 3.8-42 1-62.6 7.4-25.3 7.9-51.4 26.3-52.8 55.2-1.3 27.5 22.7 47.6 33.1 71z" fill="#f9c03f" opacity=".6"/><path d="m612.9 200.7c-4.3-11.1-15.3-37.3-22.5-32.1-9.2 6.6 9.2 35.5 9.2 35.5.5 5.3-9.8 16.4-15.3 21.9 0-.4 0-.7 0-.7-.1.2-.1.4-.2.6l-.5-.2c-.1.4-.3.8-.7 1.2 0-.8 0-1.2 0-1.2-1.1 4.5-19.6 10.2-19.6 10.2s-.5 0-1.4 0c-5.1 0-18.5-1.2-24.7-11.1-3.2-5.4-7.3-10.2-12.1-14.1-1.7-1.3-3.7-2.1-5.8-2.2-17.1-1.1-31-9.8-33.8-11.6l-.5-.4-.1.3c-.7-.9-1.3-1.9-1.9-2.9l-.3-.5c8.5-4.2 13.8-12.9 13.8-22.3 0-.2 0-.4 0-.5 1.5-2.6 2.3-5.6 2.3-8.6v-3l3.9-3.5c1.8-1.6 3.6-3.3 4.5-5.5.4-.9.5-1.8.5-2.8.2-1.7-.5-3.3-1.8-4.3-3-2.1-8 0-10.2-2.9-1-1.3-.8-3.1-1.3-4.6-1-3.1-4.6-4.8-7.9-4.8s-6.5 1.2-9.7 2.1c-6.7 1.9-13.7 2.6-20.7 1.9-1.9-.3-3.8-.3-5.7.2-2.3.9-4 2.9-4.6 5.3-.2.9-.4 1.8-.4 2.7-2.8 3.1-4.3 7.2-4.3 11.4v7.7c0 4.1 1.5 8.1 4.2 11.2.6 7.3 4.5 14 10.5 18.2v.6l.1.1c-.2 2.4-.5 4.7-1.1 7.1v-.5s-14 7.5-29 7.6h-1.7c-3-.1-5.8 1-8 3-4.4 4.2-12.2 10.8-17 10.8-1 0-26.2 4.9-30.4 5.8l-7.8-7.6-.2.5-.5-.5c-.9.1-1.7.2-2.5.4-4-4.7-12-15.8-13.9-30.5 0 0 17.3-19.7 10.9-38-5.4-15.6-20.4 17.9-24.6 28-.7 1.8-.8 3.7-.3 5.5l14 45.2c-1.3 3.5-1.7 7.3-1.1 11h-.2l10.2 13.1s7.7 3.3 19.7 3.2c8.8 0 17.6-1.7 25.7-4.9h2.4l-.5.2h12.2l7.7 23.4c-.3 2.1-4 31.9-7 38.5-.9 2.2-1.3 4.6-1.2 7 .2 4.6.9 9.1 2.2 13.5l6.8-.2-.3.5c-5.7 11.8-15.3 32.7-21 52.3l-9.9 20 7.4 89.7h.3l.6.1c.8.1 2 .3 3.6.5l-.6 1-16.3 27s-11.6 23.8 14.1 19.3c0 0 9.5-2.8 13.4-19l16.9-15.9s.8-10.5-4-14.8c-.3-4.9-1.1-19.1.1-22.5 1.4-4.1-6-51.8-6-51.8s26.8-55.5 43-56.9c1.2-.1 2.4.1 3.5.5 13.3 4.3 29.5 36.6 34.2 46.6l.2.5v.1l.2.4v.1l.2.3v.1l.1.3v.1l.1.2v.1l.1.2v.1l.1.1v.1.1.1l2.1 62.5.2.1h.1l-.2 1.3-.9 6.5s11.6 24.5 10.9 27.6 7.8 15.5 19.7 12.1 4.9-22.9 4.9-22.9l-11.5-23.8-.5-1.1c1.1-.7 2.2-1.5 3.2-2.4 0 0-3.5-25.5 0-31s4.6-30.7 4.6-30.7-2.5-17.2-6.7-24.8l-17.7-63.2c5.3 4.9 9.4 6.9 12.9 6.7h.6c1.5 0 3-.3 4.3-1.1.7-.4 1.4-.9 2-1.4.1-.1.2-.2.3-.3 4.9-4.1-5.6-20.4-11.6-30-5.8-9.3 2.2-34.6 2.8-36.5.5-.4 1.1-.7 1.7-1 1.2-.5 2.6-.8 3.9-.9 5.7.2 12.8 3.5 21.5 5.2 6.1 1 12.2 1.5 18.4 1.4h.4c2.5 0 4.7 0 6.5-.1 1.6-.1 3.2-.5 4.7-1.3 1.2-.7 2.4-1.6 3.3-2.7l15.3-17.3-.4.2c.7-2 .7-4.1 0-6.1l16.2-28c2.1-2.9 2.3-6.3 1.2-9.4z" fill="url(#b)"/><path d="m419.8 505.9-16.3 15.7c-3.7 16-12.9 18.7-12.9 18.7-24.8 4.4-13.6-19-13.6-19l15.8-26.7 1.9-3.3s11.2-3.4 18.7-1.4c.9.3 1.8.7 2.5 1.4 4.7 4.1 3.9 14.6 3.9 14.6z" fill="#444176"/><path d="m520.5 519.9c-11.6 3.4-19.7-8.8-19-11.9s-10.6-27.2-10.6-27.2l.9-6.4.8-5.9 19 1.4 1.8 3.8 11.1 23.5c0-.1 7.5 19.3-4 22.7z" fill="#444176"/><path d="m416 494c-1.8 3.1-16.3 1.5-23.4.6l1.9-3.3s11.2-3.4 18.7-1.4c.9.3 1.8.7 2.5 1.4.3 1.7.3 2.7.3 2.7z" opacity=".1"/><path d="m513.4 473.6c-9.7 6.5-20.1 1.6-21.7.8l.8-5.9 19 1.4z" opacity=".1"/><path d="m527 440.4c-3.4 5.4 0 30.6 0 30.6-11.2 10.2-24.5 2.7-24.5 2.7l-2-61.6s-22.1-50.7-37.8-49.3-41.4 56.2-41.4 56.2 7.1 46.9 5.8 51 0 23.8 0 23.8c-2.4 4.1-27.2 0-27.2 0l-7.1-88.5 9.5-19.7c5.5-19.3 14.7-40 20.2-51.6 2.8-5.8 4.6-9.3 4.6-9.3l18.1-3.8 58.8-12.2 21.1 76.8c4.1 7.5 6.5 24.5 6.5 24.5s-1.2 24.9-4.6 30.4z" fill="#565387"/><g opacity=".1"><path d="m508 473.7-2-61.6s-22.1-50.7-37.8-49.3c-.7.1-1.4.2-2 .5 15.3 5.1 34.4 48.9 34.4 48.9l2 61.6c4.2 2.1 8.9 3 13.5 2.5-2.8-.4-5.6-1.3-8.1-2.6z"/><path d="m405.3 493.8-7.1-88.5 9.5-19.8c5.5-19.3 14.7-40 20.2-51.6 2.8-5.8 4.6-9.3 4.6-9.3l18.1-3.8 53.6-11.1-.3-1.1-58.8 12.2-18.1 3.8s-1.8 3.5-4.6 9.3c-5.6 11.6-14.8 32.3-20.2 51.6l-9.5 19.7 7.1 88.5s13.6 2.2 21.6 1.7c-5.4-.2-10.8-.8-16.1-1.6z"/></g><path d="m363.9 219.8s-19.4 1-16.7 21.4l5.4.7 8.2-8.8 4.1-7.5v-1.7z" fill="#ced2df"/><path d="m363.9 219.8s-19.4 1-16.7 21.4l5.4.7 8.2-8.8 4.1-7.5v-1.7z" opacity=".1"/><path d="m579.6 227.3s16 8.5 11.9 18.4l-5.1 2-6.8-3.7-1-8.8.7-6.1z" fill="#ced2df"/><path d="m579.6 227.3s16 8.5 11.9 18.4l-5.1 2-6.8-3.7-1-8.8.7-6.1z" opacity=".1"/><path d="m452.3 138.7h13.6c11.6 0 21.1 9.4 21.1 21.1 0 11.6-9.4 21.1-21.1 21.1h-13.6c-11.6 0-21.1-9.4-21.1-21.1s9.4-21.1 21.1-21.1z" fill="#88455e"/><g fill="#ec8c9c"><path d="m363.8 222.7-11.9 19-1-3.4-16.2-52.7c-.6-1.8-.5-3.7.2-5.5 4.1-9.9 18.5-43 23.7-27.5 6.1 18-10.5 37.4-10.5 37.4 1.9 15.8 10.8 27.2 14.2 31.1.9 1 1.5 1.6 1.5 1.6z"/><path d="m577 230.8s18.7-17.7 18-24.8c0 0-17.7-28.6-8.8-35 7-5.1 17.6 20.7 21.8 31.6 1.1 3 .8 6.3-.7 9l-22.4 39.6z"/><path d="m444.9 180.7s3.4 21.8-6.5 29.9 28.2 8.1 28.2 8.1l13.6-12.6s-15.7-14.6-10.9-25.5z"/></g><path d="m455.3 206.3s14.6 10.9 29.2-1.4l23.8 49.3-1.4 60.2s-49.3 25.5-69.7 9.9-3.4-23.8-3.4-23.8l-4.8-46.3 5.1-29.9s9.2-14.3 9.9-14.3 11.3-3.7 11.3-3.7z" opacity=".1"/><path d="m455.3 205.7s14.6 10.9 29.3-1.4l23.8 49.3-1.4 60.2s-49.3 25.5-69.7 9.9-3.4-23.8-3.4-23.8l-4.8-46.3 5.1-29.9s9.2-14.3 9.9-14.3 11.2-3.7 11.2-3.7z" fill="#ebf1f6"/><path d="m455.3 200.6s-13.9 7.9-28.9 7.5c-2.9-.1-5.6 1-7.7 2.9-4.3 4.1-11.8 10.6-16.5 10.6-1 0-29.9 5.8-29.9 5.8l-7.6-7.6s-11.4 22.3-16.8 21.3l9.9 12.9s18.7 8.2 43.2-1.7h14.3l7.5 23.1s-3.7 31.3-6.8 38.1 1 20.1 1 20.1l26.9-1s1.4-13.3 3.4-15-7.1-60.2-7.1-60.2-6.1-33 16.3-44.9z" opacity=".1"/><path d="m445.1 321c-1 4-1.7 8.1-2.1 12.3l-20.6.8c2.8-5.8 4.6-9.3 4.6-9.3z" opacity=".1"/><path d="m363.8 222.7-11.9 19-1-3.4c4.4-4.3 9.5-13.4 11.5-17.2.8 1 1.4 1.6 1.4 1.6z" opacity=".1"/><path d="m455.3 200.6s-14.6 7.9-29.6 7.5c-2.9-.1-5.6 1-7.7 2.9-4.3 4.1-11.8 10.6-16.5 10.6-1 0-29.9 5.8-29.9 5.8l-7.7-7.7s-11.4 22.3-16.8 21.3l9.9 12.9s18.7 8.2 43.2-1.7h14.3l7.5 23.1s-3.7 31.3-6.8 38.1 1 20.1 1 20.1l26.9-1s1.4-13.3 3.4-15-7.1-60.2-7.1-60.2-6.1-33 16.3-44.9z" fill="#ced2df"/><path d="m484.5 198.5s13.9 10.6 32.4 11.8c2 .1 4 .9 5.5 2.1 4.7 4 8.6 8.7 11.7 14 7.5 12.2 25.8 10.9 25.8 10.9s17.9-5.6 18.9-10c0 0 .5 24 11.7 18.2l-14.8 17c-1.9 2.2-4.6 3.5-7.5 3.6-5.5.2-15.2.3-23.3-1.3-12.2-2.4-21.1-8.2-27.5-3.1 0 0-8.5 26.5-2.7 36.1 5.8 9.5 16 25.5 11.2 29.6s-10.5 3.7-20.1-6.1c-9.5-9.9-10.5-26.5-10.5-26.5l2.4-42.9s-9.2-32.3-18-38.8z" opacity=".1"/><path d="m592 245.1-14.8 17.1c-1 1.1-2.2 2-3.6 2.7-1.2.5-2.5.9-3.9.9-5.5.2-15.2.3-23.3-1.3-11.5-2.2-19.9-7.4-26.3-3.9-.4.2-.9.5-1.3.9 0 0-8.5 26.5-2.7 36.1 5.8 9.5 16 25.5 11.2 29.6-.8.7-1.7 1.3-2.7 1.7-4.3 1.9-9.6.3-17.4-7.9-9.5-9.9-10.5-26.5-10.5-26.5l2.4-42.9s-9.2-32.3-18-38.8l3.9-14c2.7 1.8 16.1 10.4 32.6 11.5 2 .1 4 .9 5.5 2.1 4.7 4 8.6 8.7 11.7 14 7.5 12.2 25.8 10.9 25.8 10.9 4.4-1.4 8.7-3.1 12.9-5.1 2.6-1.3 4.9-2.7 6-4 .3-.3.5-.8.7-1.2.1 0 .6 23.9 11.8 18.1z" opacity=".1"/><path d="m591.3 245.5-14.8 17.1c-.8.9-1.8 1.7-2.9 2.3-1.4.8-3 1.2-4.5 1.2-5.5.2-15.2.3-23.3-1.3-11-2.1-19.3-7.1-25.6-4.3-.7.3-1.4.7-2 1.2 0 0-8.5 26.5-2.7 36.1 5.8 9.5 16 25.5 11.2 29.6-.6.5-1.3 1-2 1.4-4.4 2.4-9.8 1-18.1-7.5-9.5-9.9-10.5-26.5-10.5-26.5l2.4-42.9s-9.2-32.3-18-38.8l4.1-14.6.5.3c2.7 1.8 16.1 10.4 32.6 11.5 2 .1 4 .9 5.5 2.1 4.7 4 8.6 8.7 11.7 14 7.5 12.2 25.8 10.9 25.8 10.9 4.4-1.4 8.7-3.1 12.9-5.1 3.1-1.6 5.6-3.3 6-4.9v.9c.3 4.1 1.8 22.4 11.7 17.3z" fill="#ced2df"/><path d="m469.7 181.2h-25c.5 4 .7 8 .5 12 7.8 5.5 17.9 6.2 26.4 1.9-2.4-4.4-3.8-9.5-1.9-13.9z" opacity=".1"/><circle cx="459.9" cy="172.5" fill="#ec8c9c" r="24.8"/><path d="m454.8 168.1c2.8-.3 5.5-1.3 8.3-.8 2.5.5 4.6 2.2 7.1 2.7 4.8 1 9.2-2.5 12.8-5.8l7.8-7.1c1.7-1.6 3.5-3.2 4.4-5.4s.6-5-1.3-6.4c-2.8-2-7.8 0-9.8-2.8-.9-1.3-.8-3-1.3-4.5-1-3.1-4.4-4.7-7.7-4.8s-6.3 1.1-9.4 2c-6.5 1.9-13.3 2.5-20 1.9-1.8-.3-3.7-.3-5.5.2-2.2 1-3.9 2.9-4.4 5.3-1.5 5.4 1.1 14.2 3.7 19.1s10 7.1 15.3 6.4z" opacity=".1"/><path d="m454.8 167.4c2.8-.3 5.5-1.3 8.3-.8 2.5.5 4.6 2.2 7.1 2.7 4.8 1 9.2-2.5 12.8-5.8l7.8-7.1c1.7-1.6 3.5-3.2 4.4-5.4s.6-5-1.3-6.4c-2.8-2-7.8 0-9.8-2.8-.9-1.3-.8-3-1.3-4.5-1-3.1-4.4-4.7-7.7-4.8s-6.3 1.1-9.4 2c-6.5 1.9-13.3 2.5-20 1.9-1.8-.3-3.7-.3-5.5.2-2.2 1-3.9 2.9-4.4 5.3-1.5 5.4 1.1 14.2 3.7 19.1s10 7 15.3 6.4z" fill="#88455e"/><path d="m422.4 275.6s5.4.7 8.2 4.1 7.5 4.4 7.5 4.4" opacity=".1"/><path d="m373.4 230.7s4.4 9.9 1.7 10.9-1.7 8.2-1.7 8.2" opacity=".1"/><g opacity=".1"><path d="m375 227.3s28.9-5.8 29.9-5.8c4.7 0 12.2-6.5 16.5-10.6 1.3-1.2 2.9-2.1 4.7-2.6h-.4c-2.9-.1-5.6 1-7.7 2.9-4.3 4.1-11.8 10.6-16.5 10.6-.8 0-19.3 3.7-26.8 5.2z"/><path d="m455.3 202v-1.3c-7 3.5-14.4 5.9-22.2 7.1 7.7-.7 15.2-2.6 22.2-5.8z"/><path d="m419.5 333.4s-4.1-13.3-1-20.1 6.8-38.1 6.8-38.1l-7.5-23.1h-14.3l-.9.3h11.8l7.5 23.1s-3.7 31.3-6.8 38.1 1 20.1 1 20.1l26.9-1v-.2z"/></g><g opacity=".1"><path d="m527 322c-.6.5-1.3 1-2 1.4-4.4 2.4-9.8 1-18.1-7.5-7.6-7.8-9.8-20-10.3-24.6l-.2 3.5s1 16.7 10.5 26.5c8.2 8.5 13.7 9.9 18.1 7.5.7-.4 1.4-.9 2-1.4 1.4-1.2 1.5-3.5.8-6.4-.2.4-.4.7-.8 1z"/><path d="m586.5 246-9.6 11.1c-.8.9-1.8 1.7-2.9 2.3-1.4.8-3 1.2-4.5 1.2-5.5.2-15.2.3-23.3-1.3-11-2.1-19.3-7.1-25.6-4.3-.7.3-1.4.7-2 1.2 0 0-5.5 17.1-4.7 28.8.7-10.9 4.7-23.4 4.7-23.4.6-.5 1.3-.9 2-1.2 6.3-2.8 14.5 2.1 25.6 4.3 8.1 1.6 17.8 1.5 23.3 1.3 1.6-.1 3.1-.5 4.5-1.2 1.1-.6 2.1-1.4 2.9-2.3l14.8-17.1c-1.6 1.1-3.5 1.2-5.2.6z"/></g><path d="m151.6 410.5c.2.2.6.3.9.1-.3 0-.6 0-.9-.1z" fill="url(#c)"/><path d="m253.5 244.8c-1.8-.5-4.4-1.4-7.5-2.5 3.2-4.1 5.6-8.9 6.9-13.9l-.3.1c.1-.3.2-.6.3-.9-5.9 2.4-12.5-1.7-16.7-6.9s-7-11.7-11.6-16.6c-1.9-1.9-4-3.7-6.1-5.3-1.4-1-2.8-2.1-4.5-2.2-2.7-.1-4.8 2.5-7.3 3.3-1.7.4-3.5.3-5.1-.2-6.6-1.5-13-4.3-19.8-5.1-3.6-.4-7.3 0-10.7 1.2-3.4 1.3-5 3.9-7.7 5.9-3 2.2-8.9 2.2-12.4 2.5-4.2.5-8.5.7-12.8.5-2.4-.2-4.9-.1-7.3.3-5.1 1.1-9.1 5.1-12.9 9-1 .9-1.8 2-2.1 3.4v1.1c0 1 .1 2 .5 3 1.2 3.5 2.8 6.8 4.9 9.8 1.6 2.2 3.4 4.3 4.2 6.9.4 1.3.6 2.6.6 4s-.2 2.9-.4 4.3c-.7 3.9-1.8 7.8-3.3 11.5-.9 1.9-1.6 3.9-1.9 6v1.3c-.2 6.6 6.4 11.4 7.7 17.9.1.5.2 1.1.2 1.6-.1 4.1-2.5 8.1-5.9 9.7.3.1.6.2.9.3-.3.2-.6.4-.9.5.6.2 1.3.5 1.9.6-3.9 3.4-7.2 7.5-9.7 12-11.6 21.5-89.9 63.7-89.9 63.7l1.2.7-.9.6c-6.8 4.5-22.7 17.7-8.3 34.3 0 0 11.2-17.7 19.1-25.3.4-.3.7-.6 1-.9.3.5.5 1.2.3 1.8l51.5-29s18.3-12.8 23.4-15.7c3.6-2.2 7.5-3.9 11.6-5l-.6.2c1.9-.5 3.9-.8 5.9-.8 9.1.1 19 6.8 22.2 33.3 4.4 35.4 2.3 41.8.9 42.7-.2 0-.3 0-.5-.1 0 0 .1.1.1.1-.2 0-.4 0-.6-.1.2.2.5.3.8.2.2.1.4 0 .6-.1h.7c0 .3 0 .7-.1 1-.1 0-.4.2 0 .2-.1 2-.1 4.2 0 6.4-4.5.2-9.1.5-13 .8l.4-1.9.2-.8c3.5-.3 6.8-1.3 7.2-4.1.9-6.2-7.7-9.5-14.9-9.9s-50.7 2.5-50.7 2.5-6.5 8.4 14.1 11c.6.3 1.2.7 1.9 1 8.1 4.6 19.1 13.1 24.3 17.3l.7.6-2.4 1.9c12.8 2.9 25.1 51.7 31.9 74s21.7 21.5 34.1 18.2c11.6-3.1 13-36.7 13.2-40.9v-.4l20.6 25.4 1.6 1.9c.6.3 1.2.6 1.8.9 15.6 7.4 32.8-6.8 27.9-23-5-16.3-12.6-40.5-17.8-50.7-4.3-8.5-9.8-22.8-13.2-31.6.4-.2.9-.4 1.3-.6 0 0-.1-.4-.2-1.1l.2-.1s-5-25.7-5.2-44c0-.3 0-.7 0-1 0-.2 0-.4 0-.6 3.7-.9 6.1-1.2 6.1-1.2l.1-.8-.3.1 2.1-23.7s7.6-16.2 1.8-22.9c-1.8-2-3-4.4-3.4-7-1-6.2 0-16.5 13.5-25.1 20.9-13.2 29-24 29-24s.3-7.7-12.5-11.5zm-41.4 16.5v-10.9c3.9-.2 7.8.3 11.7 0 1.9-.1 3.8-.5 5.6-1l.9.6c-5.6 4.4-11.7 8.2-18.2 11.3zm-59.1 171.6c1.5 1.1 3.1 2.2 4.6 3.3.9 5.4 1.8 9.2 1.8 9.5-1.8-4.5-3.9-8.7-6.4-12.8z" fill="url(#d)"/><path d="m186 423.9-.9 4.9-.7 3.7-1.3 6.8-12.2 8.5s-1.1-.9-2.9-2.4c-5-4.1-15.5-12.5-23.3-17-2-1.3-4.1-2.3-6.4-3z" fill="#ffbdc6"/><path d="m186 423.9-.9 4.9c-2.7.1-5.4 0-8.1-.4l-28.5.4c-1.4-.1-2.6-.2-3.8-.3-2-1.3-4.1-2.3-6.4-3z" opacity=".1"/><path d="m177.1 427.6s14.3 2.4 15.1-3.7-7.3-9.3-14.2-9.8-48.5 2.5-48.5 2.5-7.3 9.8 19.1 11.4z" fill="#7679b4"/><path d="m186 423.9-.9 4.9-.7 3.7-1.3 6.8-12.2 8.5s-1.1-.9-2.9-2.4c-5-4.1-15.5-12.5-23.3-17-2-1.3-4.1-2.3-6.4-3z" opacity=".1"/><path d="m186 423.9-.9 4.9c-2.7.1-5.4 0-8.1-.4l-28.5.4c-1.4-.1-2.6-.2-3.8-.3-2-1.3-4.1-2.3-6.4-3z" opacity=".1"/><path d="m177.1 427.6s14.3 2.4 15.1-3.7-7.3-9.3-14.2-9.8-48.5 2.5-48.5 2.5-7.3 9.8 19.1 11.4z" opacity=".1"/><path d="m133.7 226.8h74.5v88.4h-74.5z" fill="#a66477"/><path d="m133.7 226.8h74.5v88.4h-74.5z" opacity=".1"/><g fill="#ffbdc6"><path d="m46.3 378.1c-1.2.3-2.8 1.5-4.5 3.2-7.5 7.4-18.3 24.9-18.3 24.9-13.8-16.4 1.5-29.3 8-33.8 1.6-1.1 2.6-1.7 2.6-1.7z"/><path d="m185.2 254.7s3.7 25.7 16.3 31.8-16.3 17.5-16.3 17.5l-39.5-14.7s22.4-7.3 17.9-28.9z"/><path d="m142.9 409.1-.9 4.9-.7 3.7-1.3 6.8-12.2 8.5s-1.1-.9-2.9-2.4c-5-4.1-15.5-12.5-23.3-17-2-1.3-4.1-2.3-6.4-3z"/></g><path d="m142.9 409.1-.9 4.9c-2.7.1-5.4 0-8.1-.4l-28.5.4c-1.4-.1-2.6-.2-3.8-.3-2-1.3-4.1-2.3-6.4-3z" opacity=".1"/><path d="m133.9 412.7s14.3 2.4 15.1-3.7-7.3-9.4-14.3-9.8-48.5 2.4-48.5 2.4-7.3 9.8 19.1 11.4z" fill="#7679b4"/><path d="m141.3 417.7-1.3 6.8-12.2 8.5s-1.1-.9-2.9-2.4l16.2-13.2z" opacity=".1"/><path d="m221.9 510.9c-.6-.3-1.1-.6-1.7-.9l-1.5-1.9-19.7-25v.4c-.1 4.2-1.5 37.2-12.6 40.3-11.8 3.3-26.1 4.1-32.6-17.9s-18.3-70-30.6-72.9l18.1-14.9s12 14 16.9 27.5c-.2-.9-8.5-39.6-1.6-46.4h59.5s9.2 26.1 15.5 39.1c4.9 10.1 12.2 33.8 17 49.9 4.7 16-11.7 30-26.7 22.7z" fill="#7679b4"/><path d="m220.2 406.6c-9.2 5.4-49.5 3.2-62.6 2.3l-3.6-.3c-.4 0 .1-.2.1-.2l.4-3.7 9.8-24.8 52.3-30.3c-1.1 3.2-1.4 8.1-1.3 13.7.2 18 4.9 43.3 4.9 43.3z" opacity=".1"/><path d="m220.2 405.4c-9.2 5.4-49.5 3.2-62.6 2.3l-3.6-.3h-.6l.6-.2 3.2-.9 6.9-27.7 52.3-30.3c-1.1 3.2-1.4 8.1-1.3 13.7.4 18.1 5.1 43.4 5.1 43.4z" fill="#f2f1f2"/><path d="m215.2 362.1c-10.6 2.5-34.1 9.7-43.1 27-6 11.6-11 16.5-14.6 18.6l-3.6-.3.1-.2 3.2-.9 6.9-27.7 52.3-30.3c-.9 3.3-1.3 8.2-1.2 13.8z" opacity=".1"/><path d="m34.1 370.8 12.2 7.3c-1.2.3-2.8 1.5-4.5 3.2-1-3-7.4-7.1-10.3-8.9 1.5-1 2.6-1.6 2.6-1.6z" opacity=".1"/><path d="m151.9 407.9c-.3.2-.6.1-.9-.1.3.1.6.2.9.1z" opacity=".1"/><path d="m179.5 284.8s-11 1.2-18.7-6.9c0 0-32.6 9.4-43.6 30.5s-85.9 62.7-85.9 62.7 13 7.3 11.8 11l49.3-28.5s17.5-12.6 22.4-15.5 31.8-20.4 37.5 27.3 0 42 0 42 8.1 2.9 20-20 48.5-28.1 48.5-28.1l2-24s7.3-15.9 1.7-22.6c-1.7-2-2.8-4.3-3.3-6.9-.9-6.1 0-16.3 13-24.7 20-13 27.7-23.6 27.7-23.6s.4-7.7-11.8-11.4-61.9-23.6-61.9-23.6l-1.6 6.9 39.1 27.7s-19.5 15.9-35 15.5c-.2 0 2.6 11.8-11.2 12.2z" fill="#565388"/><path d="m187 265.9c-1-3.3-1.7-6.6-2.2-10l-21.6 5.7c.9 4.1.8 8.4-.5 12.5 9 2.4 18.6-.9 24.3-8.2z" opacity=".1"/><circle cx="169.1" cy="250.4" fill="#ffbdc6" r="23.2"/><path d="m181.5 197.6c6.4.7 12.6 3.5 18.9 5 1.6.5 3.3.6 4.9.2 2.5-.8 4.5-3.3 7-3.3 1.6 0 3 1.1 4.3 2.1 2.1 1.6 4 3.3 5.9 5.2 4.4 4.8 7.1 11.1 11.1 16.3s10.3 9.2 16 6.8c-3.9 15-16.5 26.5-30.1 27.4-5.5.4-11-.8-16.3.8-1.3.5-2.7.9-4.1 1-3 0-5.5-2.8-7.4-5.5-4.4-6.4-8-13.6-13-19.4-1.6-1.9-3.6-3.8-5.9-4.1s-4.5.8-6.6 1.8c-3.4 1.8-6.9 3.6-9.6 6.7s-4.3 7.6-3.2 11.7c.6 2.2 2 4.2 2 6.5 0 3.7-3.2 6.4-3.9 10-.1 1.5-.2 3-.2 4.6-.3 4.9-3.5 9-6.9 12.1-1.3 1.2-2.8 2.5-3.1 4.4-.3 1.3 0 2.6-.2 3.9-.5 3.2-3.7 4.8-6.5 5.2-3.3.5-6.7.1-9.8-1.2 4-1.9 6.4-7.2 5.5-12-1.3-6.6-7.9-11.4-7.3-18.1.3-2.1.9-4.1 1.8-6 1.4-3.6 2.5-7.4 3.1-11.3.7-3 .6-6.1-.2-9-.9-2.6-2.6-4.6-4.1-6.8-2-3-3.6-6.2-4.7-9.6-.4-1-.6-2.1-.4-3.2.3-1.3 1-2.4 2-3.3 3.6-3.8 7.5-7.8 12.4-8.9 2.3-.4 4.7-.5 7-.3 4.1.1 8.2 0 12.2-.5 3.3-.4 9-.3 11.8-2.5 2.6-2 4.1-4.5 7.4-5.8 3.1-1 6.7-1.4 10.2-.9z" opacity=".1"/><path d="m194.4 437.4s13.4 26.5 9.4 34.6" opacity=".1"/><path d="m207.8 507.4-19.7-25v.4s-1.1-8.1 2.6-5.4c8.2 5.9 21.4 15.7 21.6 17.4s-2.7 8.4-4.5 12.6z" opacity=".1"/><g opacity=".1"><path d="m190.9 272.6s1.7 6.9-3.7 10.3c8.3-1.4 8.6-7.9 8.4-10.6-1.6.2-3.2.3-4.7.3z"/><path d="m36.1 369.6s74.9-41.5 85.9-62.7c7.9-15.2 26.9-24.3 37-28.2-7.4 2.5-32.2 11.9-41.5 29.9-11 21.2-85.9 62.7-85.9 62.7z"/><path d="m205.5 269.4c12.8-4 24.9-13.9 24.9-13.9l-39.1-27.7.9-3.8-3.7-1.5-1.6 6.9 39.1 27.7c-6.3 5-13.2 9.1-20.5 12.3z"/><path d="m205.7 363.2c5-1.7 10.1-3 15.3-3.9l.1-.8c-5.2 1.2-10.4 2.8-15.4 4.7z"/><path d="m158.3 405.9h-.3c-.3.2-.6.1-.9-.1.3.1.6.1.9.1 1.3-.8 3.4-6.9-.9-42.1-4.5-37.6-22.2-34.6-31.8-30.3 9.9-2.7 23.5-.4 27.3 31.9 4.2 35.2 2.2 41.3.9 42.1 1.7 0 3.4-.6 4.8-1.6z"/><path d="m153.5 407.5c-.3 0-.6 0-.9-.1.3.3.6.3.9.1z"/></g><path d="m181.5 196.8c6.4.7 12.6 3.5 18.9 5 1.6.5 3.3.6 4.9.2 2.5-.8 4.5-3.3 7-3.3 1.6 0 3 1.1 4.3 2.1 2.1 1.6 4 3.3 5.9 5.2 4.4 4.8 7.1 11.1 11.1 16.3s10.3 9.2 16 6.8c-3.9 15-16.5 26.5-30.1 27.4-5.5.4-11-.8-16.3.8-1.3.5-2.7.9-4.1 1-3 0-5.5-2.8-7.4-5.5-4.4-6.4-8-13.6-13-19.4-1.6-1.9-3.6-3.8-5.9-4.1s-4.5.8-6.6 1.8c-3.4 1.8-6.9 3.6-9.6 6.7s-4.3 7.6-3.2 11.7c.6 2.2 2 4.2 2 6.5 0 3.7-3.2 6.4-3.9 10-.1 1.5-.2 3-.2 4.6-.3 4.9-3.5 9-6.9 12.1-1.3 1.2-2.8 2.5-3.1 4.4-.3 1.3 0 2.6-.2 3.9-.5 3.2-3.7 4.8-6.5 5.2-3.3.5-6.7.1-9.8-1.2 4-1.9 6.4-7.2 5.5-12-1.3-6.6-7.9-11.4-7.3-18.1.3-2.1.9-4.1 1.8-6 1.4-3.6 2.5-7.4 3.1-11.3.7-3 .6-6.1-.2-9-.9-2.6-2.6-4.6-4.1-6.8-2-3-3.6-6.2-4.7-9.6-.4-1-.6-2.1-.4-3.2.3-1.3 1-2.4 2-3.3 3.6-3.8 7.5-7.8 12.4-8.9 2.3-.4 4.7-.5 7-.3 4.1.1 8.2 0 12.2-.5 3.3-.4 9-.3 11.8-2.5 2.6-2 4.1-4.5 7.4-5.8 3.1-1 6.7-1.4 10.2-.9z" fill="#a66477"/><path d="m859.5 147.5c0-.1 0-.2 0-.4s0-.3-.1-.4h-.2c0-.3 0-.5 0-.8-.4-9.3-13.2-29-18.4-23.2-4.5 5.1 2.3 17.9 5.8 23.6l.3.5-.2-.1s-14.3 42.7-16 44.3-13.5 35.2-29 39c-3.1.7-5.6 1.4-7.8 2l.2-.6c1-3.3 2.2-6.4 2.7-10s0-8-1.8-9.8c-.9-.9-2-1-2.7-2.4-.5-1.2-.7-2.5-.8-3.9l-1.3-16.2.9-.3c5.6-1.8 11-6 11.6-11.7-.2.1-.4.1-.6.2.1-.3.1-.7.2-1-4.7 1.8-9-3-13.5-5.2-7.4-3.6-15.9-.2-23.5.6-8.7.9-16.9-2.6-25.8-2-4.8.4-10.2 3.6-9.9 8.4.2 2.6 2 4.8 2.8 7.3 1.9 6-2.3 12.1-6.1 17.3-2.5 3.4-4.8 7.5-5.2 11.5-8.6-9-17.9-19.4-19-23.3l-24.9-42.7s-.6.6-1.5 1.6c-.2-.5-.3-1-.5-1.5-3.2-8.9-12.2-30.5-23.6-26.5s4.7 26.1 11.8 34.9l1 1.2c-.6.1-1.2.1-1.8-.1l27.8 47.7s5 9.1 9.7 11.6c0 0 34.5 43.5 34.9 52.2s15.5 31.9 15.5 31.9 5 37.7-3.8 44.3h.1.1.1.1.2.1.1.2.1.2.1c-.4.4-.8.9-1.3 1.4-6.5 7.3-14.9 22.8-3.5 49.3 16.8 39 19.4 54.3 19.4 54.3s-32 1.7-38.3 2.9c-5.6 1.1-27.3 1.9-32.2 2-1.8-2.1-7-6.6-14.1 0-8.8 8.3-15.2 36-15.2 36s-3.4 22.4 8 16.6c0 0 13.5-18.7 17.2-19.5 1.9-.4 3.9-3.2 5.4-5.8h.1c.1 0 .5-.2 1.1-.4 2.8-1.1 10.5-3.8 16.6-2.5 3.3.7 17.6.9 32.6.9-3.4 8.1-9.4 29-9.4 29s-2.5 19.5 5.9 18.7c6-.6 15.2-15.9 20-24.7 3.5-2.5 13.5-11.7 20.8-11l49.7-19.1s11.8-6.6 5.5-28.6c-5-17.5-19.2-53.2-24.8-67.1l-.2-.4c-1.4-3.4-2.2-5.4-2.2-5.4-2.3-6.4-3.8-13-4.5-19.7 0-.5-.1-1.1-.1-1.6.7-.3 1.4-.7 2-1.1 0 0-4.6-46.8 0-51.8l.1-.1v-.1l.1-.1.2-.2.2-.3c.2-.3.5-.7.9-1.2 2.7-3.9 7.6-12.7 6.2-23.2-.1-.5-.1-.9-.2-1.4-.5-2.8-1.5-5.6-2.9-8.1-.2-1.1-.3-2.1-.4-3.2 0-.6 0-1.3 0-2v-.1c0-.2 0-.4 0-.6v-.1c0-.5.1-1 .2-1.4v-.2c0-.2 0-.4.1-.5v-.2c0-.2.1-.4.1-.5v-.2c.1-.2.1-.5.2-.7v-.1c.1-.2.1-.4.2-.6l.1-.2.2-.5.1-.2c.1-.2.2-.4.3-.5l.1-.1c.1-.2.2-.4.4-.6l.1-.2.3-.5.2-.2.3-.4.2-.2c.2-.2.4-.4.6-.6 5.5-5 29.9-41.9 29.9-41.9s5.9-8.3 5.9-13.7c-.2-.3 10.2-35 9.2-45.5zm-65.6 309.7c-.6-5.7-1.2-12.7-1.8-20l9.5 14.8c.1.1-.8 4.6-7.7 5.2z" fill="url(#e)"/><path d="m694.7 454.1s-5.7-9-14.3-.8-14.7 35.4-14.7 35.4-3.3 22 7.7 16.3c0 0 13-18.3 16.7-19.1s7.7-11 7.7-11z" fill="#493545"/><path d="m744.8 475.3s-7.7-3.7-10.2-.8-10.6 31.3-10.6 31.3-2.4 18.7 5.7 17.9 22.4-30.2 22.4-30.2z" fill="#493545"/><path d="m744.8 475.3s-7.7-3.7-10.2-.8-10.6 31.3-10.6 31.3-2.4 18.7 5.7 17.9 22.4-30.2 22.4-30.2z" opacity=".05"/><path d="m782.6 420.7 17.5 27.3s-1.2 6.1-11.8 4.9l-36.2 22.8s-3.2 27.8 6.9 25.2c1.6-.4 13-12.2 21.2-11.4l48.1-18.7s11.4-6.5 5.3-28.1-26.3-71.6-26.3-71.6l-31.9 17.9z" fill="#3e3d77"/><path d="m782.6 420.7 17.5 27.3s-1.2 6.1-11.8 4.9l-36.2 22.8s-3.2 27.8 6.9 25.2c1.6-.4 13-12.2 21.2-11.4l48.1-18.7s11.4-6.5 5.3-28.1-26.3-71.6-26.3-71.6l-31.9 17.9z" opacity=".05"/><path d="m793.6 461c2.4 15.5-11.4 16.7-11.4 16.7s-62.3 1.2-69.7-.4-17.1 2.8-17.1 2.8c-12.6-7.7-2.4-26.9-2.4-26.9s26.1-.8 32.2-2 37.1-2.9 37.1-2.9-2.4-15.1-18.7-53.4c-11.1-26-3-41.3 3.4-48.4 1.6-1.9 3.5-3.5 5.6-4.9l50.1 2.4c-.1 2.5 0 5.1.3 7.6.9 8.6 3.1 17.1 6.7 25-2.8 0-21.2 17.1-21.2 17.1s2.7 51.8 5.1 67.3z" fill="#3e3d77"/><path d="m696.7 454.9s26.1-.8 32.2-2 37.1-2.8 37.1-2.8-2.4-15.1-18.7-53.4c-11.1-26-3-41.3 3.4-48.4 1.6-1.9 3.5-3.5 5.6-4.9l46.4 2.3c0-.5 0-1 0-1.5l-50.1-2.4c-2.1 1.4-4 3-5.6 4.9-6.3 7.1-14.4 22.4-3.4 48.4 16.3 38.2 18.8 53.3 18.8 53.3s-31 1.6-37.1 2.8-32.2 2-32.2 2-10.2 19.2 2.4 26.9c0 0 .4-.2 1-.4-8.4-8.6.2-24.8.2-24.8z" opacity=".1"/><path d="m746 192.2h25.2v63.9h-25.2z" fill="#493545"/><path d="m746 192.2h25.2v63.9h-25.2z" opacity=".1"/><path d="m785.7 182.8c.9.2 1.8.3 2.4 1.5.4 1 .6 2 .6 3l1.6 19.8c0 1.3.3 2.6.7 3.8.7 1.3 1.8 1.5 2.7 2.4 1.8 1.7 2.3 6.1 1.8 9.6s-1.7 6.6-2.6 9.8c-1.4 4.6-2.3 9.8-4.2 13.6s-5.4 6-7.6 2.7-1.9-9.8-2.4-15.2c-.7-9-4.2-16.8-4.5-25.8-.2-7.3 1.8-14.2 3-21.1.9-4.8.9-10.6 2.2-14.9 1.1 5.1 3.1 9.9 6.3 10.8z" fill="#493545"/><path d="m785.7 182.8c.9.2 1.8.3 2.4 1.5.4 1 .6 2 .6 3l1.6 19.8c0 1.3.3 2.6.7 3.8.7 1.3 1.8 1.5 2.7 2.4 1.8 1.7 2.3 6.1 1.8 9.6s-1.7 6.6-2.6 9.8c-1.4 4.6-2.3 9.8-4.2 13.6s-5.4 6-7.6 2.7-1.9-9.8-2.4-15.2c-.7-9-4.2-16.8-4.5-25.8-.2-7.3 1.8-14.2 3-21.1.9-4.8.9-10.6 2.2-14.9 1.1 5.1 3.1 9.9 6.3 10.8z" opacity=".1"/><path d="m667.8 153.9-9.8 8.1s-1.2-1.4-2.9-3.6c-6.8-8.7-22.4-30.4-11.4-34.3s19.8 17.3 22.8 26.1c.9 2.3 1.3 3.7 1.3 3.7z" fill="#c77485"/><path d="m844.2 151.1c-4.1 6.1-9.8 0-9.8 0s-.7-1.1-1.8-2.9c-3.3-5.7-9.9-18.2-5.6-23.2 5-5.7 17.4 13.7 17.8 22.8.1 1.1-.1 2.3-.6 3.3z" fill="#c77485"/><path d="m754.9 217.8s8.2 26.1 5.7 33.8 17.5 16.7 17.5 16.7h22.9s8.2-16.7 6.1-21.6-19.5-8.5-19.5-8.5-10.2 0-9.8-27.3z" fill="#c77485"/><path d="m667.8 153.9-9.8 8.1s-1.2-1.4-2.9-3.6c3.5-.6 9.1-5.8 11.5-8.2.8 2.3 1.2 3.7 1.2 3.7z" opacity=".1"/><path d="m844.2 151.1c-4.1 6.1-9.8 0-9.8 0s-.7-1.1-1.8-2.9l.1-.4c2.6 1.9 10.8.3 12.1 0 .1 1.1-.1 2.3-.6 3.3z" opacity=".1"/><path d="m802.9 351.7c-12.6 5.8-53.5-4.5-56-5.1 1.6-1.9 3.5-3.5 5.6-4.9l50.1 2.4c-.1 2.5 0 5.1.3 7.6z" opacity=".1"/><path d="m760.2 240.2s-9.8 3.3-23.6-9.4c0 0-31-30.5-33-37.9l-24-42s-10.2 11-14.3 9.4l26.9 46.8s4.9 9 9.4 11.4c0 0 33.4 42.8 33.8 51.3s15 31.5 15 31.5 4.9 37.1-3.7 43.6c0 0 47.7 12.2 57.8 4.1 0 0-4.5-46 0-50.9 0 0 13.8-16.3 4.5-34.2 0 0-2-9.8 3.3-14.7s28.9-41.1 28.9-41.1 5.7-8.1 5.7-13.4c0 0 10.6-35.8 9-45.2 0 0-9.4 2-12.2 0 0 0-13.8 42-15.5 43.6s-13 34.6-28.1 38.3-17.5 5.3-17.5 5.3 29.3 18.3 15.1 26.5c-14.2 8-37.5-23-37.5-23z" fill="#ffaac4"/><path d="m778.8 224.1c-.5-3.8-.7-7.7-.6-11.6l-22.8 6.9c.6 1.5 1.1 3.1 1.4 4.7 2.6 1.1 6.1 3.9 9.2 3.9 4.5.2 9-1.2 12.8-3.9z" opacity=".1"/><circle cx="765.5" cy="205.6" fill="#c77485" r="21.2"/><path d="m740.3 173c-4.7.4-9.9 3.6-9.6 8.2.1 2.6 1.9 4.7 2.7 7.2 1.8 6-2.3 11.9-5.9 17s-7 11.8-3.9 17.2c.9 1.3 1.8 2.5 2.9 3.7 3.8 5.2 3.8 12.1 5.5 18.4 4.5 16.5 21.1 26.6 37.8 23-3-3.9-4.5-8.7-4.2-13.6.2-3.6 1.4-7.3 0-10.6-1.8-4.2-7-5.9-9.7-9.6s-2.5-8.8-1.2-13.2 3.5-8.5 4.6-13c.3-1.3.6-2.6 1-3.9 1.9-5.3 7.5-8.4 13-9.8s11.3-1.4 16.7-3.2 10.6-5.9 11.2-11.5c-4.5 1.8-8.7-2.9-13.1-5.1-7.2-3.6-15.4-.2-22.8.6-8.4 1.1-16.4-2.4-25-1.8z" opacity=".1"/><path d="m739.9 172.2c-4.7.4-9.9 3.6-9.6 8.2.1 2.6 1.9 4.7 2.7 7.2 1.8 6-2.3 11.9-5.9 17s-7 11.8-3.9 17.2c.9 1.3 1.8 2.5 2.9 3.7 3.8 5.2 3.8 12.1 5.5 18.4 4.5 16.5 21.1 26.6 37.8 23-3-3.9-4.5-8.7-4.2-13.6.2-3.6 1.4-7.3 0-10.6-1.8-4.2-7-5.9-9.7-9.6s-2.5-8.8-1.2-13.2 3.5-8.5 4.6-13c.3-1.3.6-2.6 1-3.9 1.9-5.3 7.5-8.4 13-9.8s11.3-1.4 16.7-3.2 10.6-5.9 11.2-11.5c-4.5 1.8-8.7-2.9-13.1-5.1-7.2-3.6-15.4-.2-22.8.6-8.4 1-16.4-2.5-25-1.8z" fill="#493545"/><path d="m786.5 252.7s8.5 7.6 10.2 10.9" opacity=".1"/><path d="m804.9 297.9s-10.6 0-15.5 1.2-16.7 0-16.7 0" opacity=".1"/><g opacity=".1"><path d="m797.7 263.1c-.9.5-1.9.9-2.9 1.1 2.7.6 5.4.2 7.8-1.1 14.3-8.1-15.1-26.5-15.1-26.5h-4.9s29.4 18.3 15.1 26.5z"/><path d="m856.1 150.2c0-.3-.1-.5-.1-.7-1.7.3-3.4.6-5.1.8 1.7.1 3.4.1 5.2-.1z"/><path d="m751.7 344.9c8.5-6.5 3.7-43.6 3.7-43.6s-14.7-22.8-15.1-31.4-33.8-51.3-33.8-51.3c-4.5-2.4-9.4-11.4-9.4-11.4s-27.7-45.2-31.8-46.8l26.9 46.8s4.9 9 9.4 11.4c0 0 33.4 42.8 33.8 51.3s15.1 31.4 15.1 31.4 4.9 37.1-3.7 43.6c0 0 29.3 7.5 46.8 6.8-17.6-.5-41.9-6.8-41.9-6.8z"/><path d="m760.5 240.6-.2-.3c-.3.1-.6.1-.8.2.3 0 .6 0 1 .1z"/></g><g opacity=".1"><path d="m856 149.4-.2.1c-.4 12.5-9.1 41.9-9.1 41.9 0 5.3-5.7 13.4-5.7 13.4s-23.7 36.2-29 41.1-3.3 14.7-3.3 14.7v.1c-.2-3.3.2-8.4 3.6-11.5 5.3-4.9 28.9-41.1 28.9-41.1s5.7-8.1 5.7-13.4c.1-.1 10.7-35.9 9.1-45.3z"/><path d="m804.2 294.8c.6 3.5.2-.2.4 3.3 0 0 10-11.7 7.3-26.2.8 12.9-7.7 22.9-7.7 22.9z"/></g><ellipse cx="469.8" cy="620.4" fill="#f9c03f" opacity=".6" rx="427.7" ry="41.1"/><path d="m315 579.6s-14.6-49.5 2.7-85.8c7.4-15.2 9.6-32.4 6.3-49-1.6-7.9-3.9-15.6-6.9-23" fill="none" stroke="#535461" stroke-miterlimit="10" stroke-width="2"/><g fill="#f9c03f"><path d="m327.9 398.8c0 6.1-11 23.6-11 23.6s-11-17.6-11-23.6c-.4-6.1 4.1-11.3 10.2-11.8s11.3 4.1 11.8 10.2z"/><path d="m346 432.3c-3.3 5.1-22 13.9-22 13.9s.3-20.7 3.6-25.8c2.9-5.3 9.6-7.2 14.9-4.3s7.2 9.6 4.3 14.9c-.2.5-.5.9-.8 1.3z"/><path d="m334.2 488.9c-5.4 2.7-26 .8-26 .8s10.8-17.7 16.2-20.4c5.2-3.1 12-1.4 15.1 3.8s1.4 12-3.8 15.1c-.5.2-.9.5-1.5.7z"/><path d="m323.9 532.1c-4.9 3.6-25.5 5.2-25.5 5.2s7.6-19.3 12.5-22.9c5.2-3.2 12-1.5 15.1 3.7 2.7 4.6 1.8 10.5-2.1 14z"/><path d="m300.9 447.4c4.4 4.2 24.6 8.6 24.6 8.6s-5-20.1-9.3-24.3c-4-4.5-11-4.9-15.5-.9s-4.9 11-.9 15.5c.3.4.7.7 1.1 1.1z"/><path d="m278.4 497.3c5.4 2.7 26 .8 26 .8s-10.7-17.7-16.1-20.4c-5.6-2.3-12 .3-14.4 5.9-2.1 5.1-.1 10.9 4.5 13.7z"/><path d="m274 548.2c4.9 3.6 25.5 5.2 25.5 5.2s-7.6-19.3-12.5-22.9c-4.6-4-11.5-3.6-15.5 1s-3.6 11.5 1 15.5c.5.4 1 .8 1.5 1.2z"/><path d="m327.9 398.8c0 6.1-11 23.6-11 23.6s-11-17.6-11-23.6c-.4-6.1 4.1-11.3 10.2-11.8s11.3 4.1 11.8 10.2z" opacity=".1"/><path d="m346 432.3c-3.3 5.1-22 13.9-22 13.9s.3-20.7 3.6-25.8c2.9-5.3 9.6-7.2 14.9-4.3s7.2 9.6 4.3 14.9c-.2.5-.5.9-.8 1.3z" opacity=".1"/><path d="m334.2 488.9c-5.4 2.7-26 .8-26 .8s10.8-17.7 16.2-20.4c5.2-3.1 12-1.4 15.1 3.8s1.4 12-3.8 15.1c-.5.2-.9.5-1.5.7z" opacity=".1"/><path d="m323.9 532.1c-4.9 3.6-25.5 5.2-25.5 5.2s7.6-19.3 12.5-22.9c5.2-3.2 12-1.5 15.1 3.7 2.7 4.6 1.8 10.5-2.1 14z" opacity=".1"/><path d="m300.9 447.4c4.4 4.2 24.6 8.6 24.6 8.6s-5-20.1-9.3-24.3c-4-4.5-11-4.9-15.5-.9s-4.9 11-.9 15.5c.3.4.7.7 1.1 1.1z" opacity=".1"/><path d="m278.4 497.3c5.4 2.7 26 .8 26 .8s-10.7-17.7-16.1-20.4c-5.6-2.3-12 .3-14.4 5.9-2.1 5.1-.1 10.9 4.5 13.7z" opacity=".1"/><path d="m274 548.2c4.9 3.6 25.5 5.2 25.5 5.2s-7.6-19.3-12.5-22.9c-4.6-4-11.5-3.6-15.5 1s-3.6 11.5 1 15.5c.5.4 1 .8 1.5 1.2z" opacity=".1"/></g><path d="m609.6 580.3s-14.6-49.5 2.7-85.8c7.4-15.2 9.6-32.4 6.3-49-1.6-7.9-3.9-15.6-6.9-23" fill="none" stroke="#535461" stroke-miterlimit="10" stroke-width="2"/><g fill="#f9c03f"><path d="m622.5 399.5c0 6.1-11 23.6-11 23.6s-11-17.6-11-23.6c.4-6.1 5.7-10.6 11.8-10.2 5.4.4 9.7 4.7 10.2 10.2z"/><path d="m640.6 433c-3.3 5.1-22 13.9-22 13.9s.3-20.7 3.6-25.8c2.9-5.3 9.6-7.2 14.9-4.3s7.2 9.6 4.3 14.9c-.2.5-.4.9-.8 1.3z"/><path d="m628.9 489.6c-5.4 2.7-26 .8-26 .8s10.8-17.7 16.2-20.4c5.2-3.1 12-1.5 15.1 3.7s1.5 12-3.7 15.1c-.5.3-1.1.6-1.6.8z"/><path d="m618.5 532.8c-4.9 3.6-25.5 5.2-25.5 5.2s7.6-19.3 12.5-22.9c5.2-3.2 12-1.5 15.1 3.7 2.7 4.6 1.8 10.5-2.1 14z"/><path d="m595.5 448.1c4.3 4.2 24.6 8.6 24.6 8.6s-5-20.1-9.3-24.3c-4-4.5-11-4.9-15.5-.9s-4.9 11-.9 15.5c.4.4.7.7 1.1 1.1z"/><path d="m573.1 498c5.4 2.7 26 .8 26 .8s-10.8-17.7-16.2-20.4c-5.6-2.3-12 .3-14.4 5.9-2.1 5.1-.1 10.9 4.6 13.7z"/><path d="m568.7 548.9c4.9 3.6 25.5 5.2 25.5 5.2s-7.6-19.3-12.5-22.9c-5.2-3.2-12-1.5-15.1 3.7-2.7 4.6-1.9 10.4 2.1 14z"/><path d="m622.5 399.5c0 6.1-11 23.6-11 23.6s-11-17.6-11-23.6c.4-6.1 5.7-10.6 11.8-10.2 5.4.4 9.7 4.7 10.2 10.2z" opacity=".1"/><path d="m640.6 433c-3.3 5.1-22 13.9-22 13.9s.3-20.7 3.6-25.8c2.9-5.3 9.6-7.2 14.9-4.3s7.2 9.6 4.3 14.9c-.2.5-.4.9-.8 1.3z" opacity=".1"/><path d="m628.9 489.6c-5.4 2.7-26 .8-26 .8s10.8-17.7 16.2-20.4c5.2-3.1 12-1.5 15.1 3.7s1.5 12-3.7 15.1c-.5.3-1.1.6-1.6.8z" opacity=".1"/><path d="m618.5 532.8c-4.9 3.6-25.5 5.2-25.5 5.2s7.6-19.3 12.5-22.9c5.2-3.2 12-1.5 15.1 3.7 2.7 4.6 1.8 10.5-2.1 14z" opacity=".1"/><path d="m595.5 448.1c4.3 4.2 24.6 8.6 24.6 8.6s-5-20.1-9.3-24.3c-4-4.5-11-4.9-15.5-.9s-4.9 11-.9 15.5c.4.4.7.7 1.1 1.1z" opacity=".1"/><path d="m573.1 498c5.4 2.7 26 .8 26 .8s-10.8-17.7-16.2-20.4c-5.6-2.3-12 .3-14.4 5.9-2.1 5.1-.1 10.9 4.6 13.7z" opacity=".1"/><path d="m568.7 548.9c4.9 3.6 25.5 5.2 25.5 5.2s-7.6-19.3-12.5-22.9c-5.2-3.2-12-1.5-15.1 3.7-2.7 4.6-1.9 10.4 2.1 14z" opacity=".1"/></g><path d="m669.9 15.3h-6.3c2.4.1 4.5-1.8 4.6-4.2s-1.8-4.5-4.2-4.6c-.1 0-.3 0-.4 0h-50.9c-2.4.1-4.3 2.2-4.2 4.6.1 2.3 1.9 4.1 4.2 4.2h6.3c-2.4.1-4.3 2.2-4.2 4.6.1 2.3 1.9 4.1 4.2 4.2h-8.8c-2.4-.1-4.5 1.8-4.6 4.2s1.8 4.5 4.2 4.6h.4 50.9c2.4.1 4.5-1.8 4.6-4.2s-1.8-4.5-4.2-4.6c-.1 0-.3 0-.4 0h8.8c2.4-.1 4.3-2.2 4.2-4.6-.1-2.3-1.9-4.1-4.2-4.2z" fill="#dee3f3" opacity=".5"/><path d="m375.7 40.9h-4.8c1.8.1 3.4-1.3 3.5-3.2.1-1.8-1.3-3.4-3.2-3.5-.1 0-.2 0-.4 0h-38.7c-1.8.1-3.3 1.7-3.2 3.5.1 1.7 1.5 3.1 3.2 3.2h4.8c-1.8-.1-3.4 1.3-3.5 3.2-.1 1.8 1.3 3.4 3.2 3.5h.4-6.7c-1.8-.1-3.4 1.3-3.5 3.2-.1 1.8 1.3 3.4 3.2 3.5h.4 38.6c1.8.1 3.4-1.3 3.5-3.2.1-1.8-1.3-3.4-3.2-3.5-.1 0-.2 0-.4 0h6.7c1.8-.1 3.3-1.7 3.2-3.5-.1-1.7-1.4-3.1-3.1-3.2z" fill="#dee3f3" opacity=".5"/><path d="m50.7 514.8s17.5 34.3 3.2 53.1 1.3 70 1.3 70" fill="none" stroke="#f9c03f" stroke-miterlimit="10"/><path d="m55.9 504c0 6.6-4.9 12-4.9 12s-4.9-5.4-4.9-12 4.9-12 4.9-12 4.9 5.4 4.9 12z" fill="#f9c03f"/><path d="m59.8 514.8s-17.5 34.3-3.2 53.1-1.3 70-1.3 70" fill="none" stroke="#f9c03f" stroke-miterlimit="10"/><path d="m54.6 504c0 6.6 4.9 12 4.9 12s4.9-5.4 4.9-12-4.9-12-4.9-12-4.9 5.4-4.9 12z" fill="#f9c03f"/><path d="m54.6 504c0 6.6 4.9 12 4.9 12s4.9-5.4 4.9-12-4.9-12-4.9-12-4.9 5.4-4.9 12z" opacity=".1"/><path d="m66.9 514.8s17.5 34.3 3.2 53.1 1.3 70 1.3 70" fill="none" stroke="#f9c03f" stroke-miterlimit="10"/><g fill="#f9c03f"><path d="m72.1 504c0 6.6-4.9 12-4.9 12s-4.9-5.4-4.9-12 4.9-12 4.9-12 4.9 5.4 4.9 12z"/><path d="m69.3 531.5c-4.6 4.8-11.8 5.3-11.8 5.3s.2-7.2 4.8-12 11.8-5.3 11.8-5.3-.2 7.3-4.8 12z"/><path d="m69.8 555.2c-4.6 4.8-11.8 5.3-11.8 5.3s.2-7.2 4.8-12 11.8-5.3 11.8-5.3-.2 7.3-4.8 12z"/><path d="m44.9 568.3c4.3 5 4.2 12.2 4.2 12.2s-7.2-.9-11.5-5.9-4.2-12.2-4.2-12.2 7.2.9 11.5 5.9z"/><path d="m48.9 517.8c5.5 3.7 7.3 10.7 7.3 10.7s-7.2 1.1-12.7-2.6-7.3-10.7-7.3-10.7 7.2-1.1 12.7 2.6z"/></g><path d="m48.9 517.8c5.5 3.7 7.3 10.7 7.3 10.7s-7.2 1.1-12.7-2.6-7.3-10.7-7.3-10.7 7.2-1.1 12.7 2.6z" opacity=".1"/><path d="m76 514.8s-17.5 34.3-3.2 53.1-1.3 70-1.3 70" fill="none" stroke="#f9c03f" stroke-miterlimit="10"/><path d="m70.8 504c0 6.6 4.9 12 4.9 12s4.9-5.4 4.9-12-4.9-12-4.9-12-4.9 5.4-4.9 12z" fill="#f9c03f"/><path d="m70.8 504c0 6.6 4.9 12 4.9 12s4.9-5.4 4.9-12-4.9-12-4.9-12-4.9 5.4-4.9 12z" opacity=".1"/><path d="m72.2 532c-4.6 4.7-5 12-5 12s7.2-.4 11.9-5.1 5-12 5-12-7.3.4-11.9 5.1z" fill="#f9c03f"/><path d="m72.2 532c-4.6 4.7-5 12-5 12s7.2-.4 11.9-5.1 5-12 5-12-7.3.4-11.9 5.1z" opacity=".1"/><path d="m81.3 564.9c-4.6 4.7-5 12-5 12s7.2-.4 11.9-5.1 5-12 5-12-7.3.3-11.9 5.1z" fill="#f9c03f"/><path d="m67.9 557.7s10.5-16.6 25.3-17" fill="none" stroke="#f9c03f" stroke-miterlimit="10"/><path d="m59.7 547.6s-10.5-16.6-25.3-17" fill="none" stroke="#f9c03f" stroke-miterlimit="10"/><path d="m58.3 571.3s10.5-16.6 25.3-17" fill="none" stroke="#f9c03f" stroke-miterlimit="10"/><circle cx="92.7" cy="540.6" fill="#f9c03f" r="2.7"/><circle cx="34.6" cy="530.8" fill="#f9c03f" r="2.7"/><path d="m66 576.8s-10.5-16.6-25.3-17" fill="none" stroke="#f9c03f" stroke-miterlimit="10"/><circle cx="41" cy="559.9" fill="#f9c03f" r="2.7"/><circle cx="83.8" cy="554.5" fill="#f9c03f" r="2.7"/><path d="m124.3 617.9s-25.4-5.1-32.2-11.9-37.2-18.6-40.6-10.1-45.7 37.2-16.9 42.3 67.7 6.8 76.1 3.4 13.6-23.7 13.6-23.7z" fill="#a8a8a8"/><path d="m34.6 635.1c28.8 5.1 67.7 6.8 76.1 3.4 6.4-2.6 10.9-15 12.7-20.7l.9.2s-5.1 20.3-13.5 23.7-47.4 1.7-76.2-3.4c-8.3-1.5-10.7-4.9-9.8-9.3.7 2.8 3.6 5 9.8 6.1z" opacity=".2"/><path d="m894.8 522.5s8.4 11-3.9 27.5-22.3 30.5-18.3 40.8c0 0 18.5-30.7 33.5-31.2 15.2-.3 5.3-18.6-11.3-37.1z" fill="#f9c03f"/><path d="m894.8 522.5c.7 1.1 1.3 2.2 1.7 3.4 14.7 17.2 22.5 33.3 8.4 33.7-13.1.4-28.9 23.9-32.7 29.8.1.5.3.9.5 1.3 0 0 18.5-30.7 33.5-31.2s5.2-18.5-11.4-37z" opacity=".1"/><path d="m910.4 536.5c0 3.9-.4 7-1 7s-1-3.1-1-7 .5-2 1.1-2 .9-1.8.9 2z" fill="#ffd037"/><path d="m915.8 541.1c-3.4 1.8-6.3 3-6.6 2.5s2.3-2.3 5.7-4.2 2.1-.5 2.3 0 1.9-.1-1.4 1.7z" fill="#ffd037"/><path d="m850.6 522.5s-8.4 11 3.9 27.5 22.3 30.5 18.3 40.8c0 0-18.5-30.7-33.5-31.2s-5.3-18.6 11.3-37.1z" fill="#f9c03f"/><path d="m850.6 522.5c-.7 1.1-1.3 2.2-1.7 3.4-14.7 17.2-22.5 33.3-8.4 33.7 13.1.4 28.9 23.9 32.7 29.8-.1.5-.3.9-.5 1.3 0 0-18.5-30.7-33.5-31.2s-5.2-18.5 11.4-37z" opacity=".1"/><path d="m835 536.5c0 3.9.4 7 1 7s1-3.1 1-7-.5-2-1.1-2-.9-1.8-.9 2z" fill="#ffd037"/><path d="m829.6 541.1c3.4 1.8 6.3 3 6.6 2.5s-2.3-2.3-5.7-4.2-2-.5-2.3 0-2-.1 1.4 1.7z" fill="#ffd037"/><path d="m837.7 589.4s23.4-.7 30.5-5.8 36-11 37.8-3 35.2 40.1 8.8 40.3-61.5-4.1-68.5-8.4-8.6-23.1-8.6-23.1z" fill="#a8a8a8"/><path d="m915.2 618.2c-26.5.2-61.5-4.1-68.5-8.4-5.4-3.3-7.5-15-8.2-20.4h-.8s1.5 18.9 8.5 23.2 42.1 8.6 68.5 8.4c7.6-.1 10.3-2.8 10.1-6.8-1 2.5-3.9 4-9.6 4z" opacity=".2"/><path d="m177.8 74.6h-6.3c2.4.1 4.5-1.8 4.6-4.2s-1.8-4.5-4.2-4.6c-.1 0-.3 0-.4 0h-50.9c-2.4.1-4.3 2.2-4.2 4.6.1 2.3 1.9 4.1 4.2 4.2h6.3c-2.4.1-4.3 2.2-4.2 4.6.1 2.3 1.9 4.1 4.2 4.2h-8.8c-2.4.1-4.3 2.2-4.2 4.6.1 2.3 1.9 4.1 4.2 4.2h50.9c2.4.1 4.5-1.8 4.6-4.2s-1.8-4.5-4.2-4.6c-.1 0-.3 0-.4 0h8.8c2.4-.1 4.3-2.2 4.2-4.6-.1-2.2-1.9-4.1-4.2-4.2z" fill="#dee3f3" opacity=".5"/></svg>