<svg viewBox="0 0 2920.32 492.54" xmlns="http://www.w3.org/2000/svg" xmlns:xlink="http://www.w3.org/1999/xlink"><linearGradient id="a" gradientTransform="matrix(1 0 0 -1 -24.19 713.84)" gradientUnits="userSpaceOnUse" x1="465.73" x2="465.73" y1="37.74" y2="530.28"><stop offset="0" stop-color="#808080" stop-opacity=".25"/><stop offset=".54" stop-color="#808080" stop-opacity=".12"/><stop offset="1" stop-color="#808080" stop-opacity=".1"/></linearGradient><ellipse cx="2364.95" cy="409.73" fill="#dee3f3" opacity=".5" rx="256" ry="43.38"/><g transform="translate(2165.73 -183.56)"><path d="m-161.23 348.48s38.4 75.4 7.1 116.6 2.8 153.6 2.8 153.6" fill="none" stroke="#fc6681" stroke-miterlimit="10" stroke-width="2"/><path d="m-150.18 333.21c0 14.5-10.6 26.3-10.6 26.3s-10.7-11.8-10.7-26.3 10.7-26.3 10.7-26.3 10.6 11.9 10.6 26.3z" fill="#fc6681"/><path d="m-141.33 348.48s-38.4 75.4-7.1 116.6-2.8 153.6-2.8 153.6" fill="none" stroke="#ffd037" stroke-miterlimit="10" stroke-width="2"/><path d="m-153 333.21c0 14.5 10.7 26.3 10.7 26.3s10.7-11.8 10.7-26.3-10.7-26.3-10.7-26.3-10.7 11.9-10.7 26.3z" fill="#ffd037"/><path d="m-125.63 348.48s38.4 75.4 7.1 116.6 2.8 153.6 2.8 153.6" fill="none" stroke="#fc6681" stroke-miterlimit="10" stroke-width="2"/><g fill="#fc6681"><path d="m-114.58 333.21c0 14.5-10.7 26.3-10.7 26.3s-10.7-11.8-10.7-26.3 10.7-26.3 10.7-26.3 10.7 11.9 10.7 26.3z"/><path d="m-120.58 393.61c-10.1 10.5-25.9 11.6-25.9 11.6s.5-15.9 10.5-26.4 25.9-11.6 25.9-11.6-.5 16-10.5 26.4z"/><path d="m-119.58 445.61c-10.1 10.5-25.9 11.6-25.9 11.6s.5-15.9 10.5-26.4 25.9-11.6 25.9-11.6-.5 16-10.5 26.4z"/><path d="m-174.18 474.31c9.5 11 9.2 26.9 9.2 26.9s-15.8-1.9-25.3-12.9-9.2-26.9-9.2-26.9 15.7 1.9 25.3 12.9z"/><path d="m-165.38 363.41c12.1 8 16 23.4 16 23.4s-15.7 2.4-27.8-5.6-16-23.4-16-23.4 15.7-2.5 27.8 5.6z"/></g><path d="m-105.73 348.48s-38.4 75.4-7.1 116.6-2.9 153.6-2.9 153.6" fill="none" stroke="#ffd037" stroke-miterlimit="10" stroke-width="2"/><g fill="#ffd037"><path d="m-117.48 333.21c0 14.5 10.6 26.3 10.6 26.3s10.7-11.8 10.7-26.3-10.7-26.3-10.7-26.3-10.6 11.9-10.6 26.3z"/><path d="m-114.38 394.81c-10.2 10.4-10.9 26.2-10.9 26.2s15.9-.9 26.1-11.2 10.9-26.2 10.9-26.2-15.9.8-26.1 11.2z"/><path d="m-94.38 466.81c-10.2 10.3-10.9 26.2-10.9 26.2s15.9-.9 26.1-11.2 10.9-26.2 10.9-26.2-15.9.8-26.1 11.2z"/></g><g fill="none" stroke-miterlimit="10" stroke-width="2"><path d="m-123.78 450.91s23.1-36.4 55.6-37.2" stroke="#ffd037"/><path d="m-141.78 428.91s-23.1-36.4-55.6-37.2" stroke="#fc6681"/><path d="m-144.78 480.91s23.1-36.4 55.6-37.2" stroke="#ffd037"/></g></g><circle cx="2096.45" cy="229.85" fill="#ffd037" r="6"/><circle cx="1968.95" cy="208.35" fill="#fc6681" r="6"/><path d="m-127.78 492.91s-23.1-36.4-55.6-37.2" fill="none" stroke="#fc6681" stroke-miterlimit="10" stroke-width="2" transform="translate(2165.73 -183.56)"/><circle cx="1982.95" cy="272.35" fill="#fc6681" r="6"/><circle cx="2076.95" cy="260.35" fill="#ffd037" r="6"/><g transform="translate(2165.73 -183.56)"><path d="m.27 574.88s-55.7-11.1-70.6-26-81.7-40.8-89.1-22.3-100.3 81.7-37.1 92.9 148.5 14.8 167.1 7.4 29.7-52 29.7-52z" fill="#a8a8a8"/><path d="m-196.6 613.55c63.1 11.1 148.5 14.8 167.1 7.4 14.1-5.7 24-32.8 27.9-45.5l1.9.4s-11.1 44.6-29.7 52-104 3.7-167.1-7.4c-18.3-3.2-23.5-10.7-21.6-20.3 1.6 6.2 8 11 21.5 13.4z" opacity=".2"/><path d="m71.81 448.37s13.3 17.5-6.2 43.8-35.6 48.6-29.1 65c0 0 29.4-48.9 53.4-49.6s8.2-29.7-18.1-59.2z" fill="#fc6681"/><path d="m71.81 448.37a18.78 18.78 0 0 1 2.7 5.5c23.4 27.5 35.8 53.1 13.4 53.7-20.9.6-46 38-52 47.5.2.7.4 1.4.7 2.2 0 0 29.4-48.9 53.4-49.6s8.1-29.8-18.2-59.3z" opacity=".1"/><path d="m80.7 453.45c0 6.1-.7 11.1-1.5 11.1s-1.5-5-1.5-11.1.9-3.2 1.7-3.2 1.3-3 1.3 3.2z" fill="#ffd037"/><path d="m89.2 460.75c-5.4 2.9-10.1 4.7-10.5 4s3.6-3.7 9-6.7 3.3-.8 3.7 0 3.2-.2-2.2 2.7z" fill="#ffd037"/><path d="m1.31 448.37s-13.3 17.5 6.2 43.8 35.6 48.6 29.1 65c0 0-29.4-48.9-53.4-49.6s-8.3-29.7 18.1-59.2z" fill="#fc6681"/><path d="m1.31 448.37a18.78 18.78 0 0 0 -2.7 5.5c-23.4 27.5-35.8 53.1-13.4 53.7 20.9.6 46 38 52 47.5-.2.7-.4 1.4-.7 2.2 0 0-29.4-48.9-53.4-49.6s-8.2-29.8 18.2-59.3z" opacity=".1"/><path d="m-23.59 470.67c0 6.1.7 11.1 1.5 11.1s1.5-5 1.5-11.1-.9-3.2-1.7-3.2-1.3-3-1.3 3.2z" fill="#ffd037"/><path d="m-32.09 478c5.4 2.9 10.1 4.7 10.5 4s-3.6-3.7-9-6.7-3.3-.8-3.7 0-3.2-.23 2.2 2.7z" fill="#ffd037"/><path d="m-19.29 555s37.3-1.2 48.6-9.2 57.4-17.6 60.2-4.7 56.1 63.9 14 64.2-97.9-6.6-109.1-13.4-13.7-36.9-13.7-36.9z" fill="#a8a8a8"/><path d="m104.21 600.77c-42.1.3-97.9-6.6-109.1-13.4-8.5-5.2-12-23.9-13.1-32.5h-1.2s2.4 30.1 13.6 36.9 67 13.7 109.1 13.4c12.2-.1 16.4-4.4 16.1-10.8-1.8 3.9-6.4 6.4-15.4 6.4z" opacity=".2"/></g><g fill="#38d39f"><ellipse cx="2415.98" cy="383.63" opacity=".1" rx="33.36" ry="11.56"/><ellipse cx="2835.1" cy="383.63" opacity=".1" rx="33.36" ry="11.56"/><ellipse cx="2379.59" cy="441.55" opacity=".1" rx="33.36" ry="11.56"/><ellipse cx="2871.28" cy="442.67" opacity=".1" rx="33.36" ry="11.56"/></g><path d="m2860.05 431.63 7.29 15.56v-115.57h-7.29z" fill="#b77b7f"/><path d="m2389.16 431.63-7.29 15.56v-115.57h7.29z" fill="#b77b7f"/><path d="m2860.05 431.63 7.29 15.56v-115.57h-7.29z" opacity=".1"/><path d="m2389.16 431.63-7.29 15.56v-115.57h7.29z" opacity=".1"/><path d="m2418.63 119.35h20.2v142.06h-20.2z" fill="#b77b7f"/><path d="m2825 119.35h20.2v142.06h-20.2z" fill="#b77b7f"/><path d="m2418.63 119.35h20.2v16.56h-20.2z" opacity=".1"/><path d="m2825 119.35h20.2v16.56h-20.2z" opacity=".1"/><path d="m2387.5 113.39h486.46v21.19h-486.46z" fill="#dda2a6"/><path d="m2418.63 143.52h20.2v21.19h-20.2z" opacity=".1"/><path d="m2825 143.52h20.2v21.19h-20.2z" opacity=".1"/><path d="m2387.5 142.2h486.46v21.19h-486.46z" fill="#dda2a6"/><path d="m2418.63 172.33h20.2v21.19h-20.2z" opacity=".1"/><path d="m2825 172.33h20.2v21.19h-20.2z" opacity=".1"/><path d="m2387.5 171.01h486.46v21.19h-486.46z" fill="#dda2a6"/><path d="m2418.63 201.14h20.2v21.19h-20.2z" opacity=".1"/><path d="m2825 201.14h20.2v21.19h-20.2z" opacity=".1"/><path d="m2387.5 199.82h486.46v21.19h-486.46z" fill="#dda2a6"/><path d="m2418.63 229.95h20.2v21.19h-20.2z" opacity=".1"/><path d="m2825 229.95h20.2v21.19h-20.2z" opacity=".1"/><path d="m2387.5 228.63h486.46v21.19h-486.46z" fill="#dda2a6"/><g opacity=".1"><circle cx="2428.73" cy="125.31" r="2.93"/><circle cx="2428.73" cy="154.12" r="2.93"/><circle cx="2428.73" cy="182.93" r="2.93"/><circle cx="2428.73" cy="211.74" r="2.93"/><circle cx="2428.73" cy="240.55" r="2.93"/><circle cx="2835.11" cy="125.31" r="2.93"/><circle cx="2835.11" cy="154.12" r="2.93"/><circle cx="2835.11" cy="182.93" r="2.93"/><circle cx="2835.11" cy="211.74" r="2.93"/><circle cx="2835.11" cy="240.55" r="2.93"/></g><g fill="#918c9e"><circle cx="2428.73" cy="123.99" r="2.93"/><circle cx="2428.73" cy="152.8" r="2.93"/><circle cx="2428.73" cy="181.61" r="2.93"/><circle cx="2428.73" cy="210.42" r="2.93"/><circle cx="2428.73" cy="239.23" r="2.93"/><circle cx="2835.11" cy="123.99" r="2.93"/><circle cx="2835.11" cy="152.8" r="2.93"/><circle cx="2835.11" cy="181.61" r="2.93"/><circle cx="2835.11" cy="210.42" r="2.93"/><circle cx="2835.11" cy="239.23" r="2.93"/></g><path d="m2885.22 270.36h-509.31l11.59-14.25h486.46z" fill="#dda2a6"/><path d="m2885.22 270.36h-509.31l11.59-14.25h486.46z" opacity=".1"/><path d="m2885.22 269.69h-509.31l11.59-14.24h486.46z" fill="#dda2a6"/><path d="m2903.1 292.54-546.4-1.32 18.55-19.54h511.96z" fill="#dda2a6"/><path d="m2903.1 292.54-546.4-1.32 18.55-19.54h511.96z" opacity=".1"/><path d="m2903.1 291.88-546.4-1.32 18.55-19.54h511.96z" fill="#dda2a6"/><path d="m2920.32 312.74h-583.16l17.89-20.2 549.38.66z" fill="#dda2a6"/><path d="m2425.8 331.62v41.72l-7.17 13.91-2.37-49.67-.28-5.96z" fill="#b77b7f"/><path d="m2834.89 331.62-.29 5.96-2.36 49.67-7.18-13.91v-41.72z" fill="#b77b7f"/><path d="m2425.8 331.62v41.72l-7.17 13.91-2.37-49.67-.28-5.96z" opacity=".1"/><path d="m2834.89 331.62-.29 5.96-2.36 49.67-7.18-13.91v-41.72z" opacity=".1"/><path d="m2400.08 328.31h18.54v58.95h-18.54z" fill="#b77b7f"/><path d="m2832.24 328.31h18.54v58.95h-18.54z" fill="#b77b7f"/><path d="m2418.63 331.62h7.17v5.96h-25.72v-9.27h18.55z" opacity=".1"/><path d="m2850.78 328.31v9.27h-25.72v-5.96h7.18v-3.31z" opacity=".1"/><path d="m2375.91 321.68h498.05v14.57h-498.05z" fill="#b77b7f"/><path d="m2360.68 319.03h21.19v128.16h-21.19z" fill="#b77b7f"/><path d="m2867.35 319.03h21.19v128.16h-21.19z" fill="#b77b7f"/><path d="m2375.91 321.68h498.05v1.32h-498.05z" opacity=".1"/><path d="m2337.16 312.74h583.16v8.94h-583.16z" fill="#dda2a6"/><path d="m2337.16 312.74h583.16v8.94h-583.16z" fill="#fff" opacity=".1"/><circle cx="2370.01" cy="329.63" opacity=".1" r="2.93"/><circle cx="2370.01" cy="328.31" fill="#918c9e" r="2.93"/><circle cx="2879.67" cy="329.23" opacity=".1" r="2.93"/><circle cx="2879.67" cy="327.91" fill="#918c9e" r="2.93"/><g transform="translate(2165.73 -183.56)"><path d="m116.8 490.22c0 2.89-.32 5.24-.72 5.24s-.73-2.35-.73-5.24.41-1.54.81-1.54.64-1.36.64 1.54z" fill="#ffd037"/><path d="m120.81 493.67c-2.54 1.39-4.75 2.22-5 1.87s1.72-1.76 4.26-3.14 1.54-.38 1.73 0 1.55-.11-.99 1.27z" fill="#ffd037"/><path d="m578.29 477.87.59-.21s-.28-12.79-7.21-19.61-2.59-28.18-2.59-28.18.58-22.46-2.6-27.86 0-25.59 0-25.59v-30.67s-2.59-8-3.17-29.85-2.88-19-7.21-25.3c-2.24-3.25-11.78-6.64-20.56-9.08a166 166 0 0 0 -18.9-16.65 25.22 25.22 0 0 1 9.18-6.67c3.11-1.47 6.68-3 7.95-6.14a12.18 12.18 0 0 0 .34-5.66 34 34 0 0 0 -1.71-8.83 11.59 11.59 0 0 0 -5.85-6.63c-1.51-.66-3.47-1.12-3.91-2.69a3.67 3.67 0 0 1 .08-1.89c.68-3.08 1.8-6.11 1.73-9.26-.07-3.49-1.6-6.79-3.23-9.89-4.11-7.83-9.34-15.55-17.17-19.82-9.83-5.36-22-4.31-32.86-1.61a43.79 43.79 0 0 1 -9 1.67 39.11 39.11 0 0 0 -5.52.13 10.5 10.5 0 0 0 -3 1c.2-.2.4-.42.62-.61a14.7 14.7 0 0 0 -4.78 3.56 11.74 11.74 0 0 0 -3 5.28 6.77 6.77 0 0 0 -.24 2 9.84 9.84 0 0 0 2 5.24 44.94 44.94 0 0 0 -4.23 2.38 5.25 5.25 0 0 0 -1.75 1.53 2.64 2.64 0 0 0 -.33.75 8 8 0 0 0 -.67 3.47 1 1 0 0 1 -.07.44c.12-.22.22-.44.32-.67-1.14 7-9.78 11.39-12.21 17.75a9.34 9.34 0 0 0 -1 4.24c.11 5.12 4.64 8.92 7.1 13.42 4.11 7.53 2.27 16.68 1.11 25.15-.16 1.2-.29 2.44-.37 3.69-6.09 1-12.71 3.12-16.76 7.36-9.08 9.53-5 1.42-11.53 22.46l-6.49 21-.87 15.21s-5 5-4.61 10.38-2.16 8-2.16 8-.58 11.23 0 13.93-4.33 5.4-4 7.82a71.17 71.17 0 0 1 0 8c0 .43-4.33 1.14-3.89 6.11a78.68 78.68 0 0 1 .28 8.82s-7.2 7.53-5.76 11.65-1.3 11.09-1.3 11.09-1.59 9.1-5.48 11.52c-3.17 2-5.67 9.39-6.49 12.09-2.9.1-44.77 1.71-43.38 7.29 1.44 5.78 40.95 7.58 45.56 7.58a3.05 3.05 0 0 0 .6-.06c-1.08 7-3.86 20.77-9.12 23-7.07 3-19.9 15.92-19.32 21.61s-2.31 40.09-4.19 44.92c-.39 1-.61 4-.6 8.12-9.12 15.8-15.85 28.65-17.63 32.07l-.46.89-.54 1.42c-1.23-.85-10.17 10.53-10.17 10.53s-7.35 12.51-7.64 14.21-5.92 2.84-6.2 4.12-6.92 9.53-6.92 9.53-3.75 9.66-10.39 12.22-13.71 8.82-4.61 15.91 27.25 11.08 27.25 11.08 11.54-11.8 13.84-17.34 8.94-14.74 8.94-14.74 4-8 4.62-11 13.93-23.11 13.93-23.11l-1.44-.56c.55-.6 1.18-1.26 1.88-2 .49-.51 1-1.06 1.57-1.61 1.54 3.78 3.4 6.35 5.63 6.86 10.68 2.42 18.31-10.58 23.22-11.82s10.23-17.89 10.23-17.89 14.57-12.23 14.71-22c0-2.15.08-4.44.13-6.7a114.56 114.56 0 0 1 8.38-14.1c5.39-7.2 9.61-14.22 12.31-15.73 2-1.1 14.42-13.46 21-20.09l.68-.69c2 4.36 4.3 7.44 6.92 7.51 2 .06 3.62-2.85 4.9-7a7.82 7.82 0 0 0 .42.81c3.61 6.51 10.25 12 10.25 12s18.46 25.87 16.87 30 13.41 21.46 22 26.58c6.92 4.1 25 24.65 31.91 32.64l1 1.18a6.41 6.41 0 0 1 -1.55.39c-2.4.09 3.37 6.44 3.37 6.44s4.51 6.16 4.32 9.2 5.67 10.33 5.67 10.33 10 17 9.33 22.84-6.39 21.32 7.21 18.29 28.26-4.55 28-11.47-6.15-19-6.15-19l-6.06-12.14s-6-7.86-8.75-13.26-11-22.75-11-22.75l-3 1.27-.64-1.36c-3.1-6.55-10.6-22.64-19.68-43.54a172.62 172.62 0 0 0 -12-23.3l12-2.53c13.82 12.9 46.29 16.86 46.29 16.86s-2-32.12 1.16-41.51c1.64-4.86-.82-7.66-3.73-10 13-.75 36.18-2.84 37.28-7.24s-24.62-6.25-37.03-6.93zm-36.17-7.87c-2.57-.18-4.47-.2-4.47-.2s1.15-5.25 2.88-8.1-10.38-10.52-9.61-17.63-3.92-21.85-3.92-21.85.57-15.35 0-22.46a21.58 21.58 0 0 1 2.59-12.22s6.92 18.48 4 21 0 16.2 0 16.2 5.19 18.2 7.78 24.74c1.53 3.78 1 12.62.77 20.57z" fill="url(#a)"/><path d="m369.47 454.87s-43.72 1.49-42.32 7.19 39.8 7.47 44.28 7.47 10.92-8.21 10.92-8.21z" fill="#efb7b9"/></g><path d="m2562.34 251.36h25.22v23.25h-25.22z" fill="#67647e"/><path d="m2562.34 251.36h25.22v23.25h-25.22z" opacity=".12"/><path d="m2548.92 275.51-23.2 46.84 29.41 9.54 23.74-20.37 11.22-21.74 22.72 1.85 24.25 12.07 19.6 11.97 11.86 22.18 17 9.61 36.45-7.78 5.32-24.79-29.74-19.92-10.78-16.32-43.7-6.36-12.65-18.86-43.72 10.55z" fill="#67647e"/><path d="m2548.92 275.95-23.68 51.03 29.89 5.35 23.74-20.37 11.22-21.74 22.72 1.84 24.25 12.08 19.6 11.96 11.86 22.19 17 9.6 36.45-7.78 5.32-24.79-29.74-19.91-10.78-16.33-43.7-6.35-12.65-18.87-43.72 10.55z" opacity=".12"/><g transform="translate(2165.73 -183.56)"><path d="m444.07 213.22a4.94 4.94 0 0 0 -1.7 1.51 8 8 0 0 0 -.66 3.44c-.89 8.44-12.73 13-12.55 21.45.1 5 4.51 8.78 6.9 13.22 4 7.42 2.2 16.45 1.08 24.8-.85 6.33-.85 13.76 4 17.92 2 1.7 4.59 2.63 6.4 4.52 3.7 3.86 2.89 10.19 5.33 15a4.32 4.32 0 0 0 1 1.36 4.17 4.17 0 0 0 1.42.73c4.71 1.55 10.09-.65 13.27-4.45s4.44-8.89 4.61-13.85-.63-9.87-1.11-14.8c-.91-9.48-.6-19-1.37-28.52a23.09 23.09 0 0 0 -2-8.74c-.73-1.42-1.72-2.7-2.41-4.14a21.8 21.8 0 0 1 -1.62-6.26l-2.66-16.71c-.52-3.34-1-9.33-4.83-10.62s-9.98 2.16-13.1 4.14z" fill="#e3787d"/><path d="m444.07 213.22a4.94 4.94 0 0 0 -1.7 1.51 8 8 0 0 0 -.66 3.44c-.89 8.44-12.73 13-12.55 21.45.1 5 4.51 8.78 6.9 13.22 4 7.42 2.2 16.45 1.08 24.8-.85 6.33-.85 13.76 4 17.92 2 1.7 4.59 2.63 6.4 4.52 3.7 3.86 2.89 10.19 5.33 15a4.32 4.32 0 0 0 1 1.36 4.17 4.17 0 0 0 1.42.73c4.71 1.55 10.09-.65 13.27-4.45s4.44-8.89 4.61-13.85-.63-9.87-1.11-14.8c-.91-9.48-.6-19-1.37-28.52a23.09 23.09 0 0 0 -2-8.74c-.73-1.42-1.72-2.7-2.41-4.14a21.8 21.8 0 0 1 -1.62-6.26l-2.66-16.71c-.52-3.34-1-9.33-4.83-10.62s-9.98 2.16-13.1 4.14z" fill="#e3787d"/><g opacity=".1"><path d="m442.51 215.53a2.69 2.69 0 0 1 .06-.69 2.81 2.81 0 0 0 -.52.62 8 8 0 0 0 -.7 3.41 1.09 1.09 0 0 1 -.06.43 10.91 10.91 0 0 0 1.22-3.77z"/><path d="m469.35 310c-3.17 3.8-8.56 6-13.26 4.45a3.51 3.51 0 0 1 -2.42-2.09c-2.45-4.76-1.64-11.08-5.34-14.95-1.81-1.88-4.41-2.81-6.4-4.52-4.85-4.16-4.85-11.58-4-17.92 1.12-8.35 2.92-17.38-1.08-24.79-2.39-4.45-6.79-8.19-6.9-13.23a8.35 8.35 0 0 1 .09-1.41 9.49 9.49 0 0 0 -1.21 4.77c.1 5 4.51 8.79 6.9 13.23 4 7.42 2.2 16.44 1.08 24.79-.85 6.34-.85 13.76 4 17.93 2 1.7 4.59 2.63 6.4 4.52 3.7 3.86 2.89 10.19 5.33 14.94a4.36 4.36 0 0 0 1 1.37 4 4 0 0 0 1.43.72c4.7 1.55 10.09-.65 13.26-4.45a19.31 19.31 0 0 0 3.77-7.76 17.9 17.9 0 0 1 -2.65 4.4z"/></g><path d="m568.1 480.42s43.71 1.5 42.31 7.19-39.79 7.48-44.28 7.48-10.92-8.22-10.92-8.22z" fill="#efb7b9"/><path d="m450.43 281.12s-21.43-1.26-30.25 8.13-4.91 1.4-11.21 22.14l-6.31 20.74-.84 15s-4.9 4.9-4.48 10.23-2.11 7.85-2.11 7.85-.56 11.07 0 13.73-4.2 5.32-3.92 7.7a73.41 73.41 0 0 1 0 7.85c0 .42-4.2 1.12-3.78 6a81.11 81.11 0 0 1 .28 8.68s-7 7.43-5.61 11.49-1.26 10.93-1.26 10.93-1.54 9-5.32 11.35-6.62 12.93-6.62 12.93 3.5 9.11 3.5 9.53-2.52 23.82-9.38 26.76-19.34 15.71-18.8 21.28-2.24 39.52-4.06 44.28.28 53.39 10.65 55.77 17.81-10.37 22.58-11.62 9.94-17.66 9.94-17.66 14.16-12.05 14.3-21.71.56-22 .56-22-16.54-28-19.9-30.13-12.75-14-5.47-24.24 11.92-23.26 11.92-23.26l7.84-7 6.64-25.1 12-39.23 11.38-38.54 9.65-40.49 25.47-17.74s4.53-11.55-7.39-13.65z" fill="#67647e"/><path d="m442.45 502.56-4 4.11c-6.43 6.53-18.54 18.72-20.45 19.8-2.62 1.5-6.72 8.41-12 15.51s-12.33 22.42-12.33 22.42-17.56 24.66-27.83 27.28c-7 1.77-16.5 10.92-21.9 16.64-2.59 2.68-4.24 4.68-4.24 4.68l-20.2-7.85 2.62-6.91.45-.89c1.94-3.78 9.93-19.26 20.47-37.42 12.15-20.91 30.65-40.16 30.65-40.16s16.06-14.76 16.62-21.49a85.45 85.45 0 0 0 -.17-11.2c-.3-4.84-.76-9-.76-9l24.47-15.87 18.69 7.8z" fill="#efb7b9"/><path d="m552.35 600.46-19.9 9.81-2.65-3.14c-6.71-7.87-24.28-28.13-31-32.17-8.45-5.09-23-22.09-21.45-26.2s-16.35-29.57-16.35-29.57-6.46-5.45-10-11.87c-1.72-3.13-2.73-6.49-1.94-9.56 2.37-9.4 10.22-30 10.22-30s3.79-6.31 4.06-6.74 14.05-5.15 14.05-5.15l13.59-1.4 17.02 14.53s-.63 3.47-1.57 8.29c-2.08 10.61-5.68 27.79-7.41 28.85-2.51 1.54 11.65 13 11.65 13s9.38 8 21 35.17c8.82 20.61 16.1 36.47 19.12 42.93.99 2.11 1.56 3.22 1.56 3.22z" fill="#efb7b9"/><path d="m432.56 470 9.89 32.55-4 4.11c-2.7-6.62-4.77-15.47-6.25-21.48-2.62-10.65-29.52-7.85-34.19-7.85-2.06 0-4.95 4.71-7.83 9.72-.3-4.84-.76-9-.76-9l24.47-15.87z" opacity=".1"/><path d="m508 469s-.63 3.47-1.57 8.29a35.78 35.78 0 0 0 -8.71-12.12c-13.07-11.58-30.44-1.68-30.44-1.68-1.79.66-2.66 2.51-4.6 4.8a40.68 40.68 0 0 0 -9.42 23.89 83.08 83.08 0 0 1 -2.3 15.12c-1.72-3.13-2.73-6.49-1.94-9.56 2.37-9.4 10.22-30 10.22-30s3.79-6.31 4.06-6.74 14-5.15 14-5.15l13.59-1.4z" opacity=".1"/><path d="m528.4 482.2c-.19 4.67-17.57 12-17.57 12s0-19.62-13.08-31.21-30.4-1.72-30.4-1.72c-1.79.66-2.66 2.51-4.6 4.8a40.65 40.65 0 0 0 -9.42 23.93c-.6 9.94-3.31 23.57-7.47 23.44-6.54-.18-11-19.79-13.64-30.44s-29.52-7.9-34.22-7.9-13.64 24.28-17 21.3 3.76-26.4 3.76-26.4l22.59-27.23 4.82-5.79 99.2 5.36s2.47 3.81 4.89 7.58c2.29 3.59 4.55 7.15 4.64 7.41.21.54 7.68 20.19 7.5 24.87z" fill="#444053"/><path d="m428 452.42c.14.21 18.22 19.83 19.06 22.77a99.37 99.37 0 0 1 1.69 10s.41-6.94 1-8.9-2.1-6.51-4.06-8-5.61-4.27-6.1-5.46-2.8-13.38-2.8-13.38l-7.57-1.68z" opacity=".1"/><path d="m462.28 450.46s-11.63 13.31-11.35 15.27 11.35-15.27 11.35-15.27z" opacity=".1"/><path d="m521.67 293.31-13.45 18.69-36.93 7.47s-37.43-9.34-12-19.06a14.69 14.69 0 0 0 6.22-4.19c4.48-5.37 2.83-13.48-.9-21.38-5.86-12.45-16.81-24.4-16.81-24.4s52.59-23.26 46.61 1a24.28 24.28 0 0 0 .29 12.8c3.14 11 13.06 19.66 19.95 24.57a66.92 66.92 0 0 0 7.02 4.5z" fill="#efb7b9"/><path d="m521.67 293.31-13.45 18.69-36.93 7.47s-37.43-9.34-12-19.06a14.69 14.69 0 0 0 6.22-4.19c6 2.66 12.28 4.77 15.45 3.82 0 0 20.78-6.09 33.69-11.2a66.66 66.66 0 0 0 7.02 4.47z" opacity=".1"/><path d="m516.44 451a142.82 142.82 0 0 0 -15.65-3.83c-5.22-.92-10.25-1.28-12.38.09-5.23 3.36-17.93 10.84-22.42 10.84a6.4 6.4 0 0 1 -6-3.74s-13.83-1.5-22.8 0c-6 1-20.1-6.15-28.84-11l-1-.56 4.82-5.79 99.2 5.36s2.47 3.81 4.89 7.58z" opacity=".1"/><path d="m512.71 423.72 3.73 25a145.18 145.18 0 0 0 -15.65-3.84c-5.22-.92-10.25-1.27-12.38.09-5.23 3.37-17.93 10.84-22.42 10.84a6.41 6.41 0 0 1 -6-3.73s-13.83-1.5-22.8 0c-6 1-20.1-6.15-28.84-11-4.37-2.44-7.4-4.3-7.4-4.3l5.6-19.81 17.19-18.31 2.61-26.51 4.1-30.63 6.4-18.65 11.5-27.33 2-4.84s2.24 1.32 5.54 3.08c1.53.81 3.28 1.72 5.15 2.63 7.12 3.49 15.87 7.07 19.83 5.87 0 0 18.47-5.41 31.41-10.31 6-2.28 10.76-4.43 12-5.89a1.36 1.36 0 0 0 .31-.61c0-.37.08-.09.16.73.8 8.25 3.58 71.38 3.58 71.38z" fill="#a36468"/><path d="m528.4 357.58-15.69 66.14 3.73 25a145.18 145.18 0 0 0 -15.65-3.84c-.89-10.25-1.91-27.56.8-33.34 3.92-8.41 6.16-35 6.16-35l4.6-84.57.45-8.18c.33-.23 5.35.7 11.55 2.29l.47.12c.8 8.25 3.58 71.38 3.58 71.38z" opacity=".1"/><path d="m559.84 484c-9.78 2.94-23 6.16-24.35 2.68-1-2.4-.89-7.79-.7-13.68 4.77.34 11.93 1.29 13 3.87s7.77 4.47 12.05 7.13z" opacity=".1"/><path d="m517.28 283.79c.84-.57 31.39 6.16 35.59 12.33s6.45 3.36 7 24.94 3.13 29.42 3.13 29.42v30.27s-3.08 19.9 0 25.22 2.52 27.46 2.52 27.46-4.2 21 2.52 27.75 7 19.33 7 19.33-32.79 11.77-35 6.17 1.12-27.46-1.4-33.91-7.64-24.38-7.64-24.38-2.8-13.45 0-16-3.92-20.74-3.92-20.74a21.49 21.49 0 0 0 -2.52 12.05c.56 7 0 22.14 0 22.14s4.57 14.57 3.83 21.58 11 14.57 9.34 17.37-2.81 8-2.81 8 15.7.15 17.38 4.07 14.57 5.83 15.69 11.32 12.89 7.18 9.81 16.43-1.12 40.91-1.12 40.91-56.61-7-50.44-32.79 35.31-14.29 35.31-14.29-23.22-13.72-36.72-12-18.78-33.63-18.78-33.63-3.92-32.79 0-41.19 6.16-35 6.16-35z" fill="#67647e"/><path d="m543.06 467.06s1.4-2.66 11.35-1 15-.55 15-.55-20.18 8.98-26.35 1.55z" opacity=".1"/><path d="m540.26 338c-.14.42 7.29 11.35 1.68 20.18s-10.23 23-11.21 25.64-2.33 6.73-2.33 6.73" opacity=".1"/><path d="m513.92 270.33s26.34 19.76 26.2 29c0 0-2.52 2.94-8 2.94s-15.27-2.66-16.39-8.83-5.33 0-2.94 3.23 3.78 4.9 3.78 4.9 24.93 6.87 29.7 10.09-2 7-2 7-7 12.61-6.58 14.71-17.24 29.56-17.24 29.56-5.88 29.71-5.6 35.31.7 17.5.7 17.5l-11.2 15.44s-2.74-47.63-.92-54.07 6.72-46.94 6.72-46.94 5.61-24.67 3.37-27.47-3-11.49-3-11.49z" opacity=".05"/><path d="m511.67 269.21s26.35 19.76 26.21 29c0 0-2.53 2.94-8 2.94s-15.27-2.66-16.39-8.83-5.33 0-2.95 3.23 3.79 4.9 3.79 4.9 24.93 6.87 29.7 10.09-2 7-2 7-7 12.62-6.59 14.72-17.18 29.61-17.18 29.61-5.89 29.71-5.6 35.31.7 17.5.7 17.5l-9 15.42s-5-47.63-3.16-54.08 6.72-46.94 6.72-46.94 5.61-24.66 3.36-27.46-3-11.49-3-11.49z" fill="#67647e"/><path d="m511.67 269.21s26.35 19.76 26.21 29c0 0-2.53 2.94-8 2.94s-15.27-2.66-16.39-8.83-5.33 0-2.95 3.23 3.79 4.9 3.79 4.9 24.93 6.87 29.7 10.09-2 7-2 7-7 12.62-6.59 14.72-17.18 29.61-17.18 29.61-5.89 29.71-5.6 35.31.7 17.5.7 17.5l-9 15.42s-5-47.63-3.16-54.08 6.72-46.94 6.72-46.94 5.61-24.66 3.36-27.46-3-11.49-3-11.49z" opacity=".12"/><path d="m462.07 292.47a17.8 17.8 0 0 1 -1 3.94c-1 3.1-2.64 7.31-4 11.61-2 6.65-8.11 18.64-11.77 30s-9.1 35.58-9.1 35.58 1.12 22.28-6.3 27.89-15.84 26.2-15.84 26.2-2.66 6.87-5.77 13.41c-4.37-2.44-7.4-4.3-7.4-4.3l5.6-19.81 17.19-18.31 2.67-26.53 4.1-30.63 6.4-18.65 11.5-27.33c3.1-.23 5.16-.41 5.16-.41s1.05-.63 2.43-1.35c2.57-1.33 6.22-2.91 6.13-1.31z" opacity=".1"/><path d="m449 296.26s-26 2.21-31.81 1.54-3.36 12.47-3.36 12.47-4.52 26.76-3.52 29.6 6.3 23.82 3.08 28.87-13.13 31.26-13.13 31.26-3.22 11.63-6 23.26-9.38 33.9-11.07 35.87-16 27.75-14.39 31.75 23.7-34 28.15-37.4 12.72-24.66 12.72-24.66 8.4-20.6 15.83-26.2 6.31-27.89 6.31-27.89 5.46-24.24 9.1-35.59 9.76-23.34 11.77-30 4.77-13 4.91-15.56-8.59 2.68-8.59 2.68z" opacity=".05"/><path d="m451.28 295.14s-26 2.21-31.81 1.54-3.36 12.47-3.36 12.47-4.48 26.76-3.5 29.56 6.3 23.82 3.08 28.87-13.17 31.29-13.17 31.29-3.22 11.63-6 23.26-9.39 33.87-11.07 35.87-16 27.78-14.39 31.82 23.7-34.07 28.15-37.43 12.72-24.66 12.72-24.66 8.41-20.6 15.83-26.2 6.31-27.89 6.31-27.89 5.46-24.24 9.11-35.59 9.75-23.34 11.77-30 4.76-13 4.9-15.56-8.57 2.65-8.57 2.65z" fill="#67647e"/><path d="m451.28 295.14s-26 2.21-31.81 1.54-3.36 12.47-3.36 12.47-4.48 26.76-3.5 29.56 6.3 23.82 3.08 28.87-13.17 31.29-13.17 31.29-3.22 11.63-6 23.26-9.39 33.87-11.07 35.87-16 27.78-14.39 31.82 23.7-34.07 28.15-37.43 12.72-24.66 12.72-24.66 8.41-20.6 15.83-26.2 6.31-27.89 6.31-27.89 5.46-24.24 9.11-35.59 9.75-23.34 11.77-30 4.76-13 4.9-15.56-8.57 2.65-8.57 2.65z" opacity=".12"/><path d="m441.19 364.28s3.2 16.13-2.1 23.76.56-20.32 2.1-23.76z" opacity=".1"/><path d="m498.64 417.6s-14.85 2.66-19.75 10.51 19.75-10.51 19.75-10.51z" opacity=".1"/><path d="m498.64 433.57s-18.91 6-15.41 8.13 12-1.68 14.43-1 .98-7.13.98-7.13z" opacity=".1"/><path d="m344 608.32c-2.59 2.72-4.24 4.66-4.24 4.66l-20.2-7.85 2.62-6.91.45-.89a.19.19 0 0 1 .15 0c1.19.82 10.14 6.58 10.14 6.58z" opacity=".1"/><path d="m331.76 606.2s-8.95-5.75-10.15-6.59-9.89 10.39-9.89 10.39-7.14 12.33-7.42 14-5.75 2.8-6 4.06-6.73 9.39-6.73 9.39-3.64 9.53-10.08 12-13.32 8.69-4.49 15.69 26.48 10.93 26.48 10.93 11.21-11.63 13.46-17.09 8.68-14.57 8.68-14.57 3.93-7.85 4.49-10.79 13.42-22.74 13.42-22.74z" fill="#444053"/><path d="m552.35 600.46-19.9 9.81-2.65-3.14a86.25 86.25 0 0 0 9.57-4.9l11.5-4.94c.91 2.06 1.48 3.17 1.48 3.17z" opacity=".1"/><path d="m540.45 603.35s-8.88 5.24-11.21 5.33 3.27 6.35 3.27 6.35 4.39 6.07 4.2 9.06 5.51 10.18 5.51 10.18 9.72 16.72 9.06 22.52-6.26 21 7 18 27.46-4.49 27.18-11.31-6-18.68-6-18.68l-5.88-12s-5.89-7.75-8.5-13.08-10.73-22.34-10.73-22.34z" fill="#444053"/><path d="m460.14 301.42c12.58-4.81 9.89-17.1 4-28.29a33.33 33.33 0 0 1 -15.79-12.36c-3.78 1.63-7.21 6.18-5.79 9.93a14.09 14.09 0 0 0 2.1 3.19c5.88 7.84 5.09 19.93-1.76 26.93-1.07 1.1-2.36 2.27-2.35 3.81 0 1.9 2 3.14 3.76 3.78a24.57 24.57 0 0 0 7.2 1.44c-.97-2.62.98-5.5 8.63-8.43z" fill="#e3787d"/><path d="m540.17 473.07s13.45.53 17.93 3.52a17.87 17.87 0 0 1 6.23 7.41" opacity=".1"/><g opacity=".1"><path d="m444.52 274.15c4.39 5.85 5.05 14.09 2.25 20.8 4-7 3.77-16.51-1.13-23.05a13.25 13.25 0 0 1 -2.1-3.19 5.58 5.58 0 0 1 0-3.78 6.55 6.55 0 0 0 -1.12 6 13.42 13.42 0 0 0 2.1 3.22z"/><path d="m451.35 307.76a24.15 24.15 0 0 1 -6-1.34c-1.78-.65-3.75-1.89-3.76-3.79a1.41 1.41 0 0 1 0-.29 3.89 3.89 0 0 0 -1.15 2.54c0 1.9 2 3.14 3.76 3.78a24.57 24.57 0 0 0 7.2 1.44 3.31 3.31 0 0 1 -.05-2.34z"/><path d="m461.07 299.43c-6 2.31-8.51 4.59-8.8 6.73 1.29-1.46 3.71-3 7.68-4.49 4.44-1.69 7-4.32 8.13-7.5a13.93 13.93 0 0 1 -7.01 5.26z"/></g><path d="m494.68 264.27c-4.5 8.31-19.22 12.23-19.72 12.23a33.12 33.12 0 0 1 -10.37-1.63c-5.86-12.45-16.81-24.4-16.81-24.4s52.59-23.26 46.61 1a24.28 24.28 0 0 0 .29 12.8z" opacity=".1"/><path d="m508.22 241a33.27 33.27 0 0 1 -30.59 33.15c-.87.07-1.77.11-2.67.11a33.26 33.26 0 1 1 33.26-33.26z" fill="#efb7b9"/><path d="m508.22 241a33.27 33.27 0 0 1 -30.59 33.15c-5.1-4.15-8.84-9.9-11.83-15.82-1.28-2.57-2.5-5.36-2.17-8.22.28-2.49 1.71-4.73 2.14-7.21.71-4-1.34-8.06-3.45-11.6-2-3.27-3.84-7.08-6.65-9.68-1.48-1.37-2.85-2.74-4.18-4.17a33.27 33.27 0 0 1 56.73 23.55z" opacity=".1"/><path d="m449.77 213c-1.72-2.15-3.47-4.55-3.55-7.3-.08-2.56 1.31-4.94 3-6.84a12.63 12.63 0 0 1 7-4.27 38.35 38.35 0 0 1 5.36-.13 41.56 41.56 0 0 0 8.77-1.61c10.59-2.66 22.37-3.7 31.93 1.59 7.6 4.2 12.69 11.81 16.68 19.53 1.58 3.06 3.07 6.31 3.14 9.75.07 3.1-1 6.1-1.68 9.13a3.78 3.78 0 0 0 -.08 1.86c.43 1.54 2.33 2 3.8 2.65a11.38 11.38 0 0 1 5.69 6.53 33.61 33.61 0 0 1 1.65 8.72 12.07 12.07 0 0 1 -.32 5.57c-1.23 3.13-4.7 4.6-7.73 6.05a24.55 24.55 0 0 0 -8.93 6.59c-2.3 2.94-3.51 6.93-2.42 10.5a12.54 12.54 0 0 0 6.49 7.11 38.62 38.62 0 0 0 9.4 2.95 10.49 10.49 0 0 1 4 1.49c2.86 2.09 2.77 6.72.58 9.5s-5.82 4-9.32 4.53a34.05 34.05 0 0 1 -22.4-4.74c-4.11-2.5-7.89-6.17-8.79-10.89-.57-2.93 0-6.1-1.2-8.82-1.59-3.54-5.58-5.13-8.89-7.15-6.77-4.14-11.43-11-15-18.08-1.3-2.57-2.51-5.36-2.18-8.22.28-2.49 1.71-4.73 2.14-7.2.71-4.07-1.34-8.06-3.45-11.61-2-3.27-3.83-7.08-6.65-9.69a68.37 68.37 0 0 1 -7.04-7.5z" fill="#e3787d"/><g opacity=".1"><path d="m526.88 261.62a32.54 32.54 0 0 0 -5.85 3.54q1.23-.69 2.49-1.29a24.21 24.21 0 0 0 5.88-3.47c-.84.47-1.69.83-2.52 1.22z"/><path d="m526.65 304.29a34.05 34.05 0 0 1 -22.4-4.74c-4.11-2.5-7.89-6.17-8.79-10.89-.56-2.93 0-6.1-1.2-8.82-1.58-3.54-5.58-5.13-8.89-7.15-6.77-4.14-11.43-11-15-18.08-1.3-2.57-2.51-5.36-2.18-8.22.28-2.49 1.71-4.73 2.14-7.2.71-4.07-1.34-8.06-3.45-11.61-1.95-3.27-3.83-7.08-6.64-9.69a67.72 67.72 0 0 1 -7-7.47c-1.72-2.15-3.47-4.55-3.55-7.3-.08-2.56 1.31-4.94 3-6.84a14 14 0 0 1 1.31-1.28 14.39 14.39 0 0 0 -4.64 3.51c-1.71 1.9-3.1 4.28-3 6.84.09 2.75 1.84 5.15 3.56 7.3a65 65 0 0 0 7 7.47c2.81 2.61 4.7 6.42 6.64 9.69 2.11 3.55 4.17 7.54 3.46 11.61-.43 2.47-1.86 4.71-2.14 7.2-.33 2.86.88 5.65 2.18 8.22 3.57 7.08 8.23 13.94 15 18.08 3.3 2 7.3 3.62 8.88 7.15 1.23 2.72.64 5.89 1.2 8.82.9 4.72 4.69 8.39 8.79 10.89a34.11 34.11 0 0 0 22.4 4.74c3.12-.45 6.32-1.49 8.54-3.67a20 20 0 0 1 -5.22 1.44z"/></g><g fill="#ffd037"><path d="m-604.75 565.76c0 2.89-.32 5.24-.72 5.24s-.73-2.35-.73-5.24.41-1.54.81-1.54.64-1.36.64 1.54z"/><path d="m-600.74 569.21c-2.54 1.39-4.75 2.22-5 1.87s1.72-1.76 4.26-3.14 1.54-.38 1.73 0 1.55-.11-.99 1.27z"/></g></g><ellipse cx="1547.7" cy="440.38" fill="#dee3f3" opacity=".5" rx="46.92" ry="6.44"/><g transform="translate(2165.73 -183.56)"><path d="m-615 557.85s6.29 8.22-2.9 20.63-16.76 22.89-13.7 30.63c0 0 13.86-23 25.15-23.37s3.88-14.03-8.55-27.89z" fill="#fc6681"/><path d="m-615 557.85a9.9 9.9 0 0 1 1.29 2.58c11 12.93 16.87 25 6.29 25.31-9.86.28-21.68 17.91-24.52 22.36.1.34.21.68.34 1 0 0 13.86-23 25.15-23.37s3.88-14.02-8.55-27.88z" opacity=".1"/><path d="m-648.2 557.85s-6.28 8.22 2.91 20.63 16.76 22.89 13.7 30.63c0 0-13.87-23-25.15-23.37s-3.87-14.03 8.54-27.89z" fill="#fc6681"/><path d="m-648.2 557.85a9.87 9.87 0 0 0 -1.28 2.58c-11 12.93-16.88 25-6.29 25.31 9.86.28 21.68 17.91 24.51 22.36a9 9 0 0 1 -.33 1s-13.87-23-25.15-23.37-3.87-14.02 8.54-27.88z" opacity=".1"/><path d="m-657.88 608s17.58-.54 22.87-4.32 27-8.27 28.36-2.22 26.42 30.09 6.57 30.25-46.11-3.09-51.4-6.32-6.4-17.39-6.4-17.39z" fill="#a8a8a8"/><path d="m-599.75 629.64c-19.84.16-46.11-3.09-51.4-6.31-4-2.45-5.63-11.26-6.16-15.32h-.59s1.11 14.17 6.4 17.39 31.55 6.48 51.4 6.32c5.73 0 7.71-2.09 7.6-5.11-.78 1.86-2.96 3-7.25 3.03z" opacity=".2"/><path d="m-508.24 628.8s-36.28-119 5.69-166.65c31.4-35.65 67-31.38 83-27a29.49 29.49 0 0 1 19 15.82c5.58 12 4.58 31.58-34.82 54.39-66 38.19-70 90.57-70 90.57z" fill="#fc6681"/><g fill="none" stroke="#565987" stroke-miterlimit="10"><path d="m-425.23 452.08s-107 33.45-83 176.72"/><path d="m-487.71 464.07s14.73 9.92 10 24.85"/><path d="m-436 472.91s-9-9.17-20-4.11"/><path d="m-478.24 519s-15.82-8-19.91 2"/><path d="m-517.38 535.71s11.9-1 12.09 4.76"/></g><path d="m-509.7 629.75s42.51-86.47 54.19-84.58c5.55.9 8.1 6.36 9.25 11.84a34.75 34.75 0 0 1 -2.31 21c-6.03 13.89-22.23 40.16-61.13 51.74z" fill="#fc6681"/><path d="m-455.84 561.59s-44.62 64.69-53.24 67.53" fill="none" stroke="#565987" stroke-miterlimit="10"/></g><g fill="none" stroke="#565987" stroke-miterlimit="10"><path d="m1714.01 388.12h-10.41"/><path d="m1701.54 411.79-16.33.7"/><path d="m1691.6 392.86 1.77 8.5"/><path d="m1674.25 418.73.31 7.73"/></g><path d="m-508.43 629.75s-42.51-86.47-54.18-84.58c-5.55.9-8.11 6.36-9.26 11.84a34.74 34.74 0 0 0 2.31 21c6.03 13.89 22.23 40.16 61.13 51.74z" fill="#fc6681" transform="translate(2165.73 -183.56)"/><g fill="none" stroke="#565987" stroke-miterlimit="10"><path d="m-562.28 561.59s44.61 64.69 53.23 67.53" transform="translate(2165.73 -183.56)"/><path d="m1599.33 388.12h10.42"/><path d="m1611.81 411.79 16.32.7"/><path d="m1621.74 392.86-1.77 8.5"/><path d="m1639.1 418.73-.32 7.73"/></g><ellipse cx="33.36" cy="436.6" fill="#dee3f3" opacity=".5" rx="33.36" ry="4.58"/><path d="m-2119.59 610.38c2-1.84 3.82-4 4.39-6.62s-.55-5.79-3.07-6.75c-2.81-1.07-5.82.88-8.1 2.85s-4.9 4.22-7.88 3.8a12 12 0 0 0 3.71-11.23 4.74 4.74 0 0 0 -1-2.28c-1.57-1.67-4.4-.95-6.27.36-6 4.19-7.61 12.27-7.64 19.55-.6-2.62-.1-5.36-.11-8s-.76-5.68-3-7.12a9.12 9.12 0 0 0 -4.61-1.09c-2.67-.1-5.65.17-7.48 2.13-2.27 2.43-1.68 6.51.29 9.19s5 4.35 7.75 6.2a17.12 17.12 0 0 1 5.53 5.28 4.87 4.87 0 0 1 .41.94h16.67a46.53 46.53 0 0 0 10.41-7.21z" fill="#fc6681" transform="translate(2165.73 -183.56)"/><ellipse cx="74.39" cy="439.02" fill="#dee3f3" opacity=".5" rx="33.36" ry="4.58"/><path d="m-2078.56 610.35a19.16 19.16 0 0 0 4.39-8.9c.57-3.52-.55-7.78-3.07-9.07-2.81-1.44-5.82 1.18-8.1 3.83s-4.9 5.67-7.88 5.11c3.13-3.81 4.53-9.54 3.71-15.09a7.72 7.72 0 0 0 -1-3.07c-1.57-2.24-4.4-1.28-6.27.49-5.95 5.63-7.61 16.48-7.64 26.27-.6-3.52-.1-7.21-.11-10.82s-.76-7.63-3-9.57a7.23 7.23 0 0 0 -4.61-1.46c-2.67-.14-5.65.22-7.48 2.86-2.27 3.26-1.68 8.75.29 12.35s5 5.84 7.75 8.33a20.65 20.65 0 0 1 5.53 7.09 7.84 7.84 0 0 1 .41 1.27h16.71a49.84 49.84 0 0 0 10.37-9.62z" fill="#fc6681" transform="translate(2165.73 -183.56)"/></svg>