<svg enable-background="new 0 0 232 225.2" viewBox="0 0 232 225.2" xmlns="http://www.w3.org/2000/svg"><path d="m13 117.6h206c7.2 0 13 5.8 13 13v81.7c0 7.2-5.8 13-13 13h-206c-7.2 0-13-5.8-13-13v-81.7c0-7.1 5.8-13 13-13z" fill="#3e76f9"/><path d="m18.5 208.7h195v2h-195z" fill="#010101" opacity=".1"/><path d="m18.5 134.5h195v74h-195z" fill="#2b53ae"/><circle cx="63.9" cy="173" fill="#010101" opacity=".1" r="26.9"/><circle cx="63.9" cy="171.4" fill="#dee3f3" r="26.9"/><circle cx="168.1" cy="173" fill="#010101" opacity=".1" r="26.9"/><circle cx="168.1" cy="171.4" fill="#dee3f3" r="26.9"/><g fill="#3e76f9"><path d="m43.2 24.5h11.9v93.2h-11.9z"/><path d="m179.6 24.5h11.9v93.2h-11.9z"/><circle cx="49.2" cy="13.3" r="13.3"/><circle cx="185.5" cy="13.3" r="13.3"/></g></svg>