<svg enable-background="new 0 0 1028.5 752.5" viewBox="0 0 1028.5 752.5" xmlns="http://www.w3.org/2000/svg" xmlns:xlink="http://www.w3.org/1999/xlink"><linearGradient id="a"><stop offset="0" stop-color="#808080" stop-opacity=".25"/><stop offset=".54" stop-color="#808080" stop-opacity=".12"/><stop offset="1" stop-color="#808080" stop-opacity=".1"/></linearGradient><linearGradient id="b" gradientTransform="matrix(.9996 .02787196 -.02787196 .9996 262.3932 -1600.0293)" gradientUnits="userSpaceOnUse" x1="148.3264" x2="148.3264" xlink:href="#a" y1="2197.7209" y2="1732.5225"/><linearGradient id="c" gradientUnits="userSpaceOnUse" x1="493.95" x2="493.95" xlink:href="#a" y1="571.2" y2="526.28"/><linearGradient id="d" gradientUnits="userSpaceOnUse" x1="448.95" x2="448.95" xlink:href="#a" y1="716.2999" y2="571.2"/><linearGradient id="e" gradientUnits="userSpaceOnUse" x1="533.65" x2="533.65" xlink:href="#a" y1="716.2999" y2="571.2"/><linearGradient id="f" gradientUnits="userSpaceOnUse" x1="492.5346" x2="492.5346" xlink:href="#a" y1="612.0847" y2="147.0847"/><path d="m424 402.8-.4-.3c-6-4.9-16.1-5.1-22.4-.6-3.1 2.2-4.7 5.2-4.8 8.5v1.7s-16.3-.4-36 6.4c-16.4 5.7-35.4 16.5-49.1 37.2-6.9 10.3-12.5 23.1-15.7 38.9-2.9 13.7-4 29.7-2.7 48.3-37 22 7.5 56.7 7.5 56.7 37.4 1 37.8-46.2 37.7-54.3h.1s-.1-.4-.2-1.1c-2.4-13.3-2.6-26.7-1.1-39.9 1.3-10.2 4.1-20.8 9.7-30.3 4.2-7.5 10.5-14.2 18.6-19.5 8.7-5.6 19.3-9.1 30.5-10.3l-.2 7.8c-.2 6.7 6.7 12.3 15.5 12.5 6.8.2 12.9-2.9 15.2-7.7l1.3-49.5c-1-1.7-2-3.2-3.5-4.5z" fill="url(#b)"/><circle cx="923.6" cy="86.2" fill="#3e76f9" opacity=".5" r="72.1"/><path d="m955.4 101.1h-24.5c9.5-.5 16.7-8.6 16.2-18-.5-8.8-7.5-15.8-16.2-16.2h-198.1c-9.5.5-16.7 8.6-16.2 18 .5 8.8 7.5 15.8 16.2 16.2h24.5c-9.5-.5-17.5 6.8-18 16.2s6.8 17.5 16.2 18h1.8-34.2c-9.5.5-16.7 8.6-16.2 18 .5 8.8 7.5 15.8 16.2 16.2h198.2c9.5.5 17.5-6.8 18-16.2.5-9.5-6.8-17.5-16.2-18-.6 0-1.2 0-1.8 0h34.2c9.5.5 17.5-6.8 18-16.2s-6.8-17.5-16.2-18c-.6 0-1.2 0-1.9 0z" fill="#dee3f3" opacity=".5"/><path d="m373.2 74.9h-33.5c12.9-.6 22.9-11.5 22.3-24.5-.6-12.1-10.2-21.8-22.3-22.3h-271c-12.9-.6-23.9 9.4-24.5 22.3s9.4 23.9 22.3 24.5h2.1 33.5c-12.9.6-22.9 11.5-22.3 24.5.6 12.1 10.2 21.8 22.3 22.3h-46.8c-12.9-.6-23.9 9.4-24.5 22.3s9.4 23.9 22.3 24.5h2.1 270.8c12.9-.6 22.9-11.5 22.3-24.5-.6-12.1-10.2-21.8-22.3-22.3h47c12.9-.6 22.9-11.5 22.3-24.5-.6-12.1-10.2-21.8-22.3-22.3z" fill="#dee3f3" opacity=".5"/><ellipse cx="644.6" cy="681.1" fill="#ced8f2" opacity=".5" rx="375.6" ry="76.7"/><ellipse cx="396.4" cy="607.7" fill="#dee3f3" opacity=".5" rx="396.2" ry="106.7"/><g fill="#3e76f9"><path d="m450.8 259c0 .5 0 1 .1 1.4-.1-.5-.1-.9-.1-1.4z"/><path d="m579.7 228.1c0 .1 0 .2.1.4-.1-.2-.1-.3-.1-.4z"/><path d="m579.4 226.8c0 .1.1.3.1.4 0-.1 0-.3-.1-.4z"/><path d="m579.6 261.4c0 .2-.1.4-.2.6.1-.2.1-.4.2-.6z"/><path d="m579.7 260.3c0 .2-.1.5-.1.7.1-.2.1-.4.1-.7z"/><path d="m456.7 268.8c-.9-.5-1.7-1-2.4-1.7.8.7 1.6 1.2 2.4 1.7z"/><path d="m454.3 267c-.3-.3-.6-.6-.9-1 .2.4.5.7.9 1z"/><path d="m579.8 259v1c0-.3 0-.7 0-1z"/><path d="m450.9 260.6c.1.4.2.9.3 1.3-.1-.4-.2-.8-.3-1.3z"/><path d="m327 325.9c-.2-.2-.3-.4-.5-.6-.2-.3-.3-.6-.3-.9v2.3c.3 1.1.5 2.2.5 3.3 0-1.1.2-2.2.5-3.2-.1-.2-.2-.5-.2-.9z"/><path d="m478.5 118.4h-106.9c-6.1 0-11.1 5-11.1 11.1 0-6.1-5-11.1-11.1-11.1h-106.8c-6.1 0-11.1 5-11.1 11.1v29.2c0 4.8 3.1 9.1 7.7 10.5h-82.9c-6.1 0-11.1 5-11.1 11.1v29.2c0 3.6 1.8 7 4.8 9.1h-75.3c-6.1 0-11.1 5-11.1 11.1v29.2c0 6.1 5 11.1 11.1 11.1h78.3c-4.6 1.5-7.7 5.7-7.7 10.6v29.2c0 3.6 1.8 7 4.8 9.1h-70.4c-6.1 0-11.1 5-11.1 11.1v29.2c0 6.1 5 11.1 11.1 11.1h73.3c-4.6 1.5-7.7 5.7-7.7 10.6v29.1c0 6.1 5 11.1 11.1 11.1h63.6c-3 2.1-4.8 5.5-4.8 9.1v29.2c0 6.1 4.9 11.1 11 11.1h-86.4c-6.1 0-11.1 5-11.1 11.1v29.2c0 6.1 5 11.1 11.1 11.1h106.9c6.1 0 11.1-5 11.1-11.1 0 6.1 5 11.1 11.1 11.1h106.9c6.1 0 11.1-5 11.1-11.1v-29.2c0-4.1-2.3-7.9-6-9.8h-23c-1.8 0-3.5-.4-5.1-1.2h-19.5c6.1 0 11.1-5 11.1-11.1 0 4.8 2.5-28 2.5-28 0-6.1 5-11.1 11.1-11.1l40.8-1.2c1.2-.8 2.2-1.8 2.9-3-.6-1.4-.9-2.8-.9-4.3v-29.2c0-2.2.6-4.3 1.8-6.1-.9-2-2.3-3.8-4.2-5h-58c-2.1 0-4.2-.6-6-1.8h-15.4c4.6-1.5 7.7-5.7 7.7-10.5l-.4-29c0-1.3-.1-2.5-.1-3.5-.7-2.4-2.2-4.4-4.2-5.8h9.5l-.2.2c5.4-.3 67.1-3.9 72.1-8-.1-.8-.2-1.5-.1-2.3-.1-.6-.1-1.1-.1-1.7v-29.2c0-.4 0-.7 0-1.1-.7-4.1-3.6-7.5-7.6-8.8h13.5c1.6-.8 3.3-1.3 5.1-1.2h30.6c3.7-1.9 6-5.7 6-9.8v-29.2c0-3.6-1.8-7-4.8-9.1l-31.8-2c-5.4 0-9-2-6.1 0h-9.5c3-2 4.7-5.4 4.8-9-.1-.7-.2-1.3-.2-2v-29.3s0 0 0-.1c-.8-4-3.6-7.3-7.5-8.5h11.6c2-1.6 4.4-2.5 7-2.5h71.3c2.6-2.1 4.1-5.2 4.1-8.6v-29.2c0-6.2-5-11.2-11.2-11.2.1 0 .1 0 0 0zm-281.1 102.3c-3 2.1-4.8 5.5-4.8 9.1 0-3.6-1.8-7-4.8-9.1zm-4.7 38.3c0 4.8 3.1 9.1 7.7 10.5h-15.4c4.5-1.4 7.7-5.7 7.7-10.5zm9.7 61.9c-3 2.1-4.8 5.5-4.8 9.1 0-3.6-1.8-7-4.8-9.1zm-12.4 48.8c4.6-1.5 7.7-5.7 7.7-10.5 0 4.8 3.1 9.1 7.7 10.5zm136.5-149.1c-3 2.1-4.8 5.5-4.8 9.1 0-3.6-1.8-7-4.8-9.1zm-68.7 261c0-6.1-5-11.1-11.1-11.1h22.1c-6 0-11 5-11 11.1zm11.7-62.5c3-2.1 4.8-5.5 4.8-9.1 0 3.6 1.8 7 4.8 9.1zm4.8-38.3c0-4.8-3.1-9.1-7.7-10.6h15.4c-4.6 1.5-7.7 5.8-7.7 10.6zm-4.8-61.9c3-2.1 4.8-5.5 4.8-9.1 0 3.6 1.8 7 4.8 9.1zm4.8-38.3c0-4.8-3.1-9.1-7.7-10.5h15.4c-4.6 1.4-7.7 5.7-7.7 10.5zm-4.8-61.9c3-2.1 4.8-5.5 4.8-9.1 0 3.6 1.8 7 4.8 9.1zm4.8-38.4c0-4.8-3.1-9.1-7.7-10.6h15.4c-4.6 1.6-7.7 5.8-7.7 10.6zm39.7 89.2c4.6-1.5 7.7-5.7 7.7-10.5 0 4.8 3.1 9.1 7.7 10.5zm38.8-100.2c4.6-1.5 7.7-5.7 7.7-10.6 0 4.8 3.1 9.1 7.7 10.6z"/><path d="m454.4 221.6.2-.1z"/><path d="m453.7 222.3-.2.2z"/><path d="m452.7 223.4.1-.1z"/><path d="m451.3 262.2c.1.4.3.9.5 1.3-.2-.5-.4-.9-.5-1.3z"/><path d="m452.4 264.8c.2.4.5.8.8 1.1-.2-.3-.5-.7-.8-1.1z"/><path d="m451.8 263.5c.2.4.4.8.7 1.2-.3-.3-.5-.7-.7-1.2z"/><path d="m451.1 227.2c0-.1.1-.3.1-.4-.1.1-.1.3-.1.4z"/><path d="m451.4 226c0-.1.1-.2.1-.3 0 0 0 .1-.1.3z"/><path d="m450.9 228.5c0-.1 0-.3.1-.4-.1.1-.1.2-.1.4z"/></g><path d="m353 169.8h-111.4c-4.9 0-8.8-4-8.8-8.8v-33.7c0-4.9 4-8.8 8.8-8.8h111.4c4.9 0 8.8 4 8.8 8.8v33.7c0 4.9-3.9 8.8-8.8 8.8z" opacity=".1"/><path d="m394.3 219.9h-111.4c-4.9 0-8.8-4-8.8-8.8v-33.7c0-4.9 4-8.8 8.8-8.8h111.4c4.9 0 8.8 4 8.8 8.8v33.7c0 4.9-3.9 8.8-8.8 8.8z" opacity=".1"/><path d="m314.1 270h-111.4c-4.9 0-8.8-4-8.8-8.8v-33.7c0-4.9 4-8.8 8.8-8.8h111.4c4.9 0 8.8 4 8.8 8.8v33.7c.1 4.9-3.9 8.8-8.8 8.8z" opacity=".1"/><path d="m265.3 321.4h-111.4c-4.9 0-8.8-4-8.8-8.8v-33.7c0-4.9 4-8.8 8.8-8.8h111.4c4.9 0 8.8 4 8.8 8.8v33.7c0 4.9-4 8.8-8.8 8.8z" opacity=".1"/><path d="m317.9 371.5h-111.4c-4.9 0-8.8-4-8.8-8.8v-33.7c0-4.9 4-8.8 8.8-8.8h111.4c4.9 0 8.8 4 8.8 8.8v33.7c0 4.9-3.9 8.8-8.8 8.8z" opacity=".1"/><path d="m265.3 421.6h-111.4c-4.9 0-8.8-4-8.8-8.8v-33.7c0-4.9 4-8.8 8.8-8.8h111.4c4.9 0 8.8 4 8.8 8.8v33.7c0 4.9-4 8.8-8.8 8.8z" opacity=".1"/><path d="m206.9 471.8h-111.4c-4.9 0-8.8-4-8.8-8.8v-33.7c0-4.9 4-8.8 8.8-8.8h111.4c4.9 0 8.8 4 8.8 8.8v33.7c0 4.9-3.9 8.8-8.8 8.8z" fill="#f7bf41"/><path d="m120.2 522h-111.4c-4.8 0-8.8-4-8.8-8.8v-33.7c0-4.9 4-8.8 8.8-8.8h111.4c4.9 0 8.8 4 8.8 8.8v33.7c.1 4.8-3.9 8.8-8.8 8.8z" fill="#47e2aa"/><path d="m137.5 420.7h-111.3c-4.9 0-8.8-4-8.8-8.8v-33.7c0-4.9 4-8.8 8.8-8.8h111.4c4.9 0 8.8 4 8.8 8.8v33.7c0 4.9-4 8.8-8.9 8.8z" fill="#f93ed4"/><path d="m137.5 321.3h-111.3c-4.9 0-8.8-4-8.8-8.8v-33.7c0-4.9 4-8.8 8.8-8.8h111.4c4.9 0 8.8 4 8.8 8.8v33.7c0 4.8-4 8.8-8.9 8.8z" fill="#47e2aa"/><path d="m142.1 220h-111.4c-4.9 0-8.8-4-8.8-8.8v-33.7c0-4.9 4-8.8 8.8-8.8h111.4c4.9 0 8.8 4 8.8 8.8v33.7c0 4.9-3.9 8.8-8.8 8.8z" fill="#3e76f9"/><path d="m142.1 220h-111.4c-4.9 0-8.8-4-8.8-8.8v-33.7c0-4.9 4-8.8 8.8-8.8h111.4c4.9 0 8.8 4 8.8 8.8v33.7c0 4.9-3.9 8.8-8.8 8.8z" fill="#f7bf41"/><path d="m224.2 169.9h-111.4c-4.9 0-8.8-4-8.8-8.8v-33.7c0-4.9 4-8.8 8.8-8.8h111.4c4.9 0 8.8 4 8.8 8.8v33.6c.1 4.9-3.9 8.9-8.8 8.9z" fill="#f93ed4"/><path d="m336.7 471.8h-111.4c-4.9 0-8.8-4-8.8-8.8v-33.7c0-4.9 4-8.8 8.8-8.8h111.4c4.9 0 8.8 4 8.8 8.8v33.7c0 4.8-3.9 8.8-8.8 8.8z" opacity=".1"/><path d="m249 521.9h-111.4c-4.9 0-8.8-4-8.8-8.8v-33.7c0-4.9 4-8.8 8.8-8.8h111.4c4.9 0 8.8 4 8.8 8.8v33.6c0 4.9-3.9 8.9-8.8 8.9z" opacity=".1"/><path d="m684-16.8h-26.8c10.3.4 19.1-6.7 19.6-16s-7.5-17.1-17.9-17.5c-.6 0-1.1 0-1.7 0h-216.8c-10.3-.4-19.1 6.7-19.6 16s7.5 17.1 17.9 17.5h1.7 26.8c-10.3.4-18.4 8.3-17.9 17.5.4 8.7 8.2 15.6 17.9 16h-37.5c-10.3-.4-19.1 6.7-19.6 16s7.5 17.1 17.9 17.5h1.7 216.7c10.3-.4 18.4-8.3 17.9-17.5-.4-8.7-8.2-15.6-17.9-16h37.5c10.3-.4 18.4-8.3 17.9-17.5-.4-8.7-8.2-15.6-17.9-16z" fill="#dee3f3" opacity=".5"/><path d="m552.7 540.1h19v-11.8-2.1h-155.5v2.1 11.8h19v13.8h-31.1v17.3h179.7v-17.3h-31.1z" fill="url(#c)"/><path d="m412.7 572.8v15.7h20.7v24.1 20.8 31.1 17.3 10.3h-24.2v24.2h65.7v-24.2h-10.4v-10.3-17.3-31.1-20.8-24.1h24.2v-15.7-1.6h-76z" fill="url(#d)"/><path d="m495.6 572.8v15.7h31.1v24.1 20.8 31.1 17.3 10.3h-24.2v24.2h65.7v-24.2h-10.4v-10.3-17.3-31.1-20.8-24.1h13.9v-15.7-1.6h-76.1z" fill="url(#e)"/><path d="m390.9 264.7h206.1c7.2 0 13 5.8 13 13v81.7c0 7.2-5.8 13-13 13h-206.1c-7.2 0-13-5.8-13-13v-81.7c0-7.2 5.8-13 13-13z" fill="#3e76f9"/><path d="m396.4 355.8h195v2h-195z" opacity=".1"/><path d="m396.4 281.5h195v74h-195z" opacity=".3"/><circle cx="441.8" cy="320.1" opacity=".1" r="26.9"/><circle cx="441.8" cy="318.5" fill="#dee3f3" r="26.9"/><circle cx="546" cy="320.1" opacity=".1" r="26.9"/><circle cx="546" cy="318.5" fill="#dee3f3" r="26.9"/><path d="m473.7 372.3h40.4v23.5h-40.4z" fill="#3e76f9"/><path d="m409.9 389.1h168.1v134.5h-168.1z" fill="#3e76f9"/><path d="m569.6 523.7v13.4h-18.5v13.4h-114.4v-13.4h-18.4v-13.4z" fill="#3e76f9"/><path d="m569.6 523.7v13.4h-18.5v13.4h-114.4v-13.4h-18.4v-13.4z" opacity=".3"/><g fill="#3e76f9"><path d="m406.5 550.5h174.8v16.8h-174.8z"/><path d="m414.9 567.4h74v16.8h-74z"/><path d="m495.6 567.4h74v16.8h-74z"/><path d="m411.5 685h63.9v23.5h-63.9z"/><path d="m435.1 607.7v20.2 30.3 16.8 10h30.2v-10-16.8-30.3-20.2-23.5h-30.2z"/><path d="m525.8 584.2v23.5 20.2 30.3 16.8 10h30.3v-10-16.8-30.3-20.2-23.5z"/><path d="m502.3 685h63.9v23.5h-63.9z"/></g><path d="m436.8 409.3h114.3v87.4h-114.3z" opacity=".3"/><path d="m435.1 584.2h30.3v23.5h-30.3z" fill="#f93ed4"/><path d="m435.1 627.9h30.3v30.3h-30.3z" fill="#f7bf41"/><path d="m435.1 675h30.3v10.1h-30.3z" fill="#47e2aa"/><path d="m525.8 584.2h30.3v23.5h-30.3z" fill="#f7bf41"/><path d="m525.8 627.9h30.3v30.3h-30.3z" fill="#47e2aa"/><path d="m525.8 675h30.3v10.1h-30.3z" fill="#f93ed4"/><path d="m473.7 372.3h40.4v2.8h-40.4z" opacity=".1"/><path d="m581 413.1v56.3c-2-2.2-3.1-5-3.1-8v-40.3c-.1-3 1-5.8 3.1-8z" opacity=".1"/><path d="m410.4 416.8v42.2c-.2 2.7-1.3 5.2-3.1 7.1v-56.4c1.8 2 2.9 4.5 3.1 7.1z" opacity=".1"/><path d="m418.3 523.7h151.3v2h-151.3z" opacity=".1"/><path d="m414.9 567.4h74v1.5h-74z" opacity=".1"/><path d="m495.6 567.4h74v1.5h-74z" opacity=".1"/><path d="m423.1 165.2h11.6v99.6h-11.6z" fill="#3e76f9"/><path d="m555.9 165.2h11.6v99.6h-11.6z" fill="#3e76f9"/><circle cx="428.5" cy="165.9" opacity=".1" r="13.1"/><circle cx="428.5" cy="165.2" fill="#3e76f9" r="13.1"/><circle cx="562.1" cy="165.9" opacity=".1" r="13.1"/><circle cx="562.1" cy="165.2" fill="#3e76f9" r="13.1"/><path d="m151.5 470.3s38.4 75.4 7.1 116.6 2.8 153.6 2.8 153.6" fill="none" stroke="#fc6681" stroke-miterlimit="10" stroke-width="2"/><path d="m162.9 446.7c0 14.5-10.6 26.3-10.6 26.3s-10.7-11.8-10.7-26.3 10.7-26.3 10.7-26.3 10.6 11.9 10.6 26.3z" fill="#fc6681"/><path d="m171.4 470.3s-38.4 75.4-7.1 116.6-2.8 153.6-2.8 153.6" fill="none" stroke="#ffd037" stroke-miterlimit="10" stroke-width="2"/><path d="m160.1 446.7c0 14.5 10.7 26.3 10.7 26.3s10.7-11.8 10.7-26.3-10.7-26.3-10.7-26.3-10.7 11.9-10.7 26.3z" fill="#ffd037"/><path d="m187.1 470.3s38.4 75.4 7.1 116.6 2.8 153.6 2.8 153.6" fill="none" stroke="#fc6681" stroke-miterlimit="10" stroke-width="2"/><g fill="#fc6681"><path d="m198.5 446.7c0 14.5-10.7 26.3-10.7 26.3s-10.7-11.8-10.7-26.3 10.7-26.3 10.7-26.3 10.7 11.9 10.7 26.3z"/><path d="m192.5 507.1c-10.1 10.5-25.9 11.6-25.9 11.6s.5-15.9 10.5-26.4 25.9-11.6 25.9-11.6-.5 16-10.5 26.4z"/><path d="m193.5 559.1c-10.1 10.5-25.9 11.6-25.9 11.6s.5-15.9 10.5-26.4 25.9-11.6 25.9-11.6-.5 16-10.5 26.4z"/><path d="m138.9 587.8c9.5 11 9.2 26.9 9.2 26.9s-15.8-1.9-25.3-12.9-9.2-26.9-9.2-26.9 15.7 1.9 25.3 12.9z"/><path d="m147.7 476.9c12.1 8 16 23.4 16 23.4s-15.7 2.4-27.8-5.6-16-23.4-16-23.4 15.7-2.5 27.8 5.6z"/></g><path d="m207 470.3s-38.4 75.4-7.1 116.6-2.9 153.6-2.9 153.6" fill="none" stroke="#ffd037" stroke-miterlimit="10" stroke-width="2"/><path d="m195.6 446.7c0 14.5 10.6 26.3 10.6 26.3s10.7-11.8 10.7-26.3-10.7-26.3-10.7-26.3-10.6 11.9-10.6 26.3z" fill="#ffd037"/><path d="m198.7 508.3c-10.2 10.4-10.9 26.2-10.9 26.2s15.9-.9 26.1-11.2 10.9-26.2 10.9-26.2-15.9.8-26.1 11.2z" fill="#ffd037"/><path d="m218.7 580.3c-10.2 10.3-10.9 26.2-10.9 26.2s15.9-.9 26.1-11.2 10.9-26.2 10.9-26.2-15.9.8-26.1 11.2z" fill="#ffd037"/><path d="m189.3 564.4s23.1-36.4 55.6-37.2" fill="none" stroke="#ffd037" stroke-miterlimit="10" stroke-width="2"/><path d="m171.3 542.4s-23.1-36.4-55.6-37.2" fill="none" stroke="#fc6681" stroke-miterlimit="10" stroke-width="2"/><path d="m168.3 594.4s23.1-36.4 55.6-37.2" fill="none" stroke="#ffd037" stroke-miterlimit="10" stroke-width="2"/><circle cx="243.8" cy="526.9" fill="#ffd037" r="6"/><circle cx="116.3" cy="505.4" fill="#fc6681" r="6"/><path d="m185.3 606.4s-23.1-36.4-55.6-37.2" fill="none" stroke="#fc6681" stroke-miterlimit="10" stroke-width="2"/><circle cx="130.3" cy="569.4" fill="#fc6681" r="6"/><circle cx="224.3" cy="557.4" fill="#ffd037" r="6"/><path d="m313 696.7s-55.7-11.1-70.6-26-81.7-40.8-89.1-22.3c-7.4 18.6-100.3 81.7-37.1 92.9s148.5 14.8 167.1 7.4 29.7-52 29.7-52z" fill="#a8a8a8"/><path d="m116.2 734.3c63.1 11.1 148.5 14.8 167.1 7.4 14.1-5.7 24-32.8 27.9-45.5l1.9.4s-11.1 44.6-29.7 52-104 3.7-167.1-7.4c-18.3-3.2-23.5-10.7-21.6-20.3 1.6 6.2 8 11 21.5 13.4z" opacity=".2"/><path d="m914.7 483.5s13.3 17.5-6.2 43.8c-19.5 26.4-35.6 48.6-29.1 65 0 0 29.4-48.9 53.4-49.6s8.2-29.7-18.1-59.2z" fill="#fc6681"/><path d="m914.7 483.5c1.2 1.7 2.1 3.5 2.7 5.5 23.4 27.5 35.8 53.1 13.4 53.7-20.9.6-46 38-52 47.5.2.7.4 1.4.7 2.2 0 0 29.4-48.9 53.4-49.6s8.1-29.8-18.2-59.3z" opacity=".1"/><path d="m939.5 505.8c0 6.1-.7 11.1-1.5 11.1s-1.5-5-1.5-11.1.9-3.2 1.7-3.2 1.3-3 1.3 3.2z" fill="#ffd037"/><path d="m948 513.1c-5.4 2.9-10.1 4.7-10.5 4s3.6-3.7 9-6.7c5.4-2.9 3.3-.8 3.7 0s3.2-.2-2.2 2.7z" fill="#ffd037"/><path d="m844.2 483.5s-13.3 17.5 6.2 43.8c19.5 26.4 35.6 48.6 29.1 65 0 0-29.4-48.9-53.4-49.6s-8.3-29.7 18.1-59.2z" fill="#fc6681"/><path d="m844.2 483.5c-1.2 1.7-2.1 3.5-2.7 5.5-23.4 27.5-35.8 53.1-13.4 53.7 20.9.6 46 38 52 47.5-.2.7-.4 1.4-.7 2.2 0 0-29.4-48.9-53.4-49.6s-8.2-29.8 18.2-59.3z" opacity=".1"/><path d="m819.3 505.8c0 6.1.7 11.1 1.5 11.1s1.5-5 1.5-11.1-.9-3.2-1.7-3.2-1.3-3-1.3 3.2z" fill="#ffd037"/><path d="m810.8 513.1c5.4 2.9 10.1 4.7 10.5 4s-3.6-3.7-9-6.7c-5.4-2.9-3.3-.8-3.7 0s-3.2-.2 2.2 2.7z" fill="#ffd037"/><path d="m823.6 590.1s37.3-1.2 48.6-9.2 57.4-17.6 60.2-4.7 56.1 63.9 14 64.2-97.9-6.6-109.1-13.4-13.7-36.9-13.7-36.9z" fill="#a8a8a8"/><path d="m947.1 635.9c-42.1.3-97.9-6.6-109.1-13.4-8.5-5.2-12-23.9-13.1-32.5h-1.2s2.4 30.1 13.6 36.9 67 13.7 109.1 13.4c12.2-.1 16.4-4.4 16.1-10.8-1.8 3.9-6.4 6.4-15.4 6.4z" opacity=".2"/><path d="m424.8 410.8-.3 40.4v.9c-.7 6.5-8.2 11.2-16.8 10.6-8-.6-14.1-5.8-14.1-11.9l.3-40.4c.1-6.5 7.1-11.7 15.6-11.6 4.1 0 8 1.3 10.9 3.5l.4.3c2.3 2 3.8 4.5 4 7.1z" fill="#3e76f9"/><path d="m393.8 412.2-.3 31.1c-10.9 1.3-21 5-29.5 10.5-7.8 5.3-13.7 12-17.6 19.3-5.2 9.3-7.8 19.8-8.8 29.7-1.4 13.4-.6 26.8 2.2 40l-44.1-.5c-1.7-18.6-1-34.5 1.6-48.2 2.9-15.4 8-27.9 14.5-38 12.9-20.3 31.2-31.2 47.3-37 19-7.1 34.7-6.9 34.7-6.9z" fill="#3e76f9"/><path d="m304.1 596.2s-44.1-33-8.5-55l44 .5c0-.1 4.3 55-35.5 54.5z" fill="#f7bf41"/><path d="m592.3 411.1-.3 40.4v.9c-.7 6.5-8.2 11.2-16.8 10.6-8-.6-14.1-5.8-14.1-11.9l.3-40.4c.1-6.5 7.1-11.7 15.6-11.6 4.1 0 8 1.3 10.9 3.5l.4.3c2.3 2 3.8 4.5 4 7.1z" fill="#3e76f9"/><path d="m393.8 412.2-.3 31.1c-10.9 1.3-21 5-29.5 10.5l-5.2-34.8c19.3-7 35-6.8 35-6.8z" fill="#f93ed4"/><path d="m346.6 473.1c-5.2 9.3-7.8 19.8-8.8 29.7l-40.5-8.7c2.9-15.4 8-27.9 14.5-38z" fill="#47e2aa"/><path d="m579 390.9h-65.7v-17.3h88.5c5.5 0 10-4.5 10-10v-90.6c0-5.5-4.5-10-10-10h-33.6v-89.3c4.8-2.2 7.9-7 7.9-12.3 0-.1 0-.3 0-.4s0-.3 0-.4c0-7.5-6-13.5-13.5-13.5s-13.5 6-13.5 13.5v.4.4c0 5 2.7 9.6 7.1 11.9v89.6h-124.4v-89.6c4.4-2.3 7.1-6.9 7.1-11.9 0-.1 0-.3 0-.4s0-.3 0-.4c0-7.5-6-13.5-13.5-13.5s-13.5 6-13.5 13.5v.4.4c0 5.3 3.1 10.1 7.9 12.3v89.3h-36.5c-5.5 0-10 4.5-10 10v90.6c0 5.5 4.5 10 10 10h88.5v17.3h-65.7v25.5l.1 49.5v-.1 23.1 40.4h172.7v-33-29.2.2l.1-45.4z" fill="url(#f)"/></svg>