<svg id="dd753f21-6b71-4d24-98dc-8d672633fdb2" xmlns="http://www.w3.org/2000/svg" viewBox="0 0 1562.3 414.24"><defs><style>.cls-1{fill:#dee3f3;opacity:0.5;}.cls-1,.cls-12,.cls-13,.cls-18,.cls-7,.cls-8,.cls-9{isolation:isolate;}.cls-11,.cls-2,.cls-4{fill:none;stroke-miterlimit:10;}.cls-2{stroke:#fc6681;}.cls-2,.cls-4{stroke-width:2px;}.cls-3{fill:#fc6681;}.cls-4{stroke:#ffd037;}.cls-5{fill:#ffd037;}.cls-6{fill:#a8a8a8;}.cls-7{opacity:0.2;}.cls-8{opacity:0.1;}.cls-10,.cls-9{fill:#38d39f;}.cls-12,.cls-16,.cls-18,.cls-9{opacity:0.1;}.cls-11{stroke:#565987;}.cls-13{opacity:0.2;}.cls-14{fill:#b77b7f;}.cls-15{fill:#dda2a6;}.cls-17{fill:#918c9e;}.cls-18{fill:#fff;}</style></defs><title>garden</title><ellipse class="cls-1" cx="418.01" cy="337.89" rx="256" ry="43"/><path class="cls-2" d="M-437.79,456.73s38.4,75.4,7.1,116.6,2.8,153.6,2.8,153.6" transform="translate(494.99 -354.94)"/><path class="cls-3" d="M-426.39,433.13c0,14.5-10.6,26.3-10.6,26.3s-10.7-11.8-10.7-26.3,10.7-26.3,10.7-26.3S-426.39,418.73-426.39,433.13Z" transform="translate(494.99 -354.94)"/><path class="cls-4" d="M-417.89,456.73s-38.4,75.4-7.1,116.6-2.8,153.6-2.8,153.6" transform="translate(494.99 -354.94)"/><path class="cls-5" d="M-429.19,433.13c0,14.5,10.7,26.3,10.7,26.3s10.7-11.8,10.7-26.3-10.7-26.3-10.7-26.3S-429.19,418.73-429.19,433.13Z" transform="translate(494.99 -354.94)"/><path class="cls-2" d="M-402.19,456.73s38.4,75.4,7.1,116.6,2.8,153.6,2.8,153.6" transform="translate(494.99 -354.94)"/><path class="cls-3" d="M-390.79,433.13c0,14.5-10.7,26.3-10.7,26.3s-10.7-11.8-10.7-26.3,10.7-26.3,10.7-26.3S-390.79,418.73-390.79,433.13Z" transform="translate(494.99 -354.94)"/><path class="cls-3" d="M-396.79,493.53c-10.1,10.5-25.9,11.6-25.9,11.6s.5-15.9,10.5-26.4,25.9-11.6,25.9-11.6S-386.79,483.13-396.79,493.53Z" transform="translate(494.99 -354.94)"/><path class="cls-3" d="M-395.79,545.53c-10.1,10.5-25.9,11.6-25.9,11.6s.5-15.9,10.5-26.4,25.9-11.6,25.9-11.6S-385.79,535.13-395.79,545.53Z" transform="translate(494.99 -354.94)"/><path class="cls-3" d="M-450.39,574.23c9.5,11,9.2,26.9,9.2,26.9s-15.8-1.9-25.3-12.9-9.2-26.9-9.2-26.9S-460,563.23-450.39,574.23Z" transform="translate(494.99 -354.94)"/><path class="cls-3" d="M-441.59,463.33c12.1,8,16,23.4,16,23.4s-15.7,2.4-27.8-5.6-16-23.4-16-23.4S-453.69,455.23-441.59,463.33Z" transform="translate(494.99 -354.94)"/><path class="cls-4" d="M-382.29,456.73s-38.4,75.4-7.1,116.6-2.9,153.6-2.9,153.6" transform="translate(494.99 -354.94)"/><path class="cls-5" d="M-393.69,433.13c0,14.5,10.6,26.3,10.6,26.3s10.7-11.8,10.7-26.3-10.7-26.3-10.7-26.3S-393.69,418.73-393.69,433.13Z" transform="translate(494.99 -354.94)"/><path class="cls-5" d="M-390.59,494.73c-10.2,10.4-10.9,26.2-10.9,26.2s15.9-.9,26.1-11.2,10.9-26.2,10.9-26.2S-380.39,484.33-390.59,494.73Z" transform="translate(494.99 -354.94)"/><path class="cls-5" d="M-370.59,566.73c-10.2,10.3-10.9,26.2-10.9,26.2s15.9-.9,26.1-11.2,10.9-26.2,10.9-26.2S-360.39,556.33-370.59,566.73Z" transform="translate(494.99 -354.94)"/><path class="cls-4" d="M-400,550.83s23.1-36.4,55.6-37.2" transform="translate(494.99 -354.94)"/><path class="cls-2" d="M-418,528.83s-23.1-36.4-55.6-37.2" transform="translate(494.99 -354.94)"/><path class="cls-4" d="M-421,580.83s23.1-36.4,55.6-37.2" transform="translate(494.99 -354.94)"/><circle class="cls-5" cx="149.51" cy="158.39" r="6"/><circle class="cls-3" cx="22.01" cy="136.89" r="6"/><path class="cls-2" d="M-404,592.83s-23.1-36.4-55.6-37.2" transform="translate(494.99 -354.94)"/><circle class="cls-3" cx="36.01" cy="200.89" r="6"/><circle class="cls-5" cx="130.01" cy="188.89" r="6"/><path class="cls-6" d="M-276.29,683.13s-55.7-11.1-70.6-26-81.7-40.8-89.1-22.3-100.3,81.7-37.1,92.9,148.5,14.8,167.1,7.4S-276.29,683.13-276.29,683.13Z" transform="translate(494.99 -354.94)"/><path class="cls-7" d="M-473.09,720.73c63.1,11.1,148.5,14.8,167.1,7.4,14.1-5.7,24-32.8,27.9-45.5l1.9.4s-11.1,44.6-29.7,52-104,3.7-167.1-7.4c-18.3-3.2-23.5-10.7-21.6-20.3C-493,713.53-486.59,718.33-473.09,720.73Z" transform="translate(494.99 -354.94)"/><path class="cls-3" d="M-204.4,548.29s13.3,17.5-6.2,43.8-35.6,48.6-29.1,65c0,0,29.4-48.9,53.4-49.6S-178.1,577.79-204.4,548.29Z" transform="translate(494.99 -354.94)"/><path class="cls-8" d="M-204.4,548.29a18.78,18.78,0,0,1,2.7,5.5c23.4,27.5,35.8,53.1,13.4,53.7-20.9.6-46,38-52,47.5.2.7.4,1.4.7,2.2,0,0,29.4-48.9,53.4-49.6S-178.1,577.79-204.4,548.29Z" transform="translate(494.99 -354.94)"/><path class="cls-5" d="M-195.5,553.37c0,6.1-.7,11.1-1.5,11.1s-1.5-5-1.5-11.1.9-3.2,1.7-3.2S-195.5,547.17-195.5,553.37Z" transform="translate(494.99 -354.94)"/><path class="cls-5" d="M-187,560.67c-5.4,2.9-10.1,4.7-10.5,4s3.6-3.7,9-6.7,3.3-.8,3.7,0S-181.6,557.77-187,560.67Z" transform="translate(494.99 -354.94)"/><path class="cls-3" d="M-274.9,548.29s-13.3,17.5,6.2,43.8,35.6,48.6,29.1,65c0,0-29.4-48.9-53.4-49.6S-301.3,577.79-274.9,548.29Z" transform="translate(494.99 -354.94)"/><path class="cls-8" d="M-274.9,548.29a18.78,18.78,0,0,0-2.7,5.5c-23.4,27.5-35.8,53.1-13.4,53.7,20.9.6,46,38,52,47.5-.2.7-.4,1.4-.7,2.2,0,0-29.4-48.9-53.4-49.6S-301.3,577.79-274.9,548.29Z" transform="translate(494.99 -354.94)"/><path class="cls-5" d="M-299.8,570.59c0,6.1.7,11.1,1.5,11.1s1.5-5,1.5-11.1-.9-3.2-1.7-3.2S-299.8,564.39-299.8,570.59Z" transform="translate(494.99 -354.94)"/><path class="cls-5" d="M-308.3,577.89c5.4,2.9,10.1,4.7,10.5,4s-3.6-3.7-9-6.7-3.3-.8-3.7,0S-313.7,575-308.3,577.89Z" transform="translate(494.99 -354.94)"/><path class="cls-6" d="M-295.5,654.89s37.3-1.2,48.6-9.2,57.4-17.6,60.2-4.7,56.1,63.9,14,64.2-97.9-6.6-109.1-13.4S-295.5,654.89-295.5,654.89Z" transform="translate(494.99 -354.94)"/><path class="cls-7" d="M-172,700.69c-42.1.3-97.9-6.6-109.1-13.4-8.5-5.2-12-23.9-13.1-32.5h-1.2s2.4,30.1,13.6,36.9,67,13.7,109.1,13.4c12.2-.1,16.4-4.4,16.1-10.8C-158.4,698.19-163,700.69-172,700.69Z" transform="translate(494.99 -354.94)"/><ellipse class="cls-9" cx="1123.93" cy="339.55" rx="46.92" ry="6.44"/><ellipse class="cls-9" cx="1303.67" cy="357.77" rx="46.92" ry="6.44"/><ellipse class="cls-9" cx="1515.38" cy="333.11" rx="46.92" ry="6.44"/><ellipse class="cls-9" cx="1231.73" cy="409.66" rx="33.36" ry="4.58"/><ellipse class="cls-9" cx="1418.28" cy="405.08" rx="33.36" ry="4.58"/><path class="cls-10" d="M809.66,711.27S743.87,495.54,820,409.09c56.94-64.64,121.56-56.91,150.51-48.91A53.48,53.48,0,0,1,1005,388.87c10.11,21.83,8.29,57.26-63.14,98.62-119.6,69.24-127,164.23-127,164.23Z" transform="translate(494.99 -354.94)"/><path class="cls-11" d="M960.17,390.82s-194,60.66-150.5,320.45" transform="translate(494.99 -354.94)"/><path class="cls-11" d="M846.87,412.56s26.71,18,18.22,45.06" transform="translate(494.99 -354.94)"/><path class="cls-11" d="M940.72,428.59s-16.33-16.62-36.21-7.45" transform="translate(494.99 -354.94)"/><path class="cls-11" d="M864,512.09s-28.68-14.55-36.09,3.68" transform="translate(494.99 -354.94)"/><path class="cls-11" d="M793.08,542.46s21.58-1.72,21.92,8.63" transform="translate(494.99 -354.94)"/><path class="cls-10" d="M807,713s77.08-156.79,98.25-153.36c10.06,1.63,14.69,11.52,16.78,21.46a63,63,0,0,1-4.19,38.17C906.91,644.35,877.54,692,807,713Z" transform="translate(494.99 -354.94)"/><path class="cls-11" d="M904.66,589.39s-80.9,117.3-96.53,122.45" transform="translate(494.99 -354.94)"/><line class="cls-11" x1="1407.13" y1="252.75" x2="1388.25" y2="252.75"/><line class="cls-11" x1="1384.51" y1="295.67" x2="1354.91" y2="296.94"/><line class="cls-11" x1="1366.5" y1="261.34" x2="1369.71" y2="276.75"/><line class="cls-11" x1="1335.03" y1="308.26" x2="1335.6" y2="322.27"/><path class="cls-10" d="M809.3,713S732.23,556.2,711.06,559.63c-10.06,1.63-14.7,11.52-16.79,21.46a63.11,63.11,0,0,0,4.2,38.17C709.4,644.35,738.78,692,809.3,713Z" transform="translate(494.99 -354.94)"/><path class="cls-11" d="M711.66,589.39s80.9,117.3,96.53,122.45" transform="translate(494.99 -354.94)"/><line class="cls-11" x1="1199.19" y1="252.75" x2="1218.08" y2="252.75"/><line class="cls-11" x1="1221.81" y1="295.67" x2="1251.41" y2="296.94"/><line class="cls-11" x1="1239.82" y1="261.34" x2="1236.61" y2="276.75"/><line class="cls-11" x1="1271.3" y1="308.26" x2="1270.72" y2="322.27"/><path class="cls-10" d="M941.66,749.61c2-1.84,3.82-4,4.39-6.62s-.56-5.79-3.07-6.75c-2.81-1.07-5.82.88-8.1,2.85s-4.9,4.22-7.88,3.8a12,12,0,0,0,3.66-11.23,4.84,4.84,0,0,0-1-2.28c-1.57-1.67-4.4-1-6.27.36-6,4.19-7.61,12.27-7.65,19.55-.6-2.62-.09-5.36-.11-8s-.75-5.68-3-7.12A9.12,9.12,0,0,0,908,733c-2.68-.1-5.66.17-7.48,2.13-2.27,2.43-1.68,6.51.29,9.19s5,4.35,7.74,6.2a17.15,17.15,0,0,1,5.54,5.28,5.58,5.58,0,0,1,.41.94h16.77A47.1,47.1,0,0,0,941.66,749.61Z" transform="translate(494.99 -354.94)"/><path class="cls-10" d="M648,686.46c2-1.83,3.82-4,4.39-6.62s-.55-5.78-3.07-6.75c-2.81-1.07-5.82.88-8.1,2.85s-4.9,4.22-7.88,3.8A12,12,0,0,0,637,668.51a4.84,4.84,0,0,0-1-2.28c-1.57-1.67-4.4-1-6.27.37-6,4.18-7.61,12.27-7.64,19.54-.6-2.62-.1-5.36-.11-8s-.76-5.68-3-7.12a9.12,9.12,0,0,0-4.61-1.09c-2.67-.09-5.65.17-7.48,2.13-2.27,2.43-1.68,6.51.29,9.19s5,4.35,7.75,6.2a17.12,17.12,0,0,1,5.53,5.28,5.58,5.58,0,0,1,.41.94h16.77A46.71,46.71,0,0,0,648,686.46Z" transform="translate(494.99 -354.94)"/><path class="cls-10" d="M745.83,749.61c2-1.84,3.82-4,4.39-6.62s-.55-5.79-3.07-6.75c-2.81-1.07-5.82.88-8.1,2.85s-4.9,4.22-7.88,3.8a12,12,0,0,0,3.71-11.23,4.84,4.84,0,0,0-1-2.28c-1.57-1.67-4.4-1-6.27.36-6,4.19-7.61,12.27-7.64,19.55-.6-2.62-.1-5.36-.11-8s-.76-5.68-3-7.12a9.12,9.12,0,0,0-4.61-1.09c-2.67-.1-5.65.17-7.48,2.13-2.27,2.43-1.68,6.51.29,9.19s5,4.35,7.75,6.2a17.12,17.12,0,0,1,5.53,5.28,4.62,4.62,0,0,1,.41.94h16.71A47.1,47.1,0,0,0,745.83,749.61Z" transform="translate(494.99 -354.94)"/><path class="cls-10" d="M1023.42,622s6.29,8.22-2.9,20.63-16.76,22.89-13.7,30.63c0,0,13.86-23,25.15-23.37S1035.84,635.82,1023.42,622Z" transform="translate(494.99 -354.94)"/><path class="cls-12" d="M1023.42,622a9.9,9.9,0,0,1,1.29,2.58c11,12.93,16.87,25,6.29,25.31-9.86.28-21.68,17.91-24.52,22.36.1.34.21.68.34,1,0,0,13.86-23,25.15-23.37S1035.84,635.82,1023.42,622Z" transform="translate(494.99 -354.94)"/><path class="cls-5" d="M1035.11,632.44c0,2.89-.32,5.24-.72,5.24s-.73-2.35-.73-5.24.41-1.54.81-1.54S1035.11,629.54,1035.11,632.44Z" transform="translate(494.99 -354.94)"/><path class="cls-5" d="M1039.12,635.89c-2.54,1.39-4.75,2.22-5,1.87s1.72-1.76,4.26-3.14,1.54-.38,1.73,0S1041.66,634.51,1039.12,635.89Z" transform="translate(494.99 -354.94)"/><path class="cls-10" d="M990.21,622s-6.28,8.22,2.91,20.63,16.76,22.89,13.7,30.63c0,0-13.87-23-25.15-23.37S977.8,635.82,990.21,622Z" transform="translate(494.99 -354.94)"/><path class="cls-12" d="M990.21,622a10.53,10.53,0,0,0-1.28,2.58c-11,12.93-16.88,25-6.29,25.31,9.86.28,21.68,17.91,24.51,22.36a9,9,0,0,1-.33,1s-13.87-23-25.15-23.37S977.8,635.82,990.21,622Z" transform="translate(494.99 -354.94)"/><path class="cls-5" d="M978.53,632.44c0,2.89.32,5.24.72,5.24s.73-2.35.73-5.24-.41-1.54-.81-1.54S978.53,629.54,978.53,632.44Z" transform="translate(494.99 -354.94)"/><path class="cls-5" d="M974.52,635.89c2.54,1.39,4.75,2.22,4.94,1.87s-1.71-1.76-4.25-3.14-1.54-.38-1.73,0S972,634.51,974.52,635.89Z" transform="translate(494.99 -354.94)"/><path class="cls-6" d="M980.53,672.15s17.58-.54,22.87-4.32,27-8.27,28.36-2.22,26.42,30.09,6.57,30.25-46.11-3.09-51.4-6.32S980.53,672.15,980.53,672.15Z" transform="translate(494.99 -354.94)"/><path class="cls-13" d="M1038.66,693.75c-19.84.16-46.11-3.09-51.4-6.31-4-2.45-5.63-11.26-6.16-15.32h-.59s1.11,14.17,6.4,17.39,31.55,6.48,51.4,6.32c5.73,0,7.71-2.09,7.6-5.11C1045.13,692.58,1043,693.72,1038.66,693.75Z" transform="translate(494.99 -354.94)"/><ellipse class="cls-9" cx="598.44" cy="298.97" rx="33.36" ry="11.56"/><ellipse class="cls-9" cx="1017.56" cy="298.97" rx="33.36" ry="11.56"/><ellipse class="cls-9" cx="562.05" cy="356.89" rx="33.36" ry="11.56"/><ellipse class="cls-9" cx="1053.74" cy="358.01" rx="33.36" ry="11.56"/><polygon class="cls-14" points="1042.51 346.97 1049.8 362.53 1049.8 246.96 1042.51 246.96 1042.51 346.97"/><polygon class="cls-14" points="571.62 346.97 564.33 362.53 564.33 246.96 571.62 246.96 571.62 346.97"/><polygon class="cls-12" points="1042.51 346.97 1049.8 362.53 1049.8 246.96 1042.51 246.96 1042.51 346.97"/><polygon class="cls-12" points="571.62 346.97 564.33 362.53 564.33 246.96 571.62 246.96 571.62 346.97"/><rect class="cls-14" x="601.09" y="34.69" width="20.2" height="142.06"/><rect class="cls-14" x="1007.46" y="34.69" width="20.2" height="142.06"/><rect class="cls-12" x="601.09" y="34.69" width="20.2" height="16.56"/><rect class="cls-12" x="1007.46" y="34.69" width="20.2" height="16.56"/><rect class="cls-15" x="569.96" y="28.73" width="486.46" height="21.19"/><rect class="cls-12" x="601.09" y="58.86" width="20.2" height="21.19"/><rect class="cls-12" x="1007.46" y="58.86" width="20.2" height="21.19"/><rect class="cls-15" x="569.96" y="57.54" width="486.46" height="21.19"/><rect class="cls-12" x="601.09" y="87.67" width="20.2" height="21.19"/><rect class="cls-12" x="1007.46" y="87.67" width="20.2" height="21.19"/><rect class="cls-15" x="569.96" y="86.35" width="486.46" height="21.19"/><rect class="cls-12" x="601.09" y="116.48" width="20.2" height="21.19"/><rect class="cls-12" x="1007.46" y="116.48" width="20.2" height="21.19"/><rect class="cls-15" x="569.96" y="115.16" width="486.46" height="21.19"/><rect class="cls-12" x="601.09" y="145.29" width="20.2" height="21.19"/><rect class="cls-12" x="1007.46" y="145.29" width="20.2" height="21.19"/><rect class="cls-15" x="569.96" y="143.97" width="486.46" height="21.19"/><g class="cls-16"><circle cx="611.19" cy="40.65" r="2.93"/><circle cx="611.19" cy="69.46" r="2.93"/><circle cx="611.19" cy="98.27" r="2.93"/><circle cx="611.19" cy="127.08" r="2.93"/><circle cx="611.19" cy="155.89" r="2.93"/><circle cx="1017.57" cy="40.65" r="2.93"/><circle cx="1017.57" cy="69.46" r="2.93"/><circle cx="1017.57" cy="98.27" r="2.93"/><circle cx="1017.57" cy="127.08" r="2.93"/><circle cx="1017.57" cy="155.89" r="2.93"/></g><circle class="cls-17" cx="611.19" cy="39.33" r="2.93"/><circle class="cls-17" cx="611.19" cy="68.14" r="2.93"/><circle class="cls-17" cx="611.19" cy="96.95" r="2.93"/><circle class="cls-17" cx="611.19" cy="125.76" r="2.93"/><circle class="cls-17" cx="611.19" cy="154.57" r="2.93"/><circle class="cls-17" cx="1017.57" cy="39.33" r="2.93"/><circle class="cls-17" cx="1017.57" cy="68.14" r="2.93"/><circle class="cls-17" cx="1017.57" cy="96.95" r="2.93"/><circle class="cls-17" cx="1017.57" cy="125.76" r="2.93"/><circle class="cls-17" cx="1017.57" cy="154.57" r="2.93"/><polygon class="cls-15" points="1067.68 185.7 558.37 185.7 569.96 171.45 1056.42 171.45 1067.68 185.7"/><polygon class="cls-12" points="1067.68 185.7 558.37 185.7 569.96 171.45 1056.42 171.45 1067.68 185.7"/><polygon class="cls-15" points="1067.68 185.03 558.37 185.03 569.96 170.79 1056.42 170.79 1067.68 185.03"/><polygon class="cls-15" points="1085.56 207.88 539.16 206.56 557.71 187.02 1069.67 187.02 1085.56 207.88"/><polygon class="cls-12" points="1085.56 207.88 539.16 206.56 557.71 187.02 1069.67 187.02 1085.56 207.88"/><polygon class="cls-15" points="1085.56 207.22 539.16 205.9 557.71 186.36 1069.67 186.36 1085.56 207.22"/><polygon class="cls-15" points="1102.78 228.08 519.62 228.08 537.51 207.88 1086.89 208.54 1102.78 228.08"/><polygon class="cls-14" points="608.26 246.96 608.26 288.68 601.09 302.59 598.72 252.92 598.44 246.96 608.26 246.96"/><polygon class="cls-14" points="1017.35 246.96 1017.06 252.92 1014.7 302.59 1007.52 288.68 1007.52 246.96 1017.35 246.96"/><polygon class="cls-12" points="608.26 246.96 608.26 288.68 601.09 302.59 598.72 252.92 598.44 246.96 608.26 246.96"/><polygon class="cls-12" points="1017.35 246.96 1017.06 252.92 1014.7 302.59 1007.52 288.68 1007.52 246.96 1017.35 246.96"/><rect class="cls-14" x="582.54" y="243.65" width="18.54" height="58.95"/><rect class="cls-14" x="1014.7" y="243.65" width="18.54" height="58.95"/><polygon class="cls-12" points="601.09 246.96 608.26 246.96 608.26 252.92 582.54 252.92 582.54 243.65 601.09 243.65 601.09 246.96"/><polygon class="cls-12" points="1033.24 243.65 1033.24 252.92 1007.52 252.92 1007.52 246.96 1014.7 246.96 1014.7 243.65 1033.24 243.65"/><rect class="cls-14" x="558.37" y="237.02" width="498.05" height="14.57"/><rect class="cls-14" x="543.14" y="234.37" width="21.19" height="128.16"/><rect class="cls-14" x="1049.81" y="234.37" width="21.19" height="128.16"/><rect class="cls-12" x="558.37" y="237.02" width="498.05" height="1.32"/><rect class="cls-15" x="519.62" y="228.08" width="583.16" height="8.94"/><rect class="cls-18" x="519.62" y="228.08" width="583.16" height="8.94"/><circle class="cls-12" cx="552.47" cy="244.97" r="2.93"/><circle class="cls-17" cx="552.47" cy="243.65" r="2.93"/><circle class="cls-12" cx="1062.13" cy="244.57" r="2.93"/><circle class="cls-17" cx="1062.13" cy="243.25" r="2.93"/></svg>