<svg id="b7755403-659e-443e-9cc8-ceaced986de6" xmlns="http://www.w3.org/2000/svg" xmlns:xlink="http://www.w3.org/1999/xlink" viewBox="0 0 973.05 492.54"><defs><style>.cls-1{fill:#dee3f3;opacity:0.5;}.cls-1,.cls-11,.cls-15,.cls-19,.cls-23,.cls-7,.cls-8,.cls-9{isolation:isolate;}.cls-2,.cls-4{fill:none;stroke-miterlimit:10;stroke-width:2px;}.cls-2{stroke:#fc6681;}.cls-3{fill:#fc6681;}.cls-4{stroke:#ffd037;}.cls-5{fill:#ffd037;}.cls-6{fill:#a8a8a8;}.cls-7{opacity:0.2;}.cls-8{opacity:0.1;}.cls-9{fill:#38d39f;}.cls-11,.cls-13,.cls-15,.cls-9{opacity:0.1;}.cls-10{fill:#b77b7f;}.cls-12{fill:#dda2a6;}.cls-14{fill:#918c9e;}.cls-15{fill:#fff;}.cls-16{fill:url(#linear-gradient);}.cls-17{fill:#efb7b9;}.cls-18{fill:#67647e;}.cls-19{opacity:0.12;}.cls-20{fill:#e3787d;}.cls-21{fill:#444053;}.cls-22{fill:#a36468;}.cls-23{opacity:0.05;}</style><linearGradient id="linear-gradient" x1="465.73" y1="37.74" x2="465.73" y2="530.28" gradientTransform="matrix(1, 0, 0, -1, -24.19, 713.84)" gradientUnits="userSpaceOnUse"><stop offset="0" stop-color="gray" stop-opacity="0.25"/><stop offset="0.54" stop-color="gray" stop-opacity="0.12"/><stop offset="1" stop-color="gray" stop-opacity="0.1"/></linearGradient></defs><title>garden-v2</title><ellipse class="cls-1" cx="417.68" cy="409.73" rx="256" ry="43.38"/><path class="cls-2" d="M-161.23,348.48s38.4,75.4,7.1,116.6,2.8,153.6,2.8,153.6" transform="translate(218.46 -183.56)"/><path class="cls-3" d="M-150.18,333.21c0,14.5-10.6,26.3-10.6,26.3s-10.7-11.8-10.7-26.3,10.7-26.3,10.7-26.3S-150.18,318.81-150.18,333.21Z" transform="translate(218.46 -183.56)"/><path class="cls-4" d="M-141.33,348.48s-38.4,75.4-7.1,116.6-2.8,153.6-2.8,153.6" transform="translate(218.46 -183.56)"/><path class="cls-5" d="M-153,333.21c0,14.5,10.7,26.3,10.7,26.3s10.7-11.8,10.7-26.3-10.7-26.3-10.7-26.3S-153,318.81-153,333.21Z" transform="translate(218.46 -183.56)"/><path class="cls-2" d="M-125.63,348.48s38.4,75.4,7.1,116.6,2.8,153.6,2.8,153.6" transform="translate(218.46 -183.56)"/><path class="cls-3" d="M-114.58,333.21c0,14.5-10.7,26.3-10.7,26.3s-10.7-11.8-10.7-26.3,10.7-26.3,10.7-26.3S-114.58,318.81-114.58,333.21Z" transform="translate(218.46 -183.56)"/><path class="cls-3" d="M-120.58,393.61c-10.1,10.5-25.9,11.6-25.9,11.6s.5-15.9,10.5-26.4,25.9-11.6,25.9-11.6S-110.58,383.21-120.58,393.61Z" transform="translate(218.46 -183.56)"/><path class="cls-3" d="M-119.58,445.61c-10.1,10.5-25.9,11.6-25.9,11.6s.5-15.9,10.5-26.4,25.9-11.6,25.9-11.6S-109.58,435.21-119.58,445.61Z" transform="translate(218.46 -183.56)"/><path class="cls-3" d="M-174.18,474.31c9.5,11,9.2,26.9,9.2,26.9s-15.8-1.9-25.3-12.9-9.2-26.9-9.2-26.9S-183.78,463.31-174.18,474.31Z" transform="translate(218.46 -183.56)"/><path class="cls-3" d="M-165.38,363.41c12.1,8,16,23.4,16,23.4s-15.7,2.4-27.8-5.6-16-23.4-16-23.4S-177.48,355.31-165.38,363.41Z" transform="translate(218.46 -183.56)"/><path class="cls-4" d="M-105.73,348.48s-38.4,75.4-7.1,116.6-2.9,153.6-2.9,153.6" transform="translate(218.46 -183.56)"/><path class="cls-5" d="M-117.48,333.21c0,14.5,10.6,26.3,10.6,26.3s10.7-11.8,10.7-26.3-10.7-26.3-10.7-26.3S-117.48,318.81-117.48,333.21Z" transform="translate(218.46 -183.56)"/><path class="cls-5" d="M-114.38,394.81c-10.2,10.4-10.9,26.2-10.9,26.2s15.9-.9,26.1-11.2,10.9-26.2,10.9-26.2S-104.18,384.41-114.38,394.81Z" transform="translate(218.46 -183.56)"/><path class="cls-5" d="M-94.38,466.81c-10.2,10.3-10.9,26.2-10.9,26.2s15.9-.9,26.1-11.2,10.9-26.2,10.9-26.2S-84.18,456.41-94.38,466.81Z" transform="translate(218.46 -183.56)"/><path class="cls-4" d="M-123.78,450.91s23.1-36.4,55.6-37.2" transform="translate(218.46 -183.56)"/><path class="cls-2" d="M-141.78,428.91s-23.1-36.4-55.6-37.2" transform="translate(218.46 -183.56)"/><path class="cls-4" d="M-144.78,480.91s23.1-36.4,55.6-37.2" transform="translate(218.46 -183.56)"/><circle class="cls-5" cx="149.18" cy="229.85" r="6"/><circle class="cls-3" cx="21.68" cy="208.35" r="6"/><path class="cls-2" d="M-127.78,492.91s-23.1-36.4-55.6-37.2" transform="translate(218.46 -183.56)"/><circle class="cls-3" cx="35.68" cy="272.35" r="6"/><circle class="cls-5" cx="129.68" cy="260.35" r="6"/><path class="cls-6" d="M.27,574.88s-55.7-11.1-70.6-26-81.7-40.8-89.1-22.3-100.3,81.7-37.1,92.9,148.5,14.8,167.1,7.4S.27,574.88.27,574.88Z" transform="translate(218.46 -183.56)"/><path class="cls-7" d="M-196.6,613.55c63.1,11.1,148.5,14.8,167.1,7.4,14.1-5.7,24-32.8,27.9-45.5l1.9.4s-11.1,44.6-29.7,52-104,3.7-167.1-7.4c-18.3-3.2-23.5-10.7-21.6-20.3C-216.5,606.35-210.1,611.15-196.6,613.55Z" transform="translate(218.46 -183.56)"/><path class="cls-3" d="M71.81,448.37s13.3,17.5-6.2,43.8-35.6,48.6-29.1,65c0,0,29.4-48.9,53.4-49.6S98.11,477.87,71.81,448.37Z" transform="translate(218.46 -183.56)"/><path class="cls-8" d="M71.81,448.37a18.78,18.78,0,0,1,2.7,5.5c23.4,27.5,35.8,53.1,13.4,53.7-20.9.6-46,38-52,47.5.2.7.4,1.4.7,2.2,0,0,29.4-48.9,53.4-49.6S98.11,477.87,71.81,448.37Z" transform="translate(218.46 -183.56)"/><path class="cls-5" d="M80.7,453.45c0,6.1-.7,11.1-1.5,11.1s-1.5-5-1.5-11.1.9-3.2,1.7-3.2S80.7,447.25,80.7,453.45Z" transform="translate(218.46 -183.56)"/><path class="cls-5" d="M89.2,460.75c-5.4,2.9-10.1,4.7-10.5,4s3.6-3.7,9-6.7,3.3-.8,3.7,0S94.6,457.85,89.2,460.75Z" transform="translate(218.46 -183.56)"/><path class="cls-3" d="M1.31,448.37s-13.3,17.5,6.2,43.8,35.6,48.6,29.1,65c0,0-29.4-48.9-53.4-49.6S-25.09,477.87,1.31,448.37Z" transform="translate(218.46 -183.56)"/><path class="cls-8" d="M1.31,448.37a18.78,18.78,0,0,0-2.7,5.5c-23.4,27.5-35.8,53.1-13.4,53.7,20.9.6,46,38,52,47.5-.2.7-.4,1.4-.7,2.2,0,0-29.4-48.9-53.4-49.6S-25.09,477.87,1.31,448.37Z" transform="translate(218.46 -183.56)"/><path class="cls-5" d="M-23.59,470.67c0,6.1.7,11.1,1.5,11.1s1.5-5,1.5-11.1-.9-3.2-1.7-3.2S-23.59,464.47-23.59,470.67Z" transform="translate(218.46 -183.56)"/><path class="cls-5" d="M-32.09,478c5.4,2.9,10.1,4.7,10.5,4s-3.6-3.7-9-6.7-3.3-.8-3.7,0S-37.49,475.07-32.09,478Z" transform="translate(218.46 -183.56)"/><path class="cls-6" d="M-19.29,555s37.3-1.2,48.6-9.2,57.4-17.6,60.2-4.7,56.1,63.9,14,64.2-97.9-6.6-109.1-13.4S-19.29,555-19.29,555Z" transform="translate(218.46 -183.56)"/><path class="cls-7" d="M104.21,600.77c-42.1.3-97.9-6.6-109.1-13.4-8.5-5.2-12-23.9-13.1-32.5h-1.2s2.4,30.1,13.6,36.9,67,13.7,109.1,13.4c12.2-.1,16.4-4.4,16.1-10.8C117.81,598.27,113.21,600.77,104.21,600.77Z" transform="translate(218.46 -183.56)"/><ellipse class="cls-9" cx="468.71" cy="383.63" rx="33.36" ry="11.56"/><ellipse class="cls-9" cx="887.83" cy="383.63" rx="33.36" ry="11.56"/><ellipse class="cls-9" cx="432.32" cy="441.55" rx="33.36" ry="11.56"/><ellipse class="cls-9" cx="924.01" cy="442.67" rx="33.36" ry="11.56"/><polygon class="cls-10" points="912.78 431.63 920.07 447.19 920.07 331.62 912.78 331.62 912.78 431.63"/><polygon class="cls-10" points="441.89 431.63 434.6 447.19 434.6 331.62 441.89 331.62 441.89 431.63"/><polygon class="cls-11" points="912.78 431.63 920.07 447.19 920.07 331.62 912.78 331.62 912.78 431.63"/><polygon class="cls-11" points="441.89 431.63 434.6 447.19 434.6 331.62 441.89 331.62 441.89 431.63"/><rect class="cls-10" x="471.36" y="119.35" width="20.2" height="142.06"/><rect class="cls-10" x="877.73" y="119.35" width="20.2" height="142.06"/><rect class="cls-11" x="471.36" y="119.35" width="20.2" height="16.56"/><rect class="cls-11" x="877.73" y="119.35" width="20.2" height="16.56"/><rect class="cls-12" x="440.23" y="113.39" width="486.46" height="21.19"/><rect class="cls-11" x="471.36" y="143.52" width="20.2" height="21.19"/><rect class="cls-11" x="877.73" y="143.52" width="20.2" height="21.19"/><rect class="cls-12" x="440.23" y="142.2" width="486.46" height="21.19"/><rect class="cls-11" x="471.36" y="172.33" width="20.2" height="21.19"/><rect class="cls-11" x="877.73" y="172.33" width="20.2" height="21.19"/><rect class="cls-12" x="440.23" y="171.01" width="486.46" height="21.19"/><rect class="cls-11" x="471.36" y="201.14" width="20.2" height="21.19"/><rect class="cls-11" x="877.73" y="201.14" width="20.2" height="21.19"/><rect class="cls-12" x="440.23" y="199.82" width="486.46" height="21.19"/><rect class="cls-11" x="471.36" y="229.95" width="20.2" height="21.19"/><rect class="cls-11" x="877.73" y="229.95" width="20.2" height="21.19"/><rect class="cls-12" x="440.23" y="228.63" width="486.46" height="21.19"/><g class="cls-13"><circle cx="481.46" cy="125.31" r="2.93"/><circle cx="481.46" cy="154.12" r="2.93"/><circle cx="481.46" cy="182.93" r="2.93"/><circle cx="481.46" cy="211.74" r="2.93"/><circle cx="481.46" cy="240.55" r="2.93"/><circle cx="887.84" cy="125.31" r="2.93"/><circle cx="887.84" cy="154.12" r="2.93"/><circle cx="887.84" cy="182.93" r="2.93"/><circle cx="887.84" cy="211.74" r="2.93"/><circle cx="887.84" cy="240.55" r="2.93"/></g><circle class="cls-14" cx="481.46" cy="123.99" r="2.93"/><circle class="cls-14" cx="481.46" cy="152.8" r="2.93"/><circle class="cls-14" cx="481.46" cy="181.61" r="2.93"/><circle class="cls-14" cx="481.46" cy="210.42" r="2.93"/><circle class="cls-14" cx="481.46" cy="239.23" r="2.93"/><circle class="cls-14" cx="887.84" cy="123.99" r="2.93"/><circle class="cls-14" cx="887.84" cy="152.8" r="2.93"/><circle class="cls-14" cx="887.84" cy="181.61" r="2.93"/><circle class="cls-14" cx="887.84" cy="210.42" r="2.93"/><circle class="cls-14" cx="887.84" cy="239.23" r="2.93"/><polygon class="cls-12" points="937.95 270.36 428.64 270.36 440.23 256.11 926.69 256.11 937.95 270.36"/><polygon class="cls-11" points="937.95 270.36 428.64 270.36 440.23 256.11 926.69 256.11 937.95 270.36"/><polygon class="cls-12" points="937.95 269.69 428.64 269.69 440.23 255.45 926.69 255.45 937.95 269.69"/><polygon class="cls-12" points="955.83 292.54 409.43 291.22 427.98 271.68 939.94 271.68 955.83 292.54"/><polygon class="cls-11" points="955.83 292.54 409.43 291.22 427.98 271.68 939.94 271.68 955.83 292.54"/><polygon class="cls-12" points="955.83 291.88 409.43 290.56 427.98 271.02 939.94 271.02 955.83 291.88"/><polygon class="cls-12" points="973.05 312.74 389.89 312.74 407.78 292.54 957.16 293.2 973.05 312.74"/><polygon class="cls-10" points="478.53 331.62 478.53 373.34 471.36 387.25 468.99 337.58 468.71 331.62 478.53 331.62"/><polygon class="cls-10" points="887.62 331.62 887.33 337.58 884.97 387.25 877.79 373.34 877.79 331.62 887.62 331.62"/><polygon class="cls-11" points="478.53 331.62 478.53 373.34 471.36 387.25 468.99 337.58 468.71 331.62 478.53 331.62"/><polygon class="cls-11" points="887.62 331.62 887.33 337.58 884.97 387.25 877.79 373.34 877.79 331.62 887.62 331.62"/><rect class="cls-10" x="452.81" y="328.31" width="18.54" height="58.95"/><rect class="cls-10" x="884.97" y="328.31" width="18.54" height="58.95"/><polygon class="cls-11" points="471.36 331.62 478.53 331.62 478.53 337.58 452.81 337.58 452.81 328.31 471.36 328.31 471.36 331.62"/><polygon class="cls-11" points="903.51 328.31 903.51 337.58 877.79 337.58 877.79 331.62 884.97 331.62 884.97 328.31 903.51 328.31"/><rect class="cls-10" x="428.64" y="321.68" width="498.05" height="14.57"/><rect class="cls-10" x="413.41" y="319.03" width="21.19" height="128.16"/><rect class="cls-10" x="920.08" y="319.03" width="21.19" height="128.16"/><rect class="cls-11" x="428.64" y="321.68" width="498.05" height="1.32"/><rect class="cls-12" x="389.89" y="312.74" width="583.16" height="8.94"/><rect class="cls-15" x="389.89" y="312.74" width="583.16" height="8.94"/><circle class="cls-11" cx="422.74" cy="329.63" r="2.93"/><circle class="cls-14" cx="422.74" cy="328.31" r="2.93"/><circle class="cls-11" cx="932.4" cy="329.23" r="2.93"/><circle class="cls-14" cx="932.4" cy="327.91" r="2.93"/><path class="cls-5" d="M116.8,490.22c0,2.89-.32,5.24-.72,5.24s-.73-2.35-.73-5.24.41-1.54.81-1.54S116.8,487.32,116.8,490.22Z" transform="translate(218.46 -183.56)"/><path class="cls-5" d="M120.81,493.67c-2.54,1.39-4.75,2.22-5,1.87s1.72-1.76,4.26-3.14,1.54-.38,1.73,0S123.35,492.29,120.81,493.67Z" transform="translate(218.46 -183.56)"/><path class="cls-16" d="M578.29,477.87l.59-.21s-.28-12.79-7.21-19.61-2.59-28.18-2.59-28.18.58-22.46-2.6-27.86,0-25.59,0-25.59V345.75s-2.59-8-3.17-29.85-2.88-19-7.21-25.3c-2.24-3.25-11.78-6.64-20.56-9.08a166,166,0,0,0-18.9-16.65,25.22,25.22,0,0,1,9.18-6.67c3.11-1.47,6.68-3,7.95-6.14a12.18,12.18,0,0,0,.34-5.66,34,34,0,0,0-1.71-8.83,11.59,11.59,0,0,0-5.85-6.63c-1.51-.66-3.47-1.12-3.91-2.69a3.67,3.67,0,0,1,.08-1.89c.68-3.08,1.8-6.11,1.73-9.26-.07-3.49-1.6-6.79-3.23-9.89-4.11-7.83-9.34-15.55-17.17-19.82-9.83-5.36-22-4.31-32.86-1.61a43.79,43.79,0,0,1-9,1.67,39.11,39.11,0,0,0-5.52.13,10.5,10.5,0,0,0-3,1c.2-.2.4-.42.62-.61a14.7,14.7,0,0,0-4.78,3.56,11.74,11.74,0,0,0-3,5.28,6.77,6.77,0,0,0-.24,2,9.84,9.84,0,0,0,2,5.24,44.94,44.94,0,0,0-4.23,2.38,5.25,5.25,0,0,0-1.75,1.53,2.64,2.64,0,0,0-.33.75,8,8,0,0,0-.67,3.47,1,1,0,0,1-.07.44c.12-.22.22-.44.32-.67-1.14,7-9.78,11.39-12.21,17.75a9.34,9.34,0,0,0-1,4.24c.11,5.12,4.64,8.92,7.1,13.42,4.11,7.53,2.27,16.68,1.11,25.15-.16,1.2-.29,2.44-.37,3.69-6.09,1-12.71,3.12-16.76,7.36-9.08,9.53-5,1.42-11.53,22.46l-6.49,21-.87,15.21s-5,5-4.61,10.38-2.16,8-2.16,8-.58,11.23,0,13.93-4.33,5.4-4,7.82a71.17,71.17,0,0,1,0,8c0,.43-4.33,1.14-3.89,6.11a78.68,78.68,0,0,1,.28,8.82s-7.2,7.53-5.76,11.65-1.3,11.09-1.3,11.09-1.59,9.1-5.48,11.52c-3.17,2-5.67,9.39-6.49,12.09-2.9.1-44.77,1.71-43.38,7.29,1.44,5.78,40.95,7.58,45.56,7.58a3.05,3.05,0,0,0,.6-.06c-1.08,7-3.86,20.77-9.12,23-7.07,3-19.9,15.92-19.32,21.61s-2.31,40.09-4.19,44.92c-.39,1-.61,4-.6,8.12-9.12,15.8-15.85,28.65-17.63,32.07l-.46.89-.54,1.42h0c-1.23-.85-10.17,10.53-10.17,10.53s-7.35,12.51-7.64,14.21-5.92,2.84-6.2,4.12-6.92,9.53-6.92,9.53-3.75,9.66-10.39,12.22S263,657.91,272.1,665s27.25,11.08,27.25,11.08,11.54-11.8,13.84-17.34S322.13,644,322.13,644s4-8,4.62-11,13.93-23.11,13.93-23.11l-1.44-.56c.55-.6,1.18-1.26,1.88-2,.49-.51,1-1.06,1.57-1.61,1.54,3.78,3.4,6.35,5.63,6.86C359,615,366.63,602,371.54,600.76s10.23-17.89,10.23-17.89,14.57-12.23,14.71-22c0-2.15.08-4.44.13-6.7a114.56,114.56,0,0,1,8.38-14.1c5.39-7.2,9.61-14.22,12.31-15.73,2-1.1,14.42-13.46,21-20.09l.68-.69c2,4.36,4.3,7.44,6.92,7.51,2,.06,3.62-2.85,4.9-7a7.82,7.82,0,0,0,.42.81c3.61,6.51,10.25,12,10.25,12s18.46,25.87,16.87,30,13.41,21.46,22,26.58c6.92,4.1,25,24.65,31.91,32.64l1,1.18a6.41,6.41,0,0,1-1.55.39c-2.4.09,3.37,6.44,3.37,6.44s4.51,6.16,4.32,9.2,5.67,10.33,5.67,10.33,10,17,9.33,22.84S548,677.8,561.6,674.77s28.26-4.55,28-11.47-6.15-19-6.15-19l-6.06-12.14s-6-7.86-8.75-13.26-11-22.75-11-22.75l-3,1.27-.64-1.36c-3.1-6.55-10.6-22.64-19.68-43.54a172.62,172.62,0,0,0-12-23.3l12-2.53c13.82,12.9,46.29,16.86,46.29,16.86s-2-32.12,1.16-41.51c1.64-4.86-.82-7.66-3.73-10,13-.75,36.18-2.84,37.28-7.24S590.7,478.55,578.29,477.87ZM542.12,470c-2.57-.18-4.47-.2-4.47-.2s1.15-5.25,2.88-8.1-10.38-10.52-9.61-17.63S527,422.22,527,422.22s.57-15.35,0-22.46a21.58,21.58,0,0,1,2.59-12.22s6.92,18.48,4,21,0,16.2,0,16.2,5.19,18.2,7.78,24.74c1.53,3.78,1,12.62.77,20.57Z" transform="translate(218.46 -183.56)"/><path class="cls-17" d="M369.47,454.87s-43.72,1.49-42.32,7.19,39.8,7.47,44.28,7.47,10.92-8.21,10.92-8.21Z" transform="translate(218.46 -183.56)"/><rect class="cls-18" x="615.07" y="251.36" width="25.22" height="23.25"/><rect class="cls-19" x="615.07" y="251.36" width="25.22" height="23.25"/><polygon class="cls-18" points="601.65 275.51 578.45 322.35 607.86 331.89 631.6 311.52 642.82 289.78 665.54 291.63 689.79 303.7 709.39 315.67 721.25 337.85 738.25 347.46 774.7 339.68 780.02 314.89 750.28 294.97 739.5 278.65 695.8 272.29 683.15 253.43 639.43 263.98 601.65 275.51"/><polygon class="cls-19" points="601.65 275.95 577.97 326.98 607.86 332.33 631.6 311.96 642.82 290.22 665.54 292.06 689.79 304.14 709.39 316.1 721.25 338.29 738.25 347.89 774.7 340.11 780.02 315.32 750.28 295.41 739.5 279.08 695.8 272.73 683.15 253.86 639.43 264.41 601.65 275.95"/><path class="cls-20" d="M444.07,213.22a4.94,4.94,0,0,0-1.7,1.51,8,8,0,0,0-.66,3.44c-.89,8.44-12.73,13-12.55,21.45.1,5,4.51,8.78,6.9,13.22,4,7.42,2.2,16.45,1.08,24.8-.85,6.33-.85,13.76,4,17.92,2,1.7,4.59,2.63,6.4,4.52,3.7,3.86,2.89,10.19,5.33,15a4.32,4.32,0,0,0,1,1.36,4.17,4.17,0,0,0,1.42.73c4.71,1.55,10.09-.65,13.27-4.45s4.44-8.89,4.61-13.85-.63-9.87-1.11-14.8c-.91-9.48-.6-19-1.37-28.52a23.09,23.09,0,0,0-2-8.74c-.73-1.42-1.72-2.7-2.41-4.14a21.8,21.8,0,0,1-1.62-6.26L462,219.7c-.52-3.34-1-9.33-4.83-10.62S447.19,211.24,444.07,213.22Z" transform="translate(218.46 -183.56)"/><path class="cls-20" d="M444.07,213.22a4.94,4.94,0,0,0-1.7,1.51,8,8,0,0,0-.66,3.44c-.89,8.44-12.73,13-12.55,21.45.1,5,4.51,8.78,6.9,13.22,4,7.42,2.2,16.45,1.08,24.8-.85,6.33-.85,13.76,4,17.92,2,1.7,4.59,2.63,6.4,4.52,3.7,3.86,2.89,10.19,5.33,15a4.32,4.32,0,0,0,1,1.36,4.17,4.17,0,0,0,1.42.73c4.71,1.55,10.09-.65,13.27-4.45s4.44-8.89,4.61-13.85-.63-9.87-1.11-14.8c-.91-9.48-.6-19-1.37-28.52a23.09,23.09,0,0,0-2-8.74c-.73-1.42-1.72-2.7-2.41-4.14a21.8,21.8,0,0,1-1.62-6.26L462,219.7c-.52-3.34-1-9.33-4.83-10.62S447.19,211.24,444.07,213.22Z" transform="translate(218.46 -183.56)"/><g class="cls-13"><path d="M442.51,215.53a2.69,2.69,0,0,1,.06-.69,2.81,2.81,0,0,0-.52.62,8,8,0,0,0-.7,3.41,1.09,1.09,0,0,1-.06.43A10.91,10.91,0,0,0,442.51,215.53Z" transform="translate(218.46 -183.56)"/><path d="M469.35,310c-3.17,3.8-8.56,6-13.26,4.45a3.51,3.51,0,0,1-2.42-2.09c-2.45-4.76-1.64-11.08-5.34-14.95-1.81-1.88-4.41-2.81-6.4-4.52-4.85-4.16-4.85-11.58-4-17.92,1.12-8.35,2.92-17.38-1.08-24.79-2.39-4.45-6.79-8.19-6.9-13.23a8.35,8.35,0,0,1,.09-1.41,9.49,9.49,0,0,0-1.21,4.77c.1,5,4.51,8.79,6.9,13.23,4,7.42,2.2,16.44,1.08,24.79-.85,6.34-.85,13.76,4,17.93,2,1.7,4.59,2.63,6.4,4.52,3.7,3.86,2.89,10.19,5.33,14.94a4.36,4.36,0,0,0,1,1.37,4,4,0,0,0,1.43.72c4.7,1.55,10.09-.65,13.26-4.45a19.31,19.31,0,0,0,3.77-7.76A17.9,17.9,0,0,1,469.35,310Z" transform="translate(218.46 -183.56)"/></g><path class="cls-17" d="M568.1,480.42s43.71,1.5,42.31,7.19-39.79,7.48-44.28,7.48-10.92-8.22-10.92-8.22Z" transform="translate(218.46 -183.56)"/><path class="cls-18" d="M450.43,281.12s-21.43-1.26-30.25,8.13-4.91,1.4-11.21,22.14l-6.31,20.74-.84,15s-4.9,4.9-4.48,10.23-2.11,7.85-2.11,7.85-.56,11.07,0,13.73-4.2,5.32-3.92,7.7a73.41,73.41,0,0,1,0,7.85c0,.42-4.2,1.12-3.78,6a81.11,81.11,0,0,1,.28,8.68s-7,7.43-5.61,11.49-1.26,10.93-1.26,10.93-1.54,9-5.32,11.35S369,455.87,369,455.87s3.5,9.11,3.5,9.53-2.52,23.82-9.38,26.76-19.34,15.71-18.8,21.28-2.24,39.52-4.06,44.28.28,53.39,10.65,55.77,17.81-10.37,22.58-11.62,9.94-17.66,9.94-17.66,14.16-12.05,14.3-21.71.56-22,.56-22-16.54-28-19.9-30.13-12.75-14-5.47-24.24,11.92-23.26,11.92-23.26l7.84-7,6.64-25.1,12-39.23L422.7,353l9.65-40.49,25.47-17.74S462.35,283.22,450.43,281.12Z" transform="translate(218.46 -183.56)"/><path class="cls-17" d="M442.45,502.56l-4,4.11c-6.43,6.53-18.54,18.72-20.45,19.8-2.62,1.5-6.72,8.41-12,15.51s-12.33,22.42-12.33,22.42-17.56,24.66-27.83,27.28c-7,1.77-16.5,10.92-21.9,16.64C341.35,611,339.7,613,339.7,613l-20.2-7.85,2.62-6.91.45-.89c1.94-3.78,9.93-19.26,20.47-37.42,12.15-20.91,30.65-40.16,30.65-40.16s16.06-14.76,16.62-21.49a85.45,85.45,0,0,0-.17-11.2c-.3-4.84-.76-9-.76-9l24.47-15.87,18.69,7.8Z" transform="translate(218.46 -183.56)"/><path class="cls-17" d="M552.35,600.46l-19.9,9.81-2.65-3.14c-6.71-7.87-24.28-28.13-31-32.17-8.45-5.09-23-22.09-21.45-26.2S461,519.19,461,519.19s-6.46-5.45-10-11.87c-1.72-3.13-2.73-6.49-1.94-9.56,2.37-9.4,10.22-30,10.22-30s3.79-6.31,4.06-6.74,14.05-5.15,14.05-5.15l13.59-1.4L508,469s-.63,3.47-1.57,8.29c-2.08,10.61-5.68,27.79-7.41,28.85-2.51,1.54,11.65,13,11.65,13s9.38,8,21,35.17c8.82,20.61,16.1,36.47,19.12,42.93C551.78,599.35,552.35,600.46,552.35,600.46Z" transform="translate(218.46 -183.56)"/><path class="cls-11" d="M432.56,470l9.89,32.55-4,4.11c-2.7-6.62-4.77-15.47-6.25-21.48-2.62-10.65-29.52-7.85-34.19-7.85-2.06,0-4.95,4.71-7.83,9.72-.3-4.84-.76-9-.76-9l24.47-15.87Z" transform="translate(218.46 -183.56)"/><path class="cls-11" d="M508,469s-.63,3.47-1.57,8.29a35.78,35.78,0,0,0-8.71-12.12c-13.07-11.58-30.44-1.68-30.44-1.68-1.79.66-2.66,2.51-4.6,4.8a40.68,40.68,0,0,0-9.42,23.89,83.08,83.08,0,0,1-2.3,15.12c-1.72-3.13-2.73-6.49-1.94-9.56,2.37-9.4,10.22-30,10.22-30s3.79-6.31,4.06-6.74,14-5.15,14-5.15l13.59-1.4Z" transform="translate(218.46 -183.56)"/><path class="cls-21" d="M528.4,482.2c-.19,4.67-17.57,12-17.57,12s0-19.62-13.08-31.21-30.4-1.72-30.4-1.72c-1.79.66-2.66,2.51-4.6,4.8A40.65,40.65,0,0,0,453.33,490c-.6,9.94-3.31,23.57-7.47,23.44-6.54-.18-11-19.79-13.64-30.44S402.7,475.1,398,475.1s-13.64,24.28-17,21.3S384.76,470,384.76,470l22.59-27.23,4.82-5.79,99.2,5.36s2.47,3.81,4.89,7.58c2.29,3.59,4.55,7.15,4.64,7.41C521.11,457.87,528.58,477.52,528.4,482.2Z" transform="translate(218.46 -183.56)"/><path class="cls-11" d="M428,452.42c.14.21,18.22,19.83,19.06,22.77a99.37,99.37,0,0,1,1.69,10s.41-6.94,1-8.9-2.1-6.51-4.06-8-5.61-4.27-6.1-5.46-2.8-13.38-2.8-13.38l-7.57-1.68Z" transform="translate(218.46 -183.56)"/><path class="cls-11" d="M462.28,450.46s-11.63,13.31-11.35,15.27S462.28,450.46,462.28,450.46Z" transform="translate(218.46 -183.56)"/><path class="cls-17" d="M521.67,293.31,508.22,312l-36.93,7.47s-37.43-9.34-12-19.06a14.69,14.69,0,0,0,6.22-4.19c4.48-5.37,2.83-13.48-.9-21.38-5.86-12.45-16.81-24.4-16.81-24.4s52.59-23.26,46.61,1a24.28,24.28,0,0,0,.29,12.8c3.14,11,13.06,19.66,19.95,24.57A66.92,66.92,0,0,0,521.67,293.31Z" transform="translate(218.46 -183.56)"/><path class="cls-11" d="M521.67,293.31,508.22,312l-36.93,7.47s-37.43-9.34-12-19.06a14.69,14.69,0,0,0,6.22-4.19c6,2.66,12.28,4.77,15.45,3.82,0,0,20.78-6.09,33.69-11.2A66.66,66.66,0,0,0,521.67,293.31Z" transform="translate(218.46 -183.56)"/><path class="cls-11" d="M516.44,451a142.82,142.82,0,0,0-15.65-3.83c-5.22-.92-10.25-1.28-12.38.09-5.23,3.36-17.93,10.84-22.42,10.84a6.4,6.4,0,0,1-6-3.74s-13.83-1.5-22.8,0c-6,1-20.1-6.15-28.84-11l-1-.56,4.82-5.79,99.2,5.36s2.47,3.81,4.89,7.58Z" transform="translate(218.46 -183.56)"/><path class="cls-22" d="M512.71,423.72l3.73,25a145.18,145.18,0,0,0-15.65-3.84c-5.22-.92-10.25-1.27-12.38.09-5.23,3.37-17.93,10.84-22.42,10.84a6.41,6.41,0,0,1-6-3.73s-13.83-1.5-22.8,0c-6,1-20.1-6.15-28.84-11-4.37-2.44-7.4-4.3-7.4-4.3l5.6-19.81,17.19-18.31,2.61-26.51,4.1-30.63,6.4-18.65,11.5-27.33,2-4.84s2.24,1.32,5.54,3.08c1.53.81,3.28,1.72,5.15,2.63,7.12,3.49,15.87,7.07,19.83,5.87,0,0,18.47-5.41,31.41-10.31,6-2.28,10.76-4.43,12-5.89a1.36,1.36,0,0,0,.31-.61c0-.37.08-.09.16.73.8,8.25,3.58,71.38,3.58,71.38Z" transform="translate(218.46 -183.56)"/><path class="cls-11" d="M528.4,357.58l-15.69,66.14,3.73,25a145.18,145.18,0,0,0-15.65-3.84c-.89-10.25-1.91-27.56.8-33.34,3.92-8.41,6.16-35,6.16-35l4.6-84.57.45-8.18c.33-.23,5.35.7,11.55,2.29l.47.12C525.62,294.45,528.4,357.58,528.4,357.58Z" transform="translate(218.46 -183.56)"/><path class="cls-11" d="M559.84,484c-9.78,2.94-23,6.16-24.35,2.68-1-2.4-.89-7.79-.7-13.68,4.77.34,11.93,1.29,13,3.87S555.56,481.34,559.84,484Z" transform="translate(218.46 -183.56)"/><path class="cls-18" d="M517.28,283.79c.84-.57,31.39,6.16,35.59,12.33s6.45,3.36,7,24.94S563,350.48,563,350.48v30.27s-3.08,19.9,0,25.22,2.52,27.46,2.52,27.46-4.2,21,2.52,27.75,7,19.33,7,19.33-32.79,11.77-35,6.17,1.12-27.46-1.4-33.91S531,428.39,531,428.39s-2.8-13.45,0-16-3.92-20.74-3.92-20.74a21.49,21.49,0,0,0-2.52,12.05c.56,7,0,22.14,0,22.14s4.57,14.57,3.83,21.58,11,14.57,9.34,17.37-2.81,8-2.81,8,15.7.15,17.38,4.07,14.57,5.83,15.69,11.32,12.89,7.18,9.81,16.43-1.12,40.91-1.12,40.91-56.61-7-50.44-32.79,35.31-14.29,35.31-14.29-23.22-13.72-36.72-12-18.78-33.63-18.78-33.63-3.92-32.79,0-41.19,6.16-35,6.16-35Z" transform="translate(218.46 -183.56)"/><path class="cls-11" d="M543.06,467.06s1.4-2.66,11.35-1,15-.55,15-.55S549.23,474.49,543.06,467.06Z" transform="translate(218.46 -183.56)"/><path class="cls-11" d="M540.26,338c-.14.42,7.29,11.35,1.68,20.18s-10.23,23-11.21,25.64-2.33,6.73-2.33,6.73" transform="translate(218.46 -183.56)"/><path class="cls-23" d="M513.92,270.33s26.34,19.76,26.2,29c0,0-2.52,2.94-8,2.94s-15.27-2.66-16.39-8.83-5.33,0-2.94,3.23,3.78,4.9,3.78,4.9,24.93,6.87,29.7,10.09-2,7-2,7-7,12.61-6.58,14.71-17.24,29.56-17.24,29.56-5.88,29.71-5.6,35.31.7,17.5.7,17.5l-11.2,15.44s-2.74-47.63-.92-54.07,6.72-46.94,6.72-46.94,5.61-24.67,3.37-27.47-3-11.49-3-11.49Z" transform="translate(218.46 -183.56)"/><path class="cls-18" d="M511.67,269.21s26.35,19.76,26.21,29c0,0-2.53,2.94-8,2.94s-15.27-2.66-16.39-8.83-5.33,0-2.95,3.23,3.79,4.9,3.79,4.9,24.93,6.87,29.7,10.09-2,7-2,7-7,12.62-6.59,14.72-17.18,29.61-17.18,29.61-5.89,29.71-5.6,35.31.7,17.5.7,17.5l-9,15.42s-5-47.63-3.16-54.08,6.72-46.94,6.72-46.94,5.61-24.66,3.36-27.46-3-11.49-3-11.49Z" transform="translate(218.46 -183.56)"/><path class="cls-19" d="M511.67,269.21s26.35,19.76,26.21,29c0,0-2.53,2.94-8,2.94s-15.27-2.66-16.39-8.83-5.33,0-2.95,3.23,3.79,4.9,3.79,4.9,24.93,6.87,29.7,10.09-2,7-2,7-7,12.62-6.59,14.72-17.18,29.61-17.18,29.61-5.89,29.71-5.6,35.31.7,17.5.7,17.5l-9,15.42s-5-47.63-3.16-54.08,6.72-46.94,6.72-46.94,5.61-24.66,3.36-27.46-3-11.49-3-11.49Z" transform="translate(218.46 -183.56)"/><path class="cls-11" d="M462.07,292.47a17.8,17.8,0,0,1-1,3.94c-1,3.1-2.64,7.31-4,11.61-2,6.65-8.11,18.64-11.77,30s-9.1,35.58-9.1,35.58,1.12,22.28-6.3,27.89-15.84,26.2-15.84,26.2-2.66,6.87-5.77,13.41c-4.37-2.44-7.4-4.3-7.4-4.3l5.6-19.81,17.19-18.31,2.67-26.53,4.1-30.63,6.4-18.65,11.5-27.33c3.1-.23,5.16-.41,5.16-.41s1.05-.63,2.43-1.35C458.51,292.45,462.16,290.87,462.07,292.47Z" transform="translate(218.46 -183.56)"/><path class="cls-23" d="M449,296.26s-26,2.21-31.81,1.54-3.36,12.47-3.36,12.47-4.52,26.76-3.52,29.6,6.3,23.82,3.08,28.87S400.26,400,400.26,400s-3.22,11.63-6,23.26-9.38,33.9-11.07,35.87-16,27.75-14.39,31.75,23.7-34,28.15-37.4,12.72-24.66,12.72-24.66,8.4-20.6,15.83-26.2,6.31-27.89,6.31-27.89,5.46-24.24,9.1-35.59,9.76-23.34,11.77-30,4.77-13,4.91-15.56S449,296.26,449,296.26Z" transform="translate(218.46 -183.56)"/><path class="cls-18" d="M451.28,295.14s-26,2.21-31.81,1.54-3.36,12.47-3.36,12.47-4.48,26.76-3.5,29.56,6.3,23.82,3.08,28.87-13.17,31.29-13.17,31.29-3.22,11.63-6,23.26S387.13,456,385.45,458s-16,27.78-14.39,31.82,23.7-34.07,28.15-37.43,12.72-24.66,12.72-24.66,8.41-20.6,15.83-26.2,6.31-27.89,6.31-27.89,5.46-24.24,9.11-35.59,9.75-23.34,11.77-30,4.76-13,4.9-15.56S451.28,295.14,451.28,295.14Z" transform="translate(218.46 -183.56)"/><path class="cls-19" d="M451.28,295.14s-26,2.21-31.81,1.54-3.36,12.47-3.36,12.47-4.48,26.76-3.5,29.56,6.3,23.82,3.08,28.87-13.17,31.29-13.17,31.29-3.22,11.63-6,23.26S387.13,456,385.45,458s-16,27.78-14.39,31.82,23.7-34.07,28.15-37.43,12.72-24.66,12.72-24.66,8.41-20.6,15.83-26.2,6.31-27.89,6.31-27.89,5.46-24.24,9.11-35.59,9.75-23.34,11.77-30,4.76-13,4.9-15.56S451.28,295.14,451.28,295.14Z" transform="translate(218.46 -183.56)"/><path class="cls-11" d="M441.19,364.28s3.2,16.13-2.1,23.76S439.65,367.72,441.19,364.28Z" transform="translate(218.46 -183.56)"/><path class="cls-11" d="M498.64,417.6s-14.85,2.66-19.75,10.51S498.64,417.6,498.64,417.6Z" transform="translate(218.46 -183.56)"/><path class="cls-11" d="M498.64,433.57s-18.91,6-15.41,8.13,12-1.68,14.43-1S498.64,433.57,498.64,433.57Z" transform="translate(218.46 -183.56)"/><path class="cls-11" d="M344,608.32c-2.59,2.72-4.24,4.66-4.24,4.66l-20.2-7.85,2.62-6.91.45-.89a.19.19,0,0,1,.15,0c1.19.82,10.14,6.58,10.14,6.58Z" transform="translate(218.46 -183.56)"/><path class="cls-21" d="M331.76,606.2s-8.95-5.75-10.15-6.59S311.72,610,311.72,610s-7.14,12.33-7.42,14-5.75,2.8-6,4.06-6.73,9.39-6.73,9.39-3.64,9.53-10.08,12-13.32,8.69-4.49,15.69,26.48,10.93,26.48,10.93,11.21-11.63,13.46-17.09,8.68-14.57,8.68-14.57,3.93-7.85,4.49-10.79,13.42-22.74,13.42-22.74Z" transform="translate(218.46 -183.56)"/><path class="cls-11" d="M552.35,600.46l-19.9,9.81-2.65-3.14a86.25,86.25,0,0,0,9.57-4.9l11.5-4.94C551.78,599.35,552.35,600.46,552.35,600.46Z" transform="translate(218.46 -183.56)"/><path class="cls-21" d="M540.45,603.35s-8.88,5.24-11.21,5.33,3.27,6.35,3.27,6.35,4.39,6.07,4.2,9.06,5.51,10.18,5.51,10.18,9.72,16.72,9.06,22.52-6.26,21,7,18,27.46-4.49,27.18-11.31-6-18.68-6-18.68l-5.88-12s-5.89-7.75-8.5-13.08-10.73-22.34-10.73-22.34Z" transform="translate(218.46 -183.56)"/><path class="cls-20" d="M460.14,301.42c12.58-4.81,9.89-17.1,4-28.29a33.33,33.33,0,0,1-15.79-12.36c-3.78,1.63-7.21,6.18-5.79,9.93a14.09,14.09,0,0,0,2.1,3.19c5.88,7.84,5.09,19.93-1.76,26.93-1.07,1.1-2.36,2.27-2.35,3.81,0,1.9,2,3.14,3.76,3.78a24.57,24.57,0,0,0,7.2,1.44C450.54,307.23,452.49,304.35,460.14,301.42Z" transform="translate(218.46 -183.56)"/><path class="cls-11" d="M540.17,473.07s13.45.53,17.93,3.52a17.87,17.87,0,0,1,6.23,7.41" transform="translate(218.46 -183.56)"/><g class="cls-13"><path d="M444.52,274.15c4.39,5.85,5.05,14.09,2.25,20.8,4-7,3.77-16.51-1.13-23.05a13.25,13.25,0,0,1-2.1-3.19,5.58,5.58,0,0,1,0-3.78,6.55,6.55,0,0,0-1.12,6A13.42,13.42,0,0,0,444.52,274.15Z" transform="translate(218.46 -183.56)"/><path d="M451.35,307.76a24.15,24.15,0,0,1-6-1.34c-1.78-.65-3.75-1.89-3.76-3.79a1.41,1.41,0,0,1,0-.29,3.89,3.89,0,0,0-1.15,2.54c0,1.9,2,3.14,3.76,3.78a24.57,24.57,0,0,0,7.2,1.44A3.31,3.31,0,0,1,451.35,307.76Z" transform="translate(218.46 -183.56)"/><path d="M461.07,299.43c-6,2.31-8.51,4.59-8.8,6.73,1.29-1.46,3.71-3,7.68-4.49,4.44-1.69,7-4.32,8.13-7.5A13.93,13.93,0,0,1,461.07,299.43Z" transform="translate(218.46 -183.56)"/></g><path class="cls-11" d="M494.68,264.27c-4.5,8.31-19.22,12.23-19.72,12.23a33.12,33.12,0,0,1-10.37-1.63c-5.86-12.45-16.81-24.4-16.81-24.4s52.59-23.26,46.61,1A24.28,24.28,0,0,0,494.68,264.27Z" transform="translate(218.46 -183.56)"/><path class="cls-17" d="M508.22,241a33.27,33.27,0,0,1-30.59,33.15c-.87.07-1.77.11-2.67.11A33.26,33.26,0,1,1,508.22,241Z" transform="translate(218.46 -183.56)"/><path class="cls-11" d="M508.22,241a33.27,33.27,0,0,1-30.59,33.15c-5.1-4.15-8.84-9.9-11.83-15.82-1.28-2.57-2.5-5.36-2.17-8.22.28-2.49,1.71-4.73,2.14-7.21.71-4-1.34-8.06-3.45-11.6-2-3.27-3.84-7.08-6.65-9.68-1.48-1.37-2.85-2.74-4.18-4.17A33.27,33.27,0,0,1,508.22,241Z" transform="translate(218.46 -183.56)"/><path class="cls-20" d="M449.77,213c-1.72-2.15-3.47-4.55-3.55-7.3-.08-2.56,1.31-4.94,3-6.84a12.63,12.63,0,0,1,7-4.27,38.35,38.35,0,0,1,5.36-.13,41.56,41.56,0,0,0,8.77-1.61c10.59-2.66,22.37-3.7,31.93,1.59,7.6,4.2,12.69,11.81,16.68,19.53,1.58,3.06,3.07,6.31,3.14,9.75.07,3.1-1,6.1-1.68,9.13a3.78,3.78,0,0,0-.08,1.86c.43,1.54,2.33,2,3.8,2.65a11.38,11.38,0,0,1,5.69,6.53,33.61,33.61,0,0,1,1.65,8.72,12.07,12.07,0,0,1-.32,5.57c-1.23,3.13-4.7,4.6-7.73,6.05a24.55,24.55,0,0,0-8.93,6.59c-2.3,2.94-3.51,6.93-2.42,10.5a12.54,12.54,0,0,0,6.49,7.11,38.62,38.62,0,0,0,9.4,2.95,10.49,10.49,0,0,1,4,1.49c2.86,2.09,2.77,6.72.58,9.5s-5.82,4-9.32,4.53a34.05,34.05,0,0,1-22.4-4.74c-4.11-2.5-7.89-6.17-8.79-10.89-.57-2.93,0-6.1-1.2-8.82-1.59-3.54-5.58-5.13-8.89-7.15-6.77-4.14-11.43-11-15-18.08-1.3-2.57-2.51-5.36-2.18-8.22.28-2.49,1.71-4.73,2.14-7.2.71-4.07-1.34-8.06-3.45-11.61-2-3.27-3.83-7.08-6.65-9.69A68.37,68.37,0,0,1,449.77,213Z" transform="translate(218.46 -183.56)"/><g class="cls-13"><path d="M526.88,261.62a32.54,32.54,0,0,0-5.85,3.54q1.23-.69,2.49-1.29a24.21,24.21,0,0,0,5.88-3.47C528.56,260.87,527.71,261.23,526.88,261.62Z" transform="translate(218.46 -183.56)"/><path d="M526.65,304.29a34.05,34.05,0,0,1-22.4-4.74c-4.11-2.5-7.89-6.17-8.79-10.89-.56-2.93,0-6.1-1.2-8.82-1.58-3.54-5.58-5.13-8.89-7.15-6.77-4.14-11.43-11-15-18.08-1.3-2.57-2.51-5.36-2.18-8.22.28-2.49,1.71-4.73,2.14-7.2.71-4.07-1.34-8.06-3.45-11.61-1.95-3.27-3.83-7.08-6.64-9.69a67.72,67.72,0,0,1-7-7.47c-1.72-2.15-3.47-4.55-3.55-7.3-.08-2.56,1.31-4.94,3-6.84A14,14,0,0,1,454,195a14.39,14.39,0,0,0-4.64,3.51c-1.71,1.9-3.1,4.28-3,6.84.09,2.75,1.84,5.15,3.56,7.3a65,65,0,0,0,7,7.47c2.81,2.61,4.7,6.42,6.64,9.69,2.11,3.55,4.17,7.54,3.46,11.61-.43,2.47-1.86,4.71-2.14,7.2-.33,2.86.88,5.65,2.18,8.22,3.57,7.08,8.23,13.94,15,18.08,3.3,2,7.3,3.62,8.88,7.15,1.23,2.72.64,5.89,1.2,8.82.9,4.72,4.69,8.39,8.79,10.89a34.11,34.11,0,0,0,22.4,4.74c3.12-.45,6.32-1.49,8.54-3.67A20,20,0,0,1,526.65,304.29Z" transform="translate(218.46 -183.56)"/></g></svg>