<svg viewBox="0 0 411.42 571.52" xmlns="http://www.w3.org/2000/svg" xmlns:xlink="http://www.w3.org/1999/xlink"><linearGradient id="a" gradientTransform="matrix(.88294759 .46947156 -.46947156 .88294759 261.39 -367.34)" gradientUnits="userSpaceOnUse" x1="579.63" x2="579.63" y1="691.97" y2="309.77"><stop offset="0" stop-color="#808080" stop-opacity=".25"/><stop offset=".54" stop-color="#808080" stop-opacity=".12"/><stop offset="1" stop-color="#808080" stop-opacity=".1"/></linearGradient><linearGradient id="b" gradientTransform="matrix(.88294759 .46947156 -.46947156 .88294759 17.23 -407.15)" x1="493.95" x2="493.95" xlink:href="#a" y1="661.2" y2="616.28"/><linearGradient id="c" gradientTransform="matrix(.88294759 .46947156 -.46947156 .88294759 17.23 -407.15)" x1="448.95" x2="448.95" xlink:href="#a" y1="806.3" y2="661.2"/><linearGradient id="d" gradientTransform="matrix(.88294759 .46947156 -.46947156 .88294759 17.23 -407.15)" x1="533.65" x2="533.65" xlink:href="#a" y1="806.3" y2="661.2"/><linearGradient id="e" gradientTransform="matrix(-.8497087 -.52725243 .52725243 -.8497087 1138.08 1594.69)" x1="1298.28" x2="1298.28" xlink:href="#a" y1="803.83" y2="603.41"/><linearGradient id="f" gradientTransform="matrix(.86672269 .49879031 -.49879031 .86672269 289.13 -399.35)" x1="730.01" x2="730.01" xlink:href="#a" y1="791.88" y2="591.46"/><g transform="translate(-285.24 -145.17)"><path d="m562.89 484.55-9.16 17.23 21.59-40.61s-.08 0-.06 0l14.34-27s0 0 0 0l-58-30.82s0 0 0 0l8.09-15.22s0 0 0 0l78.08 41.51a10.05 10.05 0 0 0 13.57-4.14l42.5-79.94a10.06 10.06 0 0 0 -4.14-13.57l-29.61-15.74s0 0 0-.05l41.91-78.88s0 0 0 0a13.52 13.52 0 0 0 12.72-7.16l.19-.35a13.74 13.74 0 0 0 -5-18.34 13.45 13.45 0 0 0 -18.71 5.33l-.19.36-.19.35a13.38 13.38 0 0 0 .67 13.82.06.06 0 0 1 0 0l-42 79.06s0 0-.05 0l-109.67-58.39s0 0 0 0l42-79.06s0 0 0 0a13.37 13.37 0 0 0 11.83-7.18l.19-.35a13.74 13.74 0 0 0 -5-18.34 13.45 13.45 0 0 0 -18.71 5.33l-.19.35-.19.36a13.55 13.55 0 0 0 1.3 14.5s0 0 0 0l-41.89 78.79a0 0 0 0 1 -.05 0l-32.16-17.05a10.07 10.07 0 0 0 -13.57 4.15l-42.5 79.94a10.07 10.07 0 0 0 4.17 13.56l78.08 41.51s0 0 0 .05l-8.08 15.22s0 0-.05 0l-57.95-30.78s0 0-.05 0l-11.95 22.49-23.2 43.84-29.7 55.86s0 0 0 0l152.43 81s0 0 0 0l29-54.56" fill="url(#a)"/><g fill="#3e76f9"><path d="m536.66 257.81a5.87 5.87 0 0 0 -.57 1.28 5.88 5.88 0 0 1 .57-1.28z"/><path d="m665 291a.86.86 0 0 0 -.1.4.86.86 0 0 1 .1-.4z"/><path d="m665.32 289.75c-.05.09-.05.31-.1.4a.6.6 0 0 0 .1-.4z"/><path d="m649.25 320.39a1.3 1.3 0 0 1 -.46.44c.21-.13.28-.31.46-.44z"/><path d="m649.86 319.47c-.1.18-.33.39-.42.57a1.54 1.54 0 0 0 .42-.57z"/><path d="m537.26 269.23a10.46 10.46 0 0 1 -1.32-2.63 18.44 18.44 0 0 0 1.32 2.63z"/><path d="m536 266.51a9.84 9.84 0 0 1 -.33-1.3 2.88 2.88 0 0 0 .33 1.3z"/><path d="m650.56 318.37-.47.88z"/><path d="m536 259.27c-.1.4-.24.88-.34 1.28.09-.4.19-.8.34-1.28z"/><path d="m556.45 226.76-.27.09z"/><path d="m555.05 227.27.13-.05z"/><path d="m535.59 260.87a7.56 7.56 0 0 0 -.16 1.38 11.47 11.47 0 0 1 .16-1.38z"/><path d="m535.35 263.68a4 4 0 0 0 .19 1.35c-.04-.36-.12-.86-.19-1.35z"/><path d="m535.43 262.25a6.58 6.58 0 0 0 .05 1.39 3.52 3.52 0 0 1 -.05-1.39z"/><path d="m551.85 229.87c0-.09.23-.22.28-.31-.13.04-.23.22-.28.31z"/><path d="m552.68 229c0-.09.18-.13.23-.22a.82.82 0 0 1 -.23.22z"/><path d="m551.06 230.92c.05-.09.14-.26.28-.3-.14.04-.18.13-.28.3z"/></g></g><path d="m209.42 408.67 16.78 8.92 5.54-10.42.99-1.85-137.3-73-.99 1.85-5.54 10.42 16.78 8.92-6.48 12.18-27.46-14.6-8.12 15.28 158.66 84.36 8.13-15.27-27.47-14.6z" fill="url(#b)"/><path d="m70.46 371.82-7.37 13.86 18.28 9.72-11.32 21.28-9.76 18.36-14.6 27.46-8.13 15.28-4.83 9.09-21.37-11.36-11.36 21.37 58.01 30.84 11.36-21.36-9.18-4.89 4.83-9.09 8.13-15.28 14.6-27.46 9.76-18.36 11.32-21.28 21.36 11.36 7.37-13.86.75-1.41-67.1-35.68z" fill="url(#c)"/><path d="m143.66 410.74-7.38 13.86 27.47 14.6-11.32 21.28-9.76 18.37-14.61 27.46-8.12 15.27-4.83 9.09-21.37-11.36-11.36 21.37 58.01 30.84 11.36-21.36-9.18-4.89 4.83-9.09 8.13-15.27 14.6-27.46 9.76-18.37 11.32-21.28 12.27 6.53 7.37-13.87.75-1.41-67.19-35.73z" fill="url(#d)"/><path d="m481.09 234.72 182 96.76a13 13 0 0 1 5.37 17.58l-38.35 72.13a13 13 0 0 1 -17.59 5.38l-182-96.76a13 13 0 0 1 -5.38-17.58l38.36-72.14a13 13 0 0 1 17.59-5.37z" fill="#3e76f9" transform="translate(-285.24 -145.17)"/><path d="m527.8 266.89h2v195h-2z" opacity=".1" transform="matrix(.46947156 -.88294759 .88294759 .46947156 -326.43 515.05)"/><path d="m509.78 233.08h74v195h-74z" opacity=".3" transform="matrix(.46947156 -.88294759 .88294759 .46947156 -287.04 512.99)"/><circle cx="214.79" cy="162.36" opacity=".1" r="26.9"/><circle cx="215.54" cy="160.95" fill="#dee3f3" r="26.9"/><circle cx="592.03" cy="356.45" opacity=".1" r="26.9" transform="matrix(.46947156 -.88294759 .88294759 .46947156 -285.87 566.67)"/><circle cx="592.78" cy="355.04" fill="#dee3f3" r="26.9" transform="matrix(.46947156 -.88294759 .88294759 .46947156 -284.23 566.58)"/><g fill="#3e76f9"><path d="m504.25 368.25h23.5v40.4h-23.5z" transform="matrix(.46947156 -.88294759 .88294759 .46947156 -354.46 516.52)"/><path d="m414.85 368.26h134.5v168.1h-134.5z" transform="matrix(.46947156 -.88294759 .88294759 .46947156 -428.83 520.47)"/><path d="m232.04 402.13-6.29 11.83-16.33-8.69-6.29 11.83-101.01-53.7 6.29-11.84-16.25-8.63 6.29-11.83z"/></g><path d="m232.04 402.13-6.29 11.83-16.33-8.69-6.29 11.83-101.01-53.7 6.29-11.84-16.25-8.63 6.29-11.83z" opacity=".3"/><g fill="#3e76f9"><path d="m425.52 455.44h16.8v174.8h-16.8z" transform="matrix(.46947156 -.88294759 .88294759 .46947156 -534.33 525.94)"/><path d="m380.5 501.04h16.8v74h-16.8z" transform="matrix(.46947156 -.88294759 .88294759 .46947156 -553.98 483.65)"/><path d="m451.75 538.93h16.8v74h-16.8z" transform="matrix(.46947156 -.88294759 .88294759 .46947156 -549.62 566.67)"/><path d="m312.9 608.92h23.5v63.9h-23.5z" transform="matrix(.46947156 -.88294759 .88294759 .46947156 -678.85 481.48)"/><path d="m73.85 413.15-9.48 17.84-14.22 26.75-7.89 14.83-4.7 8.83 26.67 14.18 4.69-8.83 7.89-14.83 14.22-26.76 9.49-17.83 11.03-20.75-26.66-14.18z"/><path d="m164.97 434.98-11.03 20.75-9.49 17.84-14.22 26.75-7.89 14.83-4.69 8.83 26.75 14.23 4.69-8.83 7.89-14.84 14.23-26.75 9.48-17.83 11.03-20.75z"/><path d="m393.08 651.54h23.5v63.9h-23.5z" transform="matrix(.46947156 -.88294759 .88294759 .46947156 -673.95 574.88)"/></g><path d="m439.98 392.21h87.4v114.3h-87.4z" opacity=".3" transform="matrix(.46947156 -.88294759 .88294759 .46947156 -425.39 520.29)"/><path d="m366.23 539.91h23.5v30.3h-23.5z" fill="#f93ed4" transform="matrix(.46947156 -.88294759 .88294759 .46947156 -574.79 483.04)"/><path d="m340.72 581.49h30.3v30.3h-30.3z" fill="#f7bf41" transform="matrix(.46947156 -.88294759 .88294759 .46947156 -623.24 485.58)"/><path d="m333.45 614.16h10.1v30.3h-10.1z" fill="#47e2aa" transform="matrix(.46947156 -.88294759 .88294759 .46947156 -661.3 487.57)"/><path d="m446.31 582.49h23.5v30.3h-23.5z" fill="#f7bf41" transform="matrix(.46947156 -.88294759 .88294759 .46947156 -569.9 576.34)"/><path d="m420.8 624.07h30.3v30.3h-30.3z" fill="#47e2aa" transform="matrix(.46947156 -.88294759 .88294759 .46947156 -618.35 578.88)"/><path d="m413.53 656.74h10.1v30.3h-10.1z" fill="#f93ed4" transform="matrix(.46947156 -.88294759 .88294759 .46947156 -656.41 580.87)"/><g transform="translate(-285.24 -145.17)"><path d="m429.53 379.08s-.08 0-.06 0a11.61 11.61 0 0 0 .6-6.73v-.09c-1.56-6.65-8.34-11.1-14.94-9.33a12.25 12.25 0 0 0 -7.26 5.4l-5.87 9.36a0 0 0 0 1 0 0 48.05 48.05 0 0 1 -13.29-21.18 55.07 55.07 0 0 1 -1.09-24.22c1.71-10.35 5.74-20.44 10.44-29.53a177.9 177.9 0 0 1 22.48-33c.46-.54.75-.83.75-.83l-.08-.05c4.52-6.72 30-46.45 5.8-61.48-.49 0-47.1 10.2-35.77 44.16a228.86 228.86 0 0 0 -24.66 41.64c-6.6 14.62-10 27.69-11.29 39.25-2.58 23.11 3.47 40.29 10.91 52.2a70 70 0 0 0 19 20.37.06.06 0 0 1 0 0 12.16 12.16 0 0 0 6.17 15.98 12 12 0 0 0 13.77-3" fill="url(#e)"/><g fill="#3e76f9"><path d="m395.35 260.67c-.08-.27-.07-.49-.16-.76a1.69 1.69 0 0 1 .16-.94l-1.08 2a12.4 12.4 0 0 1 -1.11 3.15 11.21 11.21 0 0 1 1.95-2.59 1.81 1.81 0 0 1 .2-.8z"/><path d="m426 380.93-19 35.67-.43.79a11.76 11.76 0 0 1 -20.32-11.82l19-35.68a11.81 11.81 0 0 1 21.69 2l.13.41a12 12 0 0 1 -.6 7.72z"/><path d="m387.09 405.34 15.1-27.2a45.17 45.17 0 0 1 -14.35-20.31 52.09 52.09 0 0 1 -2.16-23.5c1.15-10.12 4.58-20.22 8.78-29.21a166.92 166.92 0 0 1 21.07-34.06l-29.38-16.3c-10.25 15.58-17.62 29.68-22.6 42.58-5.64 14.48-8.43 27.34-9.1 38.64-1.42 22.54 5.35 39 13.1 50.16 8.96 13.32 19.54 19.2 19.54 19.2z"/></g><path d="m392 308.16c-3.9 9.4-5.8 19.9-6.5 29.8l-30.9-8.3c2.1-15.4 5.9-28 10.8-38.2z" fill="#f7bf41"/><path d="m421.74 207.39s-49 14.6-34 49.77l32.44 16.73c-.05.11 30.82-51.42 1.56-66.5z" fill="#f93ed4"/><path d="m403.72 379.3c-7.83-6.49-14.41-14.89-19.65-23.32l-23.46 21.75c9 12.65 18.28 22 27.37 28.75z" fill="#47e2aa"/></g><path d="m519.46 359.11h2.8v40.4h-2.8z" opacity=".1" transform="matrix(.46947156 -.88294759 .88294759 .46947156 -343.82 515.96)"/><path d="m579.27 455-26.43 49.7a11.81 11.81 0 0 1 1-8.52l18.92-35.58a10.94 10.94 0 0 1 6.51-5.6z" opacity=".1" transform="translate(-285.24 -145.17)"/><path d="m426.9 378.17-19.81 37.26a11.5 11.5 0 0 1 -6.07 4.81l26.48-49.8a12 12 0 0 1 -.6 7.73z" opacity=".1" transform="translate(-285.24 -145.17)"/><path d="m449.02 437.01h2v151.3h-2z" opacity=".1" transform="matrix(.46947156 -.88294759 .88294759 .46947156 -499.14 524.15)"/><path d="m391.74 494.29h1.5v74h-1.5z" opacity=".1" transform="matrix(.46947156 -.88294759 .88294759 .46947156 -546.11 483.24)"/><path d="m462.99 532.17h1.5v74h-1.5z" opacity=".1" transform="matrix(.46947156 -.88294759 .88294759 .46947156 -541.76 566.25)"/><path d="m488.18 202.88h99.6v11.6h-99.6z" fill="#3e76f9" transform="matrix(.46947156 -.88294759 .88294759 .46947156 -184.07 440.54)"/><path d="m605.43 265.22h99.6v11.6h-99.6z" fill="#3e76f9" transform="matrix(.46947156 -.88294759 .88294759 .46947156 -176.91 577.15)"/><circle cx="275.44" cy="19.97" opacity=".1" r="13.1"/><circle cx="275.77" cy="19.35" fill="#3e76f9" r="13.1"/><circle cx="678.64" cy="227.86" opacity=".1" r="13.1" transform="matrix(.47 -.88 .88 .47 -126.39 574.91)"/><circle cx="678.96" cy="227.24" fill="#3e76f9" r="13.1" transform="matrix(.46947156 -.88294759 .88294759 .46947156 -125.67 574.88)"/><g transform="translate(-285.24 -145.17)"><path d="m551 498.3s.07 0 .06 0a11.52 11.52 0 0 0 -.39 6.74v.09c1.77 6.6 8.7 10.82 15.24 8.83a12.26 12.26 0 0 0 7.08-5.63l5.51-9.59s0 0 .06 0a48.2 48.2 0 0 1 14 20.73 55.14 55.14 0 0 1 1.89 24.17c-1.37 10.4-5.06 20.62-9.46 29.86a177.81 177.81 0 0 1 -21.37 33.74c-.44.55-.73.85-.73.85h.09c-4.3 6.87-28.45 47.42-3.76 61.64.5 0 46.74-11.75 34.29-45.33a0 0 0 0 1 0 0c10.49-15.4 18.06-29.48 23.29-42.4 6.12-14.83 9.09-28 10-39.6 1.81-23.19-4.81-40.15-12.64-51.81a70.06 70.06 0 0 0 -19.65-19.73s0 0 0 0a12.17 12.17 0 0 0 -6.75-15.74 12 12 0 0 0 -13.66 3.42" fill="url(#f)"/><g fill="#3e76f9"><path d="m589.07 615.51c.09.27.09.49.19.76a1.7 1.7 0 0 1 -.13.94l1-2.07a13 13 0 0 1 1-3.18 10.93 10.93 0 0 1 -1.85 2.65 1.93 1.93 0 0 1 -.17.81z"/><path d="m554.48 496.33 17.77-36.28.4-.8a11.77 11.77 0 0 1 20.71 11.14l-17.78 36.28a11.8 11.8 0 0 1 -21.74-1.3l-.14-.4a12 12 0 0 1 .34-7.74z"/><path d="m592.54 470.65-14.19 27.68a45.16 45.16 0 0 1 15 19.82 52.09 52.09 0 0 1 2.94 23.42c-.81 10.15-3.91 20.36-7.8 29.49a167.58 167.58 0 0 1 -19.94 34.73l29.9 15.32c9.73-15.91 16.63-30.24 21.19-43.3 5.15-14.66 7.52-27.61 7.81-38.92.67-22.58-6.64-38.8-14.76-49.7-9.39-13.02-20.15-18.54-20.15-18.54z"/></g><path d="m590.82 567.93c3.58-9.52 5.14-20.08 5.51-30l31.16 7.27c-1.59 15.47-5 28.18-9.53 38.54z" fill="#f7bf41"/><path d="m564.46 669.63s48.46-16.21 32.34-50.87l-33-15.64c.06-.12-29.07 52.41.66 66.51z" fill="#f93ed4"/><path d="m576.78 497.22c8.05 6.23 14.9 14.41 20.41 22.66l22.73-22.52c-9.46-12.34-19-21.4-28.31-27.83z" fill="#47e2aa"/></g></svg>