<svg id="dd753f21-6b71-4d24-98dc-8d672633fdb2" xmlns="http://www.w3.org/2000/svg" xmlns:xlink="http://www.w3.org/1999/xlink" viewBox="0 0 411.42 571.52"><defs><style>.cls-1{fill:url(#linear-gradient);}.cls-2{fill:#3e76f9;}.cls-3{fill:url(#linear-gradient-2);}.cls-4{fill:url(#linear-gradient-3);}.cls-5{fill:url(#linear-gradient-4);}.cls-6{opacity:0.1;}.cls-6,.cls-7{isolation:isolate;}.cls-7{opacity:0.3;}.cls-8{fill:#dee3f3;}.cls-9{fill:#f93ed4;}.cls-10{fill:#f7bf41;}.cls-11{fill:#47e2aa;}.cls-12{fill:url(#linear-gradient-5);}</style><linearGradient id="linear-gradient" x1="-259.91" y1="1024.7" x2="-259.91" y2="642.5" gradientTransform="translate(261.39 -367.34) rotate(28)" gradientUnits="userSpaceOnUse"><stop offset="0" stop-color="gray" stop-opacity="0.25"/><stop offset="0.54" stop-color="gray" stop-opacity="0.12"/><stop offset="1" stop-color="gray" stop-opacity="0.1"/></linearGradient><linearGradient id="linear-gradient-2" x1="-345.59" y1="993.93" x2="-345.59" y2="949.01" gradientTransform="translate(914.71 -306.79) rotate(28)" xlink:href="#linear-gradient"/><linearGradient id="linear-gradient-3" x1="-390.59" y1="1139.03" x2="-390.59" y2="993.93" gradientTransform="translate(914.71 -306.79) rotate(28)" xlink:href="#linear-gradient"/><linearGradient id="linear-gradient-4" x1="-305.89" y1="1139.03" x2="-305.89" y2="993.93" gradientTransform="translate(914.71 -306.79) rotate(28)" xlink:href="#linear-gradient"/><linearGradient id="linear-gradient-5" x1="-97.88" y1="1152.61" x2="-97.88" y2="952.2" gradientTransform="translate(289.13 -399.35) rotate(29.92)" xlink:href="#linear-gradient"/></defs><title>hanging-robot</title><path class="cls-1" d="M-334.59,384.2l-9.16,17.22,21.59-40.6s-.07,0,0,0l14.34-27a0,0,0,0,0,0-.05L-365.83,303a0,0,0,0,1,0,0l8.09-15.21a0,0,0,0,1,.05,0l78.08,41.52a10.07,10.07,0,0,0,13.57-4.15l42.5-79.93a10.08,10.08,0,0,0-4.15-13.58l-29.6-15.74s0,0,0,0l41.9-78.8,0,0a13.56,13.56,0,0,0,12.73-7.15l.19-.35v0a13.75,13.75,0,0,0-4.95-18.34,13.45,13.45,0,0,0-18.72,5.33l-.18.35-.19.35a13.4,13.4,0,0,0,.67,13.83,0,0,0,0,1,0,0l-42,79.06s0,0,0,0L-377.7,151.68s0,0,0-.05l42-79.06,0,0a13.37,13.37,0,0,0,11.84-7.17l.19-.36h0a13.75,13.75,0,0,0-4.95-18.34A13.45,13.45,0,0,0-347.28,52l-.18.35-.19.35a13.51,13.51,0,0,0,1.19,14.55s0,0,0,0l-41.9,78.8a0,0,0,0,1-.05,0L-420.57,129a10.06,10.06,0,0,0-13.57,4.15l-42.5,79.93a10.06,10.06,0,0,0,4.15,13.57l78.07,41.52a0,0,0,0,1,0,.05l-8.09,15.21s0,0-.05,0l-57.94-30.81a0,0,0,0,0,0,0l-12,22.48L-495.69,319l-29.7,55.86a0,0,0,0,0,0,.05l152.42,81s0,0,.05,0l29-54.56" transform="translate(612.24 -44.81)"/><path class="cls-2" d="M-360.82,157.45a6.39,6.39,0,0,0-.57,1.28A7,7,0,0,1-360.82,157.45Z" transform="translate(612.24 -44.81)"/><path class="cls-2" d="M-232.5,190.68a.78.78,0,0,0-.1.4A.78.78,0,0,1-232.5,190.68Z" transform="translate(612.24 -44.81)"/><path class="cls-2" d="M-232.16,189.39c0,.09-.05.32-.09.4A.57.57,0,0,0-232.16,189.39Z" transform="translate(612.24 -44.81)"/><path class="cls-2" d="M-248.22,220a1.59,1.59,0,0,1-.46.43C-248.5,220.34-248.4,220.17-248.22,220Z" transform="translate(612.24 -44.81)"/><path class="cls-2" d="M-247.62,219.11c-.09.18-.32.4-.41.57A1.45,1.45,0,0,0-247.62,219.11Z" transform="translate(612.24 -44.81)"/><path class="cls-2" d="M-360.21,168.87a10.4,10.4,0,0,1-1.32-2.62A17.79,17.79,0,0,0-360.21,168.87Z" transform="translate(612.24 -44.81)"/><path class="cls-2" d="M-361.48,166.16a8.63,8.63,0,0,1-.33-1.31A2.8,2.8,0,0,0-361.48,166.16Z" transform="translate(612.24 -44.81)"/><path class="cls-2" d="M-245.67,389.69" transform="translate(612.24 -44.81)"/><path class="cls-2" d="M-246.92,218l-.47.89Z" transform="translate(612.24 -44.81)"/><path class="cls-2" d="M-361.48,158.91c-.1.4-.25.89-.35,1.29C-361.73,159.8-361.63,159.4-361.48,158.91Z" transform="translate(612.24 -44.81)"/><path class="cls-2" d="M-340.08,126.12h0Z" transform="translate(612.24 -44.81)"/><path class="cls-2" d="M-341,126.41l-.27.08Z" transform="translate(612.24 -44.81)"/><path class="cls-2" d="M-342.43,126.91l.14,0Z" transform="translate(612.24 -44.81)"/><path class="cls-2" d="M-361.88,160.51a6.86,6.86,0,0,0-.17,1.38A11.55,11.55,0,0,1-361.88,160.51Z" transform="translate(612.24 -44.81)"/><path class="cls-2" d="M-362.13,163.32a4.64,4.64,0,0,0,.19,1.35C-362,164.31-362,163.82-362.13,163.32Z" transform="translate(612.24 -44.81)"/><path class="cls-2" d="M-362,161.89a7.33,7.33,0,0,0,.06,1.39A3.31,3.31,0,0,1-362,161.89Z" transform="translate(612.24 -44.81)"/><path class="cls-2" d="M-345.63,129.51c.05-.08.23-.21.28-.3C-345.48,129.25-345.58,129.43-345.63,129.51Z" transform="translate(612.24 -44.81)"/><path class="cls-2" d="M-344.8,128.59c.05-.08.19-.12.23-.21A.6.6,0,0,1-344.8,128.59Z" transform="translate(612.24 -44.81)"/><path class="cls-2" d="M-346.41,130.57c0-.09.14-.27.27-.31C-346.27,130.3-346.32,130.39-346.41,130.57Z" transform="translate(612.24 -44.81)"/><path class="cls-2" d="M-343.52,127.69Z" transform="translate(612.24 -44.81)"/><polygon class="cls-3" points="209.42 408.67 226.2 417.59 231.74 407.17 232.73 405.32 95.43 332.32 94.44 334.17 88.9 344.59 105.68 353.51 99.2 365.69 71.74 351.09 63.62 366.37 222.28 450.73 230.41 435.46 202.94 420.86 209.42 408.67"/><polygon class="cls-4" points="70.46 371.82 63.09 385.68 81.37 395.4 70.05 416.68 70.05 416.68 60.29 435.04 45.69 462.5 37.56 477.78 32.73 486.87 11.36 475.51 0 496.88 58.01 527.72 69.37 506.36 60.19 501.47 65.02 492.38 65.02 492.38 73.15 477.1 73.15 477.1 87.75 449.64 87.75 449.64 97.51 431.28 97.51 431.28 108.83 410 130.19 421.36 137.56 407.5 138.31 406.09 71.21 370.41 70.46 371.82"/><polygon class="cls-5" points="143.66 410.74 136.28 424.6 163.75 439.2 152.43 460.48 152.43 460.48 142.67 478.85 128.06 506.31 119.94 521.58 115.11 530.67 93.74 519.31 82.38 540.68 140.39 571.52 151.75 550.16 142.57 545.27 147.4 536.18 155.53 520.91 170.13 493.45 179.89 475.08 179.89 475.08 191.21 453.8 203.48 460.33 210.85 446.46 211.6 445.05 144.41 409.32 143.66 410.74"/><path class="cls-2" d="M-416.38,134.36l182,96.76A13,13,0,0,1-229,248.7l-38.36,72.14A13,13,0,0,1-285,326.21l-182-96.75a13,13,0,0,1-5.37-17.59L-434,139.74A13,13,0,0,1-416.38,134.36Z" transform="translate(612.24 -44.81)"/><rect class="cls-6" x="-369.68" y="166.54" width="2" height="195" transform="translate(183.52 -230.26) rotate(-62)"/><rect class="cls-7" x="-387.7" y="132.72" width="74" height="195" transform="translate(222.91 -232.32) rotate(-62)"/><circle class="cls-6" cx="214.79" cy="162.36" r="26.9"/><circle class="cls-8" cx="215.54" cy="160.95" r="26.9"/><circle class="cls-6" cx="-305.45" cy="256.09" r="26.9" transform="translate(224.08 -178.64) rotate(-62)"/><circle class="cls-8" cx="-304.7" cy="254.68" r="26.9" transform="translate(225.72 -178.73) rotate(-62)"/><rect class="cls-2" x="-393.22" y="267.9" width="23.5" height="40.4" transform="translate(155.48 -228.79) rotate(-62)"/><rect class="cls-2" x="-482.62" y="267.91" width="134.5" height="168.1" transform="translate(81.11 -224.84) rotate(-62)"/><polygon class="cls-2" points="232.04 402.13 225.75 413.96 209.42 405.27 203.13 417.1 102.12 363.4 108.41 351.56 92.16 342.93 98.45 331.1 232.04 402.13"/><polygon class="cls-7" points="232.04 402.13 225.75 413.96 209.42 405.27 203.13 417.1 102.12 363.4 108.41 351.56 92.16 342.93 98.45 331.1 232.04 402.13"/><rect class="cls-2" x="-471.96" y="355.08" width="16.8" height="174.8" transform="translate(-24.38 -219.36) rotate(-62)"/><rect class="cls-2" x="-516.98" y="400.68" width="16.8" height="74" transform="translate(-44.03 -261.66) rotate(-62)"/><rect class="cls-2" x="-445.72" y="438.57" width="16.8" height="74" transform="translate(-39.68 -178.64) rotate(-62)"/><rect class="cls-2" x="-584.57" y="508.56" width="23.5" height="63.9" transform="translate(-168.9 -263.83) rotate(-62)"/><polygon class="cls-2" points="73.85 413.15 64.37 430.99 50.15 457.74 42.26 472.57 37.56 481.4 64.23 495.58 68.92 486.75 76.81 471.92 91.03 445.16 100.52 427.33 111.55 406.58 84.89 392.4 73.85 413.15"/><polygon class="cls-2" points="164.97 434.98 153.94 455.73 144.45 473.57 130.23 500.32 122.34 515.15 117.65 523.98 144.4 538.21 149.09 529.38 156.98 514.54 171.21 487.79 180.69 469.96 191.72 449.21 164.97 434.98"/><rect class="cls-2" x="-504.4" y="551.19" width="23.5" height="63.9" transform="translate(-164 -170.43) rotate(-62)"/><rect class="cls-7" x="-457.5" y="291.85" width="87.4" height="114.3" transform="translate(84.56 -225.02) rotate(-62)"/><rect class="cls-9" x="-531.24" y="439.55" width="23.5" height="30.3" transform="translate(-64.84 -262.27) rotate(-62)"/><rect class="cls-10" x="-556.76" y="481.14" width="30.3" height="30.3" transform="translate(-113.29 -259.73) rotate(-62)"/><rect class="cls-11" x="-564.03" y="513.81" width="10.1" height="30.3" transform="translate(-151.35 -257.73) rotate(-62)"/><rect class="cls-10" x="-451.16" y="482.13" width="23.5" height="30.3" transform="translate(-59.95 -168.97) rotate(-62)"/><rect class="cls-11" x="-476.67" y="523.72" width="30.3" height="30.3" transform="translate(-108.4 -166.43) rotate(-62)"/><rect class="cls-9" x="-483.94" y="556.39" width="10.1" height="30.3" transform="translate(-146.46 -164.43) rotate(-62)"/><rect class="cls-6" x="-378.01" y="258.76" width="2.8" height="40.4" transform="translate(166.13 -229.35) rotate(-62)"/><path class="cls-6" d="M-318.21,354.64l-26.43,49.71a11.81,11.81,0,0,1,1-8.52l18.92-35.58A10.9,10.9,0,0,1-318.21,354.64Z" transform="translate(612.24 -44.81)"/><path class="cls-6" d="M-470.57,277.81l-19.81,37.26a11.59,11.59,0,0,1-6.08,4.82l26.48-49.8A12.06,12.06,0,0,1-470.57,277.81Z" transform="translate(612.24 -44.81)"/><rect class="cls-6" x="-448.46" y="336.66" width="2" height="151.3" transform="translate(10.81 -221.16) rotate(-62)"/><rect class="cls-6" x="-505.74" y="393.93" width="1.5" height="74" transform="translate(-36.16 -262.07) rotate(-62)"/><rect class="cls-6" x="-434.48" y="431.82" width="1.5" height="74" transform="translate(-31.81 -179.06) rotate(-62)"/><rect class="cls-2" x="-409.3" y="102.52" width="99.6" height="11.6" transform="translate(325.88 -304.77) rotate(-62)"/><rect class="cls-2" x="-292.04" y="164.87" width="99.6" height="11.6" transform="translate(333.03 -168.16) rotate(-62)"/><circle class="cls-6" cx="275.44" cy="19.97" r="13.1"/><circle class="cls-2" cx="275.77" cy="19.35" r="13.1"/><circle class="cls-6" cx="-218.84" cy="127.5" r="13.1" transform="matrix(0.47, -0.88, 0.88, 0.47, 383.56, -170.39)"/><circle class="cls-2" cx="-218.51" cy="126.88" r="13.1" transform="translate(384.28 -170.43) rotate(-62)"/><path class="cls-12" d="M-346.48,397.94s.08,0,.06,0a11.62,11.62,0,0,0-.38,6.75l0,.09c1.78,6.59,8.71,10.81,15.24,8.82a12.23,12.23,0,0,0,7.08-5.63l5.52-9.58s0,0,.05,0a48,48,0,0,1,14,20.73A54.94,54.94,0,0,1-303,443.3c-1.37,10.41-5.07,20.63-9.46,29.87a177.78,177.78,0,0,1-21.38,33.73,9.48,9.48,0,0,1-.72.85l.09.05c-4.3,6.87-28.45,47.42-3.77,61.64h0c.49,0,46.74-11.75,34.29-45.32,0,0,0,0,0,0,10.49-15.42,18-29.53,23.27-42.44,6.11-14.82,9.08-28,10-39.59,1.81-23.19-4.81-40.16-12.63-51.82A70.19,70.19,0,0,0-303,370.52s0,0,0,0a12.15,12.15,0,0,0-6.74-15.73,12,12,0,0,0-13.67,3.42" transform="translate(612.24 -44.81)"/><path class="cls-2" d="M-308.4,515.15c.09.27.09.49.18.76a1.53,1.53,0,0,1-.13.94l1-2.06a12.62,12.62,0,0,1,1-3.19,11.22,11.22,0,0,1-1.86,2.66,1.92,1.92,0,0,1-.17.8Z" transform="translate(612.24 -44.81)"/><path class="cls-2" d="M-343,396l17.78-36.28.39-.81a11.78,11.78,0,0,1,16.16-4.11A11.75,11.75,0,0,1-304.12,370l-17.77,36.28a11.83,11.83,0,0,1-15.79,5.4,11.71,11.71,0,0,1-6-6.7l-.14-.41a12.12,12.12,0,0,1,.34-7.74Z" transform="translate(612.24 -44.81)"/><path class="cls-2" d="M-304.94,370.29-319.12,398a45.28,45.28,0,0,1,15,19.83,52.36,52.36,0,0,1,2.94,23.42c-.82,10.14-3.92,20.35-7.81,29.48a167.09,167.09,0,0,1-19.93,34.73l29.9,15.33c9.73-15.92,16.62-30.25,21.18-43.31,5.16-14.66,7.52-27.61,7.81-38.92.67-22.58-6.63-38.8-14.75-49.7C-294.17,375.81-304.94,370.29-304.94,370.29Z" transform="translate(612.24 -44.81)"/><path class="cls-10" d="M-306.66,467.58c3.59-9.53,5.14-20.09,5.51-30l31.16,7.27c-1.59,15.46-5,28.18-9.53,38.54Z" transform="translate(612.24 -44.81)"/><path class="cls-9" d="M-333,569.28s48.45-16.21,32.33-50.88l-33-15.64C-333.61,502.66-362.74,555.17-333,569.28Z" transform="translate(612.24 -44.81)"/><path class="cls-11" d="M-320.69,396.86c8,6.23,14.89,14.41,20.41,22.66L-277.56,397c-9.45-12.33-19-21.39-28.3-27.83Z" transform="translate(612.24 -44.81)"/></svg>