<svg id="dd753f21-6b71-4d24-98dc-8d672633fdb2" xmlns="http://www.w3.org/2000/svg" xmlns:xlink="http://www.w3.org/1999/xlink" viewBox="0 0 83 215.44"><defs><style>.cls-1{fill:url(#linear-gradient);}.cls-2{fill:#3e76f9;}.cls-3{fill:#f7bf41;}.cls-4{fill:#f93ed4;}.cls-5{fill:#47e2aa;}</style><linearGradient id="linear-gradient" x1="1641.47" y1="828.78" x2="1641.47" y2="628.37" gradientTransform="translate(1138.08 1594.69) rotate(-148.18)" gradientUnits="userSpaceOnUse"><stop offset="0" stop-color="gray" stop-opacity="0.25"/><stop offset="0.54" stop-color="gray" stop-opacity="0.12"/><stop offset="1" stop-color="gray" stop-opacity="0.1"/></linearGradient></defs><title>hanging-robot-arm</title><path class="cls-1" d="M151.08,176.92s-.07,0-.06,0a11.53,11.53,0,0,0,.61-6.73l0-.09c-1.56-6.65-8.34-11.1-14.94-9.33a12.28,12.28,0,0,0-7.26,5.4l-5.83,9.39a0,0,0,0,1-.06,0,48,48,0,0,1-13.28-21.18,54.93,54.93,0,0,1-1.1-24.22c1.72-10.35,5.74-20.44,10.44-29.53a177.46,177.46,0,0,1,22.49-33c.45-.54.75-.83.75-.83l-.09,0c4.53-6.72,30-46.45,5.8-61.48h0c-.49,0-47.11,10.2-35.77,44.16a.06.06,0,0,1,0,0c-11,15.06-19,28.91-24.66,41.63-6.6,14.62-10,27.69-11.29,39.25-2.57,23.12,3.48,40.29,10.92,52.2a69.85,69.85,0,0,0,19,20.37,0,0,0,0,1,0,0,12.17,12.17,0,0,0,6.22,16,12,12,0,0,0,13.78-3" transform="translate(-75.82 -5.23)"/><path class="cls-2" d="M116.91,58.51c-.08-.27-.08-.49-.16-.76a1.61,1.61,0,0,1,.16-.94l-1.08,2A12.27,12.27,0,0,1,114.72,62a11.46,11.46,0,0,1,1.94-2.59,2,2,0,0,1,.2-.8Z" transform="translate(-75.82 -5.23)"/><path class="cls-2" d="M147.54,178.77l-19,35.67-.42.79a11.77,11.77,0,0,1-20.33-11.82l19-35.67a11.81,11.81,0,0,1,21.69,2l.12.4a12.09,12.09,0,0,1-.59,7.73Z" transform="translate(-75.82 -5.23)"/><path class="cls-2" d="M108.65,203.18,123.74,176a45.1,45.1,0,0,1-14.34-20.31,52.22,52.22,0,0,1-2.17-23.5C108.38,122.06,111.82,112,116,103a167.29,167.29,0,0,1,21.07-34L107.71,52.6C97.46,68.18,90.09,82.28,85.1,95.18c-5.64,14.48-8.43,27.34-9.09,38.64-1.42,22.55,5.34,39,13.1,50.16C98.07,197.31,108.65,203.18,108.65,203.18Z" transform="translate(-75.82 -5.23)"/><path class="cls-3" d="M113.59,106c-3.9,9.4-5.8,19.9-6.5,29.8l-30.9-8.3c2.1-15.4,5.9-28,10.8-38.2Z" transform="translate(-75.82 -5.23)"/><path class="cls-4" d="M143.29,5.23s-49,14.6-34,49.78l32.45,16.72C141.69,71.83,172.54,20.31,143.29,5.23Z" transform="translate(-75.82 -5.23)"/><path class="cls-5" d="M125.28,177.15c-7.84-6.5-14.42-14.9-19.65-23.33L82.17,175.57c9,12.65,18.28,22,27.37,28.76Z" transform="translate(-75.82 -5.23)"/></svg>