<svg viewBox="0 0 363.25 343.09" xmlns="http://www.w3.org/2000/svg"><g fill="#2b53ae" transform="translate(-117.28 -246.32)"><path d="m299 589.41q-81 0-162 0a46.61 46.61 0 0 1 -8.41-.8c-8.33-1.57-12.75-7.15-10.94-15.44 2.93-13.45 5.57-27.14 10.39-40 15.29-40.58 42.45-71.47 79.59-93.78 4.51-2.71 7.23-2.29 11.14 1.25 18.81 17 41 26.85 66.26 29.72 33.64 3.83 63.54-5.29 90.1-26 .66-.52 1.32-1 1.95-1.57 7.59-6.65 7.67-6.78 16.14-1.48q69.84 43.69 86.09 124.4a62.14 62.14 0 0 1 1.21 9.89c.24 6.66-3.56 11.48-10.14 12.82a48 48 0 0 1 -9.41 1q-80.97.04-161.97-.01z"/><path d="m299 246.32c56.49-.46 103.86 46.62 103.73 103.89-.13 57.69-48.52 103.52-103.88 103.41s-103.56-46.05-103.48-103.8c.03-57.03 47.23-103.9 103.63-103.5z"/></g></svg>