<svg id="Layer_1" data-name="Layer 1" xmlns="http://www.w3.org/2000/svg" xmlns:xlink="http://www.w3.org/1999/xlink" viewBox="0 0 564.18 574.6"><defs><style>.cls-1{fill:url(#linear-gradient);}.cls-2{fill:#3e76f9;}.cls-3{fill:url(#linear-gradient-2);}.cls-4{fill:url(#linear-gradient-3);}.cls-5{fill:url(#linear-gradient-4);}.cls-6{opacity:0.1;}.cls-6,.cls-7{isolation:isolate;}.cls-7{opacity:0.3;}.cls-8{fill:#dee3f3;}.cls-9{fill:#f93ed4;}.cls-10{fill:#f7bf41;}.cls-11{fill:#47e2aa;}.cls-12{fill:url(#linear-gradient-5);}</style><linearGradient id="linear-gradient" x1="249.1" y1="0.05" x2="249.1" y2="411.02" gradientTransform="translate(-110.47 130.77) rotate(-28.14)" gradientUnits="userSpaceOnUse"><stop offset="0" stop-color="gray" stop-opacity="0.25"/><stop offset="0.54" stop-color="gray" stop-opacity="0.12"/><stop offset="1" stop-color="gray" stop-opacity="0.1"/></linearGradient><linearGradient id="linear-gradient-2" x1="546.66" y1="-30.81" x2="546.66" y2="14.11" gradientTransform="matrix(1, 0, 0, -1, -338.47, 394.14)" xlink:href="#linear-gradient"/><linearGradient id="linear-gradient-3" x1="501.65" y1="-175.91" x2="501.65" y2="-30.81" gradientTransform="matrix(1, 0, 0, -1, -338.47, 394.14)" xlink:href="#linear-gradient"/><linearGradient id="linear-gradient-4" x1="586.35" y1="-175.91" x2="586.35" y2="-30.8" gradientTransform="matrix(1, 0, 0, -1, -338.47, 394.14)" xlink:href="#linear-gradient"/><linearGradient id="linear-gradient-5" x1="785.14" y1="-156.61" x2="785.14" y2="43.75" gradientTransform="matrix(1, 0.03, 0.03, -1, -438.77, 282.03)" xlink:href="#linear-gradient"/></defs><title>mobile-size-botty-left</title><path class="cls-1" d="M294.42,299.1l.05,19.51-.12-46-.05,0-.09-30.57h0l-65.68.17h0l0-17.23h0l88.43-.22a10.05,10.05,0,0,0,10-10.05l-.22-90.54a10.06,10.06,0,0,0-10-10l-33.54.08,0,0-.25-89.32h0a13.51,13.51,0,0,0,7.84-12.32v-.4A13.75,13.75,0,0,0,277.64-1.61a13.45,13.45,0,0,0-14,12.9c0,.21,0,.42,0,.62v.81a13.38,13.38,0,0,0,7.11,11.87h0l.25,89.52,0,0-124.25.23h0l-.25-89.52h0a13.37,13.37,0,0,0,7.05-11.91v-.4A13.75,13.75,0,0,0,140.46-1.28a13.45,13.45,0,0,0-14,12.91c0,.2,0,.41,0,.62v.8a13.56,13.56,0,0,0,8,12.18h0l.22,89.23m0,0-36.4.14a10.05,10.05,0,0,0-10,10l.22,90.54a10.07,10.07,0,0,0,10.07,10L187,225l0,0,.05,17.24,0,0-65.62.19-.05,0,.07,25.47.22,49.6.16,63.26h0l172.61-.46h0l-.16-61.79" transform="translate(164.06 1.62)"/><path class="cls-2" d="M164.36,111.53a5.48,5.48,0,0,0,.1,1.4A5.48,5.48,0,0,1,164.36,111.53Z" transform="translate(164.06 1.62)"/><path class="cls-2" d="M293.18,80.27a.79.79,0,0,0,.1.4A.79.79,0,0,1,293.18,80.27Z" transform="translate(164.06 1.62)"/><path class="cls-2" d="M292.87,79c0,.1.1.29.1.4A.55.55,0,0,0,292.87,79Z" transform="translate(164.06 1.62)"/><path class="cls-2" d="M293.15,113.61a1.2,1.2,0,0,1-.2.61C293.08,114,293.05,113.81,293.15,113.61Z" transform="translate(164.06 1.62)"/><path class="cls-2" d="M293.26,112.51c0,.21-.11.5-.11.7A1.52,1.52,0,0,0,293.26,112.51Z" transform="translate(164.06 1.62)"/><path class="cls-2" d="M170.27,121.32a10.43,10.43,0,0,1-2.4-1.7A19.26,19.26,0,0,0,170.27,121.32Z" transform="translate(164.06 1.62)"/><path class="cls-2" d="M167.88,119.51a9.45,9.45,0,0,1-.91-1A2.79,2.79,0,0,0,167.88,119.51Z" transform="translate(164.06 1.62)"/><path class="cls-2" d="M293.35,111.21v0Z" transform="translate(164.06 1.62)"/><path class="cls-2" d="M164.46,113.13c.1.4.21.89.31,1.29C164.66,114,164.56,113.62,164.46,113.13Z" transform="translate(164.06 1.62)"/><path class="cls-2" d="M167.16,74.81,167,75Z" transform="translate(164.06 1.62)"/><path class="cls-2" d="M166.17,75.92l.09-.1Z" transform="translate(164.06 1.62)"/><path class="cls-2" d="M164.86,114.73a7.21,7.21,0,0,0,.51,1.29A10.17,10.17,0,0,1,164.86,114.73Z" transform="translate(164.06 1.62)"/><path class="cls-2" d="M166,117.32a3.93,3.93,0,0,0,.8,1.1C166.57,118.12,166.26,117.72,166,117.32Z" transform="translate(164.06 1.62)"/><path class="cls-2" d="M165.37,116a6.88,6.88,0,0,0,.69,1.21A3.47,3.47,0,0,1,165.37,116Z" transform="translate(164.06 1.62)"/><path class="cls-2" d="M164.57,79.73c0-.08.1-.31.1-.41A.76.76,0,0,0,164.57,79.73Z" transform="translate(164.06 1.62)"/><path class="cls-2" d="M164.9,78.57c-.05-.08.09-.2.09-.3A.86.86,0,0,1,164.9,78.57Z" transform="translate(164.06 1.62)"/><path class="cls-2" d="M164.37,81a.55.55,0,0,1,.11-.4C164.37,80.73,164.38,80.83,164.37,81Z" transform="translate(164.06 1.62)"/><path class="cls-3" d="M266.93,392.38l19-.05,0-11.8v-2.1l-155.5.38v2.1l0,11.8,19,0,0,13.8-31.1.07,0,17.31,179.69-.44,0-17.3-31.11.08Z" transform="translate(164.06 1.62)"/><path class="cls-4" d="M127,425.42l0,15.7,20.71-.05.05,24.1.05,20.79.08,31.1,0,17.31,0,10.29-24.21.06.06,24.21,65.7-.17-.05-24.19-10.4,0,0-10.3,0-17.3-.08-31.1-.05-20.8,0-24.1,24.19-.06,0-15.69v-1.6l-76,.18Z" transform="translate(164.06 1.62)"/><path class="cls-5" d="M209.92,425.22l0,15.7,31.11-.08.05,24.1.06,20.8.07,31.11,0,17.29,0,10.29-24.21.07.06,24.2,65.7-.17-.05-24.19-10.4,0,0-10.29,0-17.3-.08-31.1-.06-20.81,0-24.1,13.9,0L286,425v-1.6l-76.1.18Z" transform="translate(164.06 1.62)"/><path class="cls-2" d="M104.46,117.37l206.13-.51a13,13,0,0,1,13,13l.2,81.7a13,13,0,0,1-13,13h0l-206.12.51a13,13,0,0,1-13-13h0l-.19-81.7a13,13,0,0,1,13-13Z" transform="translate(164.06 1.62)"/><path class="cls-6" d="M110.19,210.45v-2l195-.47v2Z" transform="translate(164.06 1.62)"/><path class="cls-7" d="M110.19,208.16l-.18-74,195-.47.18,74Z" transform="translate(164.06 1.62)"/><circle class="cls-6" cx="319.57" cy="174.27" r="26.9"/><circle class="cls-8" cx="319.57" cy="172.67" r="26.9"/><circle class="cls-6" cx="259.71" cy="172.39" r="26.9" transform="translate(163.65 2.25) rotate(-0.14)"/><circle class="cls-8" cx="259.7" cy="170.79" r="26.9" transform="translate(163.65 2.25) rotate(-0.14)"/><path class="cls-2" d="M187.59,248.27l-.06-23.5,40.4-.1.06,23.5Z" transform="translate(164.06 1.62)"/><path class="cls-2" d="M124.1,376.23l-.33-134.5,168.1-.41.33,134.5Z" transform="translate(164.06 1.62)"/><path class="cls-2" d="M283.79,375.94l0,13.4-18.5,0,0,13.4-114.4.28,0-13.41-18.4.06,0-13.4Z" transform="translate(164.06 1.62)"/><path class="cls-7" d="M283.79,375.94l0,13.4-18.5,0,0,13.4-114.4.28,0-13.41-18.4.06,0-13.4Z" transform="translate(164.06 1.62)"/><path class="cls-2" d="M120.8,419.92l0-16.8,174.8-.42,0,16.8Z" transform="translate(164.06 1.62)"/><path class="cls-2" d="M129.24,436.81l0-16.8,74-.18,0,16.8Z" transform="translate(164.06 1.62)"/><path class="cls-2" d="M210,436.62l0-16.8,74-.18,0,16.8Z" transform="translate(164.06 1.62)"/><path class="cls-2" d="M126.15,561.12l-.06-23.5,63.9-.15.06,23.5Z" transform="translate(164.06 1.62)"/><path class="cls-2" d="M149.5,460.26l.05,20.21.08,30.29,0,16.8,0,10,30.2-.07,0-10,0-16.8-.09-30.3,0-20.2-.06-23.5-30.19.07Z" transform="translate(164.06 1.62)"/><path class="cls-2" d="M240.14,436.54l.06,23.5.05,20.21.07,30.29,0,16.8,0,10,30.3-.07,0-10,0-16.81-.07-30.29L270.5,460l-.06-23.5Z" transform="translate(164.06 1.62)"/><path class="cls-2" d="M216.94,560.89l-.06-23.5,63.9-.15.06,23.5Z" transform="translate(164.06 1.62)"/><path class="cls-7" d="M150.94,349.26l-.22-87.4,114.3-.28.21,87.4Z" transform="translate(164.06 1.62)"/><path class="cls-9" d="M149.5,460.26l-.05-23.5,30.3-.07.05,23.5Z" transform="translate(164.06 1.62)"/><path class="cls-10" d="M149.62,510.76l-.07-30.3,30.3-.07.07,30.3Z" transform="translate(164.06 1.62)"/><path class="cls-11" d="M149.69,537.65l0-10.1,30.3-.07,0,10.1Z" transform="translate(164.06 1.62)"/><path class="cls-10" d="M240.2,460l0-23.5,30.3-.07.05,23.5Z" transform="translate(164.06 1.62)"/><path class="cls-11" d="M240.32,510.54l-.07-30.3,30.3-.07.07,30.3Z" transform="translate(164.06 1.62)"/><path class="cls-9" d="M240.38,537.44l0-10.1,30.3-.08,0,10.1Z" transform="translate(164.06 1.62)"/><path class="cls-2" d="M123.61,273.72l.07,40.41v.9a11.76,11.76,0,0,1-23.49-.84l-.08-40.42a11.81,11.81,0,0,1,20.07-8.47l.31.3a12,12,0,0,1,3.11,7.09Z" transform="translate(164.06 1.62)"/><path class="cls-2" d="M-162.94,576.59" transform="translate(164.06 1.62)"/><path class="cls-2" d="M-163.07,584.46" transform="translate(164.06 1.62)"/><path class="cls-2" d="M-163.12,587.65" transform="translate(164.06 1.62)"/><path class="cls-2" d="M-163.21,593.58" transform="translate(164.06 1.62)"/><path class="cls-2" d="M-163.24,595.44" transform="translate(164.06 1.62)"/><path class="cls-2" d="M-163.32,600.78" transform="translate(164.06 1.62)"/><path class="cls-2" d="M-163.37,604.09" transform="translate(164.06 1.62)"/><path class="cls-2" d="M-162.89,573l-1.17-.24" transform="translate(164.06 1.62)"/><path class="cls-6" d="M187.53,227.57v-2.8l40.4-.1v2.8Z" transform="translate(164.06 1.62)"/><path class="cls-6" d="M294.93,265.32l.13,56.29a11.85,11.85,0,0,1-3.14-8l-.09-40.3a10.93,10.93,0,0,1,3.1-8Z" transform="translate(164.06 1.62)"/><path class="cls-6" d="M124.33,269.43l.11,42.2a11.52,11.52,0,0,1-3.09,7.1l-.13-56.4a12,12,0,0,1,3.11,7.1Z" transform="translate(164.06 1.62)"/><path class="cls-6" d="M132.5,378.29v-2l151.3-.36v2Z" transform="translate(164.06 1.62)"/><path class="cls-6" d="M129.21,421.51V420l74-.18v1.5Z" transform="translate(164.06 1.62)"/><path class="cls-6" d="M209.9,421.32v-1.5l74-.18v1.5Z" transform="translate(164.06 1.62)"/><path class="cls-2" d="M136.68,117.38l-.25-99.6,11.6,0,.25,99.6Z" transform="translate(164.06 1.62)"/><path class="cls-2" d="M269.47,117.07l-.24-99.6,11.6,0,.24,99.6Z" transform="translate(164.06 1.62)"/><circle class="cls-6" cx="305.9" cy="20.1" r="13.1"/><circle class="cls-2" cx="305.9" cy="19.4" r="13.1"/><circle class="cls-6" cx="440.21" cy="21.79" r="13.07"/><circle class="cls-2" cx="275.43" cy="17.47" r="13.1" transform="translate(164.02 2.29) rotate(-0.14)"/><path class="cls-12" d="M290.42,316.83l.05,0a11.48,11.48,0,0,0,2.84,6.13l0,.08c4.67,5,12.77,5.44,17.6.6a12.25,12.25,0,0,0,3.59-8.31l.34-11.05.05,0a48.26,48.26,0,0,1,22.12,11.68,55.13,55.13,0,0,1,13.07,20.42c3.69,9.82,5.26,20.57,5.74,30.79a177.86,177.86,0,0,1-2.93,39.83c-.13.7-.25,1.1-.25,1.1l.08-.05c-.55,8.09-2.72,55.24,25.76,56.13.44-.23,35.67-32.4,8.86-56.14h0c2-18.53,2-34.51.54-48.37-1.6-16-5.19-29-9.86-39.64-9.34-21.3-23.18-33.14-35.58-39.73a70.16,70.16,0,0,0-26.63-8.13h0a12.17,12.17,0,0,0-13.38-10.69A12,12,0,0,0,292,270.88" transform="translate(164.06 1.62)"/><path class="cls-2" d="M379.27,402.23c.2.2.31.39.52.58a1.62,1.62,0,0,1,.33.89l-.09-2.29a12.68,12.68,0,0,1-.62-3.28,11.2,11.2,0,0,1-.38,3.21,2,2,0,0,1,.23.79Z" transform="translate(164.06 1.62)"/><path class="cls-2" d="M292.56,313.45l-1.44-40.37,0-.89a11.77,11.77,0,0,1,23.52.05L316,312.62a11.8,11.8,0,0,1-19.78,9.11l-.31-.29a12,12,0,0,1-3.35-7Z" transform="translate(164.06 1.62)"/><path class="cls-2" d="M314,272.86l.54,31.1a45.22,45.22,0,0,1,22.58,10.4,52.12,52.12,0,0,1,13.63,19.27c4.08,9.33,6.16,19.79,7,29.68a167.6,167.6,0,0,1-1.2,40l33.59-.59c1.08-18.62.4-34.51-1.74-48.18-2.37-15.35-6.39-27.89-11.46-38-10.06-20.23-24.16-31.08-36.46-36.87-14.42-7.05-26.51-6.84-26.51-6.84Z" transform="translate(164.06 1.62)"/><path class="cls-10" d="M358.37,359.45c-1.33-10.08-4.94-20.13-9.29-29.05L380,322.11c5.89,14.4,8.88,27.21,9.77,38.48Z" transform="translate(164.06 1.62)"/><path class="cls-9" d="M383.09,461.56s35.09-37.15,4.53-60.11l-36.48,1.77C351.14,403.09,350.22,463.15,383.09,461.56Z" transform="translate(164.06 1.62)"/><path class="cls-11" d="M312.64,303.72c10,1.7,19.94,5.68,28.69,10.36l9.42-30.58c-14.16-6.42-26.85-9.91-38.09-11.19Z" transform="translate(164.06 1.62)"/></svg>