<svg id="Layer_1" data-name="Layer 1" xmlns="http://www.w3.org/2000/svg" xmlns:xlink="http://www.w3.org/1999/xlink" viewBox="0 0 376.99 570.95"><defs><style>.cls-1{fill:url(#linear-gradient);}.cls-2{fill:#3e76f9;}.cls-3{fill:url(#linear-gradient-2);}.cls-4{fill:url(#linear-gradient-3);}.cls-5{fill:url(#linear-gradient-4);}.cls-6{opacity:0.1;}.cls-6,.cls-7{isolation:isolate;}.cls-7{opacity:0.3;}.cls-8{fill:#dee3f3;}.cls-9{fill:#f93ed4;}.cls-10{fill:#f7bf41;}.cls-11{fill:#47e2aa;}.cls-12{fill:url(#linear-gradient-5);}.cls-13{fill:url(#linear-gradient-6);}</style><linearGradient id="linear-gradient" x1="249.1" y1="0.05" x2="249.1" y2="411.02" gradientTransform="translate(-109.21 128.24) rotate(-27.68)" gradientUnits="userSpaceOnUse"><stop offset="0" stop-color="gray" stop-opacity="0.25"/><stop offset="0.54" stop-color="gray" stop-opacity="0.12"/><stop offset="1" stop-color="gray" stop-opacity="0.1"/></linearGradient><linearGradient id="linear-gradient-2" x1="546.68" y1="-30.79" x2="546.68" y2="14.13" gradientTransform="matrix(1, 0.01, 0.01, -1, -339.34, 389.78)" xlink:href="#linear-gradient"/><linearGradient id="linear-gradient-3" x1="501.68" y1="-175.89" x2="501.68" y2="-30.79" gradientTransform="matrix(1, 0.01, 0.01, -1, -339.34, 389.78)" xlink:href="#linear-gradient"/><linearGradient id="linear-gradient-4" x1="586.38" y1="-175.88" x2="586.38" y2="-30.78" gradientTransform="matrix(1, 0.01, 0.01, -1, -339.34, 389.78)" xlink:href="#linear-gradient"/><linearGradient id="linear-gradient-5" x1="1058.73" y1="-30.26" x2="1058.73" y2="170.14" gradientTransform="matrix(-1, -0.07, -0.07, 1, 1136.34, 226.84)" xlink:href="#linear-gradient"/><linearGradient id="linear-gradient-6" x1="785.14" y1="-156.61" x2="785.14" y2="43.75" gradientTransform="matrix(1, 0.04, 0.04, -1, -438.72, 276.85)" xlink:href="#linear-gradient"/></defs><title>mobile-size-botty-left-static</title><path class="cls-1" d="M294.31,299.81l-.11,19.51.26-46-.06,0,.16-30.57h0l-65.68-.35h0l.1-17.24h0l88.42.49a10.05,10.05,0,0,0,10.1-10l.5-90.53a10.06,10.06,0,0,0-10-10.1l-33.53-.18,0,0L285,25.54h0a13.52,13.52,0,0,0,7.94-12.24v-.4A13.73,13.73,0,0,0,280-1a13.44,13.44,0,0,0-14.08,12.79c0,.21,0,.41,0,.62v.8a13.38,13.38,0,0,0,7,11.93h0l-.47,89.52-.05,0L148.1,113.9h0l.47-89.52h0a13.37,13.37,0,0,0,7.14-11.85v-.4A13.74,13.74,0,0,0,142.77-1.79,13.45,13.45,0,0,0,128.69,11c0,.21,0,.41,0,.62v.81a13.54,13.54,0,0,0,7.89,12.23h0l-.5,89.23m0,0-36.4-.16a10.06,10.06,0,0,0-10.09,10L89,214.27a10.07,10.07,0,0,0,10,10.07l88.43.49,0,0-.09,17.23,0,0-65.62-.34,0,0-.13,25.46-.18,49.6L121,380.15h0l172.62.92h0l.33-61.79" transform="translate(-22.01 1.81)"/><path class="cls-2" d="M165.76,111.2a5.47,5.47,0,0,0,.09,1.4A5.47,5.47,0,0,1,165.76,111.2Z" transform="translate(-22.01 1.81)"/><path class="cls-2" d="M294.83,81a.79.79,0,0,0,.1.4A.79.79,0,0,1,294.83,81Z" transform="translate(-22.01 1.81)"/><path class="cls-2" d="M294.53,79.72c0,.11.1.3.1.4A.63.63,0,0,0,294.53,79.72Z" transform="translate(-22.01 1.81)"/><path class="cls-2" d="M294.53,114.32a1.16,1.16,0,0,1-.2.6C294.46,114.71,294.43,114.52,294.53,114.32Z" transform="translate(-22.01 1.81)"/><path class="cls-2" d="M294.65,113.22c0,.21-.12.5-.11.7A1.66,1.66,0,0,0,294.65,113.22Z" transform="translate(-22.01 1.81)"/><path class="cls-2" d="M171.59,121a10.91,10.91,0,0,1-2.39-1.72A18.31,18.31,0,0,0,171.59,121Z" transform="translate(-22.01 1.81)"/><path class="cls-2" d="M169.21,119.21a8.48,8.48,0,0,1-.89-1A2.77,2.77,0,0,0,169.21,119.21Z" transform="translate(-22.01 1.81)"/><path class="cls-2" d="M294.75,111.92v0Z" transform="translate(-22.01 1.81)"/><path class="cls-2" d="M165.85,112.8c.1.4.2.89.29,1.29C166,113.7,165.94,113.3,165.85,112.8Z" transform="translate(-22.01 1.81)"/><path class="cls-2" d="M168.86,74.51l-.2.21Z" transform="translate(-22.01 1.81)"/><path class="cls-2" d="M167.86,75.61l.09-.1Z" transform="translate(-22.01 1.81)"/><path class="cls-2" d="M166.23,114.41a8,8,0,0,0,.5,1.29A11.86,11.86,0,0,1,166.23,114.41Z" transform="translate(-22.01 1.81)"/><path class="cls-2" d="M167.32,117a4.13,4.13,0,0,0,.8,1.11C167.92,117.82,167.61,117.41,167.32,117Z" transform="translate(-22.01 1.81)"/><path class="cls-2" d="M166.73,115.7a6.54,6.54,0,0,0,.69,1.21A3.47,3.47,0,0,1,166.73,115.7Z" transform="translate(-22.01 1.81)"/><path class="cls-2" d="M166.23,79.4c0-.08.1-.3.11-.4A.6.6,0,0,0,166.23,79.4Z" transform="translate(-22.01 1.81)"/><path class="cls-2" d="M166.56,78.25c0-.08.1-.2.1-.3A.71.71,0,0,1,166.56,78.25Z" transform="translate(-22.01 1.81)"/><path class="cls-2" d="M166,80.7a.56.56,0,0,1,.11-.4C166,80.4,166,80.5,166,80.7Z" transform="translate(-22.01 1.81)"/><path class="cls-3" d="M266.07,392.87l19,.1.06-11.8,0-2.1-155.5-.87,0,2.1-.06,11.8,19,.11L148.5,406l-31.1-.17-.09,17.3,179.69,1,.11-17.3L266,406.67Z" transform="translate(-22.01 1.81)"/><path class="cls-4" d="M125.9,424.78l-.09,15.7,20.7.11-.14,24.11-.11,20.79-.18,31.1L146,533.9l0,10.29-24.2-.13-.14,24.2,65.7.36.14-24.19-10.4-.06.05-10.3.1-17.31.18-31.1.11-20.79.14-24.1,24.19.14.09-15.7v-1.6l-76-.43Z" transform="translate(-22.01 1.81)"/><path class="cls-5" d="M208.8,425.25l-.1,15.7,31.11.17-.14,24.1-.11,20.8-.18,31.11-.1,17.29-.05,10.29L215,544.58l-.13,24.2,65.7.37.14-24.2-10.4-.06.05-10.3.11-17.3.17-31.1.11-20.8.14-24.1,13.9.08.08-15.7v-1.6l-76.1-.43Z" transform="translate(-22.01 1.81)"/><path class="cls-2" d="M105.82,116.57l206.12,1.14a13,13,0,0,1,12.92,13.08l-.45,81.69a13,13,0,0,1-13.07,12.93h0l-206.12-1.14A13,13,0,0,1,92.28,211.2h0l.46-81.71a13,13,0,0,1,13.07-12.92Z" transform="translate(-22.01 1.81)"/><path class="cls-6" d="M110.8,209.69v-2l195,1.09v2Z" transform="translate(-22.01 1.81)"/><path class="cls-7" d="M110.82,207.39l.41-74,195,1.09-.41,74Z" transform="translate(-22.01 1.81)"/><circle class="cls-6" cx="134.41" cy="174.05" r="26.9"/><circle class="cls-8" cx="134.42" cy="172.46" r="26.9"/><circle class="cls-6" cx="260.62" cy="172.83" r="26.9" transform="matrix(0.01, -1, 1, 0.01, 64.32, 434.28)"/><circle class="cls-8" cx="260.62" cy="171.23" r="26.9" transform="matrix(0.01, -1, 1, 0.01, 65.92, 432.7)"/><path class="cls-2" d="M187.89,248.13l.13-23.5,40.4.22-.13,23.5Z" transform="translate(-22.01 1.81)"/><path class="cls-2" d="M123.37,375.57l.76-134.5,168.1.94-.76,134.5Z" transform="translate(-22.01 1.81)"/><path class="cls-2" d="M283.07,376.57,283,390l-18.5-.11-.07,13.4L150,402.62l.07-13.41-18.4-.09.08-13.4Z" transform="translate(-22.01 1.81)"/><path class="cls-7" d="M283.07,376.57,283,390l-18.5-.11-.07,13.4L150,402.62l.07-13.41-18.4-.09.08-13.4Z" transform="translate(-22.01 1.81)"/><path class="cls-2" d="M119.73,419.24l.09-16.8,174.8,1-.1,16.8Z" transform="translate(-22.01 1.81)"/><path class="cls-2" d="M128,436.19l.09-16.8,74,.42-.09,16.8Z" transform="translate(-22.01 1.81)"/><path class="cls-2" d="M208.74,436.65l.09-16.8,74,.41-.09,16.8Z" transform="translate(-22.01 1.81)"/><path class="cls-2" d="M123.94,560.48l.13-23.5,63.9.35-.13,23.5Z" transform="translate(-22.01 1.81)"/><path class="cls-2" d="M148.1,459.81,148,480l-.17,30.29-.1,16.8-.06,10,30.21.17,0-10,.1-16.79.16-30.31L178.3,460l.13-23.5-30.19-.18Z" transform="translate(-22.01 1.81)"/><path class="cls-2" d="M238.93,436.81l-.13,23.5-.12,20.21-.16,30.29-.1,16.8,0,10,30.3.17.05-10,.09-16.81.18-30.3.11-20.19.13-23.5Z" transform="translate(-22.01 1.81)"/><path class="cls-2" d="M214.73,561l.13-23.5,63.9.36-.13,23.5Z" transform="translate(-22.01 1.81)"/><path class="cls-7" d="M150.43,348.82l.49-87.4,114.3.64-.49,87.4Z" transform="translate(-22.01 1.81)"/><path class="cls-9" d="M148.1,459.8l.14-23.5,30.3.17L178.4,460Z" transform="translate(-22.01 1.81)"/><path class="cls-10" d="M147.81,510.3,148,480l30.3.17-.17,30.3Z" transform="translate(-22.01 1.81)"/><path class="cls-11" d="M147.66,537.2l.06-10.1,30.3.17-.06,10.1Z" transform="translate(-22.01 1.81)"/><path class="cls-10" d="M238.8,460.32l.13-23.5,30.3.17-.13,23.5Z" transform="translate(-22.01 1.81)"/><path class="cls-11" d="M238.51,510.81l.17-30.3,30.3.17-.17,30.3Z" transform="translate(-22.01 1.81)"/><path class="cls-9" d="M238.36,537.71l.06-10.1,30.3.17-.06,10.1Z" transform="translate(-22.01 1.81)"/><path class="cls-12" d="M127.22,268.36s-.07,0,0,0a11.63,11.63,0,0,0-2.6-6.24l0-.08c-4.47-5.17-12.54-6-17.57-1.33A12.27,12.27,0,0,0,103,268.9l-.85,11h0a48,48,0,0,1-21.6-12.58,55.05,55.05,0,0,1-12.22-20.94c-3.29-10-4.41-20.77-4.47-31a177.79,177.79,0,0,1,4.58-39.67c.15-.69.28-1.08.28-1.08h-.1c.88-8,5-55.07-23.42-57.14-.43.23-37,30.92-11.16,55.73a228.56,228.56,0,0,0-2.5,48.33c1,16,4,29.16,8.23,40,8.45,21.66,21.79,34.07,33.91,41.16A70.07,70.07,0,0,0,100,311.92h0a12.17,12.17,0,0,0,12.89,11.29,12,12,0,0,0,10.8-9.06" transform="translate(-22.01 1.81)"/><path class="cls-2" d="M42,179.37c-.2-.2-.29-.4-.5-.59a1.75,1.75,0,0,1-.29-.91l0,2.27a12.38,12.38,0,0,1,.48,3.31,11.52,11.52,0,0,1,.52-3.2,1.88,1.88,0,0,1-.19-.8Z" transform="translate(-22.01 1.81)"/><path class="cls-2" d="M125,271.64l-.26,40.41v.9a11.76,11.76,0,0,1-23.48-1l.25-40.42a11.81,11.81,0,0,1,20.13-8.31l.31.31a12,12,0,0,1,3,7.11Z" transform="translate(-22.01 1.81)"/><path class="cls-2" d="M101.83,311.33l.74-31.11A45,45,0,0,1,80.43,268.9,52,52,0,0,1,67.6,249.1c-3.68-9.5-5.34-20-5.79-29.95a167.29,167.29,0,0,1,2.83-40l-33.59-.79c-1.84,18.56-1.81,34.47-.23,48.21,1.73,15.44,5.23,28.13,9.89,38.45,9.21,20.62,22.85,32.05,34.9,38.33C89.73,311,101.83,311.33,101.83,311.33Z" transform="translate(-22.01 1.81)"/><path class="cls-10" d="M61,223c.91,10.13,4.11,20.31,8.09,29.41l-31.22,7c-5.3-14.61-7.78-27.54-8.18-38.85Z" transform="translate(-22.01 1.81)"/><path class="cls-9" d="M40.57,119.93S4,155.62,33.58,179.8l36.5-.25c0,.12,3.4-59.85-29.51-59.62Z" transform="translate(-22.01 1.81)"/><path class="cls-11" d="M104.46,280.54c-9.94-2.11-19.67-6.49-28.23-11.52L65.56,299.18c13.84,7,26.41,11,37.59,12.74Z" transform="translate(-22.01 1.81)"/><path class="cls-6" d="M188,227.43v-2.8l40.4.22v2.8Z" transform="translate(-22.01 1.81)"/><path class="cls-6" d="M295.09,266l-.32,56.29a11.8,11.8,0,0,1-3.07-8l.22-40.29a11,11,0,0,1,3.17-8Z" transform="translate(-22.01 1.81)"/><path class="cls-6" d="M124.47,268.77l-.24,42.2a11.53,11.53,0,0,1-3.14,7.08l.32-56.4a12,12,0,0,1,3.06,7.12Z" transform="translate(-22.01 1.81)"/><path class="cls-6" d="M131.76,377.7v-2l151.3.85v2Z" transform="translate(-22.01 1.81)"/><path class="cls-6" d="M128.12,420.89v-1.5l74,.42v1.5Z" transform="translate(-22.01 1.81)"/><path class="cls-6" d="M208.81,421.35v-1.5l74,.41v1.5Z" transform="translate(-22.01 1.81)"/><path class="cls-2" d="M138,116.83l.56-99.59,11.6.06-.56,99.6Z" transform="translate(-22.01 1.81)"/><path class="cls-2" d="M270.82,117.59l.56-99.6,11.6.06-.56,99.6Z" transform="translate(-22.01 1.81)"/><circle class="cls-6" cx="121.97" cy="19.79" r="13.1"/><circle class="cls-2" cx="121.98" cy="19.08" r="13.1"/><circle class="cls-6" cx="278.28" cy="20.74" r="13.07" transform="translate(233.45 300.67) rotate(-89.57)"/><circle class="cls-2" cx="277.58" cy="18.03" r="13.1" transform="translate(235.98 297.32) rotate(-89.68)"/><path class="cls-13" d="M290.17,317.51l.05,0a11.43,11.43,0,0,0,2.79,6.15l0,.08c4.63,5,12.73,5.54,17.6.74a12.29,12.29,0,0,0,3.65-8.27l.42-11.05.06,0a48.12,48.12,0,0,1,22,11.85,55.2,55.2,0,0,1,12.91,20.53c3.61,9.85,5.09,20.61,5.49,30.84a178.3,178.3,0,0,1-3.25,39.8c-.14.69-.25,1.09-.25,1.09l.07,0c-.61,8.08-3.16,55.21,25.31,56.34.44-.24,35.93-32.12,9.31-56.08h0c2.13-18.51,2.3-34.49.93-48.36-1.47-16-5-29-9.54-39.72-9.17-21.37-22.91-33.32-35.26-40A70.14,70.14,0,0,0,316,273h0a12.16,12.16,0,0,0-13.29-10.8,12,12,0,0,0-10.51,9.37" transform="translate(-22.01 1.81)"/><path class="cls-2" d="M378.33,403.62c.2.2.3.4.52.59a1.69,1.69,0,0,1,.32.89l-.08-2.3a13.45,13.45,0,0,1-.59-3.28,10.52,10.52,0,0,1-.41,3.21,1.89,1.89,0,0,1,.23.8Z" transform="translate(-22.01 1.81)"/><path class="cls-2" d="M292.33,314.15l-1.11-40.38,0-.9a11.77,11.77,0,0,1,23.52.25l1.1,40.39A11.79,11.79,0,0,1,296,322.45l-.31-.29a11.94,11.94,0,0,1-3.3-7Z" transform="translate(-22.01 1.81)"/><path class="cls-2" d="M314.11,273.73l.29,31.1a45.15,45.15,0,0,1,22.49,10.59,52,52,0,0,1,13.48,19.37c4,9.37,6,19.85,6.79,29.74a167,167,0,0,1-1.52,40l33.59-.32c1.23-18.61.68-34.51-1.34-48.19-2.25-15.38-6.17-28-11.17-38.1-9.89-20.3-23.9-31.27-36.15-37.15-14.37-7.17-26.46-7.06-26.46-7.06Z" transform="translate(-22.01 1.81)"/><path class="cls-10" d="M357.77,360.68c-1.25-10.1-4.77-20.17-9-29.13l31-8c5.78,14.44,8.66,27.28,9.46,38.56Z" transform="translate(-22.01 1.81)"/><path class="cls-9" d="M381.67,463s35.39-36.86,5-60.07l-36.49,1.48C350.19,404.26,348.79,464.31,381.67,463Z" transform="translate(-22.01 1.81)"/><path class="cls-11" d="M312.5,304.58c10,1.78,19.88,5.84,28.6,10.59l9.66-30.51c-14.11-6.53-26.76-10.12-38-11.49Z" transform="translate(-22.01 1.81)"/></svg>