<svg id="Layer_1" data-name="Layer 1" xmlns="http://www.w3.org/2000/svg" viewBox="0 0 177.12 192.93"><defs><style>.cls-1{fill:#3e76f9;}.cls-2{fill:#f7bf41;}.cls-3{fill:#f93ed4;}.cls-4{fill:#47e2aa;}.cls-5{fill:none;}</style></defs><title>mobile-waving-arm</title><path class="cls-1" d="M124.4,159.85a45.14,45.14,0,0,1-21.19-10.64A52.06,52.06,0,0,1,90,129.67c-3.88-9.42-5.75-19.92-6.41-29.82a167,167,0,0,1,2-40L52,59.76c-1.46,18.59-1.11,34.5.76,48.2,2,15.4,5.81,28,10.68,38.23,9.63,20.43,23.51,31.57,35.68,37.61a65.91,65.91,0,0,0,25.68,7.36" transform="translate(-41.97 0.91)"/><path class="cls-2" d="M82.36,101.71c1.12,10.11,4.52,20.22,8.69,29.23L60,138.59c-5.6-14.5-8.35-27.37-9-38.67Z" transform="translate(-41.97 0.91)"/><path class="cls-3" d="M59.76-.9S23.9,35.53,54,59.1l36.49-1c0,.12,2.17-59.91-30.74-59Z" transform="translate(-41.97 0.91)"/><path class="cls-4" d="M127,158.35c-10-1.9-19.81-6.08-28.47-10.93l-10,30.37c14,6.73,26.63,10.44,37.85,12Z" transform="translate(-41.97 0.91)"/><rect class="cls-5" x="125.03" y="159.38" width="93.82" height="31.9" transform="translate(-39.2 -1.76) rotate(0.9)"/></svg>