<svg id="Layer_1" data-name="Layer 1" xmlns="http://www.w3.org/2000/svg" xmlns:xlink="http://www.w3.org/1999/xlink" viewBox="0 0 333.6 569.2"><defs><style>.cls-1{fill:url(#linear-gradient);}.cls-2{fill:url(#linear-gradient-2);}.cls-3{fill:url(#linear-gradient-3);}.cls-4{fill:url(#linear-gradient-4);}.cls-5{fill:#3e76f9;}.cls-6{opacity:0.1;}.cls-6,.cls-7{isolation:isolate;}.cls-7{opacity:0.3;}.cls-8{fill:#dee3f3;}.cls-9{fill:#f93ed4;}.cls-10{fill:#f7bf41;}.cls-11{fill:#47e2aa;}.cls-12{fill:url(#linear-gradient-5);}</style><linearGradient id="linear-gradient" x1="149.93" y1="-1451.85" x2="149.93" y2="-986.66" gradientTransform="matrix(1, 0.03, 0.03, -1, 240.27, -854.48)" gradientUnits="userSpaceOnUse"><stop offset="0" stop-color="gray" stop-opacity="0.25"/><stop offset="0.54" stop-color="gray" stop-opacity="0.12"/><stop offset="1" stop-color="gray" stop-opacity="0.1"/></linearGradient><linearGradient id="linear-gradient-2" x1="493.95" y1="180.69" x2="493.95" y2="225.61" gradientTransform="matrix(1, 0, 0, -1, 0, 751.89)" xlink:href="#linear-gradient"/><linearGradient id="linear-gradient-3" x1="448.95" y1="35.59" x2="448.95" y2="180.69" gradientTransform="matrix(1, 0, 0, -1, 0, 751.89)" xlink:href="#linear-gradient"/><linearGradient id="linear-gradient-4" x1="533.65" y1="35.59" x2="533.65" y2="180.69" gradientTransform="matrix(1, 0, 0, -1, 0, 751.89)" xlink:href="#linear-gradient"/><linearGradient id="linear-gradient-5" x1="492.55" y1="139.81" x2="492.55" y2="604.81" gradientTransform="matrix(1, 0, 0, -1, 0, 751.89)" xlink:href="#linear-gradient"/></defs><title>mobile-size-botty</title><path class="cls-1" d="M424,402.8l-.4-.3c-6-4.9-16.1-5.1-22.4-.6a10.65,10.65,0,0,0-4.8,8.5v1.7a113.65,113.65,0,0,0-36,6.4C344,424.2,325,435,311.3,455.7c-6.9,10.3-12.5,23.1-15.7,38.9-2.9,13.7-4,29.7-2.7,48.3-37,22,7.5,56.7,7.5,56.7,37.4,1,37.8-46.2,37.7-54.3h.1s-.1-.4-.2-1.1a137,137,0,0,1-1.1-39.9c1.3-10.2,4.1-20.8,9.7-30.3a56.53,56.53,0,0,1,18.6-19.5,70.42,70.42,0,0,1,30.5-10.3l-.2,7.8c-.2,6.7,6.7,12.3,15.5,12.5,6.8.2,12.9-2.9,15.2-7.7l1.3-49.5a17,17,0,0,0-3.5-4.5Z" transform="translate(-278.2 -147.1)"/><path class="cls-2" d="M552.7,540.1h19V526.2H416.2v13.9h19v13.8H404.1v17.3H583.8V553.9H552.7Z" transform="translate(-278.2 -147.1)"/><path class="cls-3" d="M412.7,572.8v15.7h20.7V692.1H409.2v24.2h65.7V692.1H464.5V588.5h24.2V571.2h-76Z" transform="translate(-278.2 -147.1)"/><path class="cls-4" d="M495.6,572.8v15.7h31.1V692.1H502.5v24.2h65.7V692.1H557.8V588.5h13.9V571.2H495.6Z" transform="translate(-278.2 -147.1)"/><path class="cls-5" d="M390.9,264.7H597a13,13,0,0,1,13,13v81.7a13,13,0,0,1-13,13H390.9a13,13,0,0,1-13-13V277.7A13,13,0,0,1,390.9,264.7Z" transform="translate(-278.2 -147.1)"/><path class="cls-6" d="M396.4,355.8h195v2h-195Z" transform="translate(-278.2 -147.1)"/><path class="cls-7" d="M396.4,281.5h195v74h-195Z" transform="translate(-278.2 -147.1)"/><circle class="cls-6" cx="163.6" cy="173" r="26.9"/><circle class="cls-8" cx="163.6" cy="171.4" r="26.9"/><circle class="cls-6" cx="267.8" cy="173" r="26.9"/><circle class="cls-8" cx="267.8" cy="171.4" r="26.9"/><path class="cls-5" d="M473.7,372.3h40.4v23.5H473.7Z" transform="translate(-278.2 -147.1)"/><path class="cls-5" d="M409.9,389.1H578V523.6H409.9Z" transform="translate(-278.2 -147.1)"/><path class="cls-5" d="M569.6,523.7v13.4H551.1v13.4H436.7V537.1H418.3V523.7Z" transform="translate(-278.2 -147.1)"/><path class="cls-7" d="M569.6,523.7v13.4H551.1v13.4H436.7V537.1H418.3V523.7Z" transform="translate(-278.2 -147.1)"/><path class="cls-5" d="M406.5,550.5H581.3v16.8H406.5Z" transform="translate(-278.2 -147.1)"/><path class="cls-5" d="M414.9,567.4h74v16.8h-74Z" transform="translate(-278.2 -147.1)"/><path class="cls-5" d="M495.6,567.4h74v16.8h-74Z" transform="translate(-278.2 -147.1)"/><path class="cls-5" d="M411.5,685h63.9v23.5H411.5Z" transform="translate(-278.2 -147.1)"/><path class="cls-5" d="M435.1,607.7V685h30.2V584.2H435.1Z" transform="translate(-278.2 -147.1)"/><path class="cls-5" d="M525.8,584.2V685h30.3V584.2Z" transform="translate(-278.2 -147.1)"/><path class="cls-5" d="M502.3,685h63.9v23.5H502.3Z" transform="translate(-278.2 -147.1)"/><path class="cls-7" d="M436.8,409.3H551.1v87.4H436.8Z" transform="translate(-278.2 -147.1)"/><path class="cls-9" d="M435.1,584.2h30.3v23.5H435.1Z" transform="translate(-278.2 -147.1)"/><path class="cls-10" d="M435.1,627.9h30.3v30.3H435.1Z" transform="translate(-278.2 -147.1)"/><path class="cls-11" d="M435.1,675h30.3v10.1H435.1Z" transform="translate(-278.2 -147.1)"/><path class="cls-10" d="M525.8,584.2h30.3v23.5H525.8Z" transform="translate(-278.2 -147.1)"/><path class="cls-11" d="M525.8,627.9h30.3v30.3H525.8Z" transform="translate(-278.2 -147.1)"/><path class="cls-9" d="M525.8,675h30.3v10.1H525.8Z" transform="translate(-278.2 -147.1)"/><path class="cls-6" d="M473.7,372.3h40.4v2.8H473.7Z" transform="translate(-278.2 -147.1)"/><path class="cls-6" d="M581,413.1v56.3a11.8,11.8,0,0,1-3.1-8V421.1A10.92,10.92,0,0,1,581,413.1Z" transform="translate(-278.2 -147.1)"/><path class="cls-6" d="M410.4,416.8V459a11.53,11.53,0,0,1-3.1,7.1V409.7a12,12,0,0,1,3.1,7.1Z" transform="translate(-278.2 -147.1)"/><path class="cls-6" d="M418.3,523.7H569.6v2H418.3Z" transform="translate(-278.2 -147.1)"/><path class="cls-6" d="M414.9,567.4h74v1.5h-74Z" transform="translate(-278.2 -147.1)"/><path class="cls-6" d="M495.6,567.4h74v1.5h-74Z" transform="translate(-278.2 -147.1)"/><path class="cls-5" d="M423.1,165.2h11.6v99.6H423.1Z" transform="translate(-278.2 -147.1)"/><path class="cls-5" d="M555.9,165.2h11.6v99.6H555.9Z" transform="translate(-278.2 -147.1)"/><circle class="cls-6" cx="150.3" cy="18.8" r="13.1"/><circle class="cls-5" cx="150.3" cy="18.1" r="13.1"/><circle class="cls-6" cx="283.9" cy="18.8" r="13.1"/><circle class="cls-5" cx="283.9" cy="18.1" r="13.1"/><path class="cls-5" d="M424.8,410.8l-.3,40.4v.9c-.7,6.5-8.2,11.2-16.8,10.6-8-.6-14.1-5.8-14.1-11.9l.3-40.4c.1-6.5,7.1-11.7,15.6-11.6a18.19,18.19,0,0,1,10.9,3.5l.4.3a10.8,10.8,0,0,1,4,7.1Z" transform="translate(-278.2 -147.1)"/><path class="cls-5" d="M393.8,412.2l-.3,31.1A69.5,69.5,0,0,0,364,453.8a54.51,54.51,0,0,0-17.6,19.3c-5.2,9.3-7.8,19.8-8.8,29.7a128,128,0,0,0,2.2,40l-44.1-.5c-1.7-18.6-1-34.5,1.6-48.2,2.9-15.4,8-27.9,14.5-38,12.9-20.3,31.2-31.2,47.3-37a105.87,105.87,0,0,1,34.7-6.9Z" transform="translate(-278.2 -147.1)"/><path class="cls-10" d="M304.1,596.2s-44.1-33-8.5-55l44,.5C339.6,541.6,343.9,596.7,304.1,596.2Z" transform="translate(-278.2 -147.1)"/><path class="cls-5" d="M592.3,411.1l-.3,40.4v.9c-.7,6.5-8.2,11.2-16.8,10.6-8-.6-14.1-5.8-14.1-11.9l.3-40.4c.1-6.5,7.1-11.7,15.6-11.6a18.19,18.19,0,0,1,10.9,3.5l.4.3a10.8,10.8,0,0,1,4,7.1Z" transform="translate(-278.2 -147.1)"/><path class="cls-9" d="M393.8,412.2l-.3,31.1A69.5,69.5,0,0,0,364,453.8L358.8,419c19.3-7,35-6.8,35-6.8Z" transform="translate(-278.2 -147.1)"/><path class="cls-11" d="M346.6,473.1c-5.2,9.3-7.8,19.8-8.8,29.7l-40.5-8.7c2.9-15.4,8-27.9,14.5-38Z" transform="translate(-278.2 -147.1)"/><path class="cls-12" d="M579,390.9H513.3V373.6h88.5a10,10,0,0,0,10-10V273a10,10,0,0,0-10-10H568.2V173.7a13.54,13.54,0,0,0,7.9-12.3v-.8a13.5,13.5,0,0,0-27,0v.8a13.37,13.37,0,0,0,7.1,11.9v89.6H431.8V173.3a13.37,13.37,0,0,0,7.1-11.9v-.8a13.5,13.5,0,0,0-27,0v.8a13.54,13.54,0,0,0,7.9,12.3V263H383.3a10,10,0,0,0-10,10v90.6a10,10,0,0,0,10,10h88.5v17.3H406.1v25.5l.1,49.5v63.4H578.9v-62l.1-45.4Z" transform="translate(-278.2 -147.1)"/></svg>