<svg id="Layer_1" data-name="Layer 1" xmlns="http://www.w3.org/2000/svg" xmlns:xlink="http://www.w3.org/1999/xlink" viewBox="0 0 1003.88 1093.44"><defs><style>.cls-1{font-size:950px;fill:#a4c2f4;font-family:RadioGrotesk-Regular, Radio Grotesk;}.cls-2,.cls-3{fill:#3e76f9;}.cls-2,.cls-6{opacity:0.1;isolation:isolate;}.cls-4{fill:url(#linear-gradient);}.cls-5{fill:#4c4981;}.cls-7{fill:#ae6e79;}.cls-8{fill:#444053;}.cls-9{fill:#fff;}</style><linearGradient id="linear-gradient" x1="911.17" y1="122.04" x2="911.17" y2="508.51" gradientTransform="matrix(1, 0, 0, -1, -98.04, 806.28)" gradientUnits="userSpaceOnUse"><stop offset="0" stop-color="gray" stop-opacity="0.25"/><stop offset="0.54" stop-color="gray" stop-opacity="0.12"/><stop offset="1" stop-color="gray" stop-opacity="0.1"/></linearGradient></defs><title>question-num</title><text class="cls-1" transform="translate(349.65 807.49)">1</text><path class="cls-2" d="M439.54,72C484.71,58.1,539.7,70,586.66,87.38,734.15,142,841.6,245.54,927,351.08c30.91,38.21,60.27,78.11,71.89,120.77,23.66,86.82-38.05,176.71-143,208.21-35.69,10.73-74.9,15.12-114.17,17.57-69.83,4.37-142.13,2.63-211.4-13.53-49.4-11.54-96.13-30.12-140.95-50.64C264.17,576.12,149.86,501.65,67.55,410.69,31.45,370.8.91,325.82,0,279.79S35.52,187.5,95.36,179.67c24.74-3.23,50.91.13,76.44,3.6,37.59,5.1,75.69,10.47,112.85,8.24C323,189.2,373,176.82,380,146.59,387.38,114.14,394.43,85.78,439.54,72Z" transform="translate(-0.02 142.65)"/><path class="cls-3" d="M244,634.13s48.26-2.4,42.57,25.49c0,0,1.13,5-4.29,7.17,0,0-.08-2.07-4.95-1.37a26.22,26.22,0,0,1-5.24.22,12.22,12.22,0,0,1-6.41-2.19h0s-13.57-4.62-18.84-22.91c0,0-3.91-4-3.75-5l8.14,2.87s-2.78,4.85-.59,8.88c0,0,.26-8.69,1.83-8.5.31,0,4.23,1.65,4.23,1.65s-4.79,8.44-1.18,14.58c0,0-1.37-10.4,2.67-14L264,643.8s-5.6,8.71-1.8,15.82c0,0-1-10.91,3-15.16l5.2,3.3s-5.26,8.6-2.05,14.5c0,0,.41-12.71,3.17-13.66,0,0,4.55,3.3,5.24,4.67,0,0-3.6,6.23-1.37,9.52,0,0,1.37-8.46,2.5-8.5,0,0,4.52,5.61,5,9.45a17.87,17.87,0,0,0-3.91-10s4.38.62,6.94,3c0,0-.71-4-8.05-4.31,0,0-3.74-4.25-4.75-4.51,0,0,7.31-.51,11.74,1.12,0,0-3.9-3.75-13.08-2l-5.13-3.44s9.63-1.09,13.7.11c0,0-4.69-3.3-15.08-.9L259.64,640s8.2-1.46,13.09-.93c0,0-5.16-2.3-14.73.19l-4-1.48s6-1,7.77-1.13,1.85-.55,1.85-.55a24.88,24.88,0,0,0-11.29,1S243.87,634.61,244,634.13Z" transform="translate(-0.02 142.65)"/><ellipse class="cls-2" cx="277.24" cy="811.87" rx="34.16" ry="4.76"/><path class="cls-3" d="M179.37,652.27s27.21-1.44,24,15.24a3.92,3.92,0,0,1-2.41,4.28s-.05-1.23-2.79-.81a14.52,14.52,0,0,1-2.95.12,6.54,6.54,0,0,1-3.62-1.3h0S184,667,181,656.1c0,0-2.2-2.39-2.12-3l4.6,1.75s-1.57,2.9-.34,5.3c0,0,.15-5.2,1-5.08.18,0,2.39,1,2.39,1s-2.7,5-.66,8.74c0,0-.78-6.21,1.5-8.35l3.23,1.65s-3.15,5.25-1,9.46c0,0-.55-6.52,1.69-9.05l2.93,2s-3,5.13-1.15,8.66c0,0,.23-7.59,1.79-8.16a16.42,16.42,0,0,1,3,2.79s-2,3.72-.77,5.69c0,0,.77-5,1.41-5.08,0,0,2.55,3.35,2.81,5.65a11.25,11.25,0,0,0-2.2-6,8.06,8.06,0,0,1,3.91,1.74s-.39-2.36-4.54-2.57c0,0-2.11-2.55-2.67-2.7,0,0,4.12-.3,6.62.67,0,0-2.2-2.24-7.38-1.23L192.07,658s5.43-.65,7.73.07c0,0-2.65-2-8.51-.53l-3.14-1.66a33.07,33.07,0,0,1,7.37-.55s-2.9-1.37-8.3.12l-2.25-.88s3.39-.58,4.38-.67,1.05-.33,1.05-.33a13.35,13.35,0,0,0-6.37.62S179.29,652.56,179.37,652.27Z" transform="translate(-0.02 142.65)"/><ellipse class="cls-2" cx="198.09" cy="815.88" rx="19.26" ry="2.85"/><path class="cls-3" d="M848.78,630.48s32.85-1.65,29,17.33a4.47,4.47,0,0,1-2.92,4.88s-.06-1.41-3.37-.93a18.53,18.53,0,0,1-3.57.14,8.26,8.26,0,0,1-4.36-1.49h0s-9.24-3.14-12.83-15.6c0,0-2.66-2.71-2.55-3.4l5.54,1.94s-1.89,3.3-.4,6c0,0,.18-5.92,1.24-5.77.22,0,2.88,1.13,2.88,1.13s-3.26,5.78-.8,9.9c0,0-.93-7.07,1.82-9.5l3.9,1.87s-3.81,5.94-1.22,10.78c0,0-.67-7.42,2-10.31l3.54,2.27s-3.58,5.85-1.4,9.9c0,0,.29-8.64,2.17-9.3,0,0,3.09,2.25,3.56,3.17,0,0-2.45,4.25-.93,6.49,0,0,.93-5.77,1.7-5.77,0,0,3.08,3.82,3.4,6.43a12.21,12.21,0,0,0-2.65-6.79,10,10,0,0,1,4.72,2s-.48-2.7-5.49-2.94c0,0-2.54-2.89-3.22-3.07,0,0,5-.34,8,.76,0,0-2.66-2.54-8.91-1.38l-3.49-2.35s6.55-.75,9.33.07c0,0-3.2-2.25-10.27-.61l-3.8-1.87a41.92,41.92,0,0,1,8.91-.64s-3.51-1.56-10,.13l-2.72-1s4.09-.67,5.29-.77,1.26-.38,1.26-.38a17.17,17.17,0,0,0-7.68.7S848.68,630.8,848.78,630.48Z" transform="translate(-0.02 142.65)"/><ellipse class="cls-2" cx="871.38" cy="797.03" rx="23.25" ry="3.24"/><ellipse class="cls-2" cx="829.44" cy="822.51" rx="102.56" ry="8.34"/><path class="cls-4" d="M932,428.26a48.35,48.35,0,0,1-1.09-8.79c0-3.54-5.83-6.67-5.83-6.67s-3.6-6.87-6-7.89-9.81-10-9.81-10a7.41,7.41,0,0,0-2.23-4.85A70.75,70.75,0,0,1,901,382.5h0c-1-1-.5-1.72-2-7.58a7.55,7.55,0,0,0-.28-.88,1,1,0,0,0-.16-.38c3.25-2.69,4.35-6.67,2.83-10.25a4.15,4.15,0,0,0-1.42-1.82c-1.69-1.14-4.39-.67-6.13-1.75l1.85-6.74c.44-1.65.67-3.74-1.08-4.63a10.3,10.3,0,0,0-2.06-.57c-3-.83-4.74-3.44-5.52-6a17,17,0,0,1-.6-7.42c.34-2.39,1.19-4.72,1.5-7.12a16.94,16.94,0,0,0-3.67-12.65,11.18,11.18,0,0,0-4.85-3.78c-1.85-.68-4-.82-5.73-1.65-3.72-1.95-3.53-6.6-6.5-9.26s-8.23-2.66-12.56-1.74-8.64,2.47-13.08,2.09c-2.86-.27-5.54-1.34-8.41-1.59a11.24,11.24,0,0,0-2.46.09v-.07c-2.12.31-4.07,1.29-4.57,2.94a3.82,3.82,0,0,0-.14,1.21c0,1,.28,2,.3,2.89a2.49,2.49,0,0,1-.81,2c-.57.5-1.41.77-2,1.29a1.87,1.87,0,0,0-.73,1.51c0,1.47,2.22,2.77,3.71,3.36h.06c-.4.33-.8.68-1.17,1a19.71,19.71,0,0,0-6.62,14.43c.07,8.77,6.45,16.67,16.24,20.11l-.21.53a27.62,27.62,0,0,1-1.47,3.12,8.88,8.88,0,0,0-6.28.58c-2.86,1.65-8.45,1.52-9.94,1.21s-17-1.92-18.25-1.52-3.72-1.41-5.33,1-2.36,3.73-4,4.35-4.47,2.52-4.09,2.92-4.1,2.83-4.1,2.83-3.85,3.3-6.08,3.74-6.95,2.94-6.95,2.94l-5.47,3.53s-4.09.51-2.85-1.82-2.24-5.25-2.24-5.25-6.95-11.63-6.95-14S745,341.17,745,341.17l-.7-.06-.32-.75a73.64,73.64,0,0,0-3.45-7.17c-2-3.34-3.23-3.68-3.23-3.68s-24.08-14.92-39.72-10.37,28.55,18.09,32.52,19.5c1.39.5,2.39,2.1,3.09,4a19.76,19.76,0,0,0-8.55,6.34s9.56,17.48,9.81,21.83,6.58,16.5,6.58,16.5,2.36,9,15.14,8.48c0,0,17.63,2.68,21.48,0s7.32-4.76,9.19-5.07a7.45,7.45,0,0,0,3.47-2s-5.83,30.31-8.69,32.94-28.13,36.67-19.06,42.75a187.76,187.76,0,0,0,22.71,12.38c.77.31,3.08-2.87,6.38-5.12v1.76c.06,12.11,2,30.52,4.68,34.64,4,6.06,2.36,17.78,2.36,17.78a19.93,19.93,0,0,0,6.71,1.33c.12.4.26.83.39,1.24,2.19,6.82,5.74,17.37,7.55,20.17,2.73,4.25,4.71,17.7,4.71,17.7s1.62,13.19,1,15c-.24.7.81,6.19,2.46,13.2h0c-1,9.47-2.9,27.74-3.22,34.35h0V630h0a5.16,5.16,0,0,0,.06,1.24,3.45,3.45,0,0,1-.17,1.88,30.36,30.36,0,0,1-2.69,5.3,21.1,21.1,0,0,0-1.2,2.55,4.86,4.86,0,0,0-2.9,3.4c-1.24,3.95-3.1,14.85-3.1,14.85s-.75,6.67-2.23,8.19-3,11,7.57,12.22S828.77,675,828.77,675l-.37-26.46v0a4.58,4.58,0,0,0,.55-.72v-.07c.07-.12.15-.25.22-.4l.09-.2.16-.32a.24.24,0,0,1,0-.12,14.67,14.67,0,0,0,.9-7.87v-1.12a2.55,2.55,0,0,1,.06-.54c.06-.28,0-.07,0-.1l.06-.32v-.14a.51.51,0,0,1,.08-.33.14.14,0,0,1,0-.09c.1-.38.22-.82.35-1.18v-.09l.15-.4h0c.15-.42.32-.83.5-1.27v-.08a1,1,0,0,1,.17-.39v-.05c.18-.4.37-.82.55-1.17l0-.11.16-.33,0-.1.38-.73h0l2.93,7.46s1.62,5.56.75,6.87,1,6.78,2.23,6.87l-1.15,6.88a87.59,87.59,0,0,0-1.11,11.42c-.08.44-.16.82-.22,1.09-.8,3.52,1.12,9,1.12,9,9.8,9.56,21.48.74,21.48.74s1.36-5,0-6.06-.75-4.65-.75-4.65.62-9,.74-15.57-6.51-12.37-6.51-12.37l-.37.27c-1.21-2.57-2.59-5.57-2.3-6.92.5-2.32-1.37-26.88-1.37-26.88a120,120,0,0,0,.44-19.79h0c.16-1.12.31-2.21.46-3.3.75-5.28,1.36-9.79,1.6-12.16h0v-.28a12.21,12.21,0,0,0,.08-1.3c0-.83,0-1.77.1-2.8.23-2.84.77-6,.77-6l2.6-13s2-6.36,4.85-9.89l.34-.45h0l.34-.51.05-.08c.11-.17.23-.35.34-.54l0-.07c.4-.66.83-1.41,1.28-2.23,0-.07.07-.13.1-.19l.34-.63c0-.08.08-.16.13-.25s.21-.42.32-.62.09-.17.13-.26c.13-.25.27-.5.4-.77l.19-.37c.09-.19.19-.38.29-.57l.24-.51c.07-.12.13-.24.19-.37l.27-.57c0-.08.09-.17.13-.25.71-1.46,1.39-2.91,2-4.22h0l.55-1.19c6.36.33,10.68.62,10.68.62s2-11.82,1.36-19.6c-.42-5.31.78-12,1.57-15.67.09-.41.17-.77.25-1.1l.17.11c3.11,2,5.34-4.65,5.34-4.65s-.84-6.23-2-13.77l-.12-.75q2.69.46,5.43.68s1-.07,2.37-.21a72.86,72.86,0,0,0,11.94,4.45l6.61-10.06a40.58,40.58,0,0,1,4.35-6c2-2,9.06-8.48,8.94-9.69s2.36-8.2,4.84-11.33S932.13,428.76,932,428.26Zm-27.56,7.68c-2.61.91-5.09,6-5.21,7.48s-2.86,8.18-5.71,9c-2.63.74-7.65,4.55-8.45,5.17-.82.05-1.75.14-2.72.28-1.09-6.38-2.17-11.66-2.86-12.72-2-3,2.19-12.74,2.19-12.74s.41-9.8,3-12.12,2-8.19,2-8.19.62-2.43.87-3.53,3.69,0,3.72,0h0s6.7,3,7.7,7.57,8.32,12.43,8.32,12.43-1.12,2.73,0,4.12S907.06,435,904.45,435.94Z" transform="translate(-0.02 142.65)"/><path class="cls-5" d="M724.92,349.57c4.17-5.67,12-8.73,20-7.77v11.81h-8.69l-6.8-1.42Z" transform="translate(-0.02 142.65)"/><path class="cls-6" d="M724.92,349.57c4.17-5.67,12-8.73,20-7.77v11.81h-8.69l-6.8-1.42Z" transform="translate(-0.02 142.65)"/><path class="cls-7" d="M745.57,344.93l-10.65,6.15s-.09-1.23-.36-2.91c-.53-3.18-1.72-8-4.29-8.88-3.91-1.42-47.44-14.93-32-19.48s39.13,10.36,39.13,10.36,1.22.34,3.17,3.67A76.43,76.43,0,0,1,744,341C744.92,343.19,745.57,344.93,745.57,344.93Z" transform="translate(-0.02 142.65)"/><polygon class="cls-5" points="830.63 497.06 831.84 496.58 835.24 499.79 832.46 504.68 827.72 503.11 828.82 499.2 830.63 497.06"/><path class="cls-8" d="M814.54,640.88s-3.06-.3-4.28,3.63-3.06,14.85-3.06,14.85-.73,6.66-2.2,8.17-2.93,11,7.46,12.2,14.92-4.61,14.92-4.61L827,648.67Z" transform="translate(-0.02 142.65)"/><path class="cls-8" d="M850.8,642.06s6.54,5.78,6.42,12.33-.74,15.53-.74,15.53-.6,3.63.74,4.64,0,6.05,0,6.05-11.5,8.81-21.16-.74c0,0-1.88-5.45-1.1-9s3-19.31,3-19.31Z" transform="translate(-0.02 142.65)"/><path class="cls-7" d="M867,521.45s-6.6,15.23-9.42,18.76-4.76,9.89-4.76,9.89l-2.57,13a60.29,60.29,0,0,0-.86,8.78c.12,2.93-6.36,45.58-6.36,45.58l-10.27,10.8S828.24,635.84,829,639s-.49,8.18-2,9.69c0,0-.24,9.9-.61,12.1s1.35,8.48,0,9.58-19.32.61-19.81-1.21,2.2-10.59,2.2-10.59l1.59-8.47s3.18-4.64,2.45-6.15,1.34-5,1.46-5.35,3.43-5.25,2.82-7.16,3.85-42.61,3.85-42.61l12.59-72.92Z" transform="translate(-0.02 142.65)"/><path class="cls-6" d="M867,521.45s-1,2.29-2.37,5.3c-2.18,4.75-5.32,11.29-7,13.46-2.81,3.53-4.77,9.89-4.77,9.89l-2.57,13a60.27,60.27,0,0,0-.85,8.78c0,1.15-.94,8.52-2.14,17-1.85,13-4.22,28.58-4.22,28.58l-10.27,10.8s-.52.82-1.17,2.13c-1.29,2.47-3.11,6.49-2.62,8.56.73,3.13-.49,8.17-2,9.68,0,0-.25,9.9-.61,12.1s1.35,8.47,0,9.59-19.32.61-19.81-1.21,2.2-10.59,2.2-10.59l1.59-8.48s3.18-4.63,2.44-6.15,1.35-5,1.47-5.34,3.43-5.25,2.82-7.16c-.47-1.46,2-25.36,3.15-36.69.39-3.57.64-5.88.64-5.88l10.83-62.74.88-5.05.88-5.14Z" transform="translate(-0.02 142.65)"/><path class="cls-7" d="M856,673.14c.11,1.12-17.25,2.73-19.73,1.52s0-16.24,0-16.24l1.13-6.86c-1.21-.1-3-5.55-2.2-6.86s-.73-6.85-.73-6.85l-2.88-7.43-1.76-4.54c-2.86-5.2-7-20-9.57-31.14-1.62-7-2.65-12.44-2.42-13.14.61-1.82-1-15-1-15s-2-13.42-4.64-17.65c-1.79-2.81-5.28-13.34-7.44-20.14-1.1-3.49-1.86-6-1.86-6s18.48-1.28,29.69-1.73c5.15-.2,8.77-.23,8.35.12s-.53,2.19-.51,4.86c.05,6.92,1.22,19.1,2.46,22.37,1.71,4.54,3.42,18.15,2.69,19.47s-.49,10.09-.49,10.09a38.28,38.28,0,0,1,2.16,10.94,122.42,122.42,0,0,1-.42,19.71s1.83,24.51,1.34,26.83,3.91,9.58,3.91,11,1.22,11,1.22,11S855.92,672,856,673.14Z" transform="translate(-0.02 142.65)"/><path class="cls-7" d="M865.65,378.52l-2.1,1.87-1.37,1.22-8,7.09-20.67,1.92-11-2.42-2.72-.6s0-4.56.49-10c.7-7,2.37-15.5,6.36-17.82a13.9,13.9,0,0,0,4.65-4.86,24.36,24.36,0,0,0,2-4.07c.08-.18.14-.36.21-.54a38.65,38.65,0,0,0,1.94-7.48s2.64-1.2,6.31-2.61c9.57-3.68,26.1-8.77,20.35,2.61a38.51,38.51,0,0,0-2.16,5.11c-.09.26-.17.52-.24.76-1.92,6.34-.65,10.18.78,12.3h0a7.5,7.5,0,0,0,.83,1,6.3,6.3,0,0,0,1.39,1.16l2.38,12.46.2,1Z" transform="translate(-0.02 142.65)"/><path class="cls-6" d="M862.11,343.42c-1.09,2.16.53-1.76,0,0-4.36,2.56-14.63,9.84-20.4,9.84-3.9,0-5.07-.59-8.41-1.83a38.43,38.43,0,0,0,2.15-8S870.06,327.68,862.11,343.42Z" transform="translate(-0.02 142.65)"/><path class="cls-7" d="M870.92,330.17c0,11.24-10.31,20.68-23.87,21.86-.92.08-1.85.13-2.79.13-14.73,0-26.66-9.85-26.66-22s11.93-22,26.66-22,26.66,9.84,26.66,22Z" transform="translate(-0.02 142.65)"/><path class="cls-6" d="M874.71,427.64l-3.8,8.18s-3.09.1-7.91.23c-16.27.43-52.12,1-53.72-2.48a7.3,7.3,0,0,1-.56-2.71c-.21-5.25,2.76-13.32,2.76-13.32s1.71-16.14,1.71-16.84-1.47-12-1.47-12l2.94-9.08,8.19-4.74s3.67,4.64,5.87,5,5.14,2.63,5.14,2.63,7.21,3.63,9.54,1.61,20.42-10.9,20.42-10.9l9.54,8.68Z" transform="translate(-0.02 142.65)"/><path class="cls-9" d="M874.71,428.9l-3.8,8.16s-3.09.12-7.91.24h-.47c-2.08.06-4.46.12-7,.16-12.93.25-30.74.31-40-.83-3.5-.41-5.79-1-6.17-1.81a6.27,6.27,0,0,1-.44-1.5c-.06-.38-.1-.83-.12-1.22-.21-5.25,2.76-13.32,2.76-13.32s1.71-16.14,1.71-16.84-1.47-12-1.47-12l2.94-9.07,5.63-3.25,2.56-1.49a32.33,32.33,0,0,0,2.81,3.06,7.35,7.35,0,0,0,3.06,2c2.21.41,5.14,2.64,5.14,2.64s7.21,3.62,9.54,1.6c1.77-1.54,12.77-7.09,17.85-9.62,1.56-.79,2.57-1.27,2.57-1.27l1.28,1.17,8.26,7.5Z" transform="translate(-0.02 142.65)"/><path class="cls-6" d="M745.57,344.93l-10.65,6.15s-.09-1.23-.36-2.91a20.31,20.31,0,0,0,9.38-7.17C744.92,343.19,745.57,344.93,745.57,344.93Z" transform="translate(-0.02 142.65)"/><path class="cls-5" d="M783,365.81l-2.32-.51s-3.8,3.3-6,3.74-6.84,2.92-6.84,2.92l-5.39,3.53s-4,.51-2.81-1.82-2.2-5.24-2.2-5.24-6.85-11.6-6.85-14-5.66-12.61-5.66-12.61-7.1,11.4-20.06,7.77c0,0,9.42,17.45,9.66,21.79S741,387.8,741,387.8s2.33,9,14.92,8.47c0,0,17.37,2.67,21.16,0s7.21-4.75,9-5.06a7.41,7.41,0,0,0,3.42-2v-12Z" transform="translate(-0.02 142.65)"/><path class="cls-6" d="M761.22,377.2s3.06,9.39,1.1,10.4Z" transform="translate(-0.02 142.65)"/><path class="cls-6" d="M863,437.26c-16.27.43-52.12,1-53.72-2.47a7.35,7.35,0,0,1-.56-2.72l53.15,2.31Z" transform="translate(-0.02 142.65)"/><path class="cls-6" d="M867,521.45s-1,2.29-2.37,5.3c-6.75-.34-15.69-.69-24.18-.74-3,0-5.94,0-8.72.08a79,79,0,0,0-14.25,1.31,45.45,45.45,0,0,1-12.7,1.35c-1.1-3.49-1.86-6-1.86-6s18.48-1.28,29.69-1.72l.88-5.13Z" transform="translate(-0.02 142.65)"/><path class="cls-8" d="M881.31,484.53l-2.08,3.63s-.29,1.08-.66,2.8c-.78,3.69-2,10.36-1.54,15.67.61,7.77-1.35,19.56-1.35,19.56s-45-3.12-58.2,0-19.7,0-19.7,0,1.6-11.69-2.32-17.75c-2.67-4.12-4.55-22.53-4.61-34.64,0-5.58.34-9.82,1.19-10.67,2.69-2.73,14.18-30,14.18-30l2.62.11,7,.31,39.8,1.73,6.25.27.66,1.65Z" transform="translate(-0.02 142.65)"/><path class="cls-5" d="M901.12,472.42l.37,3.24s-19.71-5.3-18.71-11.81,0-5.77,0-5.77l15.84,1.1Z" transform="translate(-0.02 142.65)"/><path class="cls-6" d="M901.12,472.42l.37,3.24s-19.71-5.3-18.71-11.81,0-5.77,0-5.77l15.84,1.1Z" transform="translate(-0.02 142.65)"/><path class="cls-6" d="M774.37,379.81a19.06,19.06,0,0,0,6.94,3,4.89,4.89,0,0,1-2-.83c-1.41-.82-2.75-1.72-4.11-2.59-1.1-.71-2.47-1.89-3.82-2.18A18.9,18.9,0,0,0,774.37,379.81Z" transform="translate(-0.02 142.65)"/><path class="cls-6" d="M774.67,384.06a7.22,7.22,0,0,1,1.52,2,10,10,0,0,1-.11,6.24L772.92,386a35,35,0,0,0-1.76-3.17c-.29-.44-2.11-2.26-1.9-2.64C769.82,379.13,774.08,383.46,774.67,384.06Z" transform="translate(-0.02 142.65)"/><path class="cls-6" d="M862.84,418.87a11.33,11.33,0,0,0,5.75-2.22c-3.25.34-6.33,1.39-9.53,1.94a16.93,16.93,0,0,1-8.88-.67C853.86,419.4,858.92,419.45,862.84,418.87Z" transform="translate(-0.02 142.65)"/><path class="cls-6" d="M853.65,400.4a2.59,2.59,0,0,1-1.65-.34c-2.44-1.15-4.85-2.36-7.22-3.61a49.53,49.53,0,0,1-7.07-4C842.56,396,847.08,399.09,853.65,400.4Z" transform="translate(-0.02 142.65)"/><path class="cls-6" d="M860.43,421.79a18.09,18.09,0,0,0,3.82-.25,5.34,5.34,0,0,0,3.14-1.7,2.15,2.15,0,0,0-1.33.17,26.83,26.83,0,0,1-12.28,1.22C855.77,421.93,858.32,421.79,860.43,421.79Z" transform="translate(-0.02 142.65)"/><path class="cls-6" d="M837.27,468.63a48.53,48.53,0,0,1-7.81,1.26,55.38,55.38,0,0,1-6.18-.1l-10-.52-5-.26c-.59,0-3,0-1.81-1,.6-.48,3.94-.18,4.8-.2,1.66-.05,3.33-.07,5-.08,3.31,0,6.63,0,9.94.17C829.92,468.07,833.57,468.3,837.27,468.63Z" transform="translate(-0.02 142.65)"/><path class="cls-6" d="M825.68,472.71c-1.7-.06-3.89.78-5.64,1a46.47,46.47,0,0,1-5.9.19,39.05,39.05,0,0,1-11.37-1.92C810.4,472.27,818.05,472.46,825.68,472.71Z" transform="translate(-0.02 142.65)"/><path class="cls-6" d="M804.26,477a19.71,19.71,0,0,1,2.18.5c4.22,1,8.71.11,13-.76-1.07,1.33-3,1.9-4.93,2.26a27.88,27.88,0,0,1-9.6.29c-1-.17-3.51-.46-4-1.32C800.09,476.74,803.32,476.91,804.26,477Z" transform="translate(-0.02 142.65)"/><path class="cls-6" d="M827.92,483.54a36.69,36.69,0,0,1,3.74.83c4.75,1,9.68-.37,14.45-1.27a81.13,81.13,0,0,1,17.49-1.33,20.43,20.43,0,0,0-3.75,1c-1.35.34-2.72.65-4.09.93-2.69.55-5.42,1-8.17,1.32a102.07,102.07,0,0,1-16.77.6c-2.56-.12-7,.1-9.19-1A11.9,11.9,0,0,1,827.92,483.54Z" transform="translate(-0.02 142.65)"/><path class="cls-6" d="M829.71,359.14s.24,9.29-1.59,13.53c-.58,1.32-1.48,3.75-2.46,6.48-1.07,3-2.24,6.42-3.14,9.07l-1.5,4.44s-4.13,27.75-5.2,41a2.65,2.65,0,0,1-.06.69,22.12,22.12,0,0,1-.31,2.32c-2.38,13.13-16.11,33.38-20.72,35a14.05,14.05,0,0,0-3.88,2.2c0-5.58.34-9.81,1.19-10.67,2.69-2.72,14.18-30,14.18-30l2.62.12c-.06-.38-.1-.83-.12-1.22-.21-5.25,2.76-13.32,2.76-13.32s1.71-16.14,1.71-16.84-1.47-12-1.47-12l2.94-9.07,5.63-3.25c.7-7,2.37-15.51,6.36-17.83a13.81,13.81,0,0,0,4.65-4.86c.79.1-.65-.48-.65-.48Z" transform="translate(-0.02 142.65)"/><path class="cls-5" d="M831.86,353.94a8.63,8.63,0,0,0-6.19.57c-2.82,1.65-8.32,1.51-9.79,1.22s-16.75-1.93-18-1.52-3.67-1.41-5.26,1-2.32,3.73-3.91,4.33-4.41,2.53-4,2.93-4,2.82-4,2.82l8.92,23.92s-5.75,30.26-8.56,32.88-27.76,36.61-18.83,42.67a184.68,184.68,0,0,0,22.38,12.37c1,.4,4.52-5,9.41-6.76s20.06-24.41,21-37.32,5.26-41.65,5.26-41.65,5.26-15.74,7.09-20S829,357.9,829,357.9Z" transform="translate(-0.02 142.65)"/><path class="cls-6" d="M881.31,484.53l-2.08,3.63s-.29,1.08-.66,2.8a2,2,0,0,1-1-.38c-3.06-2-21-17.24-21.89-30.76a201.81,201.81,0,0,1-.13-22.4c.06-1.2.12-1.93.12-2.08h0s13.94-13.92,12.35-18.86-5.26-31.34-5.26-31.34l-.54-3.46-.93-5.86-2.22-14.17,2.3.44a6.08,6.08,0,0,0,1.39,1.17l2.38,12.46,8.26,7.51,1.35,45.69-3.8,8.17s-3.09.11-7.91.24h-.47Z" transform="translate(-0.02 142.65)"/><path class="cls-5" d="M889,409.1s-3.42-1.11-3.66,0-.86,3.52-.86,3.52.61,5.86-2,8.18-3,12.1-3,12.1-4.12,9.68-2.17,12.71c.71,1.09,1.81,6.6,2.91,13.19.7,4.13,1.39,8.66,2,12.8,1.11,7.52,1.94,13.75,1.94,13.75S882,492,878.9,490s-21-17.24-21.88-30.76a201.46,201.46,0,0,1-.16-21.81c.08-1.73.16-2.7.16-2.7s13.94-13.92,12.35-18.86-5.26-31.35-5.26-31.35l-.64-4.08-.69-4.39-.16-1-2.21-14h0c.39.07,14.11,2.63,15.92,4.12s13,3.63,13,3.63a9,9,0,0,1,6.94,5.87,7.71,7.71,0,0,1,.27.89c1.47,5.85,1,6.55,2,7.57S889,409.1,889,409.1Z" transform="translate(-0.02 142.65)"/><path class="cls-6" d="M882.31,471.59c-5-.83-12.42-2.73-12.25-6.94.15-3.93,5.89-5.35,10.24-5.85C881,462.9,881.69,467.45,882.31,471.59Z" transform="translate(-0.02 142.65)"/><path class="cls-7" d="M897.82,469.49c-.2.36-1,.66-2.14.94a69,69,0,0,1-8.13,1.09s-17-1.11-16.76-7.47c.18-4.56,7.86-5.77,12.17-6.05.95-.07,1.91-.1,2.87-.09C885.83,457.91,898.55,468.19,897.82,469.49Z" transform="translate(-0.02 142.65)"/><path class="cls-6" d="M897.82,469.49c-.2.36-1,.66-2.14.94-4.43-4.9-10.61-11.17-13.64-11.72L883,458c.95-.07,1.91-.1,2.87-.09C885.83,457.91,898.55,468.19,897.82,469.49Z" transform="translate(-0.02 142.65)"/><path class="cls-5" d="M893.54,382.45l5,.61a71.29,71.29,0,0,0,6,7.56,7.52,7.52,0,0,1,2.2,4.85s7.34,9,9.66,10,5.87,7.87,5.87,7.87S928,416.44,928,420a49.15,49.15,0,0,0,1.1,8.78c.13.5-.85,6.76-3.3,9.9s-4.9,10-4.77,11.28-6.85,7.67-8.8,9.68a40,40,0,0,0-4.28,6l-6.48,10.09S887.79,459,882.78,458.1c0,0,5.62-4.43,8.43-5.24s5.51-7.43,5.63-9,2.57-6.55,5.13-7.42,3.92-1.81,2.82-3.23,0-4.13,0-4.13-7.22-7.87-8.2-12.37-7.58-7.56-7.58-7.56l-3.79-7.67Z" transform="translate(-0.02 142.65)"/><path class="cls-6" d="M911.73,420.1A18,18,0,0,1,921.6,417c-2.32.33-4.76.75-6.46,2.09a12.21,12.21,0,0,0-1.79,1.88c-.58.68-5.3,5.63-6,4.85C906.18,424.69,910.78,420.77,911.73,420.1Z" transform="translate(-0.02 142.65)"/><path class="cls-6" d="M900.65,415.33a4.29,4.29,0,0,0,3.49-2,10,10,0,0,0,1.09-3.58,45.69,45.69,0,0,1,1.51-6.13,2.39,2.39,0,0,0-.21-2.47,7.73,7.73,0,0,0-1.08-1.83c-.9.82-1.16,2.74-1.53,3.85-.46,1.37-.88,2.75-1.28,4.12C902.43,407.91,900.77,415.33,900.65,415.33Z" transform="translate(-0.02 142.65)"/><path class="cls-6" d="M896.32,374.61a9.4,9.4,0,0,1-1.69,1.43c-2,1.31-4.65,2.42-4.9,4.49a4,4,0,0,1-.3,2c-.64.9-2.21.82-3.46.65a6.88,6.88,0,0,1-2.93-.89c-1.31-.93-1.43-2.58-2.43-3.74a6.78,6.78,0,0,0-5-1.82c-1.87-.05-3.73.3-5.6.36a18.72,18.72,0,0,1-3.59-.2c-.39-.05-.78-.11-1.16-.19a16.63,16.63,0,0,1-2.44-.69,11.28,11.28,0,0,1-1.19-.46,16.47,16.47,0,0,1-3.45-2c-1.83-1.39-3.35-3.3-3.2-5.35.09-1.27.78-2.43,1-3.67.75-3.57-2.12-6.93-5.23-9.48-1.24-1-2.56-2-3.8-3a15.4,15.4,0,0,1-4.47-5.26,13,13,0,0,1-.8-6.6,37.48,37.48,0,0,0,.23-6.78c-.92-8-9.22-14.16-17.52-17.5l-.37-.16c9.67-9.15,26.5-10.11,37.6-2.13s12.25,21.86,2.58,31a24.93,24.93,0,0,1-4.33,3.29c-.09.25-.17.51-.24.76-1.92,6.33-.65,10.18.78,12.3h0c.39.07,14.11,2.63,15.92,4.12s13,3.63,13,3.63A9,9,0,0,1,896.32,374.61Z" transform="translate(-0.02 142.65)"/><path class="cls-8" d="M822.26,309.92c.55-.52,1.38-.79,1.94-1.29,1.73-1.55,0-4.08.63-6.13.68-2.27,4.06-3.26,6.88-3s5.46,1.31,8.28,1.58c4.38.4,8.62-1.17,12.89-2.08s9.43-1,12.37,1.73S868,308,871.65,310c1.69.9,3.82,1,5.65,1.65a10.88,10.88,0,0,1,4.78,3.77A17.06,17.06,0,0,1,885.7,328c-.31,2.4-1.15,4.72-1.49,7.11a17.18,17.18,0,0,0,.6,7.43c.77,2.47,2.44,5.14,5.43,5.94a9.75,9.75,0,0,1,2,.57c1.73.89,1.5,3,1.06,4.61l-1.78,6.78c1.71,1.07,4.37.61,6,1.74a4.15,4.15,0,0,1,1.4,1.81c1.64,3.88.22,8.19-3.59,10.84-2,1.31-4.65,2.42-4.9,4.48a4,4,0,0,1-.3,2c-.63.9-2.21.82-3.46.65a6.88,6.88,0,0,1-2.92-.89c-1.32-.93-1.43-2.58-2.43-3.74a6.82,6.82,0,0,0-5-1.82c-1.88-.05-3.73.29-5.61.37a18.77,18.77,0,0,1-11.79-3.52c-1.84-1.39-3.35-3.29-3.21-5.36.09-1.25.78-2.42,1-3.67.74-3.55-2.12-6.93-5.23-9.47s-6.76-4.9-8.28-8.29c-1.9-4.2-.06-8.89-.57-13.34-.92-8-9.21-14.16-17.52-17.51C823.26,313.92,820.11,311.94,822.26,309.92Z" transform="translate(-0.02 142.65)"/><path class="cls-6" d="M887.66,379.18c-1.32-.93-1.43-2.57-2.43-3.73a6.83,6.83,0,0,0-5-1.83c-1.88-.05-3.74.29-5.61.37a18.76,18.76,0,0,1-11.83-3.52c-1.84-1.39-3.34-3.3-3.2-5.36.09-1.26.78-2.43,1-3.67.75-3.56-2.12-6.93-5.23-9.48s-6.75-4.9-8.28-8.29c-1.89-4.19,0-8.88-.56-13.34-.93-8-9.22-14.16-17.52-17.51-1.94-.78-5.09-2.77-2.94-4.79.54-.52,1.37-.79,1.93-1.29,1.73-1.54,0-4.08.64-6.12a3.09,3.09,0,0,1,.63-1.13c-2.09.32-4,1.3-4.51,2.94-.61,2.05,1.1,4.58-.63,6.13-.56.51-1.39.77-1.94,1.28-2.15,2,1,4,2.94,4.79,8.31,3.35,16.6,9.5,17.52,17.51.51,4.47-1.33,9.15.57,13.35,1.52,3.38,5.17,5.77,8.28,8.29s6,5.91,5.23,9.48a26.22,26.22,0,0,0-1,3.67c-.14,2.05,1.37,4,3.21,5.35a18.66,18.66,0,0,0,11.82,3.52c1.88-.07,3.73-.41,5.61-.37a6.89,6.89,0,0,1,5,1.83c1,1.17,1.11,2.82,2.43,3.74a6.87,6.87,0,0,0,2.92.88c1.25.19,2.83.26,3.46-.64a2,2,0,0,0,.28-1.19A6.44,6.44,0,0,1,887.66,379.18Z" transform="translate(-0.02 142.65)"/><path class="cls-3" d="M750.16,332.15H681V275.93h69.22Zm-1-84.77H682c0-87.36,100.68-82.26,100.68-137.53,0-30.44-30.21-54.83-67.12-54.83s-67.11,26.29-67.11,55.7H581.32C581.19,49.67,641.08.11,715.08,0h.47c74.14,0,134.23,48.79,134.23,109.85,0,69.11-100.67,77-100.67,137.53Z" transform="translate(-0.02 142.65)"/><path class="cls-2" d="M281.14,315.4H263.3V300.87h17.84Zm-.27-21.85h-17.3c0-22.52,25.95-21.21,25.95-35.47,0-7.85-7.78-14.18-17.29-14.15h0c-9.49.18-17.12,6.52-17.26,14.35h-17.3c.24-15.76,15.93-28.38,35-28.18,18.66.2,33.78,12.57,34.16,28-.05,17.82-26,19.85-26,35.45Z" transform="translate(-0.02 142.65)"/><path class="cls-2" d="M416.22,416.37H398.38V401.88h17.84ZM416,394.52h-17.3c0-22.53,25.95-21.21,25.95-35.47,0-7.84-7.77-14.17-17.28-14.14h0c-9.54.15-17.22,6.51-17.35,14.37h-17.3c.24-15.76,15.93-28.38,35-28.18,18.67.19,33.79,12.56,34.17,28C441.9,376.88,416,378.91,416,394.52Z" transform="translate(-0.02 142.65)"/><path class="cls-2" d="M235.17,468.68H222.24V458.19h12.93ZM235,452.83H222.44c0-16.31,18.81-15.36,18.81-25.69,0-5.68-5.64-10.27-12.54-10.24h0c-6.89.11-12.44,4.71-12.54,10.41H203.63c0-11.43,11.13-20.73,25-20.77s25.13,9.18,25.18,20.6C253.77,440.05,235,441.53,235,452.83Z" transform="translate(-0.02 142.65)"/><path class="cls-2" d="M719.2,252.43h-7.31v-5.94h7.31Zm-.11-9H712c0-9.22,10.63-8.69,10.63-14.53,0-3.19-3.13-5.77-7-5.77h-.08c-3.9.07-7,2.67-7.09,5.88h-7.09c.18-6.46,6.66-11.57,14.49-11.43,7.54.14,13.63,5.12,13.86,11.34C729.72,236.22,719.09,237.09,719.09,243.48Z" transform="translate(-0.02 142.65)"/><path class="cls-2" d="M831,522.53h-7.31v-5.94H831Zm-.11-8.95h-7.09c0-9.23,10.64-8.68,10.64-14.52,0-3.21-3.2-5.79-7.09-5.78s-7,2.67-7.09,5.88h-7.09c.18-6.45,6.66-11.57,14.49-11.43,7.54.14,13.63,5.13,13.86,11.34,0,7.29-10.59,8.12-10.59,14.51Z" transform="translate(-0.02 142.65)"/></svg>