<svg viewBox="0 0 1003.88 693.73" xmlns="http://www.w3.org/2000/svg" xmlns:xlink="http://www.w3.org/1999/xlink"><linearGradient id="a" gradientTransform="matrix(1 0 0 -1 -98.04 806.28)" gradientUnits="userSpaceOnUse" x1="-274.76" x2="-274.76" y1="395.8" y2="784.26"><stop offset="0" stop-color="#808080" stop-opacity=".25"/><stop offset=".54" stop-color="#808080" stop-opacity=".12"/><stop offset="1" stop-color="#808080" stop-opacity=".1"/></linearGradient><g fill="#f9c03f"><ellipse cx="713.5" cy="685.35" opacity=".1" rx="102.56" ry="8.38"/><path d="m-630.44-269.12c45.17-13.92 100.16-1.95 147.12 15.51 147.49 54.85 254.94 158.97 340.32 265.05 30.9 38.41 60.26 78.56 71.88 121.39 23.66 87.27-38 177.62-143 209.29-35.69 10.77-74.9 15.19-114.17 17.66-69.83 4.38-142.13 2.64-211.4-13.6-49.4-11.61-96.13-30.28-140.95-50.91-125.17-57.63-239.48-132.48-321.79-223.91-36.1-40.1-66.64-85.31-67.52-131.58s35.49-92.76 95.33-100.63c24.74-3.25 50.91.14 76.44 3.62 37.59 5.13 75.69 10.53 112.85 8.29 38.39-2.33 88.32-14.77 95.32-45.15 7.41-32.63 14.46-61.13 59.57-75.03z" opacity=".6" transform="translate(1069.96 279.27)"/><path d="m-825.95 358.12s48.26-2.42 42.57 25.62a6.4 6.4 0 0 1 -4.29 7.21s-.08-2.08-5-1.38a26.22 26.22 0 0 1 -5.24.22 12.23 12.23 0 0 1 -6.41-2.2s-13.57-4.64-18.84-23c0 0-3.91-4-3.75-5l8.14 2.88s-2.78 4.88-.59 8.92c0 0 .26-8.73 1.83-8.54.31.05 4.23 1.66 4.23 1.66s-4.79 8.48-1.18 14.65c0 0-1.37-10.45 2.67-14l5.74 2.77s-5.6 8.77-1.8 15.91c0 0-1-11 3-15.23l5.2 3.31s-5.26 8.64-2 14.58c0 0 .41-12.78 3.17-13.74 0 0 4.55 3.32 5.24 4.69 0 0-3.6 6.27-1.37 9.58 0 0 1.37-8.51 2.5-8.55 0 0 4.52 5.64 5 9.5a18 18 0 0 0 -3.91-10s4.38.62 6.94 3c0 0-.71-4-8-4.34 0 0-3.74-4.27-4.75-4.53 0 0 7.31-.51 11.74 1.12 0 0-3.9-3.76-13.08-2.05l-5.13-3.47s9.63-1.09 13.7.12c0 0-4.69-3.32-15.08-.91l-5.58-2.76s8.2-1.47 13.09-.94c0 0-5.16-2.31-14.73.19l-4-1.48s6-1 7.77-1.14 1.85-.56 1.85-.56a24.9 24.9 0 0 0 -11.29 1s-8.51-2.63-8.36-3.11z" transform="translate(1069.96 279.27)"/><ellipse cx="277.26" cy="672.66" opacity=".1" rx="34.16" ry="4.78"/><path d="m-890.6 339.26s27.21-1.36 24 14.45a3.69 3.69 0 0 1 -2.41 4.06s0-1.17-2.79-.77a13.83 13.83 0 0 1 -3 .11 6.72 6.72 0 0 1 -3.62-1.23s-7.64-2.63-10.64-13c0 0-2.2-2.27-2.12-2.85l4.6 1.66s-1.57 2.75-.34 5c0 0 .15-4.93 1-4.81.18 0 2.39.95 2.39.95s-2.7 4.78-.66 8.29c0 0-.78-5.89 1.5-7.92l3.23 1.57s-3.15 5-1 9c0 0-.55-6.18 1.69-8.59l2.93 1.89s-3 4.87-1.15 8.22c0 0 .23-7.21 1.79-7.74a16.33 16.33 0 0 1 2.95 2.64s-2 3.53-.77 5.4c0 0 .77-4.79 1.41-4.82 0 0 2.55 3.18 2.81 5.36a10.29 10.29 0 0 0 -2.2-5.67 8.35 8.35 0 0 1 3.91 1.66s-.39-2.25-4.54-2.44c0 0-2.11-2.42-2.67-2.56 0 0 4.12-.29 6.62.63 0 0-2.2-2.12-7.38-1.16l-2.89-2s5.43-.62 7.73.06c0 0-2.65-1.87-8.51-.5l-3.14-1.57a34.29 34.29 0 0 1 7.37-.52s-2.9-1.3-8.3.1l-2.25-.82s3.39-.56 4.38-.64 1-.32 1-.32a14.13 14.13 0 0 0 -6.37.59s-4.64-1.44-4.56-1.71z" transform="translate(1069.96 279.27)"/><ellipse cx="198.11" cy="638.41" opacity=".1" rx="19.26" ry="2.7"/><path d="m-221.19 354.45s32.85-1.66 29 17.41a4.49 4.49 0 0 1 -2.92 4.91s-.06-1.42-3.37-.94a17.76 17.76 0 0 1 -3.52.17 8.27 8.27 0 0 1 -4.36-1.5s-9.24-3.16-12.83-15.67c0 0-2.66-2.73-2.55-3.43l5.54 2s-1.89 3.31-.4 6.08c0 0 .18-6 1.24-5.81.22 0 2.88 1.15 2.88 1.15s-3.26 5.8-.8 9.94c0 0-.93-7.11 1.82-9.55l3.9 1.89s-3.81 6-1.22 10.83c0 0-.67-7.46 2-10.37l3.54 2.29s-3.58 5.88-1.4 9.95c0 0 .29-8.69 2.17-9.35 0 0 3.09 2.26 3.56 3.19 0 0-2.45 4.27-.93 6.52 0 0 .93-5.8 1.7-5.8 0 0 3.08 3.84 3.4 6.46a12.36 12.36 0 0 0 -2.65-6.83 10.07 10.07 0 0 1 4.72 2s-.48-2.71-5.49-3c0 0-2.54-2.91-3.22-3.08 0 0 5-.35 8 .76 0 0-2.66-2.55-8.91-1.39l-3.49-2.36s6.55-.75 9.33.07c0 0-3.2-2.26-10.27-.61l-3.8-1.88a41.23 41.23 0 0 1 8.91-.64s-3.51-1.57-10 .13l-2.72-1s4.09-.67 5.29-.77 1.26-.38 1.26-.38a16.89 16.89 0 0 0 -7.68.7s-5.83-1.77-5.73-2.09z" transform="translate(1069.96 279.27)"/><ellipse cx="871.4" cy="657.74" opacity=".1" rx="23.25" ry="3.26"/></g><g transform="translate(1069.96 279.27)"><path d="m-253.92 153.18a49.8 49.8 0 0 1 -1.09-8.83c0-3.56-5.83-6.71-5.83-6.71s-3.6-6.91-6-7.93-9.81-10.05-9.81-10.05a7.44 7.44 0 0 0 -2.23-4.88 71.06 71.06 0 0 1 -6.07-7.59c-1-1-.5-1.73-2-7.62a7.72 7.72 0 0 0 -.28-.89 1 1 0 0 0 -.16-.38 8.78 8.78 0 0 0 2.83-10.3 4.15 4.15 0 0 0 -1.44-1.83c-1.69-1.14-4.39-.67-6.13-1.76l1.85-6.78c.44-1.66.67-3.75-1.08-4.65a10.3 10.3 0 0 0 -2.06-.57c-3-.83-4.74-3.46-5.52-6a17.15 17.15 0 0 1 -.6-7.46c.34-2.4 1.19-4.74 1.5-7.15a17.09 17.09 0 0 0 -3.67-12.72 11.15 11.15 0 0 0 -4.85-3.8c-1.85-.69-4-.83-5.73-1.66-3.72-2-3.53-6.63-6.5-9.31s-8.23-2.67-12.56-1.75-8.64 2.49-13.08 2.1c-2.86-.26-5.54-1.34-8.41-1.59a10.13 10.13 0 0 0 -2.46.09v-.06c-2.12.31-4.07 1.29-4.57 3a3.79 3.79 0 0 0 -.14 1.21c0 1 .28 2 .3 2.91a2.46 2.46 0 0 1 -.81 2c-.57.51-1.41.77-2 1.3a1.88 1.88 0 0 0 -.73 1.52c0 1.48 2.22 2.78 3.71 3.38h.06c-.4.33-.8.68-1.17 1a19.85 19.85 0 0 0 -6.6 14.58c.08 8.82 6.45 16.76 16.24 20.22l-.21.53a27.1 27.1 0 0 1 -1.47 3.14 8.83 8.83 0 0 0 -6.28.58c-2.86 1.66-8.45 1.52-9.94 1.22s-17-1.93-18.25-1.53-3.72-1.42-5.33 1-2.36 3.76-4 4.37-4.51 2.47-4.09 2.91-4.1 2.85-4.1 2.85-3.85 3.31-6.08 3.75-6.95 2.96-6.95 2.96l-5.47 3.55s-4.09.52-2.85-1.82-2.24-5.28-2.24-5.28-7-11.68-7-14.1-5.71-12.7-5.71-12.7l-.7-.06-.32-.75a72.2 72.2 0 0 0 -3.45-7.2c-2-3.36-3.23-3.71-3.23-3.71s-24.08-15-39.72-10.42 28.55 18.18 32.52 19.61c1.39.49 2.39 2.1 3.09 4a19.76 19.76 0 0 0 -8.55 6.38s9.56 17.57 9.81 21.94 6.63 16.56 6.63 16.56 2.36 9 15.14 8.53c0 0 17.63 2.68 21.48 0s7.32-4.79 9.19-5.1a7.42 7.42 0 0 0 3.47-2s-5.83 30.47-8.69 33.11-28.13 36.85-19.06 43a188.87 188.87 0 0 0 22.71 12.44c.77.31 3.08-2.88 6.38-5.14v1.76c.06 12.17 2 30.68 4.68 34.82 4 6.1 2.36 17.88 2.36 17.88a19.93 19.93 0 0 0 6.71 1.33c.12.4.26.83.39 1.25 2.19 6.85 5.74 17.46 7.55 20.27 2.73 4.27 4.71 17.79 4.71 17.79s1.62 13.26 1 15.13c-.24.7.81 6.22 2.46 13.26-1 9.53-2.9 27.89-3.22 34.53v.48a.89.89 0 0 1 0 .23v.4a5.33 5.33 0 0 0 .06 1.26 3.4 3.4 0 0 1 -.17 1.89 30.89 30.89 0 0 1 -2.69 5.32 23 23 0 0 0 -1.2 2.57 4.84 4.84 0 0 0 -2.9 3.41c-1.24 4-3.1 14.93-3.1 14.93s-.75 6.7-2.23 8.23-3 11.07 7.57 12.29 15.14-4.65 15.14-4.65l-.37-26.59v-.05a4.58 4.58 0 0 0 .55-.72v-.07c.07-.12.15-.26.22-.41l.09-.19.16-.33v-.11a14.75 14.75 0 0 0 .9-7.92v-1.12a2.64 2.64 0 0 1 .06-.55c.06-.28 0-.06 0-.1l.06-.32v-.14a.51.51 0 0 1 .08-.33v-.09c.1-.38.22-.83.35-1.19v-.09l.15-.4c.15-.42.32-.83.5-1.28v-.08c0-.13.11-.26.17-.39v-.05c.18-.4.37-.83.55-1.18l.05-.1.16-.34.05-.09.38-.74 2.93 7.5s1.62 5.59.75 6.91 1 6.8 2.23 6.9l-1.15 6.91a88.68 88.68 0 0 0 -1.11 11.48c-.08.44-.16.83-.22 1.1-.8 3.54 1.12 9 1.12 9 9.8 9.61 21.48.75 21.48.75s1.36-5.08 0-6.09-.75-4.68-.75-4.68.62-9 .74-15.64-6.51-12.44-6.51-12.44l-.37.27c-1.21-2.58-2.59-5.6-2.3-6.95.5-2.34-1.37-27-1.37-27a121.35 121.35 0 0 0 .44-19.9c.16-1.12.31-2.22.46-3.31.75-5.31 1.36-9.85 1.6-12.22v-.29a12.09 12.09 0 0 0 .08-1.31c0-.83 0-1.77.1-2.81.23-2.85.77-6 .77-6l2.6-13.11s2-6.4 4.85-10l.34-.45.34-.51.05-.08c.11-.17.23-.35.34-.54l.05-.08c.4-.65.83-1.41 1.28-2.24 0-.06.07-.12.1-.19l.34-.63c0-.08.08-.16.13-.25s.21-.42.32-.63.09-.17.13-.25l.4-.77.19-.39c.09-.19.19-.38.29-.57l.24-.5.19-.38.27-.57c0-.08.09-.17.13-.26.71-1.46 1.39-2.91 2-4.23l.55-1.2c6.36.33 10.68.62 10.68.62s2-11.88 1.36-19.7c-.42-5.34.78-12.06 1.57-15.75.09-.41.17-.77.25-1.11l.17.12c3.11 2 5.34-4.68 5.34-4.68s-.84-6.25-2-13.84l-.12-.76c1.79.32 3.61.55 5.43.69 0 0 1-.07 2.37-.21a72 72 0 0 0 11.95 4.43l6.61-10.11a40.22 40.22 0 0 1 4.35-6c2-2 9.06-8.54 8.94-9.75s2.36-8.24 4.84-11.39 3.46-9.47 3.34-9.98zm-27.56 7.72c-2.61.91-5.09 6-5.21 7.52s-2.86 8.23-5.71 9c-2.63.74-7.65 4.57-8.45 5.19-.82.06-1.75.15-2.72.28-1.09-6.41-2.17-11.72-2.86-12.78-2-3.06 2.19-12.81 2.19-12.81s.41-9.84 3-12.18 2-8.23 2-8.23.62-2.44.87-3.55 3.69 0 3.72 0 6.7 3 7.7 7.61 8.32 12.49 8.32 12.49-1.12 2.75 0 4.15-.24 2.41-2.85 3.31z" fill="url(#a)"/><path d="m-461 74.09c4.17-5.7 12.05-8.77 20-7.81v11.86h-8.69l-6.8-1.42z" fill="#4c4981"/><path d="m-461 74.09c4.17-5.7 12.05-8.77 20-7.81v11.86h-8.69l-6.8-1.42z" opacity=".1"/><path d="m-440.36 69.42-10.64 6.19s-.09-1.24-.36-2.93c-.53-3.2-1.72-8-4.29-8.93-3.91-1.42-47.44-15-32-19.57s39.13 10.4 39.13 10.4 1.22.35 3.17 3.69a78.77 78.77 0 0 1 3.4 7.2c.95 2.2 1.59 3.95 1.59 3.95z" fill="#ae6e79"/></g><path d="m714.69 358.22 1.21-.47 3.4 3.21-2.78 4.92-4.74-1.58 1.1-3.92z" fill="#4c4981"/><g transform="translate(1069.96 279.27)"><path d="m-371.39 366.89s-3.06-.3-4.28 3.65-3.06 14.93-3.06 14.93-.73 6.69-2.2 8.21-2.93 11.06 7.46 12.27 14.92-4.64 14.92-4.64l-.37-26.59z" fill="#444053"/><path d="m-335.13 368.08s6.54 5.81 6.42 12.39-.74 15.61-.74 15.61-.6 3.66.74 4.67 0 6.08 0 6.08-11.5 8.85-21.16-.74c0 0-1.88-5.48-1.1-9s3-19.4 3-19.4z" fill="#444053"/><path d="m-318.93 246.85s-6.6 15.3-9.42 18.85-4.76 9.95-4.76 9.95l-2.57 13.08a60.7 60.7 0 0 0 -.86 8.82c.12 2.94-6.36 45.82-6.36 45.82l-10.27 10.85s-4.52 7.6-3.79 10.78-.49 8.21-2 9.73c0 0-.24 9.95-.61 12.16s1.35 8.53 0 9.64-19.32.61-19.81-1.22 2.2-10.65 2.2-10.65l1.59-8.51s3.18-4.66 2.45-6.19 1.34-5.06 1.46-5.37 3.43-5.27 2.82-7.19 3.85-42.83 3.85-42.83l12.59-73.3z" fill="#ae6e79"/><path d="m-318.93 246.85s-1 2.3-2.37 5.33c-2.18 4.78-5.32 11.35-7.05 13.52-2.81 3.55-4.77 9.95-4.77 9.95l-2.57 13.08a61 61 0 0 0 -.85 8.82c0 1.17-.94 8.57-2.14 17.1-1.85 13-4.22 28.73-4.22 28.73l-10.27 10.85s-.52.83-1.17 2.14c-1.29 2.49-3.11 6.52-2.62 8.6.73 3.15-.49 8.21-2 9.74 0 0-.25 10-.61 12.16s1.35 8.51 0 9.63-19.32.62-19.81-1.21 2.2-10.64 2.2-10.64l1.59-8.53s3.18-4.65 2.44-6.18 1.35-5.07 1.47-5.37 3.43-5.28 2.82-7.2c-.47-1.47 2-25.48 3.15-36.88.39-3.58.64-5.91.64-5.91l10.83-63 .88-5.09.88-5.15z" opacity=".1"/><path d="m-329.93 399.32c.11 1.12-17.25 2.75-19.73 1.53s0-16.33 0-16.33l1.13-6.89c-1.21-.1-3.05-5.58-2.2-6.89s-.73-6.89-.73-6.89l-2.88-7.47-1.76-4.56c-2.86-5.23-7-20.16-9.57-31.3-1.62-7-2.65-12.51-2.42-13.22.61-1.82-1-15.1-1-15.1s-2-13.49-4.64-17.74c-1.79-2.82-5.28-13.41-7.44-20.24-1.1-3.51-1.86-6-1.86-6s18.48-1.28 29.69-1.73c5.15-.21 8.77-.23 8.35.12s-.53 2.2-.51 4.89c.05 7 1.22 19.19 2.46 22.48 1.71 4.56 3.42 18.24 2.69 19.57s-.49 10.14-.49 10.14a38.34 38.34 0 0 1 2.16 11 123.52 123.52 0 0 1 -.42 19.8s1.83 24.64 1.34 27 3.91 9.64 3.91 11.06 1.22 11.05 1.22 11.05 2.63 14.61 2.7 15.72z" fill="#ae6e79"/><path d="m-320.28 103.18-2.1 1.88-1.37 1.23-8 7.13-20.67 1.93-11-2.43-2.72-.61s0-4.58.49-10.06c.7-7 2.37-15.59 6.36-17.92a14 14 0 0 0 4.65-4.88 24.64 24.64 0 0 0 2-4.1c.08-.18.14-.36.21-.54a38.85 38.85 0 0 0 1.94-7.52s2.64-1.21 6.31-2.62c9.57-3.7 26.1-8.82 20.35 2.62a40.27 40.27 0 0 0 -2.17 5.14c-.09.26-.17.52-.24.77-1.92 6.36-.65 10.23.78 12.36a7.5 7.5 0 0 0 .83 1 6.34 6.34 0 0 0 1.39 1.17l2.38 12.53.2 1z" fill="#ae6e79"/><path d="m-323.82 67.91c-1.09 2.17.53-1.78 0 0-4.36 2.57-14.63 9.89-20.4 9.89-3.9 0-5.07-.59-8.41-1.84a39 39 0 0 0 2.15-8s34.61-15.87 26.66-.05z" opacity=".1"/><path d="m-315 54.58c0 11.31-10.31 20.79-23.87 22-.92.08-1.85.13-2.79.13-14.72 0-26.66-9.9-26.66-22.11s11.94-22.1 26.66-22.1 26.66 9.88 26.66 22.08z" fill="#ae6e79"/><path d="m-311.22 152.56-3.8 8.22s-3.09.1-7.91.23c-16.27.43-52.12 1-53.72-2.49a7.4 7.4 0 0 1 -.56-2.73c-.21-5.28 2.76-13.38 2.76-13.38s1.71-16.23 1.71-16.93-1.47-12.08-1.47-12.08l2.94-9.11 8.19-4.77s3.67 4.67 5.87 5.06 5.14 2.65 5.14 2.65 7.21 3.65 9.54 1.61 20.42-11 20.42-11l9.54 8.72z" opacity=".1"/><path d="m-311.22 153.82-3.78 8.18s-3.09.11-7.91.24h-.47c-2.08.06-4.46.12-7 .16-12.93.25-30.74.31-40.05-.83-3.5-.42-5.79-1-6.17-1.83a6.09 6.09 0 0 1 -.44-1.51 12.09 12.09 0 0 1 -.12-1.21c-.21-5.28 2.76-13.39 2.76-13.39s1.71-16.23 1.71-16.93-1.47-12.07-1.47-12.07l2.94-9.12 5.63-3.27 2.56-1.49a33.71 33.71 0 0 0 2.81 3.07 7.54 7.54 0 0 0 3.06 2c2.21.41 5.14 2.65 5.14 2.65s7.21 3.65 9.54 1.62c1.77-1.56 12.77-7.13 17.85-9.68 1.56-.79 2.57-1.28 2.57-1.28l1.28 1.18 8.26 7.54z" fill="#fff"/><path d="m-440.36 69.42-10.64 6.19s-.09-1.24-.36-2.93a20.31 20.31 0 0 0 9.36-7.21c1 2.2 1.64 3.95 1.64 3.95z" opacity=".1"/><path d="m-402.94 90.41-2.32-.51s-3.8 3.32-6 3.76-6.84 2.93-6.84 2.93l-5.39 3.55s-4 .51-2.81-1.82-2.2-5.32-2.2-5.32-6.85-11.65-6.85-14.09-5.65-12.63-5.65-12.63-7.1 11.46-20.06 7.81c0 0 9.42 17.54 9.66 21.9s6.48 16.52 6.48 16.52 2.33 9 14.92 8.52c0 0 17.37 2.68 21.16 0s7.21-4.78 9-5.09a7.48 7.48 0 0 0 3.42-2v-12.08z" fill="#4c4981"/><path d="m-424.71 101.86s3.06 9.44 1.1 10.45z" opacity=".1"/><path d="m-322.93 162.23c-16.27.43-52.12 1-53.72-2.49a7.4 7.4 0 0 1 -.56-2.73l53.15 2.32z" opacity=".1"/><path d="m-318.93 246.85s-1 2.3-2.37 5.33c-6.75-.34-15.69-.7-24.18-.75-3 0-5.94 0-8.72.09a78.09 78.09 0 0 0 -14.25 1.31 45 45 0 0 1 -12.7 1.36c-1.1-3.51-1.86-6-1.86-6s18.48-1.29 29.69-1.73l.88-5.16z" opacity=".1"/><path d="m-304.62 209.74-2.08 3.65s-.29 1.09-.66 2.81c-.78 3.71-2 10.41-1.54 15.75.61 7.81-1.35 19.67-1.35 19.67s-45-3.15-58.2 0-19.7 0-19.7 0 1.6-11.76-2.32-17.84c-2.67-4.15-4.55-22.65-4.61-34.82 0-5.62.34-9.87 1.19-10.73 2.69-2.74 14.18-30.11 14.18-30.11l2.62.11 7 .31 39.8 1.74 6.25.27.66 1.66z" fill="#444053"/><path d="m-284.81 197.57.37 3.25s-19.71-5.32-18.71-11.86 0-5.81 0-5.81l15.84 1.11z" fill="#4c4981"/><path d="m-284.81 197.57.37 3.25s-19.71-5.32-18.71-11.86 0-5.81 0-5.81l15.84 1.11z" opacity=".1"/><path d="m-411.56 104.48a19.17 19.17 0 0 0 6.94 3 5 5 0 0 1 -2-.83c-1.41-.83-2.75-1.73-4.11-2.61-1.1-.72-2.47-1.9-3.82-2.19a19.41 19.41 0 0 0 2.99 2.63z" opacity=".1"/><path d="m-411.26 108.75a7.42 7.42 0 0 1 1.52 2 10.14 10.14 0 0 1 -.11 6.28l-3.16-6.32a35.17 35.17 0 0 0 -1.76-3.18c-.29-.44-2.11-2.27-1.9-2.66.56-1.07 4.82 3.28 5.41 3.88z" opacity=".1"/><path d="m-323.09 143.74a11.22 11.22 0 0 0 5.75-2.23c-3.25.34-6.33 1.4-9.53 2a16.94 16.94 0 0 1 -8.88-.68c3.68 1.45 8.75 1.5 12.66.91z" opacity=".1"/><path d="m-332.28 125.18a2.61 2.61 0 0 1 -1.65-.34q-3.66-1.74-7.22-3.63a49.62 49.62 0 0 1 -7.07-4c4.85 3.58 9.37 6.65 15.94 7.97z" opacity=".1"/><path d="m-325.5 146.68a18.74 18.74 0 0 0 3.82-.25 5.3 5.3 0 0 0 3.14-1.71 2.09 2.09 0 0 0 -1.33.17 26.69 26.69 0 0 1 -12.28 1.22c1.99.71 4.54.56 6.65.57z" opacity=".1"/><path d="m-348.66 193.76a48.55 48.55 0 0 1 -7.81 1.27 60.69 60.69 0 0 1 -6.18-.1l-10-.53-5-.26c-.59 0-3 0-1.81-1 .6-.48 3.94-.17 4.8-.2 1.66 0 3.33-.07 5-.07 3.31 0 6.63 0 9.94.16 3.72.16 7.36.4 11.06.73z" opacity=".1"/><path d="m-360.25 197.86c-1.7-.06-3.89.78-5.64 1a44.69 44.69 0 0 1 -5.9.19 38.72 38.72 0 0 1 -11.37-1.92c7.63.28 15.28.47 22.91.73z" opacity=".1"/><path d="m-381.67 202.2a22.27 22.27 0 0 1 2.18.5c4.22 1 8.71.12 13-.76-1.07 1.33-3 1.91-4.93 2.27a27.4 27.4 0 0 1 -9.6.29c-1-.16-3.51-.46-4-1.33-.82-1.26 2.41-1.09 3.35-.97z" opacity=".1"/><path d="m-358 208.75a35.54 35.54 0 0 1 3.74.83c4.75 1 9.68-.37 14.45-1.27a81.24 81.24 0 0 1 17.48-1.31 20.47 20.47 0 0 0 -3.75 1c-1.35.34-2.72.66-4.09.94-2.69.55-5.42 1-8.17 1.32a101 101 0 0 1 -16.77.6c-2.56-.11-7 .1-9.19-1a11.9 11.9 0 0 1 6.3-1.11z" opacity=".1"/><path d="m-356.22 83.71s.22 9.29-1.59 13.59c-.58 1.33-1.48 3.78-2.46 6.52-1.07 3-2.24 6.45-3.14 9.12l-1.5 4.46s-4.13 27.89-5.2 41.18a2.76 2.76 0 0 1 -.06.7 23 23 0 0 1 -.31 2.33c-2.38 13.19-16.11 33.55-20.72 35.17a14.11 14.11 0 0 0 -3.88 2.22c0-5.62.34-9.87 1.19-10.73 2.69-2.74 14.18-30.11 14.18-30.11l2.62.11c-.06-.38-.1-.83-.12-1.22-.21-5.28 2.76-13.38 2.76-13.38s1.71-16.23 1.71-16.93-1.47-12.08-1.47-12.08l2.94-9.11 5.63-3.27c.7-7 2.37-15.59 6.36-17.92a13.87 13.87 0 0 0 4.65-4.88c.79.09-.65-.49-.65-.49z" opacity=".1"/><path d="m-354.07 78.48a8.54 8.54 0 0 0 -6.19.58c-2.82 1.65-8.32 1.51-9.79 1.22s-16.75-1.94-18-1.53-3.67-1.42-5.26 1-2.32 3.75-3.91 4.35-4.41 2.54-4 2.95-4 2.83-4 2.83l8.92 24s-5.7 30.47-8.56 33.12-27.76 36.8-18.83 42.89a183.67 183.67 0 0 0 22.38 12.43c1 .41 4.52-5.06 9.41-6.79s20.06-24.54 21-37.51 5.26-41.87 5.26-41.87 5.26-15.82 7.09-20.08 1.59-13.6 1.59-13.6z" fill="#4c4981"/><path d="m-304.62 209.74-2.08 3.65s-.29 1.09-.66 2.81a2.12 2.12 0 0 1 -1-.37c-3.06-2-21-17.34-21.89-30.93a203.8 203.8 0 0 1 -.13-22.51c.06-1.21.12-1.94.12-2.09s13.94-14 12.35-19-5.26-31.5-5.26-31.5l-.54-3.48-.93-5.89-2.22-14.24 2.3.45a6.3 6.3 0 0 0 1.39 1.16l2.38 12.53 8.26 7.55 1.35 45.93-3.8 8.2s-3.09.12-7.91.24h-.47z" opacity=".1"/><path d="m-296.92 133.92s-3.42-1.12-3.66 0-.86 3.54-.86 3.54.61 5.89-2 8.22-3 12.16-3 12.16-4.12 9.74-2.17 12.78c.71 1.1 1.81 6.63 2.91 13.26.7 4.15 1.39 8.7 2 12.86 1.11 7.56 1.94 13.82 1.94 13.82s-2.21 6.69-5.27 4.66-21-17.33-21.88-30.92a203.49 203.49 0 0 1 -.16-21.92c.08-1.74.16-2.71.16-2.71s13.94-14 12.35-19-5.26-31.51-5.26-31.51l-.64-4.1-.69-4.41-.16-1-2.21-14.1c.39.08 14.11 2.65 15.92 4.15s13 3.65 13 3.65a9 9 0 0 1 6.94 5.9 7.71 7.71 0 0 1 .27.89c1.47 5.88 1 6.59 2 7.61s-9.53 26.17-9.53 26.17z" fill="#4c4981"/><path d="m-303.62 196.73c-5-.83-12.42-2.74-12.25-7 .15-3.95 5.89-5.38 10.24-5.89.7 4.16 1.39 8.73 2.01 12.89z" opacity=".1"/><path d="m-288.11 194.63c-.2.35-1 .66-2.14.93a68.79 68.79 0 0 1 -8.13 1.11s-17-1.12-16.76-7.51c.18-4.59 7.86-5.81 12.17-6.08 1-.08 1.91-.11 2.87-.1 0 .02 12.72 10.34 11.99 11.65z" fill="#ae6e79"/><path d="m-288.11 194.63c-.2.35-1 .66-2.14.93-4.43-4.91-10.61-11.22-13.64-11.78l.92-.7c1-.08 1.91-.11 2.87-.1 0 .02 12.72 10.34 11.99 11.65z" opacity=".1"/><path d="m-292.39 107.14 5 .61a72 72 0 0 0 6 7.6 7.51 7.51 0 0 1 2.2 4.87s7.34 9 9.66 10 5.87 7.91 5.87 7.91 5.75 3.14 5.75 6.69a49.59 49.59 0 0 0 1.1 8.82c.13.51-.85 6.8-3.3 10s-4.9 10.1-4.77 11.34-6.85 7.71-8.8 9.74a40.16 40.16 0 0 0 -4.28 6l-6.48 10.14s-13.7-16.73-18.71-17.64c0 0 5.62-4.46 8.43-5.27s5.51-7.47 5.63-9 2.57-6.6 5.13-7.47 3.92-1.82 2.82-3.25 0-4.14 0-4.14-7.22-7.91-8.2-12.44-7.58-7.6-7.58-7.6l-3.79-7.71z" fill="#4c4981"/><path d="m-274.2 145a18 18 0 0 1 9.87-3.1c-2.32.33-4.76.76-6.46 2.1a12.75 12.75 0 0 0 -1.79 1.89c-.58.69-5.3 5.66-6 4.88-1.17-1.18 3.43-5.12 4.38-5.77z" opacity=".1"/><path d="m-285.28 140.18a4.27 4.27 0 0 0 3.49-2 9.8 9.8 0 0 0 1.09-3.6 45.36 45.36 0 0 1 1.51-6.16 2.43 2.43 0 0 0 -.21-2.49 7.79 7.79 0 0 0 -1.08-1.84c-.9.83-1.16 2.76-1.53 3.87-.46 1.38-.88 2.76-1.28 4.15-.21.62-1.87 8.07-1.99 8.07z" opacity=".1"/><path d="m-289.61 99.25a9.5 9.5 0 0 1 -1.69 1.45c-2 1.31-4.65 2.42-4.9 4.51a4 4 0 0 1 -.3 2c-.64.92-2.21.83-3.46.66a6.84 6.84 0 0 1 -2.93-.9c-1.31-.93-1.43-2.58-2.43-3.75a6.75 6.75 0 0 0 -5-1.83c-1.87 0-3.73.29-5.6.36a18.72 18.72 0 0 1 -3.59-.2c-.39-.05-.78-.12-1.16-.2a17 17 0 0 1 -2.44-.69 12.2 12.2 0 0 1 -1.19-.46 16.08 16.08 0 0 1 -3.45-2c-1.83-1.39-3.35-3.32-3.2-5.38.09-1.27.78-2.44 1-3.69.75-3.58-2.12-7-5.23-9.53-1.24-1-2.56-2-3.8-3a15.6 15.6 0 0 1 -4.47-5.29 13.22 13.22 0 0 1 -.8-6.63 37.89 37.89 0 0 0 .23-6.82c-.92-8-9.22-14.23-17.52-17.59l-.37-.16c9.67-9.2 26.5-10.15 37.6-2.14s12.25 22 2.59 31.17a26 26 0 0 1 -4.34 3.31c-.09.25-.17.51-.24.76-1.92 6.37-.65 10.23.78 12.36.39.08 14.11 2.65 15.92 4.15s13 3.64 13 3.64a9 9 0 0 1 6.99 5.89z" opacity=".1"/><path d="m-363.67 34.23c.55-.52 1.38-.79 1.94-1.29 1.73-1.56 0-4.11.63-6.16.68-2.28 4.06-3.28 6.88-3s5.46 1.32 8.28 1.59c4.38.4 8.62-1.17 12.89-2.09s9.43-1 12.37 1.74 2.74 7.33 6.4 9.29c1.69.9 3.82 1 5.65 1.66a11 11 0 0 1 4.78 3.79 17.22 17.22 0 0 1 3.62 12.69c-.31 2.41-1.15 4.74-1.49 7.15a17.48 17.48 0 0 0 .6 7.46c.77 2.49 2.44 5.17 5.43 6a10.42 10.42 0 0 1 2 .57c1.73.9 1.5 3 1.06 4.64l-1.78 6.73c1.71 1.08 4.37.61 6 1.75a4.1 4.1 0 0 1 1.4 1.82c1.65 3.9.22 8.23-3.59 10.9-2 1.31-4.65 2.43-4.9 4.5a4 4 0 0 1 -.3 2c-.63.91-2.21.83-3.46.65a6.88 6.88 0 0 1 -2.92-.89c-1.32-.93-1.43-2.59-2.43-3.76a6.79 6.79 0 0 0 -5-1.83c-1.88-.05-3.73.3-5.61.37a18.72 18.72 0 0 1 -11.78-3.51c-1.84-1.4-3.35-3.32-3.21-5.39.09-1.26.78-2.44 1-3.69.74-3.57-2.12-7-5.23-9.52s-6.76-4.93-8.28-8.34c-1.9-4.22-.06-8.93-.57-13.4-.92-8.07-9.21-14.24-17.52-17.6-1.86-.8-5.01-2.8-2.86-4.83z" fill="#444053"/><path d="m-298.27 103.85c-1.32-.93-1.43-2.58-2.43-3.75a6.84 6.84 0 0 0 -5-1.84c-1.88-.05-3.74.3-5.61.37a18.66 18.66 0 0 1 -11.83-3.54c-1.84-1.39-3.34-3.32-3.2-5.38.09-1.27.78-2.45 1-3.69.75-3.58-2.12-7-5.23-9.53s-6.75-4.93-8.28-8.34c-1.89-4.21 0-8.92-.56-13.4-.93-8.07-9.22-14.24-17.52-17.6-1.94-.79-5.09-2.79-2.94-4.82.54-.52 1.37-.79 1.93-1.29 1.73-1.55 0-4.11.64-6.15a3.13 3.13 0 0 1 .63-1.14c-2.09.32-4 1.3-4.51 3-.61 2.06 1.1 4.6-.63 6.16-.56.51-1.39.77-1.94 1.29-2.15 2 1 4 2.94 4.81 8.31 3.37 16.6 9.54 17.52 17.6.51 4.49-1.33 9.2.57 13.42 1.52 3.4 5.17 5.8 8.28 8.33s6 5.94 5.23 9.52a28.81 28.81 0 0 0 -1 3.69c-.14 2.07 1.37 4 3.21 5.38a18.61 18.61 0 0 0 11.82 3.54c1.88-.07 3.73-.41 5.61-.37a6.84 6.84 0 0 1 5 1.84c1 1.17 1.11 2.83 2.43 3.76a6.73 6.73 0 0 0 2.92.88c1.25.2 2.83.26 3.46-.64a1.9 1.9 0 0 0 .28-1.2 6.44 6.44 0 0 1 -2.79-.91z" opacity=".1"/><g fill="#f9c03f"><path d="m-443.84 54.58h-69.16v-56.51h69.22zm-1-85.2h-67.16c0-87.81 100.68-82.68 100.68-138.24 0-30.6-30.21-55.11-67.12-55.11s-67.11 26.43-67.11 56h-67.12c-.13-61.35 59.76-111.17 133.77-111.28h.46c74.14 0 134.23 49 134.23 110.41 0 69.47-100.67 77.38-100.67 138.24z"/><path d="m-350.77-25.55h-7.31v-6h7.31zm-.11-9h-7.12c0-9.27 10.63-8.73 10.63-14.6 0-3.21-3.13-5.8-7-5.8h-.08c-3.9.06-7 2.68-7.09 5.91h-7.09c.18-6.49 6.67-11.64 14.5-11.49 7.53.14 13.62 5.15 13.85 11.4.03 7.29-10.6 8.13-10.6 14.59z" opacity=".1"/><path d="m-239 246h-7.31v-6h7.31zm-.11-9h-7.09c0-9.28 10.64-8.73 10.64-14.6 0-3.22-3.2-5.82-7.09-5.8s-7 2.68-7.09 5.91h-7.09c.18-6.49 6.67-11.64 14.5-11.49 7.53.14 13.62 5.15 13.85 11.4 0 7.32-10.59 8.16-10.59 14.58z" opacity=".1"/></g></g></svg>