<?xml version="1.0" encoding="utf-8"?>
<!-- Generator: Adobe Illustrator 23.0.1, SVG Export Plug-In . SVG Version: 6.00 Build 0)  -->
<svg version="1.1" id="Layer_1" xmlns="http://www.w3.org/2000/svg" xmlns:xlink="http://www.w3.org/1999/xlink" x="0px" y="0px"
	 viewBox="0 0 1003.9 836.8" style="enable-background:new 0 0 1003.9 836.8;" xml:space="preserve">
<style type="text/css">
	.st0{opacity:0.1;fill:#F9C03F;enable-background:new    ;}
	.st1{opacity:0.6;fill:#F9C03F;enable-background:new    ;}
	.st2{fill:#F9C03F;}
	.st3{fill:url(#SVGID_1_);}
	.st4{fill:#4C4981;}
	.st5{opacity:0.1;enable-background:new    ;}
	.st6{fill:#AE6E79;}
	.st7{fill:#444053;}
	.st8{fill:#FFFFFF;}
</style>
<title>questions</title>
<ellipse class="st0" cx="-356.5" cy="439.4" rx="102.6" ry="8.8"/>
<path class="st1" d="M-630.4-268.6c45.2-14.6,100.2-2,147.1,16.3C-335.8-194.9-228.4-85.7-143,25.6c30.9,40.3,60.3,82.3,71.9,127.3
	c23.7,91.5-38.1,186.2-143,219.4c-35.7,11.3-74.9,15.9-114.2,18.5c-69.8,4.6-142.1,2.8-211.4-14.3c-49.4-12.2-96.1-31.7-141-53.4
	c-125.2-60.4-239.5-138.9-321.8-234.8c-36.1-42-66.6-89.5-67.5-138s35.5-97.3,95.3-105.5c24.7-3.4,50.9,0.1,76.4,3.8
	c37.6,5.4,75.7,11,112.9,8.7c38.4-2.4,88.3-15.5,95.3-47.3C-682.6-224.2-675.5-254.1-630.4-268.6z"/>
<path class="st2" d="M-825.9,389.1c0,0,48.3-2.5,42.6,26.9c0,0,1.1,5.2-4.3,7.6c0,0-0.1-2.2-5-1.4c-1.7,0.3-3.5,0.3-5.2,0.2
	c-2.4-0.1-4.6-1-6.4-2.3l0,0c0,0-13.6-4.9-18.8-24.1c0,0-3.9-4.2-3.8-5.3l8.1,3c0,0-2.8,5.1-0.6,9.4c0,0,0.3-9.2,1.8-9
	c0.3,0,4.2,1.7,4.2,1.7s-4.8,8.9-1.2,15.4c0,0-1.4-11,2.7-14.7l5.7,2.9c0,0-5.6,9.2-1.8,16.7c0,0-1-11.5,3-16l5.2,3.5
	c0,0-5.3,9.1-2,15.3c0,0,0.4-13.4,3.2-14.4c0,0,4.5,3.5,5.2,4.9c0,0-3.6,6.6-1.4,10c0,0,1.4-8.9,2.5-9c0,0,4.5,5.9,5,10
	c0,0-0.2-6-3.9-10.5c0,0,4.4,0.7,6.9,3.1c0,0-0.7-4.2-8-4.5c0,0-3.7-4.5-4.8-4.8c0,0,7.3-0.5,11.7,1.2c0,0-3.9-3.9-13.1-2.2
	l-5.1-3.6c0,0,9.6-1.1,13.7,0.1c0,0-4.7-3.5-15.1-0.9l-5.6-2.9c0,0,8.2-1.5,13.1-1c0,0-5.2-2.4-14.7,0.2l-4-1.6c0,0,6-1,7.8-1.2
	c1.8-0.2,1.8-0.6,1.8-0.6c-3.8-0.6-7.7-0.2-11.3,1.1C-817.6,392.2-826.1,389.6-825.9,389.1z"/>
<ellipse class="st0" cx="-792.7" cy="426.1" rx="34.2" ry="5"/>
<path class="st2" d="M-890.6,369.3c0,0,27.2-1.4,24,15.2c0.3,1.7-0.6,3.4-2.4,4.3c0,0,0-1.2-2.8-0.8c-1,0.1-2,0.2-3,0.1
	c-1.3-0.1-2.6-0.5-3.6-1.3l0,0c0,0-7.6-2.8-10.6-13.6c0,0-2.2-2.4-2.1-3l4.6,1.7c0,0-1.6,2.9-0.3,5.3c0,0,0.2-5.2,1-5.1
	c0.2,0,2.4,1,2.4,1s-2.7,5-0.7,8.7c0,0-0.8-6.2,1.5-8.3l3.2,1.6c0,0-3.1,5.2-1,9.4c0,0-0.5-6.5,1.7-9l2.9,2c0,0-3,5.1-1.1,8.6
	c0,0,0.2-7.6,1.8-8.1c0,0,2.6,2,3,2.8c0,0-2,3.7-0.8,5.7c0,0,0.8-5,1.4-5.1c0,0,2.5,3.3,2.8,5.6c-0.1-2.1-0.9-4.2-2.2-5.9
	c1.5,0.2,2.8,0.8,3.9,1.7c0,0-0.4-2.4-4.5-2.6c0,0-2.1-2.5-2.7-2.7c0,0,4.1-0.3,6.6,0.7c0,0-2.2-2.2-7.4-1.2l-2.9-2.1
	c0,0,5.4-0.6,7.7,0.1c0,0-2.6-2-8.5-0.5l-3.1-1.6c2.4-0.5,4.9-0.6,7.4-0.5c0,0-2.9-1.4-8.3,0.1l-2.2-0.9c0,0,3.4-0.6,4.4-0.7
	s1-0.3,1-0.3c-2.1-0.3-4.4-0.1-6.4,0.6C-885.9,371.1-890.7,369.6-890.6,369.3z"/>
<ellipse class="st0" cx="-871.9" cy="390.1" rx="19.3" ry="2.8"/>
<path class="st2" d="M-221.2,385.2c0,0,32.8-1.7,29,18.3c0.4,2.1-0.8,4.2-2.9,5.1c0,0-0.1-1.5-3.4-1c-1.2,0.2-2.4,0.2-3.6,0.1
	c-1.6-0.1-3.1-0.6-4.4-1.6l0,0c0,0-9.2-3.3-12.8-16.4c0,0-2.7-2.9-2.5-3.6l5.5,2.1c0,0-1.9,3.5-0.4,6.4c0,0,0.2-6.2,1.2-6.1
	c0.2,0,2.9,1.2,2.9,1.2s-3.3,6.1-0.8,10.4c0,0-0.9-7.5,1.8-10l3.9,2c0,0-3.8,6.3-1.2,11.4c0,0-0.7-7.8,2-10.9l3.5,2.4
	c0,0-3.6,6.2-1.4,10.4c0,0,0.3-9.1,2.2-9.8c0,0,3.1,2.4,3.6,3.3c0,0-2.5,4.5-0.9,6.8c0,0,0.9-6.1,1.7-6.1c0,0,3.1,4,3.4,6.8
	c-0.1-2.5-1.1-5-2.7-7.2c1.8,0.3,3.4,1,4.7,2.1c0,0-0.5-2.8-5.5-3.1c0,0-2.5-3.1-3.2-3.2c0,0,5-0.4,8,0.8c0,0-2.7-2.7-8.9-1.5
	l-3.5-2.5c0,0,6.5-0.8,9.3,0.1c0,0-3.2-2.4-10.3-0.6l-3.8-2c0,0,5.6-1,8.9-0.7c0,0-3.5-1.6-10,0.1l-2.7-1.1c0,0,4.1-0.7,5.3-0.8
	c1.2-0.1,1.3-0.4,1.3-0.4c-2.6-0.4-5.2-0.1-7.7,0.7C-215.5,387.4-221.3,385.5-221.2,385.2z"/>
<ellipse class="st0" cx="-198.6" cy="410.4" rx="23.2" ry="3.4"/>
<linearGradient id="SVGID_1_" gradientUnits="userSpaceOnUse" x1="-274.7579" y1="362.3164" x2="-274.7579" y2="769.6366" gradientTransform="matrix(1 0 0 -1 -98.04 806.2798)">
	<stop  offset="0" style="stop-color:#808080;stop-opacity:0.25"/>
	<stop  offset="0.54" style="stop-color:#808080;stop-opacity:0.12"/>
	<stop  offset="1" style="stop-color:#808080;stop-opacity:0.1"/>
</linearGradient>
<path class="st3" d="M-253.9,174.2c-0.6-3.1-1-6.2-1.1-9.3c0-3.7-5.8-7-5.8-7s-3.6-7.2-6-8.3s-9.8-10.5-9.8-10.5
	c-0.1-1.9-0.9-3.7-2.2-5.1c-2.2-2.5-4.2-5.2-6.1-8l0,0c-1-1.1-0.5-1.8-2-8c-0.1-0.3-0.2-0.6-0.3-0.9c0-0.1-0.1-0.3-0.2-0.4
	c3.2-2.8,4.3-7,2.8-10.8c-0.3-0.7-0.8-1.4-1.4-1.9c-1.7-1.2-4.4-0.7-6.1-1.8l1.8-7.1c0.4-1.7,0.7-3.9-1.1-4.9
	c-0.7-0.3-1.3-0.5-2.1-0.6c-3-0.9-4.7-3.6-5.5-6.3c-0.7-2.6-1-5.2-0.6-7.8c0.3-2.5,1.2-5,1.5-7.5c0.6-4.7-0.7-9.4-3.7-13.3
	c-1.1-1.7-2.8-3.1-4.8-4c-1.8-0.7-4-0.9-5.7-1.7c-3.7-2.1-3.5-7-6.5-9.8c-3-2.8-8.2-2.8-12.6-1.8s-8.6,2.6-13.1,2.2
	c-2.9-0.3-5.5-1.4-8.4-1.7c-0.8-0.1-1.6,0-2.5,0.1v-0.1c-2.1,0.3-4.1,1.4-4.6,3.1c-0.1,0.4-0.2,0.8-0.1,1.3c0,1,0.3,2.1,0.3,3.1
	c0.1,0.8-0.2,1.6-0.8,2.1c-0.6,0.5-1.4,0.8-2,1.4c-0.5,0.4-0.8,1-0.7,1.6c0,1.5,2.2,2.9,3.7,3.5h0.1c-0.4,0.3-0.8,0.7-1.2,1.1
	c-4.3,4.2-6.6,9.6-6.6,15.2c0.1,9.2,6.5,17.6,16.2,21.2l-0.2,0.6c-0.4,1.1-0.9,2.2-1.5,3.3c-2.1-0.6-4.4-0.4-6.3,0.6
	c-2.9,1.7-8.5,1.6-9.9,1.3s-17-2-18.2-1.6c-1.2,0.4-3.7-1.5-5.3,1.1s-2.4,3.9-4,4.6s-4.5,2.7-4.1,3.1s-4.1,3-4.1,3s-3.8,3.5-6.1,3.9
	s-7,3.1-7,3.1l-5.5,3.7c0,0-4.1,0.5-2.8-1.9c1.2-2.5-2.2-5.5-2.2-5.5s-7-12.2-7-14.8s-5.7-13.3-5.7-13.3l-0.7-0.1l-0.3-0.8
	c-1-2.6-2.4-5.7-3.5-7.6c-2-3.5-3.2-3.9-3.2-3.9s-24.1-15.7-39.7-10.9s28.5,19.1,32.5,20.6c1.4,0.5,2.4,2.2,3.1,4.2
	c-3.5,1.5-6.5,3.8-8.5,6.7c0,0,9.6,18.4,9.8,23s6.6,17.4,6.6,17.4s2.4,9.5,15.1,8.9c0,0,17.6,2.8,21.5,0c3.8-2.8,7.3-5,9.2-5.3
	c1.4-0.4,2.6-1.1,3.5-2.1c0,0-5.8,31.9-8.7,34.7s-28.1,38.6-19.1,45.1c7.2,4.8,14.8,9.2,22.7,13c0.8,0.3,3.1-3,6.4-5.4
	c0,0.6,0,1.2,0,1.9c0.1,12.8,2,32.2,4.7,36.5c4,6.4,2.4,18.7,2.4,18.7c2.1,0.9,4.4,1.3,6.7,1.4c0.1,0.4,0.3,0.9,0.4,1.3
	c2.2,7.2,5.7,18.3,7.5,21.3c2.7,4.5,4.7,18.6,4.7,18.6s1.6,13.9,1,15.9c-0.2,0.7,0.8,6.5,2.5,13.9l0,0c-1,10-2.9,29.2-3.2,36.2l0,0
	c0,0.1,0,0.3,0,0.4v0.1c0,0.1,0,0.2,0,0.2c0,0.2,0,0.3,0,0.4l0,0c0,0.4,0,0.9,0.1,1.3c0.1,0.7,0.1,1.3-0.2,2
	c-0.7,1.9-1.6,3.8-2.7,5.6c-0.5,0.9-0.9,1.8-1.2,2.7c-1,0.4-2.2,1.3-2.9,3.6c-1.2,4.2-3.1,15.6-3.1,15.6s-0.8,7-2.2,8.6
	s-3,11.6,7.6,12.9c10.6,1.3,15.1-4.9,15.1-4.9l-0.4-27.9v-0.1c0.2-0.2,0.4-0.5,0.5-0.8v-0.1c0.1-0.1,0.2-0.3,0.2-0.4l0.1-0.2
	l0.2-0.3c0,0,0-0.1,0-0.1c1-2.7,1.3-5.5,0.9-8.3v-0.1v-0.2c0-0.1,0-0.1,0-0.2V395c0-0.1,0-0.1,0-0.2c0-0.2,0-0.4,0.1-0.6
	c0.1-0.3,0-0.1,0-0.1l0.1-0.3v-0.1c0-0.1,0-0.2,0.1-0.3c0,0,0-0.1,0-0.1c0.1-0.4,0.2-0.9,0.3-1.3v-0.1l0.2-0.4l0,0
	c0.2-0.4,0.3-0.9,0.5-1.3v-0.1c0-0.1,0.1-0.3,0.2-0.4v-0.1c0.2-0.4,0.4-0.9,0.5-1.2l0-0.1l0.2-0.3l0-0.1l0.4-0.8l0,0l2.9,7.9
	c0,0,1.6,5.9,0.8,7.2s1,7.1,2.2,7.2l-1.2,7.2c-0.6,4-1,8-1.1,12c-0.1,0.5-0.2,0.9-0.2,1.1c-0.8,3.7,1.1,9.5,1.1,9.5
	c9.8,10.1,21.5,0.8,21.5,0.8s1.4-5.3,0-6.4c-1.4-1.1-0.8-4.9-0.8-4.9s0.6-9.5,0.7-16.4s-6.5-13-6.5-13l-0.4,0.3
	c-1.2-2.7-2.6-5.9-2.3-7.3c0.5-2.5-1.4-28.3-1.4-28.3c0.7-6.9,0.8-13.9,0.4-20.9l0,0c0.2-1.2,0.3-2.3,0.5-3.5
	c0.8-5.6,1.4-10.3,1.6-12.8l0,0v-0.3c0.1-0.7,0.1-1.1,0.1-1.4c0-0.9,0-1.9,0.1-2.9c0.2-3,0.8-6.3,0.8-6.3l2.6-13.7
	c0,0,2-6.7,4.8-10.4l0.3-0.5l0,0c0.1-0.2,0.2-0.3,0.3-0.5l0-0.1c0.1-0.2,0.2-0.4,0.3-0.6l0-0.1c0.4-0.7,0.8-1.5,1.3-2.3
	c0-0.1,0.1-0.1,0.1-0.2l0.3-0.7c0-0.1,0.1-0.2,0.1-0.3s0.2-0.4,0.3-0.7c0-0.1,0.1-0.2,0.1-0.3c0.1-0.3,0.3-0.5,0.4-0.8l0.2-0.4
	c0.1-0.2,0.2-0.4,0.3-0.6l0.2-0.5c0.1-0.1,0.1-0.3,0.2-0.4l0.3-0.6c0-0.1,0.1-0.2,0.1-0.3c0.7-1.5,1.4-3.1,2-4.4l0,0
	c0.2-0.4,0.4-0.9,0.5-1.3c6.4,0.3,10.7,0.6,10.7,0.6s2-12.5,1.4-20.7c-0.4-5.6,0.8-12.6,1.6-16.5c0.1-0.4,0.2-0.8,0.2-1.2l0.2,0.1
	c3.1,2.1,5.3-4.9,5.3-4.9s-0.8-6.6-2-14.5l-0.1-0.8c1.8,0.3,3.6,0.6,5.4,0.7c0,0,1-0.1,2.4-0.2c3.8,1.9,7.8,3.5,11.9,4.7l6.6-10.6
	c1.2-2.2,2.7-4.3,4.3-6.3c2-2.1,9.1-8.9,8.9-10.2s2.4-8.6,4.8-11.9C-254.8,181.3-253.8,174.7-253.9,174.2z M-281.5,182.3
	c-2.6,1-5.1,6.3-5.2,7.9s-2.9,8.6-5.7,9.5c-2.6,0.8-7.7,4.8-8.5,5.4c-0.8,0.1-1.8,0.2-2.7,0.3c-1.1-6.7-2.2-12.3-2.9-13.4
	c-2-3.2,2.2-13.4,2.2-13.4s0.4-10.3,3-12.8c2.6-2.5,2-8.6,2-8.6s0.6-2.6,0.9-3.7c0.2-1.2,3.7,0,3.7,0l0,0c0,0,6.7,3.2,7.7,8
	s8.3,13.1,8.3,13.1s-1.1,2.9,0,4.3S-278.9,181.3-281.5,182.3z"/>
<path class="st4" d="M-461,91.2c4.2-6,12-9.2,20-8.2v12.4h-8.7l-6.8-1.5L-461,91.2z"/>
<path class="st5" d="M-461,91.2c4.2-6,12-9.2,20-8.2v12.4h-8.7l-6.8-1.5L-461,91.2z"/>
<path class="st6" d="M-440.4,86.4l-10.7,6.5c0,0-0.1-1.3-0.4-3.1c-0.5-3.4-1.7-8.4-4.3-9.4c-3.9-1.5-47.4-15.7-32-20.5
	s39.1,10.9,39.1,10.9s1.2,0.4,3.2,3.9c1,1.8,2.4,5,3.4,7.5C-441,84.5-440.4,86.4-440.4,86.4z"/>
<polygon class="st4" points="-355.3,96.3 -354.1,95.8 -350.7,99.2 -353.4,104.4 -358.2,102.7 -357.1,98.6 "/>
<path class="st7" d="M-371.4,398.3c0,0-3.1-0.3-4.3,3.8s-3.1,15.6-3.1,15.6s-0.7,7-2.2,8.6s-2.9,11.6,7.5,12.9s14.9-4.9,14.9-4.9
	l-0.4-27.9L-371.4,398.3z"/>
<path class="st7" d="M-335.1,399.5c0,0,6.5,6.1,6.4,13c-0.1,6.9-0.7,16.4-0.7,16.4s-0.6,3.8,0.7,4.9s0,6.4,0,6.4s-11.5,9.3-21.2-0.8
	c0,0-1.9-5.7-1.1-9.4s3-20.4,3-20.4L-335.1,399.5z"/>
<path class="st6" d="M-318.9,272.4c0,0-6.6,16-9.4,19.8s-4.8,10.4-4.8,10.4l-2.6,13.7c-0.5,3.1-0.8,6.2-0.9,9.2
	c0.1,3.1-6.4,48-6.4,48l-10.3,11.4c0,0-4.5,8-3.8,11.3s-0.5,8.6-2,10.2c0,0-0.2,10.4-0.6,12.8c-0.4,2.3,1.3,8.9,0,10.1
	c-1.3,1.2-19.3,0.6-19.8-1.3c-0.5-1.9,2.2-11.2,2.2-11.2l1.6-8.9c0,0,3.2-4.9,2.5-6.5s1.3-5.3,1.5-5.6c0.1-0.3,3.4-5.5,2.8-7.5
	s3.8-44.9,3.8-44.9l12.6-76.9L-318.9,272.4z"/>
<path class="st5" d="M-318.9,272.4c0,0-1,2.4-2.4,5.6c-2.2,5-5.3,11.9-7,14.2c-2.8,3.7-4.8,10.4-4.8,10.4l-2.6,13.7
	c-0.5,3.1-0.8,6.2-0.8,9.2c0,1.2-0.9,9-2.1,17.9c-1.8,13.7-4.2,30.1-4.2,30.1l-10.3,11.4c0,0-0.5,0.9-1.2,2.2
	c-1.3,2.6-3.1,6.8-2.6,9c0.7,3.3-0.5,8.6-2,10.2c0,0-0.2,10.4-0.6,12.8s1.3,8.9,0,10.1c-1.3,1.2-19.3,0.6-19.8-1.3
	c-0.5-1.9,2.2-11.2,2.2-11.2l1.6-8.9c0,0,3.2-4.9,2.4-6.5s1.3-5.3,1.5-5.6c0.1-0.3,3.4-5.5,2.8-7.5c-0.5-1.5,2-26.7,3.2-38.7
	c0.4-3.8,0.6-6.2,0.6-6.2l10.8-66.1l0.9-5.3l0.9-5.4L-318.9,272.4z"/>
<path class="st6" d="M-329.9,432.3c0.1,1.2-17.2,2.9-19.7,1.6c-2.5-1.3,0-17.1,0-17.1l1.1-7.2c-1.2-0.1-3-5.9-2.2-7.2
	c0.8-1.4-0.7-7.2-0.7-7.2l-2.9-7.8l-1.8-4.8c-2.9-5.5-7-21.1-9.6-32.8c-1.6-7.3-2.7-13.1-2.4-13.9c0.6-1.9-1-15.8-1-15.8
	s-2-14.1-4.6-18.6c-1.8-3-5.3-14.1-7.4-21.2c-1.1-3.7-1.9-6.3-1.9-6.3s18.5-1.3,29.7-1.8c5.2-0.2,8.8-0.2,8.3,0.1
	c-0.4,0.4-0.5,2.3-0.5,5.1c0,7.3,1.2,20.1,2.5,23.6c1.7,4.8,3.4,19.1,2.7,20.5s-0.5,10.6-0.5,10.6c1.3,3.8,2,7.6,2.2,11.5
	c0.4,6.9,0.3,13.9-0.4,20.8c0,0,1.8,25.8,1.3,28.3s3.9,10.1,3.9,11.6c0,1.5,1.2,11.6,1.2,11.6S-330,431.1-329.9,432.3z"/>
<path class="st6" d="M-320.3,121.7l-2.1,2l-1.4,1.3l-8,7.5l-20.7,2l-11-2.6l-2.7-0.6c0,0,0-4.8,0.5-10.6c0.7-7.4,2.4-16.3,6.4-18.8
	c2-1.4,3.6-3.1,4.7-5.1c0.8-1.4,1.5-2.8,2-4.3c0.1-0.2,0.1-0.4,0.2-0.6c0.9-2.6,1.5-5.2,1.9-7.9c0,0,2.6-1.3,6.3-2.7
	c9.6-3.9,26.1-9.2,20.3,2.7c-0.8,1.8-1.6,3.6-2.2,5.4c-0.1,0.3-0.2,0.5-0.2,0.8c-1.9,6.7-0.7,10.7,0.8,13l0,0
	c0.2,0.4,0.5,0.8,0.8,1.1c0.4,0.5,0.9,0.9,1.4,1.2l2.4,13.1l0.2,1.1L-320.3,121.7z"/>
<path class="st5" d="M-323.8,84.8C-324.9,87-323.3,82.9-323.8,84.8c-4.4,2.7-14.6,10.4-20.4,10.4c-3.9,0-5.1-0.6-8.4-1.9
	c1-2.8,1.7-5.6,2.2-8.4C-350.5,84.8-315.9,68.2-323.8,84.8z"/>
<path class="st6" d="M-315,70.8c0,11.9-10.3,21.8-23.9,23c-0.9,0.1-1.8,0.1-2.8,0.1c-14.7,0-26.7-10.4-26.7-23.2
	s11.9-23.2,26.7-23.2C-326.9,47.6-315,58-315,70.8L-315,70.8z"/>
<path class="st5" d="M-311.2,173.5l-3.8,8.6c0,0-3.1,0.1-7.9,0.2c-16.3,0.5-52.1,1-53.7-2.6c-0.4-0.9-0.5-1.9-0.6-2.9
	c-0.2-5.5,2.8-14,2.8-14s1.7-17,1.7-17.8s-1.5-12.7-1.5-12.7l2.9-9.6l8.2-5c0,0,3.7,4.9,5.9,5.3s5.1,2.8,5.1,2.8s7.2,3.8,9.5,1.7
	c2.3-2.1,20.4-11.5,20.4-11.5l9.5,9.1L-311.2,173.5z"/>
<path class="st8" d="M-311.2,174.8l-3.8,8.6c0,0-3.1,0.1-7.9,0.3h-0.5c-2.1,0.1-4.5,0.1-7,0.2c-12.9,0.3-30.7,0.3-40-0.9
	c-3.5-0.4-5.8-1.1-6.2-1.9c-0.2-0.5-0.4-1-0.4-1.6c-0.1-0.4-0.1-0.9-0.1-1.3c-0.2-5.5,2.8-14,2.8-14s1.7-17,1.7-17.8
	s-1.5-12.7-1.5-12.7l2.9-9.6l5.6-3.4l2.6-1.6c0.9,1.1,1.8,2.2,2.8,3.2c0.8,0.9,1.8,1.6,3.1,2.1c2.2,0.4,5.1,2.8,5.1,2.8
	s7.2,3.8,9.5,1.7c1.8-1.6,12.8-7.5,17.8-10.1c1.6-0.8,2.6-1.3,2.6-1.3l1.3,1.2l8.3,7.9L-311.2,174.8z"/>
<path class="st5" d="M-440.4,86.4l-10.7,6.5c0,0-0.1-1.3-0.4-3.1c5.3-1.9,8.5-6.2,9.4-7.6C-441,84.5-440.4,86.4-440.4,86.4z"/>
<path class="st4" d="M-402.9,108.4l-2.3-0.5c0,0-3.8,3.5-6,3.9s-6.8,3.1-6.8,3.1l-5.4,3.7c0,0-4,0.5-2.8-1.9
	c1.2-2.5-2.2-5.5-2.2-5.5s-6.8-12.2-6.8-14.8s-5.7-13.3-5.7-13.3s-7.1,12-20.1,8.2c0,0,9.4,18.4,9.7,23s6.5,17.3,6.5,17.3
	s2.3,9.5,14.9,8.9c0,0,17.4,2.8,21.2,0c3.8-2.8,7.2-5,9-5.3c1.8-0.3,3.4-2.1,3.4-2.1v-12.6L-402.9,108.4z"/>
<path class="st5" d="M-424.7,120.4c0,0,3.1,9.9,1.1,11L-424.7,120.4z"/>
<path class="st5" d="M-322.9,183.7c-16.3,0.5-52.1,1-53.7-2.6c-0.4-0.9-0.5-1.9-0.6-2.9l53.2,2.4L-322.9,183.7z"/>
<path class="st5" d="M-318.9,272.4c0,0-1,2.4-2.4,5.6c-6.8-0.4-15.7-0.7-24.2-0.8c-3,0-5.9,0-8.7,0.1c-5.9,0.2-11,0.6-14.2,1.4
	c-4.1,1.1-8.4,1.6-12.7,1.4c-1.1-3.7-1.9-6.3-1.9-6.3s18.5-1.3,29.7-1.8l0.9-5.4L-318.9,272.4z"/>
<path class="st7" d="M-304.6,233.5l-2.1,3.8c0,0-0.3,1.1-0.7,2.9c-0.8,3.9-2,10.9-1.5,16.5c0.6,8.2-1.3,20.6-1.3,20.6
	s-45-3.3-58.2,0c-13.2,3.3-19.7,0-19.7,0s1.6-12.3-2.3-18.7c-2.7-4.3-4.5-23.7-4.6-36.5c0-5.9,0.3-10.3,1.2-11.2
	c2.7-2.9,14.2-31.6,14.2-31.6l2.6,0.1l7,0.3l39.8,1.8l6.2,0.3l0.7,1.7L-304.6,233.5z"/>
<path class="st4" d="M-284.8,220.7l0.4,3.4c0,0-19.7-5.6-18.7-12.4s0-6.1,0-6.1l15.8,1.2L-284.8,220.7z"/>
<path class="st5" d="M-284.8,220.7l0.4,3.4c0,0-19.7-5.6-18.7-12.4s0-6.1,0-6.1l15.8,1.2L-284.8,220.7z"/>
<path class="st5" d="M-411.6,123.1c2,1.5,4.4,2.6,6.9,3.1c-0.7-0.1-1.4-0.4-2-0.9c-1.4-0.9-2.8-1.8-4.1-2.7c-1.1-0.7-2.5-2-3.8-2.3
	C-413.7,121.4-412.7,122.3-411.6,123.1z"/>
<path class="st5" d="M-411.3,127.6c0.6,0.6,1.1,1.3,1.5,2.1c0.6,2.2,0.6,4.4-0.1,6.6l-3.2-6.6c-0.5-1.1-1.1-2.3-1.8-3.3
	c-0.3-0.5-2.1-2.4-1.9-2.8C-416.1,122.4-411.8,127-411.3,127.6z"/>
<path class="st5" d="M-323.1,164.3c2.2-0.2,4.2-1,5.8-2.3c-3.2,0.4-6.3,1.5-9.5,2.1c-3,0.6-6.1,0.3-8.9-0.7
	C-332.1,164.8-327,164.9-323.1,164.3z"/>
<path class="st5" d="M-332.3,144.8c-0.6,0.1-1.2-0.1-1.7-0.4c-2.4-1.2-4.8-2.5-7.2-3.8c-2.3-1.3-5.1-2.6-7.1-4.2
	C-343.4,140.2-338.8,143.4-332.3,144.8z"/>
<path class="st5" d="M-325.5,167.4c1.3,0.1,2.6,0,3.8-0.3c1.3-0.2,2.4-0.9,3.1-1.8c-0.5-0.1-0.9,0-1.3,0.2
	c-3.9,1.4-8.1,1.9-12.3,1.3C-330.2,167.5-327.6,167.4-325.5,167.4z"/>
<path class="st5" d="M-348.7,216.7c-2.5,0.7-5.2,1.1-7.8,1.3c-2.1,0.1-4.1,0-6.2-0.1l-10-0.5l-5-0.3c-0.6,0-3,0-1.8-1
	c0.6-0.5,3.9-0.2,4.8-0.2c1.7,0,3.3-0.1,5-0.1c3.3,0,6.6,0,9.9,0.2C-356,216.1-352.4,216.4-348.7,216.7z"/>
<path class="st5" d="M-360.2,221c-1.7-0.1-3.9,0.8-5.6,1c-2,0.2-3.9,0.3-5.9,0.2c-3.9-0.1-7.7-0.8-11.4-2
	C-375.5,220.6-367.9,220.8-360.2,221z"/>
<path class="st5" d="M-381.7,225.6c0.7,0.1,1.5,0.3,2.2,0.5c4.2,1,8.7,0.1,13-0.8c-1.1,1.4-3,2-4.9,2.4c-3.1,0.7-6.4,0.8-9.6,0.3
	c-1-0.2-3.5-0.5-4-1.4C-385.8,225.3-382.6,225.4-381.7,225.6z"/>
<path class="st5" d="M-358,232.4c1.3,0.2,2.5,0.5,3.7,0.9c4.8,1,9.7-0.4,14.5-1.3c5.7-1.1,11.6-1.6,17.5-1.4c-1,0-2.7,0.8-3.8,1.1
	c-1.3,0.4-2.7,0.7-4.1,1c-2.7,0.6-5.4,1-8.2,1.4c-5.6,0.7-11.2,0.9-16.8,0.6c-2.6-0.1-7,0.1-9.2-1
	C-362.4,232.6-360.2,232.2-358,232.4z"/>
<path class="st5" d="M-356.2,101.3c0,0,0.2,9.8-1.6,14.3c-0.6,1.4-1.5,4-2.5,6.8c-1.1,3.2-2.2,6.8-3.1,9.6c-0.9,2.8-1.5,4.7-1.5,4.7
	s-4.1,29.2-5.2,43.2c0,0.2,0,0.5-0.1,0.7c-0.1,0.8-0.2,1.6-0.3,2.4c-2.4,13.8-16.1,35.2-20.7,36.9c-1.4,0.6-2.8,1.4-3.9,2.3
	c0-5.9,0.3-10.3,1.2-11.2c2.7-2.9,14.2-31.6,14.2-31.6l2.6,0.1c-0.1-0.4-0.1-0.9-0.1-1.3c-0.2-5.5,2.8-14,2.8-14s1.7-17,1.7-17.8
	c0-0.7-1.5-12.7-1.5-12.7l2.9-9.6l5.6-3.4c0.7-7.4,2.4-16.3,6.4-18.8c2-1.4,3.6-3.1,4.7-5.1c0.8,0.1-0.7-0.5-0.7-0.5L-356.2,101.3z"
	/>
<path class="st4" d="M-354.1,95.8c-2.1-0.6-4.3-0.4-6.2,0.6c-2.8,1.7-8.3,1.6-9.8,1.3s-16.8-2-18-1.6c-1.2,0.4-3.7-1.5-5.3,1.1
	s-2.3,3.9-3.9,4.6c-1.6,0.6-4.4,2.7-4,3.1c0.4,0.4-4,3-4,3l8.9,25.2c0,0-5.8,31.9-8.6,34.7s-27.8,38.6-18.8,45
	c7.1,4.8,14.6,9.2,22.4,13c1,0.4,4.5-5.3,9.4-7.1c4.9-1.8,20.1-25.7,21-39.3s5.3-43.9,5.3-43.9s5.3-16.6,7.1-21.1
	c1.8-4.5,1.6-14.3,1.6-14.3L-354.1,95.8z"/>
<path class="st5" d="M-304.6,233.5l-2.1,3.8c0,0-0.3,1.1-0.7,2.9c-0.4,0-0.7-0.2-1-0.4c-3.1-2.1-21-18.2-21.9-32.4
	c-0.6-10.5-0.3-19.6-0.1-23.6c0.1-1.3,0.1-2,0.1-2.2l0,0c0,0,13.9-14.7,12.3-19.9c-1.6-5.2-5.3-33-5.3-33l-0.5-3.7l-0.9-6.2
	l-2.2-14.9l2.3,0.5c0.4,0.5,0.9,0.9,1.4,1.2l2.4,13.1l8.3,7.9l1.3,48.2l-3.8,8.6c0,0-3.1,0.1-7.9,0.3h-0.5L-304.6,233.5z"/>
<path class="st4" d="M-296.9,154c0,0-3.4-1.2-3.7,0s-0.9,3.7-0.9,3.7s0.6,6.2-2,8.6s-3,12.8-3,12.8s-4.1,10.2-2.2,13.4
	c0.7,1.2,1.8,7,2.9,13.9c0.7,4.3,1.4,9.1,2,13.5c1.1,7.9,1.9,14.5,1.9,14.5s-2.2,7-5.3,4.9s-21-18.2-21.9-32.4
	c-0.6-10-0.4-18.7-0.2-23c0.1-1.8,0.2-2.8,0.2-2.8s13.9-14.7,12.3-19.9s-5.3-33-5.3-33l-0.6-4.3l-0.7-4.6l-0.2-1l-2.2-14.8l0,0
	c0.4,0.1,14.1,2.8,15.9,4.3c1.8,1.6,13,3.8,13,3.8c3.4,0.8,6.1,3.2,6.9,6.2c0.1,0.3,0.2,0.6,0.3,0.9c1.5,6.2,1,6.9,2,8
	S-296.9,154-296.9,154z"/>
<path class="st5" d="M-303.6,219.8c-5-0.9-12.4-2.9-12.2-7.3c0.2-4.1,5.9-5.6,10.2-6.2C-304.9,210.7-304.2,215.5-303.6,219.8z"/>
<path class="st6" d="M-288.1,217.6c-0.2,0.4-1,0.7-2.1,1c-2.7,0.6-5.4,0.9-8.1,1.2c0,0-17-1.2-16.8-7.9c0.2-4.8,7.9-6.1,12.2-6.4
	c1-0.1,1.9-0.1,2.9-0.1C-300.1,205.4-287.4,216.3-288.1,217.6z"/>
<path class="st5" d="M-288.1,217.6c-0.2,0.4-1,0.7-2.1,1c-4.4-5.2-10.6-11.8-13.6-12.4l0.9-0.7c1-0.1,1.9-0.1,2.9-0.1
	C-300.1,205.4-287.4,216.3-288.1,217.6z"/>
<path class="st4" d="M-292.4,125.9l5,0.6c1.8,2.8,3.8,5.4,6,8c1.3,1.5,2.1,3.2,2.2,5.1c0,0,7.3,9.5,9.7,10.5
	c2.3,1.1,5.9,8.3,5.9,8.3s5.8,3.3,5.8,7c0.1,3.1,0.5,6.2,1.1,9.2c0.1,0.5-0.8,7.1-3.3,10.4s-4.9,10.6-4.8,11.9
	c0.1,1.3-6.8,8.1-8.8,10.2c-1.6,2-3.1,4.1-4.3,6.3l-6.5,10.6c0,0-13.7-17.5-18.7-18.5c0,0,5.6-4.7,8.4-5.5c2.8-0.9,5.5-7.8,5.6-9.5
	c0.1-1.6,2.6-6.9,5.1-7.8s3.9-1.9,2.8-3.4s0-4.3,0-4.3s-7.2-8.3-8.2-13c-1-4.7-7.6-8-7.6-8l-3.8-8.1L-292.4,125.9z"/>
<path class="st5" d="M-274.2,165.6c2.8-2,6.2-3.2,9.9-3.3c-2.3,0.3-4.8,0.8-6.5,2.2c-0.7,0.6-1.3,1.3-1.8,2c-0.6,0.7-5.3,5.9-6,5.1
	C-279.7,170.4-275.1,166.3-274.2,165.6z"/>
<path class="st5" d="M-285.3,160.5c1.5-0.1,2.9-0.9,3.5-2.1c0.6-1.2,1-2.5,1.1-3.8c0.4-2.2,0.9-4.3,1.5-6.5c0.4-0.9,0.3-1.8-0.2-2.6
	c-0.3-0.7-0.6-1.3-1.1-1.9c-0.9,0.9-1.2,2.9-1.5,4.1c-0.5,1.4-0.9,2.9-1.3,4.3C-283.5,152.7-285.2,160.5-285.3,160.5z"/>
<path class="st5" d="M-289.6,117.6c-0.5,0.6-1.1,1.1-1.7,1.5c-2,1.4-4.7,2.5-4.9,4.7c0.1,0.7,0,1.4-0.3,2.1c-0.6,1-2.2,0.9-3.5,0.7
	c-1.1-0.1-2.1-0.4-2.9-0.9c-1.3-1-1.4-2.7-2.4-3.9c-1.2-1.3-3.1-2-5-1.9c-1.9-0.1-3.7,0.3-5.6,0.4c-1.2,0.1-2.4,0-3.6-0.2
	c-0.4-0.1-0.8-0.1-1.2-0.2c-0.8-0.2-1.7-0.4-2.4-0.7c-0.4-0.1-0.8-0.3-1.2-0.5c-1.3-0.6-2.4-1.3-3.5-2.1c-1.8-1.5-3.3-3.5-3.2-5.6
	c0.1-1.3,0.8-2.6,1-3.9c0.8-3.8-2.1-7.3-5.2-10c-1.2-1.1-2.6-2.1-3.8-3.2c-1.9-1.5-3.5-3.4-4.5-5.5c-0.8-2.2-1.1-4.6-0.8-7
	c0.3-2.4,0.4-4.8,0.2-7.1c-0.9-8.4-9.2-14.9-17.5-18.4l-0.4-0.2c9.7-9.6,26.5-10.7,37.6-2.2c11.1,8.4,12.3,23,2.6,32.7
	c-1.3,1.3-2.7,2.5-4.3,3.5c-0.1,0.3-0.2,0.5-0.2,0.8c-1.9,6.7-0.7,10.7,0.8,13l0,0c0.4,0.1,14.1,2.8,15.9,4.3c1.8,1.6,13,3.8,13,3.8
	C-293.1,112.2-290.5,114.6-289.6,117.6z"/>
<path class="st7" d="M-363.7,49.4c0.5-0.5,1.4-0.8,1.9-1.4c1.7-1.6,0-4.3,0.6-6.5c0.7-2.4,4.1-3.4,6.9-3.2c2.8,0.3,5.5,1.4,8.3,1.7
	c4.4,0.4,8.6-1.2,12.9-2.2s9.4-1,12.4,1.8c2.9,2.8,2.7,7.7,6.4,9.7c1.7,0.9,3.8,1.1,5.7,1.7c2,0.9,3.7,2.3,4.8,4
	c2.9,4,4.2,8.6,3.6,13.3c-0.3,2.5-1.2,5-1.5,7.5c-0.3,2.6-0.1,5.3,0.6,7.8c0.8,2.6,2.4,5.4,5.4,6.3c0.7,0.1,1.4,0.3,2,0.6
	c1.7,0.9,1.5,3.1,1.1,4.9l-1.8,7.1c1.7,1.1,4.4,0.6,6,1.8c0.7,0.5,1.1,1.2,1.4,1.9c1.6,4.1,0.2,8.6-3.6,11.4c-2,1.4-4.7,2.5-4.9,4.7
	c0.1,0.7,0,1.4-0.3,2.1c-0.6,1-2.2,0.9-3.5,0.7c-1.1-0.1-2.1-0.4-2.9-0.9c-1.3-1-1.4-2.7-2.4-3.9c-1.2-1.3-3.1-2-5-1.9
	c-1.9-0.1-3.7,0.3-5.6,0.4c-4.3,0.2-8.6-1.2-11.8-3.7c-1.8-1.5-3.3-3.5-3.2-5.7c0.1-1.3,0.8-2.6,1-3.9c0.7-3.7-2.1-7.3-5.2-10
	c-3.1-2.7-6.8-5.2-8.3-8.7c-1.9-4.4-0.1-9.4-0.6-14.1c-0.9-8.5-9.2-14.9-17.5-18.5C-362.7,53.7-365.8,51.6-363.7,49.4z"/>
<path class="st5" d="M-298.3,122.5c-1.3-1-1.4-2.7-2.4-3.9c-1.2-1.3-3.1-2-5-1.9c-1.9-0.1-3.7,0.3-5.6,0.4
	c-4.4,0.2-8.6-1.2-11.8-3.7c-1.8-1.5-3.3-3.5-3.2-5.6c0.1-1.3,0.8-2.6,1-3.9c0.8-3.8-2.1-7.3-5.2-10c-3.1-2.7-6.8-5.2-8.3-8.7
	c-1.9-4.4,0-9.4-0.6-14.1c-0.9-8.5-9.2-14.9-17.5-18.5c-1.9-0.8-5.1-2.9-2.9-5.1c0.5-0.5,1.4-0.8,1.9-1.4c1.7-1.6,0-4.3,0.6-6.5
	c0.1-0.4,0.3-0.8,0.6-1.2c-2.1,0.3-4,1.4-4.5,3.1c-0.6,2.2,1.1,4.8-0.6,6.5c-0.6,0.5-1.4,0.8-1.9,1.3c-2.2,2.1,1,4.2,2.9,5.1
	c8.3,3.5,16.6,10,17.5,18.5c0.5,4.7-1.3,9.6,0.6,14.1c1.5,3.6,5.2,6.1,8.3,8.7c3.1,2.7,6,6.2,5.2,10c-0.4,1.3-0.8,2.6-1,3.9
	c-0.1,2.2,1.4,4.2,3.2,5.6c3.2,2.5,7.5,3.9,11.8,3.7c1.9-0.1,3.7-0.4,5.6-0.4c1.9-0.1,3.8,0.6,5,1.9c1,1.2,1.1,3,2.4,3.9
	c0.9,0.5,1.9,0.8,2.9,0.9c1.2,0.2,2.8,0.3,3.5-0.7c0.2-0.4,0.3-0.8,0.3-1.3C-296.5,123.3-297.4,123-298.3,122.5z"/>
<path class="st2" d="M-443.8,70.8H-513V11.5h69.2L-443.8,70.8z M-444.8-18.5H-512c0-92.1,100.7-86.7,100.7-144.9
	c0-32.1-30.2-57.8-67.1-57.8s-67.1,27.7-67.1,58.7h-67.1c-0.1-64.3,59.8-116.6,133.8-116.7c0.2,0,0.3,0,0.5,0
	c74.1,0,134.2,51.4,134.2,115.8C-344.2-90.7-444.9-82.4-444.8-18.5L-444.8-18.5z"/>
<path class="st0" d="M-350.8-13.2h-7.3v-6.3h7.3V-13.2z M-350.9-22.7h-7.1c0-9.7,10.6-9.2,10.6-15.3c0-3.4-3.1-6.1-7-6.1
	c0,0-0.1,0-0.1,0c-3.9,0.1-7,2.8-7.1,6.2h-7.1c0.2-6.8,6.7-12.2,14.5-12c7.5,0.1,13.6,5.4,13.9,12
	C-340.2-30.3-350.9-29.4-350.9-22.7z"/>
<path class="st0" d="M-239,271.4h-7.3v-6.3h7.3V271.4z M-239.1,262h-7.1c0-9.7,10.6-9.2,10.6-15.3c0-3.4-3.2-6.1-7.1-6.1
	c-3.9,0.1-7,2.8-7.1,6.2h-7.1c0.2-6.8,6.7-12.2,14.5-12c7.5,0.1,13.6,5.4,13.9,12C-228.4,254.4-239.1,255.3-239.1,262L-239.1,262z"
	/>
</svg>
