<?xml version="1.0" encoding="utf-8"?>
<!-- Generator: Adobe Illustrator 23.0.1, SVG Export Plug-In . SVG Version: 6.00 Build 0)  -->
<svg version="1.1" id="Layer_1" xmlns="http://www.w3.org/2000/svg" xmlns:xlink="http://www.w3.org/1999/xlink" x="0px" y="0px"
	 viewBox="0 0 1003.9 836.8" style="enable-background:new 0 0 1003.9 836.8;" xml:space="preserve">
<style type="text/css">
	.st0{opacity:0.1;fill:#3E76F9;enable-background:new    ;}
	.st1{fill:#3E76F9;}
	.st2{fill:url(#SVGID_1_);}
	.st3{fill:#4C4981;}
	.st4{opacity:0.1;enable-background:new    ;}
	.st5{fill:#AE6E79;}
	.st6{fill:#444053;}
	.st7{fill:#FFFFFF;}
</style>
<title>questions</title>
<ellipse class="st0" cx="713.5" cy="717" rx="102.6" ry="8.8"/>
<path class="st0" d="M439.5,10.6c45.2-14.6,100.2-2,147.1,16.2C734.1,84.2,841.6,193.1,927,304.1c30.9,40.2,60.3,82.1,71.9,127
	c23.7,91.3-38.1,185.8-143,218.9c-35.7,11.3-74.9,15.9-114.2,18.5c-69.8,4.6-142.1,2.8-211.4-14.2c-49.4-12.1-96.1-31.7-141-53.3
	C264.2,540.8,149.9,462.5,67.5,366.8C31.4,324.9,0.9,277.6,0,229.2s35.5-97,95.3-105.3c24.7-3.4,50.9,0.1,76.4,3.8
	c37.6,5.4,75.7,11,112.9,8.7c38.4-2.4,88.3-15.4,95.3-47.2C387.4,55,394.4,25.2,439.5,10.6z"/>
<path class="st1" d="M244,666.8c0,0,48.3-2.5,42.6,26.8c0,0,1.1,5.2-4.3,7.5c0,0-0.1-2.2-5-1.4c-1.7,0.3-3.5,0.3-5.2,0.2
	c-2.4-0.1-4.6-0.9-6.4-2.3l0,0c0,0-13.6-4.9-18.8-24.1c0,0-3.9-4.2-3.8-5.3l8.1,3c0,0-2.8,5.1-0.6,9.3c0,0,0.3-9.1,1.8-8.9
	c0.3,0,4.2,1.7,4.2,1.7s-4.8,8.9-1.2,15.3c0,0-1.4-10.9,2.7-14.7l5.7,2.9c0,0-5.6,9.2-1.8,16.6c0,0-1-11.5,3-15.9l5.2,3.5
	c0,0-5.3,9-2,15.2c0,0,0.4-13.4,3.2-14.4c0,0,4.5,3.5,5.2,4.9c0,0-3.6,6.6-1.4,10c0,0,1.4-8.9,2.5-8.9c0,0,4.5,5.9,5,9.9
	c0,0-0.2-6-3.9-10.5c0,0,4.4,0.7,6.9,3.1c0,0-0.7-4.2-8-4.5c0,0-3.7-4.5-4.8-4.7c0,0,7.3-0.5,11.7,1.2c0,0-3.9-3.9-13.1-2.2
	l-5.1-3.6c0,0,9.6-1.1,13.7,0.1c0,0-4.7-3.5-15.1-0.9l-5.6-2.9c0,0,8.2-1.5,13.1-1c0,0-5.2-2.4-14.7,0.2l-4-1.6c0,0,6-1,7.8-1.2
	s1.9-0.6,1.9-0.6c-3.8-0.6-7.7-0.2-11.3,1.1C252.3,669.9,243.9,667.3,244,666.8z"/>
<ellipse class="st0" cx="277.3" cy="703.7" rx="34.2" ry="5"/>
<path class="st1" d="M179.4,685.9c0,0,27.2-1.5,24,16c0.3,1.8-0.6,3.6-2.4,4.5c0,0,0-1.3-2.8-0.9c-1,0.2-2,0.2-3,0.1
	c-1.3-0.1-2.6-0.6-3.6-1.4l0,0c0,0-7.6-2.9-10.6-14.4c0,0-2.2-2.5-2.1-3.2l4.6,1.8c0,0-1.6,3.1-0.3,5.6c0,0,0.1-5.5,1-5.3
	c0.2,0,2.4,1.1,2.4,1.1s-2.7,5.3-0.7,9.2c0,0-0.8-6.5,1.5-8.8l3.2,1.7c0,0-3.1,5.5-1,9.9c0,0-0.5-6.9,1.7-9.5l2.9,2.1
	c0,0-3,5.4-1.1,9.1c0,0,0.2-8,1.8-8.6c0,0,2.6,2.1,3,2.9c0,0-2,3.9-0.8,6c0,0,0.8-5.3,1.4-5.3c0,0,2.5,3.5,2.8,5.9
	c-0.1-2.2-0.9-4.4-2.2-6.3c1.5,0.2,2.8,0.9,3.9,1.8c0,0-0.4-2.5-4.5-2.7c0,0-2.1-2.7-2.7-2.8c0,0,4.1-0.3,6.6,0.7
	c0,0-2.2-2.4-7.4-1.3l-2.9-2.2c0,0,5.4-0.7,7.7,0.1c0,0-2.6-2.1-8.5-0.6l-3.1-1.7c2.4-0.5,4.9-0.7,7.4-0.6c0,0-2.9-1.4-8.3,0.1
	l-2.2-0.9c0,0,3.4-0.6,4.4-0.7s1-0.3,1-0.3c-2.1-0.3-4.4-0.1-6.4,0.7C184,687.8,179.3,686.2,179.4,685.9z"/>
<ellipse class="st0" cx="198.1" cy="707.9" rx="19.3" ry="3"/>
<path class="st1" d="M848.8,663c0,0,32.8-1.7,29,18.2c0.4,2.1-0.8,4.1-2.9,5.1c0,0-0.1-1.5-3.4-1c-1.2,0.2-2.4,0.2-3.6,0.1
	c-1.6-0.1-3.1-0.6-4.4-1.6l0,0c0,0-9.2-3.3-12.8-16.4c0,0-2.7-2.9-2.5-3.6l5.5,2c0,0-1.9,3.5-0.4,6.4c0,0,0.2-6.2,1.2-6.1
	c0.2,0,2.9,1.2,2.9,1.2s-3.3,6.1-0.8,10.4c0,0-0.9-7.4,1.8-10l3.9,2c0,0-3.8,6.2-1.2,11.3c0,0-0.7-7.8,2-10.8l3.5,2.4
	c0,0-3.6,6.1-1.4,10.4c0,0,0.3-9.1,2.2-9.8c0,0,3.1,2.4,3.6,3.3c0,0-2.5,4.5-0.9,6.8c0,0,0.9-6.1,1.7-6.1c0,0,3.1,4,3.4,6.8
	c-0.1-2.5-1.1-5-2.7-7.1c1.8,0.3,3.4,1,4.7,2.1c0,0-0.5-2.8-5.5-3.1c0,0-2.5-3-3.2-3.2c0,0,5-0.4,8,0.8c0,0-2.7-2.7-8.9-1.5
	l-3.5-2.5c0,0,6.5-0.8,9.3,0.1c0,0-3.2-2.4-10.3-0.6l-3.8-2c0,0,5.6-1,8.9-0.7c0,0-3.5-1.6-10,0.1l-2.7-1.1c0,0,4.1-0.7,5.3-0.8
	s1.3-0.4,1.3-0.4c-2.6-0.4-5.2-0.1-7.7,0.7C854.5,665.1,848.7,663.3,848.8,663z"/>
<ellipse class="st0" cx="871.4" cy="688.1" rx="23.2" ry="3.4"/>
<linearGradient id="SVGID_1_" gradientUnits="userSpaceOnUse" x1="795.2112" y1="84.7188" x2="795.2112" y2="491.0971" gradientTransform="matrix(1 0 0 -1 -98.04 806.2798)">
	<stop  offset="0" style="stop-color:#808080;stop-opacity:0.25"/>
	<stop  offset="0.54" style="stop-color:#808080;stop-opacity:0.12"/>
	<stop  offset="1" style="stop-color:#808080;stop-opacity:0.1"/>
</linearGradient>
<path class="st2" d="M816.1,452.4c-0.6-3.1-1-6.1-1.1-9.2c0-3.7-5.8-7-5.8-7s-3.6-7.2-6-8.3c-2.4-1.1-9.8-10.5-9.8-10.5
	c-0.1-1.9-0.9-3.7-2.2-5.1c-2.2-2.5-4.2-5.2-6.1-7.9l0,0c-1-1.1-0.5-1.8-2-8c-0.1-0.3-0.2-0.6-0.3-0.9c0-0.1-0.1-0.3-0.2-0.4
	c3.2-2.8,4.3-7,2.8-10.8c-0.3-0.7-0.8-1.4-1.4-1.9c-1.7-1.2-4.4-0.7-6.1-1.8l1.8-7.1c0.4-1.7,0.7-3.9-1.1-4.9
	c-0.7-0.3-1.3-0.5-2.1-0.6c-3-0.9-4.7-3.6-5.5-6.3c-0.7-2.5-1-5.2-0.6-7.8c0.3-2.5,1.2-5,1.5-7.5c0.6-4.7-0.7-9.4-3.7-13.3
	c-1.1-1.7-2.8-3.1-4.8-4c-1.8-0.7-4-0.9-5.7-1.7c-3.7-2.1-3.5-6.9-6.5-9.7c-3-2.8-8.2-2.8-12.6-1.8s-8.6,2.6-13.1,2.2
	c-2.9-0.3-5.5-1.4-8.4-1.7c-0.8-0.1-1.6,0-2.5,0.1v-0.1c-2.1,0.3-4.1,1.4-4.6,3.1c-0.1,0.4-0.2,0.8-0.1,1.3c0,1,0.3,2.1,0.3,3
	c0.1,0.8-0.2,1.6-0.8,2.1c-0.6,0.5-1.4,0.8-2,1.4c-0.5,0.4-0.8,1-0.7,1.6c0,1.5,2.2,2.9,3.7,3.5h0.1c-0.4,0.3-0.8,0.7-1.2,1.1
	c-4.3,4.2-6.6,9.6-6.6,15.2c0.1,9.2,6.5,17.5,16.2,21.1l-0.2,0.6c-0.4,1.1-0.9,2.2-1.5,3.3c-2.1-0.6-4.4-0.4-6.3,0.6
	c-2.9,1.7-8.5,1.6-9.9,1.3c-1.5-0.3-17-2-18.2-1.6c-1.2,0.4-3.7-1.5-5.3,1.1s-2.4,3.9-4,4.6s-4.5,2.7-4.1,3.1s-4.1,3-4.1,3
	s-3.8,3.5-6.1,3.9c-2.2,0.5-7,3.1-7,3.1l-5.5,3.7c0,0-4.1,0.5-2.8-1.9c1.2-2.4-2.2-5.5-2.2-5.5s-7-12.2-7-14.7s-5.7-13.3-5.7-13.3
	l-0.7-0.1L628,360c-1-2.6-2.4-5.7-3.5-7.5c-2-3.5-3.2-3.9-3.2-3.9s-24.1-15.7-39.7-10.9c-15.6,4.8,28.5,19,32.5,20.5
	c1.4,0.5,2.4,2.2,3.1,4.2c-3.5,1.5-6.5,3.8-8.5,6.7c0,0,9.6,18.4,9.8,22.9s6.6,17.3,6.6,17.3s2.4,9.5,15.1,8.9c0,0,17.6,2.8,21.5,0
	s7.3-5,9.2-5.3c1.4-0.4,2.6-1.1,3.5-2.1c0,0-5.8,31.9-8.7,34.6s-28.1,38.6-19.1,45c7.2,4.8,14.8,9.2,22.7,13c0.8,0.3,3.1-3,6.4-5.4
	c0,0.6,0,1.2,0,1.8c0.1,12.7,2,32.1,4.7,36.4c4,6.4,2.4,18.7,2.4,18.7c2.1,0.9,4.4,1.3,6.7,1.4c0.1,0.4,0.3,0.9,0.4,1.3
	c2.2,7.2,5.7,18.3,7.5,21.2c2.7,4.5,4.7,18.6,4.7,18.6s1.6,13.9,1,15.8c-0.2,0.7,0.8,6.5,2.5,13.9l0,0c-1,10-2.9,29.2-3.2,36.1l0,0
	c0,0.1,0,0.3,0,0.4v0.1c0,0.1,0,0.2,0,0.2c0,0.2,0,0.3,0,0.4l0,0c0,0.4,0,0.9,0.1,1.3c0.1,0.7,0.1,1.3-0.2,2
	c-0.7,1.9-1.6,3.8-2.7,5.6c-0.5,0.9-0.9,1.8-1.2,2.7c-1,0.4-2.2,1.3-2.9,3.6c-1.2,4.1-3.1,15.6-3.1,15.6s-0.8,7-2.2,8.6
	c-1.5,1.6-3,11.6,7.6,12.9c10.6,1.3,15.1-4.9,15.1-4.9l-0.4-27.8v-0.1c0.2-0.2,0.4-0.5,0.5-0.8v-0.1c0.1-0.1,0.2-0.3,0.2-0.4
	l0.1-0.2l0.2-0.3c0,0,0-0.1,0-0.1c1-2.7,1.3-5.5,0.9-8.3v-0.1v-0.2c0-0.1,0-0.1,0-0.2v-0.4c0-0.1,0-0.1,0-0.2c0-0.2,0-0.4,0.1-0.6
	c0.1-0.3,0-0.1,0-0.1l0.1-0.3v-0.1c0-0.1,0-0.2,0.1-0.3c0,0,0-0.1,0-0.1c0.1-0.4,0.2-0.9,0.3-1.2v-0.1l0.2-0.4l0,0
	c0.2-0.4,0.3-0.9,0.5-1.3v-0.1c0-0.1,0.1-0.3,0.2-0.4v-0.1c0.2-0.4,0.4-0.9,0.5-1.2l0-0.1l0.2-0.3l0-0.1l0.4-0.8l0,0l2.9,7.8
	c0,0,1.6,5.8,0.8,7.2s1,7.1,2.2,7.2l-1.2,7.2c-0.6,4-1,8-1.1,12c-0.1,0.5-0.2,0.9-0.2,1.1c-0.8,3.7,1.1,9.4,1.1,9.4
	c9.8,10.1,21.5,0.8,21.5,0.8s1.4-5.3,0-6.4c-1.4-1.1-0.8-4.9-0.8-4.9s0.6-9.5,0.7-16.4s-6.5-13-6.5-13l-0.4,0.3
	c-1.2-2.7-2.6-5.9-2.3-7.3c0.5-2.4-1.4-28.3-1.4-28.3c0.7-6.9,0.8-13.9,0.4-20.8l0,0c0.2-1.2,0.3-2.3,0.5-3.5
	c0.8-5.6,1.4-10.3,1.6-12.8l0,0v-0.3c0.1-0.7,0.1-1.1,0.1-1.4c0-0.9,0-1.9,0.1-2.9c0.2-3,0.8-6.3,0.8-6.3l2.6-13.7
	c0,0,2-6.7,4.8-10.4l0.3-0.5l0,0c0.1-0.2,0.2-0.3,0.3-0.5l0-0.1c0.1-0.2,0.2-0.4,0.3-0.6l0-0.1c0.4-0.7,0.8-1.5,1.3-2.3
	c0-0.1,0.1-0.1,0.1-0.2l0.3-0.7c0-0.1,0.1-0.2,0.1-0.3c0-0.1,0.2-0.4,0.3-0.7c0-0.1,0.1-0.2,0.1-0.3c0.1-0.3,0.3-0.5,0.4-0.8
	l0.2-0.4c0.1-0.2,0.2-0.4,0.3-0.6l0.2-0.5c0.1-0.1,0.1-0.3,0.2-0.4l0.3-0.6c0-0.1,0.1-0.2,0.1-0.3c0.7-1.5,1.4-3.1,2-4.4l0,0
	c0.2-0.4,0.4-0.9,0.5-1.2c6.4,0.3,10.7,0.6,10.7,0.6s2-12.4,1.4-20.6c-0.4-5.6,0.8-12.6,1.6-16.5c0.1-0.4,0.2-0.8,0.2-1.2l0.2,0.1
	c3.1,2.1,5.3-4.9,5.3-4.9s-0.8-6.5-2-14.5l-0.1-0.8c1.8,0.3,3.6,0.6,5.4,0.7c0,0,1-0.1,2.4-0.2c3.8,1.9,7.8,3.5,11.9,4.7l6.6-10.6
	c1.2-2.2,2.7-4.3,4.3-6.3c2-2.1,9.1-8.9,8.9-10.2s2.4-8.6,4.8-11.9S816.2,452.9,816.1,452.4z M788.5,460.5c-2.6,1-5.1,6.3-5.2,7.9
	c-0.1,1.6-2.9,8.6-5.7,9.5c-2.6,0.8-7.7,4.8-8.5,5.4c-0.8,0.1-1.8,0.2-2.7,0.3c-1.1-6.7-2.2-12.3-2.9-13.4c-2-3.2,2.2-13.4,2.2-13.4
	s0.4-10.3,3-12.7c2.6-2.4,2-8.6,2-8.6s0.6-2.5,0.9-3.7s3.7,0,3.7,0l0,0c0,0,6.7,3.2,7.7,8c1,4.8,8.3,13.1,8.3,13.1s-1.1,2.9,0,4.3
	S791.1,459.5,788.5,460.5z"/>
<path class="st3" d="M609,369.7c4.2-6,12-9.2,20-8.2v12.4h-8.7l-6.8-1.5L609,369.7z"/>
<path class="st4" d="M609,369.7c4.2-6,12-9.2,20-8.2v12.4h-8.7l-6.8-1.5L609,369.7z"/>
<path class="st5" d="M629.6,364.8l-10.7,6.5c0,0-0.1-1.3-0.4-3.1c-0.5-3.3-1.7-8.4-4.3-9.3c-3.9-1.5-47.4-15.7-32-20.5
	c15.4-4.8,39.1,10.9,39.1,10.9s1.2,0.4,3.2,3.9c1,1.8,2.4,5,3.4,7.5C629,362.9,629.6,364.8,629.6,364.8z"/>
<polygon class="st3" points="714.7,374.7 715.9,374.2 719.3,377.6 716.5,382.8 711.8,381.1 712.9,377 "/>
<path class="st6" d="M698.6,676c0,0-3.1-0.3-4.3,3.8s-3.1,15.6-3.1,15.6s-0.7,7-2.2,8.6c-1.5,1.6-2.9,11.6,7.5,12.8
	c10.4,1.3,14.9-4.8,14.9-4.8l-0.4-27.8L698.6,676z"/>
<path class="st6" d="M734.8,677.2c0,0,6.5,6.1,6.4,13c-0.1,6.9-0.7,16.3-0.7,16.3s-0.6,3.8,0.7,4.9c1.3,1.1,0,6.4,0,6.4
	s-11.5,9.3-21.2-0.8c0,0-1.9-5.7-1.1-9.4s3-20.3,3-20.3L734.8,677.2z"/>
<path class="st5" d="M751,550.4c0,0-6.6,16-9.4,19.7c-2.8,3.7-4.8,10.4-4.8,10.4l-2.6,13.7c-0.5,3.1-0.8,6.1-0.9,9.2
	c0.1,3.1-6.4,47.9-6.4,47.9l-10.3,11.4c0,0-4.5,8-3.8,11.3c0.7,3.3-0.5,8.6-2,10.2c0,0-0.2,10.4-0.6,12.7c-0.4,2.3,1.3,8.9,0,10.1
	c-1.3,1.2-19.3,0.6-19.8-1.3s2.2-11.1,2.2-11.1l1.6-8.9c0,0,3.2-4.9,2.5-6.5s1.3-5.3,1.5-5.6c0.1-0.3,3.4-5.5,2.8-7.5
	s3.8-44.8,3.8-44.8l12.6-76.7L751,550.4z"/>
<path class="st4" d="M751,550.4c0,0-1,2.4-2.4,5.6c-2.2,5-5.3,11.9-7,14.1c-2.8,3.7-4.8,10.4-4.8,10.4l-2.6,13.7
	c-0.5,3.1-0.8,6.1-0.8,9.2c0,1.2-0.9,9-2.1,17.9c-1.8,13.6-4.2,30.1-4.2,30.1l-10.3,11.4c0,0-0.5,0.9-1.2,2.2
	c-1.3,2.6-3.1,6.8-2.6,9c0.7,3.3-0.5,8.6-2,10.2c0,0-0.2,10.4-0.6,12.7s1.3,8.9,0,10.1s-19.3,0.6-19.8-1.3
	c-0.5-1.9,2.2-11.1,2.2-11.1l1.6-8.9c0,0,3.2-4.9,2.4-6.5c-0.7-1.6,1.3-5.3,1.5-5.6s3.4-5.5,2.8-7.5c-0.5-1.5,2-26.7,3.2-38.6
	c0.4-3.7,0.6-6.2,0.6-6.2l10.8-66l0.9-5.3l0.9-5.4L751,550.4z"/>
<path class="st5" d="M740,709.9c0.1,1.2-17.2,2.9-19.7,1.6s0-17.1,0-17.1l1.1-7.2c-1.2-0.1-3-5.8-2.2-7.2s-0.7-7.2-0.7-7.2l-2.9-7.8
	l-1.8-4.8c-2.9-5.5-7-21.1-9.6-32.7c-1.6-7.3-2.7-13.1-2.4-13.8c0.6-1.9-1-15.8-1-15.8s-2-14.1-4.6-18.6c-1.8-2.9-5.3-14-7.4-21.2
	c-1.1-3.7-1.9-6.3-1.9-6.3s18.5-1.3,29.7-1.8c5.2-0.2,8.8-0.2,8.3,0.1c-0.4,0.4-0.5,2.3-0.5,5.1c0,7.3,1.2,20.1,2.5,23.5
	c1.7,4.8,3.4,19.1,2.7,20.5c-0.7,1.4-0.5,10.6-0.5,10.6c1.3,3.7,2,7.6,2.2,11.5c0.4,6.9,0.3,13.8-0.4,20.7c0,0,1.8,25.8,1.3,28.2
	c-0.5,2.4,3.9,10.1,3.9,11.6s1.2,11.6,1.2,11.6S740,708.7,740,709.9z"/>
<path class="st5" d="M749.7,400.1l-2.1,2l-1.4,1.3l-8,7.5l-20.7,2l-11-2.5l-2.7-0.6c0,0,0-4.8,0.5-10.5c0.7-7.4,2.4-16.3,6.4-18.7
	c2-1.4,3.6-3.1,4.7-5.1c0.8-1.4,1.5-2.8,2-4.3c0.1-0.2,0.1-0.4,0.2-0.6c0.9-2.6,1.5-5.2,1.9-7.9c0,0,2.6-1.3,6.3-2.7
	c9.6-3.9,26.1-9.2,20.3,2.7c-0.8,1.8-1.6,3.5-2.2,5.4c-0.1,0.3-0.2,0.5-0.2,0.8c-1.9,6.7-0.7,10.7,0.8,12.9l0,0
	c0.2,0.4,0.5,0.8,0.8,1.1c0.4,0.5,0.9,0.9,1.4,1.2l2.4,13.1l0.2,1.1L749.7,400.1z"/>
<path class="st4" d="M746.2,363.2C745.1,365.5,746.7,361.3,746.2,363.2c-4.4,2.7-14.6,10.3-20.4,10.3c-3.9,0-5.1-0.6-8.4-1.9
	c1-2.7,1.7-5.6,2.2-8.4C719.5,363.2,754.1,346.6,746.2,363.2z"/>
<path class="st5" d="M755,349.3c0,11.8-10.3,21.7-23.9,23c-0.9,0.1-1.8,0.1-2.8,0.1c-14.7,0-26.7-10.4-26.7-23.1
	c0-12.8,11.9-23.1,26.7-23.1C743,326.1,755,336.5,755,349.3L755,349.3z"/>
<path class="st4" d="M758.8,451.7l-3.8,8.6c0,0-3.1,0.1-7.9,0.2c-16.3,0.5-52.1,1-53.7-2.6c-0.4-0.9-0.5-1.9-0.6-2.9
	c-0.2-5.5,2.8-14,2.8-14s1.7-17,1.7-17.7c0-0.7-1.5-12.6-1.5-12.6l2.9-9.5l8.2-5c0,0,3.7,4.9,5.9,5.3s5.1,2.8,5.1,2.8
	s7.2,3.8,9.5,1.7c2.3-2.1,20.4-11.5,20.4-11.5l9.5,9.1L758.8,451.7z"/>
<path class="st7" d="M758.8,453.1l-3.8,8.6c0,0-3.1,0.1-7.9,0.3h-0.5c-2.1,0.1-4.5,0.1-7,0.2c-12.9,0.3-30.7,0.3-40-0.9
	c-3.5-0.4-5.8-1.1-6.2-1.9c-0.2-0.5-0.4-1-0.4-1.6c-0.1-0.4-0.1-0.9-0.1-1.3c-0.2-5.5,2.8-14,2.8-14s1.7-17,1.7-17.7
	s-1.5-12.6-1.5-12.6l2.9-9.5l5.6-3.4l2.6-1.6c0.9,1.1,1.8,2.2,2.8,3.2c0.8,0.9,1.8,1.6,3.1,2.1c2.2,0.4,5.1,2.8,5.1,2.8
	s7.2,3.8,9.5,1.7c1.8-1.6,12.8-7.5,17.8-10.1c1.6-0.8,2.6-1.3,2.6-1.3l1.3,1.2l8.3,7.9L758.8,453.1z"/>
<path class="st4" d="M629.6,364.8l-10.7,6.5c0,0-0.1-1.3-0.4-3.1c5.3-1.9,8.5-6.2,9.4-7.5C629,362.9,629.6,364.8,629.6,364.8z"/>
<path class="st3" d="M667,386.7l-2.3-0.5c0,0-3.8,3.5-6,3.9s-6.8,3.1-6.8,3.1l-5.4,3.7c0,0-4,0.5-2.8-1.9c1.2-2.4-2.2-5.5-2.2-5.5
	s-6.8-12.2-6.8-14.7c0-2.5-5.7-13.3-5.7-13.3s-7.1,12-20.1,8.2c0,0,9.4,18.3,9.7,22.9c0.2,4.6,6.5,17.3,6.5,17.3s2.3,9.4,14.9,8.9
	c0,0,17.4,2.8,21.2,0s7.2-5,9-5.3s3.4-2.1,3.4-2.1v-12.6L667,386.7z"/>
<path class="st4" d="M645.3,398.7c0,0,3.1,9.9,1.1,10.9L645.3,398.7z"/>
<path class="st4" d="M747,461.9c-16.3,0.5-52.1,1-53.7-2.6c-0.4-0.9-0.5-1.9-0.6-2.9l53.2,2.4L747,461.9z"/>
<path class="st4" d="M751,550.4c0,0-1,2.4-2.4,5.6c-6.8-0.4-15.7-0.7-24.2-0.8c-3,0-5.9,0-8.7,0.1c-5.9,0.2-11,0.6-14.2,1.4
	c-4.1,1.1-8.4,1.6-12.7,1.4c-1.1-3.7-1.9-6.3-1.9-6.3s18.5-1.3,29.7-1.8l0.9-5.4L751,550.4z"/>
<path class="st6" d="M765.4,511.6l-2.1,3.8c0,0-0.3,1.1-0.7,2.9c-0.8,3.9-2,10.9-1.5,16.5c0.6,8.2-1.3,20.6-1.3,20.6s-45-3.3-58.2,0
	s-19.7,0-19.7,0s1.6-12.3-2.3-18.7c-2.7-4.3-4.5-23.7-4.6-36.4c0-5.9,0.3-10.3,1.2-11.2c2.7-2.9,14.2-31.5,14.2-31.5l2.6,0.1l7,0.3
	l39.8,1.8l6.2,0.3l0.7,1.7L765.4,511.6z"/>
<path class="st3" d="M785.2,498.8l0.4,3.4c0,0-19.7-5.6-18.7-12.4s0-6.1,0-6.1l15.8,1.2L785.2,498.8z"/>
<path class="st4" d="M785.2,498.8l0.4,3.4c0,0-19.7-5.6-18.7-12.4s0-6.1,0-6.1l15.8,1.2L785.2,498.8z"/>
<path class="st4" d="M658.4,401.5c2,1.5,4.4,2.6,6.9,3.1c-0.7-0.1-1.4-0.4-2-0.9c-1.4-0.9-2.8-1.8-4.1-2.7c-1.1-0.7-2.5-2-3.8-2.3
	C656.3,399.7,657.3,400.6,658.4,401.5z"/>
<path class="st4" d="M658.7,405.9c0.6,0.6,1.1,1.3,1.5,2.1c0.6,2.2,0.6,4.4-0.1,6.6L657,408c-0.5-1.1-1.1-2.3-1.8-3.3
	c-0.3-0.5-2.1-2.4-1.9-2.8C653.9,400.7,658.1,405.3,658.7,405.9z"/>
<path class="st4" d="M746.9,442.5c2.2-0.2,4.2-1,5.8-2.3c-3.2,0.4-6.3,1.5-9.5,2c-3,0.6-6.1,0.3-8.9-0.7
	C737.9,443.1,743,443.1,746.9,442.5z"/>
<path class="st4" d="M737.7,423.1c-0.6,0.1-1.2-0.1-1.7-0.4c-2.4-1.2-4.8-2.5-7.2-3.8c-2.3-1.3-5.1-2.6-7.1-4.2
	C726.6,418.5,731.1,421.7,737.7,423.1z"/>
<path class="st4" d="M744.5,445.6c1.3,0.1,2.6,0,3.8-0.3c1.3-0.2,2.4-0.9,3.1-1.8c-0.5-0.1-0.9,0-1.3,0.2c-3.9,1.4-8.1,1.9-12.3,1.3
	C739.8,445.7,742.4,445.6,744.5,445.6z"/>
<path class="st4" d="M721.3,494.8c-2.5,0.7-5.2,1.1-7.8,1.3c-2.1,0.1-4.1,0-6.2-0.1l-10-0.5l-5-0.3c-0.6,0-3,0-1.8-1
	c0.6-0.5,3.9-0.2,4.8-0.2c1.7,0,3.3-0.1,5-0.1c3.3,0,6.6,0,9.9,0.2C714,494.3,717.6,494.5,721.3,494.8z"/>
<path class="st4" d="M709.7,499.1c-1.7-0.1-3.9,0.8-5.6,1c-2,0.2-3.9,0.3-5.9,0.2c-3.9-0.1-7.7-0.8-11.4-2
	C694.4,498.7,702.1,498.9,709.7,499.1z"/>
<path class="st4" d="M688.3,503.7c0.7,0.1,1.5,0.3,2.2,0.5c4.2,1,8.7,0.1,13-0.8c-1.1,1.4-3,2-4.9,2.4c-3.1,0.7-6.4,0.8-9.6,0.3
	c-1-0.2-3.5-0.5-4-1.4C684.1,503.4,687.4,503.6,688.3,503.7z"/>
<path class="st4" d="M712,510.5c1.3,0.2,2.5,0.5,3.7,0.9c4.8,1,9.7-0.4,14.5-1.3c5.7-1.1,11.6-1.6,17.5-1.4c-1,0-2.7,0.8-3.8,1.1
	c-1.3,0.4-2.7,0.7-4.1,1c-2.7,0.6-5.4,1-8.2,1.4c-5.6,0.7-11.2,0.9-16.8,0.6c-2.6-0.1-7,0.1-9.2-1
	C707.6,510.7,709.8,510.3,712,510.5z"/>
<path class="st4" d="M713.8,379.7c0,0,0.2,9.8-1.6,14.2c-0.6,1.4-1.5,3.9-2.5,6.8c-1.1,3.2-2.2,6.7-3.1,9.5s-1.5,4.7-1.5,4.7
	s-4.1,29.2-5.2,43.1c0,0.2,0,0.5-0.1,0.7c-0.1,0.8-0.2,1.6-0.3,2.4c-2.4,13.8-16.1,35.1-20.7,36.8c-1.4,0.6-2.8,1.4-3.9,2.3
	c0-5.9,0.3-10.3,1.2-11.2c2.7-2.9,14.2-31.5,14.2-31.5l2.6,0.1c-0.1-0.4-0.1-0.9-0.1-1.3c-0.2-5.5,2.8-14,2.8-14s1.7-17,1.7-17.7
	s-1.5-12.6-1.5-12.6l2.9-9.5l5.6-3.4c0.7-7.4,2.4-16.3,6.4-18.7c2-1.4,3.6-3.1,4.7-5.1c0.8,0.1-0.7-0.5-0.7-0.5L713.8,379.7z"/>
<path class="st3" d="M715.9,374.2c-2.1-0.6-4.3-0.4-6.2,0.6c-2.8,1.7-8.3,1.6-9.8,1.3c-1.5-0.3-16.8-2-18-1.6
	c-1.2,0.4-3.7-1.5-5.3,1.1c-1.6,2.5-2.3,3.9-3.9,4.6c-1.6,0.6-4.4,2.7-4,3.1c0.4,0.4-4,3-4,3l8.9,25.2c0,0-5.8,31.8-8.6,34.6
	s-27.8,38.5-18.8,44.9c7.1,4.8,14.6,9.2,22.4,13c1,0.4,4.5-5.3,9.4-7.1c4.9-1.8,20.1-25.7,21-39.2c0.9-13.6,5.3-43.8,5.3-43.8
	s5.3-16.5,7.1-21c1.8-4.5,1.6-14.2,1.6-14.2L715.9,374.2z"/>
<path class="st4" d="M765.4,511.6l-2.1,3.8c0,0-0.3,1.1-0.7,2.9c-0.4,0-0.7-0.2-1-0.4c-3.1-2.1-21-18.1-21.9-32.4
	c-0.6-10.5-0.3-19.5-0.1-23.5c0.1-1.3,0.1-2,0.1-2.2l0,0c0,0,13.9-14.6,12.3-19.8c-1.6-5.2-5.3-33-5.3-33l-0.5-3.6l-0.9-6.2
	l-2.2-14.9l2.3,0.5c0.4,0.5,0.9,0.9,1.4,1.2l2.4,13.1l8.3,7.9l1.3,48l-3.8,8.6c0,0-3.1,0.1-7.9,0.3h-0.5L765.4,511.6z"/>
<path class="st3" d="M773.1,432.3c0,0-3.4-1.2-3.7,0s-0.9,3.7-0.9,3.7s0.6,6.2-2,8.6s-3,12.7-3,12.7s-4.1,10.2-2.2,13.4
	c0.7,1.2,1.8,6.9,2.9,13.9c0.7,4.3,1.4,9.1,2,13.5c1.1,7.9,1.9,14.5,1.9,14.5s-2.2,7-5.3,4.9s-21-18.1-21.9-32.4
	c-0.6-10-0.4-18.7-0.2-22.9c0.1-1.8,0.2-2.8,0.2-2.8s13.9-14.6,12.3-19.8s-5.3-33-5.3-33l-0.6-4.3l-0.7-4.6l-0.2-1l-2.2-14.7l0,0
	c0.4,0.1,14.1,2.8,15.9,4.3c1.8,1.6,13,3.8,13,3.8c3.4,0.8,6.1,3.2,6.9,6.2c0.1,0.3,0.2,0.6,0.3,0.9c1.5,6.2,1,6.9,2,8
	C783.6,406,773.1,432.3,773.1,432.3z"/>
<path class="st4" d="M766.4,498c-5-0.9-12.4-2.9-12.2-7.3c0.2-4.1,5.9-5.6,10.2-6.2C765,488.8,765.7,493.6,766.4,498z"/>
<path class="st5" d="M781.9,495.8c-0.2,0.4-1,0.7-2.1,1c-2.7,0.6-5.4,0.9-8.1,1.2c0,0-17-1.2-16.8-7.9c0.2-4.8,7.9-6.1,12.2-6.4
	c1-0.1,1.9-0.1,2.9-0.1C769.9,483.6,782.6,494.4,781.9,495.8z"/>
<path class="st4" d="M781.9,495.8c-0.2,0.4-1,0.7-2.1,1c-4.4-5.1-10.6-11.7-13.6-12.3l0.9-0.7c1-0.1,1.9-0.1,2.9-0.1
	C769.9,483.6,782.6,494.4,781.9,495.8z"/>
<path class="st3" d="M777.6,404.2l5,0.6c1.8,2.8,3.8,5.4,6,8c1.3,1.4,2.1,3.2,2.2,5.1c0,0,7.3,9.4,9.7,10.5s5.9,8.3,5.9,8.3
	s5.8,3.3,5.8,7c0.1,3.1,0.5,6.2,1.1,9.2c0.1,0.5-0.8,7.1-3.3,10.4s-4.9,10.6-4.8,11.9c0.1,1.3-6.8,8.1-8.8,10.2
	c-1.6,2-3.1,4.1-4.3,6.3l-6.5,10.6c0,0-13.7-17.5-18.7-18.5c0,0,5.6-4.7,8.4-5.5c2.8-0.8,5.5-7.8,5.6-9.4s2.6-6.9,5.1-7.8
	c2.6-0.9,3.9-1.9,2.8-3.4s0-4.3,0-4.3s-7.2-8.3-8.2-13c-1-4.7-7.6-8-7.6-8l-3.8-8.1L777.6,404.2z"/>
<path class="st4" d="M795.8,443.8c2.8-2,6.2-3.2,9.9-3.2c-2.3,0.3-4.8,0.8-6.5,2.2c-0.7,0.6-1.3,1.3-1.8,2c-0.6,0.7-5.3,5.9-6,5.1
	C790.2,448.6,794.8,444.5,795.8,443.8z"/>
<path class="st4" d="M784.7,438.8c1.5-0.1,2.9-0.9,3.5-2.1c0.6-1.2,1-2.5,1.1-3.8c0.4-2.2,0.9-4.3,1.5-6.4c0.4-0.8,0.3-1.8-0.2-2.6
	c-0.3-0.7-0.6-1.3-1.1-1.9c-0.9,0.9-1.2,2.9-1.5,4.1c-0.5,1.4-0.9,2.9-1.3,4.3C786.5,431,784.8,438.8,784.7,438.8z"/>
<path class="st4" d="M780.4,396c-0.5,0.6-1.1,1.1-1.7,1.5c-2,1.4-4.7,2.5-4.9,4.7c0.1,0.7,0,1.4-0.3,2.1c-0.6,1-2.2,0.9-3.5,0.7
	c-1.1-0.1-2.1-0.4-2.9-0.9c-1.3-1-1.4-2.7-2.4-3.9c-1.2-1.3-3.1-2-5-1.9c-1.9-0.1-3.7,0.3-5.6,0.4c-1.2,0.1-2.4,0-3.6-0.2
	c-0.4-0.1-0.8-0.1-1.2-0.2c-0.8-0.2-1.7-0.4-2.4-0.7c-0.4-0.1-0.8-0.3-1.2-0.5c-1.3-0.6-2.4-1.3-3.5-2.1c-1.8-1.5-3.3-3.5-3.2-5.6
	c0.1-1.3,0.8-2.5,1-3.9c0.8-3.7-2.1-7.3-5.2-10c-1.2-1.1-2.6-2.1-3.8-3.2c-1.9-1.5-3.5-3.4-4.5-5.5c-0.8-2.2-1.1-4.6-0.8-6.9
	c0.3-2.4,0.4-4.8,0.2-7.1c-0.9-8.4-9.2-14.9-17.5-18.4l-0.4-0.2c9.7-9.6,26.5-10.6,37.6-2.2c11.1,8.4,12.3,23,2.6,32.6
	c-1.3,1.3-2.7,2.4-4.3,3.5c-0.1,0.3-0.2,0.5-0.2,0.8c-1.9,6.7-0.7,10.7,0.8,12.9l0,0c0.4,0.1,14.1,2.8,15.9,4.3s13,3.8,13,3.8
	C776.8,390.6,779.5,393,780.4,396z"/>
<path class="st6" d="M706.3,328c0.5-0.5,1.4-0.8,1.9-1.4c1.7-1.6,0-4.3,0.6-6.4c0.7-2.4,4.1-3.4,6.9-3.2s5.5,1.4,8.3,1.7
	c4.4,0.4,8.6-1.2,12.9-2.2c4.3-1,9.4-1,12.4,1.8c2.9,2.8,2.7,7.7,6.4,9.7c1.7,0.9,3.8,1,5.7,1.7c2,0.9,3.7,2.3,4.8,4
	c2.9,3.9,4.2,8.6,3.6,13.3c-0.3,2.5-1.2,5-1.5,7.5c-0.3,2.6-0.1,5.3,0.6,7.8c0.8,2.6,2.4,5.4,5.4,6.2c0.7,0.1,1.4,0.3,2,0.6
	c1.7,0.9,1.5,3.1,1.1,4.9l-1.8,7.1c1.7,1.1,4.4,0.6,6,1.8c0.7,0.5,1.1,1.2,1.4,1.9c1.6,4.1,0.2,8.6-3.6,11.4c-2,1.4-4.7,2.5-4.9,4.7
	c0.1,0.7,0,1.4-0.3,2.1c-0.6,1-2.2,0.9-3.5,0.7c-1.1-0.1-2.1-0.4-2.9-0.9c-1.3-1-1.4-2.7-2.4-3.9c-1.2-1.3-3.1-2-5-1.9
	c-1.9-0.1-3.7,0.3-5.6,0.4c-4.3,0.2-8.6-1.2-11.8-3.7c-1.8-1.5-3.3-3.5-3.2-5.6c0.1-1.3,0.8-2.5,1-3.9c0.7-3.7-2.1-7.3-5.2-10
	c-3.1-2.7-6.8-5.2-8.3-8.7c-1.9-4.4-0.1-9.3-0.6-14c-0.9-8.4-9.2-14.9-17.5-18.4C707.3,332.2,704.2,330.1,706.3,328z"/>
<path class="st4" d="M771.7,400.8c-1.3-1-1.4-2.7-2.4-3.9c-1.2-1.3-3.1-2-5-1.9c-1.9-0.1-3.7,0.3-5.6,0.4c-4.4,0.2-8.6-1.2-11.8-3.7
	c-1.8-1.5-3.3-3.5-3.2-5.6c0.1-1.3,0.8-2.6,1-3.9c0.8-3.7-2.1-7.3-5.2-10c-3.1-2.7-6.8-5.2-8.3-8.7c-1.9-4.4,0-9.3-0.6-14
	c-0.9-8.4-9.2-14.9-17.5-18.4c-1.9-0.8-5.1-2.9-2.9-5c0.5-0.5,1.4-0.8,1.9-1.4c1.7-1.6,0-4.3,0.6-6.4c0.1-0.4,0.3-0.8,0.6-1.2
	c-2.1,0.3-4,1.4-4.5,3.1c-0.6,2.2,1.1,4.8-0.6,6.4c-0.6,0.5-1.4,0.8-1.9,1.3c-2.2,2.1,1,4.2,2.9,5c8.3,3.5,16.6,10,17.5,18.4
	c0.5,4.7-1.3,9.6,0.6,14c1.5,3.6,5.2,6.1,8.3,8.7c3.1,2.6,6,6.2,5.2,10c-0.4,1.3-0.8,2.6-1,3.9c-0.1,2.2,1.4,4.2,3.2,5.6
	c3.2,2.5,7.5,3.9,11.8,3.7c1.9-0.1,3.7-0.4,5.6-0.4c1.9-0.1,3.8,0.6,5,1.9c1,1.2,1.1,3,2.4,3.9c0.9,0.5,1.9,0.8,2.9,0.9
	c1.2,0.2,2.8,0.3,3.5-0.7c0.2-0.4,0.3-0.8,0.3-1.2C773.5,401.6,772.5,401.3,771.7,400.8z"/>
<path class="st1" d="M626.1,349.3H557v-59.1h69.2L626.1,349.3z M625.1,260.1H558c0-91.9,100.7-86.5,100.7-144.6
	c0-32-30.2-57.7-67.1-57.7s-67.1,27.6-67.1,58.6h-67.1C457.2,52.2,517.1,0.1,591.1,0c0.2,0,0.3,0,0.5,0
	c74.1,0,134.2,51.3,134.2,115.5C725.8,188.2,625.1,196.5,625.1,260.1L625.1,260.1z"/>
<path class="st0" d="M281.1,331.6h-17.8v-15.3h17.8V331.6z M280.9,308.7h-17.3c0-23.7,26-22.3,26-37.3c0-8.2-7.8-14.9-17.3-14.9
	c0,0,0,0,0,0c-9.5,0.2-17.1,6.9-17.3,15.1h-17.3c0.2-16.6,15.9-29.8,35-29.6c18.7,0.2,33.8,13.2,34.2,29.4
	C306.8,290.1,280.9,292.2,280.9,308.7L280.9,308.7z"/>
<path class="st0" d="M416.2,437.8h-17.8v-15.2h17.8V437.8z M416,414.8h-17.3c0-23.7,26-22.3,26-37.3c0-8.2-7.8-14.9-17.3-14.9
	c0,0,0,0,0,0c-9.5,0.1-17.2,6.8-17.4,15.1h-17.3c0.2-16.6,15.9-29.8,35-29.6c18.7,0.2,33.8,13.2,34.2,29.4
	C441.9,396.3,416,398.4,416,414.8z"/>
<path class="st0" d="M498.4,249.9h-12.9v-11h12.9V249.9z M498.2,233.2h-12.5c0-17.2,18.8-16.2,18.8-27c0-6-5.6-10.8-12.5-10.8
	c0,0,0,0,0,0c-6.9,0.1-12.4,5-12.5,10.9h-12.5c-0.1-12,11.1-21.8,25-21.8c13.9,0,25.1,9.7,25.2,21.7
	C517,219.8,498.2,221.3,498.2,233.2z"/>
<path class="st0" d="M719.2,265.4h-7.3v-6.2h7.3V265.4z M719.1,256H712c0-9.7,10.6-9.1,10.6-15.3c0-3.4-3.1-6.1-7-6.1
	c0,0-0.1,0-0.1,0c-3.9,0.1-7,2.8-7.1,6.2h-7.1c0.2-6.8,6.7-12.2,14.5-12c7.5,0.1,13.6,5.4,13.9,11.9
	C729.7,248.4,719.1,249.3,719.1,256z"/>
<path class="st0" d="M831,549.4h-7.3v-6.2h7.3V549.4z M830.9,540h-7.1c0-9.7,10.6-9.1,10.6-15.3c0-3.4-3.2-6.1-7.1-6.1
	c-3.9,0.1-7,2.8-7.1,6.2h-7.1c0.2-6.8,6.7-12.2,14.5-12c7.5,0.1,13.6,5.4,13.9,11.9C841.5,532.4,830.9,533.3,830.9,540L830.9,540z"
	/>
</svg>
