<svg id="Layer_1" data-name="Layer 1" xmlns="http://www.w3.org/2000/svg" xmlns:xlink="http://www.w3.org/1999/xlink" viewBox="0 0 1003.88 690.18"><defs><style>.cls-1,.cls-2{fill:#3e76f9;}.cls-1,.cls-5{opacity:0.1;isolation:isolate;}.cls-3{fill:url(#linear-gradient);}.cls-4{fill:#4c4981;}.cls-6{fill:#ae6e79;}.cls-7{fill:#444053;}.cls-8{fill:#fff;}</style><linearGradient id="linear-gradient" x1="795.21" y1="120.06" x2="795.21" y2="506.53" gradientTransform="matrix(1, 0, 0, -1, -98.04, 806.28)" gradientUnits="userSpaceOnUse"><stop offset="0" stop-color="gray" stop-opacity="0.25"/><stop offset="0.54" stop-color="gray" stop-opacity="0.12"/><stop offset="1" stop-color="gray" stop-opacity="0.1"/></linearGradient></defs><title>question-two</title><ellipse class="cls-1" cx="713.5" cy="681.85" rx="102.56" ry="8.34"/><path class="cls-1" d="M439.53,10.1C484.7-3.75,539.69,8.16,586.65,25.53,734.14,80.1,841.59,183.69,927,289.22c30.91,38.22,60.27,78.11,71.89,120.77,23.66,86.83-38.05,176.72-143,208.22-35.69,10.72-74.9,15.12-114.17,17.57-69.83,4.36-142.13,2.63-211.4-13.53-49.4-11.55-96.13-30.12-140.95-50.64C264.16,514.27,149.85,439.8,67.54,348.84,31.44,308.94.9,264,0,217.93s35.49-92.29,95.33-100.11c24.74-3.24,50.91.13,76.44,3.59,37.59,5.11,75.69,10.48,112.85,8.25C323,127.34,373,115,380,84.74,387.37,52.29,394.42,23.93,439.53,10.1Z" transform="translate(0 0)"/><path class="cls-2" d="M244,634.13s48.26-2.4,42.57,25.49c0,0,1.13,5-4.29,7.17,0,0-.08-2.07-4.95-1.37a26.22,26.22,0,0,1-5.24.22,12.22,12.22,0,0,1-6.41-2.19h0s-13.57-4.62-18.84-22.91c0,0-3.91-4-3.75-5l8.14,2.87s-2.78,4.85-.59,8.88c0,0,.26-8.69,1.83-8.5.31,0,4.23,1.65,4.23,1.65s-4.79,8.44-1.18,14.58c0,0-1.37-10.4,2.67-14L264,643.8s-5.6,8.71-1.8,15.82c0,0-1-10.91,3-15.16l5.2,3.3s-5.26,8.6-2.05,14.5c0,0,.41-12.71,3.17-13.66,0,0,4.55,3.3,5.24,4.67,0,0-3.6,6.23-1.37,9.52,0,0,1.37-8.46,2.5-8.5,0,0,4.52,5.61,5,9.45a17.87,17.87,0,0,0-3.91-10s4.38.62,6.94,3c0,0-.71-4-8.05-4.31,0,0-3.74-4.25-4.75-4.51,0,0,7.31-.51,11.74,1.12,0,0-3.9-3.75-13.08-2l-5.13-3.44s9.63-1.09,13.7.11c0,0-4.69-3.3-15.08-.9L259.64,640s8.2-1.46,13.09-.93c0,0-5.16-2.3-14.73.19l-4-1.48s6-1,7.77-1.13,1.85-.55,1.85-.55a24.88,24.88,0,0,0-11.29,1S243.87,634.61,244,634.13Z" transform="translate(0 0)"/><ellipse class="cls-1" cx="277.26" cy="669.23" rx="34.16" ry="4.76"/><path class="cls-2" d="M179.37,652.27s27.21-1.44,24,15.24a3.92,3.92,0,0,1-2.41,4.28s-.05-1.23-2.79-.81a14.52,14.52,0,0,1-2.95.12,6.54,6.54,0,0,1-3.62-1.3h0S184,667,181,656.1c0,0-2.2-2.39-2.12-3l4.6,1.75s-1.57,2.9-.34,5.3c0,0,.15-5.2,1-5.08.18,0,2.39,1,2.39,1s-2.7,5-.66,8.74c0,0-.78-6.21,1.5-8.35l3.23,1.65s-3.15,5.25-1,9.46c0,0-.55-6.52,1.69-9.05l2.93,2s-3,5.13-1.15,8.66c0,0,.23-7.59,1.79-8.16a16.42,16.42,0,0,1,3,2.79s-2,3.72-.77,5.69c0,0,.77-5,1.41-5.08,0,0,2.55,3.35,2.81,5.65a11.25,11.25,0,0,0-2.2-6,8.06,8.06,0,0,1,3.91,1.74s-.39-2.36-4.54-2.57c0,0-2.11-2.55-2.67-2.7,0,0,4.12-.3,6.62.67,0,0-2.2-2.24-7.38-1.23L192.07,658s5.43-.65,7.73.07c0,0-2.65-2-8.51-.53l-3.14-1.66a33.07,33.07,0,0,1,7.37-.55s-2.9-1.37-8.3.12l-2.25-.88s3.39-.58,4.38-.67,1.05-.33,1.05-.33a13.35,13.35,0,0,0-6.37.62S179.29,652.56,179.37,652.27Z" transform="translate(0 0)"/><ellipse class="cls-1" cx="198.11" cy="673.23" rx="19.26" ry="2.85"/><path class="cls-2" d="M848.78,630.48s32.85-1.65,29,17.33a4.47,4.47,0,0,1-2.92,4.88s-.06-1.41-3.37-.93a18.53,18.53,0,0,1-3.57.14,8.26,8.26,0,0,1-4.36-1.49h0s-9.24-3.14-12.83-15.6c0,0-2.66-2.71-2.55-3.4l5.54,1.94s-1.89,3.3-.4,6c0,0,.18-5.92,1.24-5.77.22,0,2.88,1.13,2.88,1.13s-3.26,5.78-.8,9.9c0,0-.93-7.07,1.82-9.5l3.9,1.87s-3.81,5.94-1.22,10.78c0,0-.67-7.42,2-10.31l3.54,2.27s-3.58,5.85-1.4,9.9c0,0,.29-8.64,2.17-9.3,0,0,3.09,2.25,3.56,3.17,0,0-2.45,4.25-.93,6.49,0,0,.93-5.77,1.7-5.77,0,0,3.08,3.82,3.4,6.43a12.21,12.21,0,0,0-2.65-6.79,10,10,0,0,1,4.72,2s-.48-2.7-5.49-2.94c0,0-2.54-2.89-3.22-3.07,0,0,5-.34,8,.76,0,0-2.66-2.54-8.91-1.38l-3.49-2.35s6.55-.75,9.33.07c0,0-3.2-2.25-10.27-.61l-3.8-1.87a41.92,41.92,0,0,1,8.91-.64s-3.51-1.56-10,.13l-2.72-1s4.09-.67,5.29-.77,1.26-.38,1.26-.38a17.17,17.17,0,0,0-7.68.7S848.68,630.8,848.78,630.48Z" transform="translate(0 0)"/><ellipse class="cls-1" cx="871.4" cy="654.38" rx="23.25" ry="3.24"/><path class="cls-3" d="M816.05,430.24a49.24,49.24,0,0,1-1.09-8.79c0-3.54-5.83-6.67-5.83-6.67s-3.6-6.87-6-7.89-9.81-10-9.81-10a7.41,7.41,0,0,0-2.23-4.85,69.77,69.77,0,0,1-6.07-7.56h0c-1-1-.5-1.71-2-7.58a8.21,8.21,0,0,0-.28-.88,1,1,0,0,0-.16-.38c3.25-2.69,4.35-6.67,2.83-10.25a4.15,4.15,0,0,0-1.42-1.82c-1.69-1.14-4.39-.67-6.13-1.75l1.85-6.74c.44-1.65.67-3.74-1.08-4.63a10.3,10.3,0,0,0-2.06-.57c-3-.82-4.74-3.44-5.52-5.95a17,17,0,0,1-.6-7.43c.34-2.39,1.19-4.72,1.5-7.12a16.94,16.94,0,0,0-3.67-12.65,11.18,11.18,0,0,0-4.85-3.78c-1.85-.68-4-.82-5.73-1.65-3.72-1.95-3.53-6.6-6.5-9.26s-8.23-2.66-12.56-1.74-8.64,2.47-13.08,2.09c-2.86-.27-5.54-1.34-8.41-1.59a11.24,11.24,0,0,0-2.46.09v-.07c-2.12.31-4.07,1.29-4.57,2.94A3.82,3.82,0,0,0,710,305c0,1,.28,2,.3,2.89a2.48,2.48,0,0,1-.81,2c-.57.5-1.41.77-2,1.29a1.88,1.88,0,0,0-.73,1.52c0,1.46,2.22,2.76,3.71,3.35h.06c-.4.33-.8.68-1.17,1a19.72,19.72,0,0,0-6.62,14.43c.07,8.77,6.45,16.67,16.24,20.11l-.21.54a26.69,26.69,0,0,1-1.47,3.11,8.89,8.89,0,0,0-6.28.58c-2.86,1.65-8.45,1.52-9.94,1.21s-17-1.92-18.25-1.51-3.72-1.42-5.33,1-2.36,3.74-4,4.35-4.47,2.52-4.09,2.92-4.1,2.83-4.1,2.83-3.85,3.3-6.08,3.74-7,2.94-7,2.94l-5.47,3.53s-4.09.51-2.85-1.82-2.24-5.25-2.24-5.25-7-11.62-7-14S629,343.15,629,343.15l-.7-.06-.32-.75a73.64,73.64,0,0,0-3.45-7.17c-2-3.34-3.23-3.68-3.23-3.68s-24.08-14.92-39.72-10.37,28.55,18.09,32.52,19.51c1.39.49,2.39,2.09,3.09,4a19.7,19.7,0,0,0-8.55,6.35s9.56,17.47,9.81,21.82,6.58,16.5,6.58,16.5,2.36,9,15.14,8.48c0,0,17.63,2.68,21.48,0s7.32-4.76,9.19-5.07a7.32,7.32,0,0,0,3.47-2s-5.83,30.31-8.69,32.94-28.13,36.67-19.06,42.75a187.76,187.76,0,0,0,22.71,12.38c.77.31,3.08-2.86,6.38-5.12v1.76c.06,12.11,2,30.52,4.68,34.64,4,6.07,2.36,17.79,2.36,17.79a20.17,20.17,0,0,0,6.71,1.32c.12.4.26.83.39,1.24,2.19,6.82,5.74,17.37,7.55,20.18,2.73,4.24,4.71,17.69,4.71,17.69s1.62,13.2,1,15c-.24.7.81,6.2,2.46,13.2h0c-1,9.48-2.9,27.75-3.22,34.35h0v.48a.81.81,0,0,1,0,.22v.41h0a5.16,5.16,0,0,0,.06,1.24,3.36,3.36,0,0,1-.17,1.88,30.36,30.36,0,0,1-2.69,5.3,21.23,21.23,0,0,0-1.2,2.56,4.82,4.82,0,0,0-2.9,3.39c-1.24,4-3.1,14.85-3.1,14.85s-.75,6.67-2.23,8.19-3,11,7.57,12.23S712.81,677,712.81,677l-.37-26.46v0a4.58,4.58,0,0,0,.55-.72v-.07c.07-.12.15-.25.22-.4l.09-.2.16-.32a.24.24,0,0,1,0-.12,14.57,14.57,0,0,0,.9-7.87v-1.12a2.62,2.62,0,0,1,.06-.54c.06-.28,0-.07,0-.1l.06-.32v-.14a.51.51,0,0,1,.08-.33v-.08c.1-.38.22-.83.35-1.19v-.09l.15-.4h0c.15-.42.32-.82.5-1.27v-.08a1,1,0,0,1,.17-.39v-.05c.18-.4.37-.82.55-1.17l.05-.11.16-.33,0-.1.38-.73h0l2.93,7.46s1.62,5.56.75,6.88,1,6.77,2.23,6.87l-1.15,6.87a87.76,87.76,0,0,0-1.11,11.42c-.08.44-.16.83-.22,1.09-.8,3.52,1.12,9,1.12,9,9.8,9.56,21.48.74,21.48.74s1.36-5,0-6.06-.75-4.65-.75-4.65.62-9,.74-15.56-6.51-12.38-6.51-12.38l-.37.28c-1.21-2.58-2.59-5.58-2.3-6.93.5-2.32-1.37-26.88-1.37-26.88a120,120,0,0,0,.44-19.79h0c.16-1.12.31-2.21.46-3.3.75-5.28,1.36-9.79,1.6-12.16h0v-.28a12.08,12.08,0,0,0,.08-1.3c0-.83,0-1.77.1-2.8.23-2.84.77-6,.77-6l2.6-13s2-6.36,4.85-9.89l.34-.45h0l.34-.51,0-.07c.11-.18.23-.36.34-.55l0-.07c.4-.65.83-1.41,1.28-2.23,0-.07.07-.12.1-.19l.34-.63c0-.08.08-.16.13-.24l.32-.63a2.1,2.1,0,0,0,.13-.26c.13-.24.27-.5.4-.76l.19-.38c.09-.19.19-.38.29-.57l.24-.51c.07-.12.13-.24.19-.37l.27-.57c0-.08.09-.17.13-.25.71-1.46,1.39-2.9,2-4.22h0l.55-1.18c6.36.32,10.68.61,10.68.61s2-11.82,1.36-19.6c-.42-5.31.78-12,1.57-15.67.09-.41.17-.77.25-1.1l.17.12c3.11,2,5.34-4.66,5.34-4.66s-.84-6.22-2-13.77l-.12-.75c1.79.31,3.61.54,5.43.68,0,0,1-.07,2.37-.21A72.86,72.86,0,0,0,788,477.23l6.61-10.06a40,40,0,0,1,4.35-6c2-2,9.06-8.49,8.94-9.7s2.36-8.19,4.84-11.33S816.17,430.75,816.05,430.24Zm-27.56,7.68c-2.61.91-5.09,6-5.21,7.48s-2.86,8.18-5.71,9c-2.63.75-7.65,4.56-8.45,5.17-.82.05-1.75.15-2.72.28-1.09-6.38-2.17-11.66-2.86-12.72-2-3,2.19-12.74,2.19-12.74s.41-9.8,3-12.12,2-8.19,2-8.19.62-2.43.87-3.53,3.69,0,3.72,0h0s6.7,3,7.7,7.57,8.32,12.43,8.32,12.43-1.12,2.73,0,4.12S791.1,437,788.49,437.92Z" transform="translate(0 0)"/><path class="cls-4" d="M609,351.55c4.17-5.67,12-8.73,20-7.77v11.81h-8.69l-6.8-1.42Z" transform="translate(0 0)"/><path class="cls-5" d="M609,351.55c4.17-5.67,12-8.73,20-7.77v11.81h-8.69l-6.8-1.42Z" transform="translate(0 0)"/><path class="cls-6" d="M629.61,346.91,619,353.06s-.09-1.22-.36-2.91c-.53-3.18-1.72-8-4.29-8.88-3.91-1.42-47.44-14.93-32-19.47s39.13,10.35,39.13,10.35,1.22.34,3.17,3.67A77.65,77.65,0,0,1,628,343C629,345.17,629.61,346.91,629.61,346.91Z" transform="translate(0 0)"/><polygon class="cls-4" points="714.69 356.39 715.9 355.92 719.3 359.12 716.52 364.01 711.78 362.44 712.88 358.53 714.69 356.39"/><path class="cls-7" d="M698.58,642.86s-3.06-.3-4.28,3.63-3.06,14.85-3.06,14.85-.73,6.66-2.2,8.17-2.93,11,7.46,12.2,14.92-4.61,14.92-4.61l-.37-26.45Z" transform="translate(0 0)"/><path class="cls-7" d="M734.84,644s6.54,5.78,6.42,12.33-.74,15.53-.74,15.53-.6,3.64.74,4.64,0,6.06,0,6.06-11.5,8.8-21.16-.75c0,0-1.88-5.45-1.1-9s3-19.31,3-19.31Z" transform="translate(0 0)"/><path class="cls-6" d="M751,523.43s-6.6,15.23-9.42,18.76-4.76,9.89-4.76,9.89l-2.57,13a60.29,60.29,0,0,0-.86,8.78c.12,2.93-6.36,45.59-6.36,45.59L716.8,630.25S712.28,637.82,713,641s-.49,8.17-2,9.68c0,0-.24,9.9-.61,12.1s1.35,8.48,0,9.58-19.32.61-19.81-1.21,2.2-10.59,2.2-10.59l1.59-8.47s3.18-4.64,2.45-6.15,1.34-5,1.46-5.35,3.43-5.24,2.82-7.16S705,590.8,705,590.8l12.59-72.92Z" transform="translate(0 0)"/><path class="cls-5" d="M751,523.43s-1,2.29-2.37,5.3c-2.18,4.76-5.32,11.3-7,13.46-2.81,3.53-4.77,9.89-4.77,9.89l-2.57,13a60.27,60.27,0,0,0-.85,8.78c0,1.15-.94,8.52-2.14,17-1.85,13-4.22,28.58-4.22,28.58l-10.27,10.8s-.52.83-1.17,2.13c-1.29,2.47-3.11,6.49-2.62,8.56.73,3.13-.49,8.17-2,9.68,0,0-.25,9.9-.61,12.1s1.35,8.48,0,9.59-19.32.61-19.81-1.21,2.2-10.59,2.2-10.59l1.59-8.48s3.18-4.63,2.44-6.15,1.35-5,1.47-5.34,3.43-5.25,2.82-7.16c-.47-1.46,2-25.36,3.15-36.69.39-3.56.64-5.88.64-5.88l10.83-62.74.88-5.05.88-5.13Z" transform="translate(0 0)"/><path class="cls-6" d="M740,675.12c.11,1.12-17.25,2.73-19.73,1.52s0-16.24,0-16.24l1.13-6.85c-1.21-.11-3.05-5.55-2.2-6.87s-.73-6.85-.73-6.85l-2.88-7.42-1.76-4.55c-2.86-5.2-7-20.05-9.57-31.14-1.62-7-2.65-12.44-2.42-13.14.61-1.82-1-15-1-15s-2-13.42-4.64-17.65c-1.79-2.81-5.28-13.34-7.44-20.14-1.1-3.49-1.86-6-1.86-6s18.48-1.28,29.69-1.73c5.15-.2,8.77-.23,8.35.12s-.53,2.19-.51,4.86c0,6.93,1.22,19.1,2.46,22.37,1.71,4.54,3.42,18.15,2.69,19.47s-.49,10.09-.49,10.09a38,38,0,0,1,2.16,10.94,122.42,122.42,0,0,1-.42,19.71s1.83,24.51,1.34,26.83,3.91,9.58,3.91,11,1.22,11,1.22,11S740,674,740,675.12Z" transform="translate(0 0)"/><path class="cls-6" d="M749.69,380.5l-2.1,1.87-1.37,1.22-8,7.09-20.67,1.93-11-2.43-2.72-.6s0-4.55.49-10c.7-7,2.37-15.51,6.36-17.83a13.81,13.81,0,0,0,4.65-4.86,24.36,24.36,0,0,0,2-4.07c.08-.18.14-.36.21-.54a38.47,38.47,0,0,0,1.94-7.48s2.64-1.2,6.31-2.61c9.57-3.68,26.1-8.77,20.35,2.61a38.64,38.64,0,0,0-2.16,5.12c-.09.25-.17.51-.24.75-1.92,6.34-.65,10.18.78,12.3h0a7.5,7.5,0,0,0,.83,1.05,6.3,6.3,0,0,0,1.39,1.16l2.38,12.47.2,1Z" transform="translate(0 0)"/><path class="cls-5" d="M746.15,345.4c-1.09,2.16.53-1.76,0,0-4.36,2.56-14.63,9.84-20.4,9.84-3.9,0-5.07-.58-8.41-1.83a38.43,38.43,0,0,0,2.15-8S754.1,329.66,746.15,345.4Z" transform="translate(0 0)"/><path class="cls-6" d="M755,332.15c0,11.25-10.31,20.68-23.87,21.86-.92.08-1.85.13-2.79.13-14.72,0-26.66-9.85-26.66-22s11.94-22,26.66-22S755,320,755,332.15Z" transform="translate(0 0)"/><path class="cls-5" d="M758.75,429.62,755,437.8s-3.09.11-7.91.23c-16.27.43-52.12,1-53.72-2.48a7.3,7.3,0,0,1-.56-2.71c-.21-5.25,2.76-13.32,2.76-13.32s1.71-16.14,1.71-16.84-1.47-12-1.47-12l2.94-9.08,8.19-4.74s3.67,4.65,5.87,5,5.14,2.63,5.14,2.63,7.21,3.63,9.54,1.61,20.42-10.89,20.42-10.89l9.54,8.67Z" transform="translate(0 0)"/><path class="cls-8" d="M758.75,430.88,755,439s-3.09.12-7.91.24h-.47c-2.08.06-4.46.12-7,.16-12.93.25-30.74.31-40.05-.83-3.5-.41-5.79-1-6.17-1.81a6.27,6.27,0,0,1-.44-1.5c-.06-.38-.1-.83-.12-1.21-.21-5.26,2.76-13.32,2.76-13.32s1.71-16.15,1.71-16.85-1.47-12-1.47-12l2.94-9.07,5.63-3.25,2.56-1.48a33.5,33.5,0,0,0,2.81,3.05,7.54,7.54,0,0,0,3.06,2c2.21.4,5.14,2.63,5.14,2.63s7.21,3.63,9.54,1.6c1.77-1.54,12.77-7.09,17.85-9.62l2.57-1.27,1.28,1.17,8.26,7.51Z" transform="translate(0 0)"/><path class="cls-5" d="M629.61,346.91,619,353.06s-.09-1.22-.36-2.91A20.31,20.31,0,0,0,628,343C629,345.17,629.61,346.91,629.61,346.91Z" transform="translate(0 0)"/><path class="cls-4" d="M667,367.8l-2.32-.52s-3.8,3.3-6,3.74-6.84,2.92-6.84,2.92l-5.39,3.53s-4,.51-2.81-1.81-2.2-5.25-2.2-5.25-6.85-11.6-6.85-14S629,343.78,629,343.78s-7.1,11.4-20.06,7.77c0,0,9.42,17.45,9.66,21.79S625,389.78,625,389.78s2.33,9,14.92,8.48c0,0,17.37,2.66,21.16,0s7.21-4.76,9-5.07a7.41,7.41,0,0,0,3.42-2v-12Z" transform="translate(0 0)"/><path class="cls-5" d="M645.26,379.19s3.06,9.38,1.1,10.39Z" transform="translate(0 0)"/><path class="cls-5" d="M747,439.24c-16.27.43-52.12,1-53.72-2.47a7.35,7.35,0,0,1-.56-2.72l53.15,2.31Z" transform="translate(0 0)"/><path class="cls-5" d="M751,523.43s-1,2.29-2.37,5.3c-6.75-.33-15.69-.69-24.18-.74-3,0-5.94,0-8.72.08a79,79,0,0,0-14.25,1.31,45.41,45.41,0,0,1-12.7,1.35c-1.1-3.49-1.86-6-1.86-6s18.48-1.27,29.69-1.72l.88-5.13Z" transform="translate(0 0)"/><path class="cls-7" d="M765.35,486.51l-2.08,3.63s-.29,1.08-.66,2.8c-.78,3.69-2,10.36-1.54,15.67.61,7.77-1.35,19.56-1.35,19.56s-45-3.12-58.2,0-19.7,0-19.7,0,1.6-11.69-2.32-17.75c-2.67-4.12-4.55-22.53-4.61-34.64,0-5.58.34-9.81,1.19-10.67,2.69-2.72,14.18-30,14.18-30l2.62.12,7,.3,39.8,1.73,6.25.28.66,1.64Z" transform="translate(0 0)"/><path class="cls-4" d="M785.16,474.4l.37,3.24s-19.71-5.3-18.71-11.81,0-5.77,0-5.77l15.84,1.11Z" transform="translate(0 0)"/><path class="cls-5" d="M785.16,474.4l.37,3.24s-19.71-5.3-18.71-11.81,0-5.77,0-5.77l15.84,1.11Z" transform="translate(0 0)"/><path class="cls-5" d="M658.41,381.79a19.06,19.06,0,0,0,6.94,3,5,5,0,0,1-2-.82c-1.41-.83-2.75-1.73-4.11-2.6-1.1-.71-2.47-1.89-3.82-2.18A18.84,18.84,0,0,0,658.41,381.79Z" transform="translate(0 0)"/><path class="cls-5" d="M658.71,386a7.22,7.22,0,0,1,1.52,2,10,10,0,0,1-.11,6.24L657,388a35,35,0,0,0-1.76-3.17c-.29-.44-2.11-2.26-1.9-2.64C653.86,381.11,658.12,385.44,658.71,386Z" transform="translate(0 0)"/><path class="cls-5" d="M746.88,420.85a11.25,11.25,0,0,0,5.75-2.22c-3.25.34-6.33,1.39-9.53,1.95a17,17,0,0,1-8.88-.68C737.9,421.38,743,421.43,746.88,420.85Z" transform="translate(0 0)"/><path class="cls-5" d="M737.69,402.38A2.59,2.59,0,0,1,736,402c-2.44-1.15-4.85-2.36-7.22-3.61a49.53,49.53,0,0,1-7.07-4C726.6,398,731.12,401.07,737.69,402.38Z" transform="translate(0 0)"/><path class="cls-5" d="M744.47,423.78a18.79,18.79,0,0,0,3.82-.26,5.28,5.28,0,0,0,3.14-1.7,2.16,2.16,0,0,0-1.33.17,26.82,26.82,0,0,1-12.28,1.22C739.81,423.91,742.36,423.77,744.47,423.78Z" transform="translate(0 0)"/><path class="cls-5" d="M721.31,470.61a47.45,47.45,0,0,1-7.81,1.26,55.42,55.42,0,0,1-6.18-.1l-10-.52-5-.26c-.59,0-3,0-1.81-1,.6-.48,3.94-.18,4.8-.2,1.66,0,3.33-.07,5-.08,3.31,0,6.63,0,9.94.17C714,470.05,717.61,470.28,721.31,470.61Z" transform="translate(0 0)"/><path class="cls-5" d="M709.72,474.69c-1.7-.06-3.89.78-5.64,1a46.47,46.47,0,0,1-5.9.19,39.05,39.05,0,0,1-11.37-1.92C694.44,474.25,702.09,474.44,709.72,474.69Z" transform="translate(0 0)"/><path class="cls-5" d="M688.3,479a19.71,19.71,0,0,1,2.18.5c4.22,1,8.71.11,13-.76-1.07,1.33-3,1.9-4.93,2.26a27.64,27.64,0,0,1-9.6.29c-1-.17-3.51-.46-4-1.32C684.13,478.72,687.36,478.89,688.3,479Z" transform="translate(0 0)"/><path class="cls-5" d="M712,485.52c1.27.22,2.51.49,3.74.83,4.75,1,9.68-.37,14.45-1.27a81.13,81.13,0,0,1,17.49-1.33,20.43,20.43,0,0,0-3.75,1c-1.35.34-2.72.65-4.09.94-2.69.54-5.42,1-8.17,1.31a102.07,102.07,0,0,1-16.77.6c-2.56-.12-7,.1-9.19-1A12,12,0,0,1,712,485.52Z" transform="translate(0 0)"/><path class="cls-5" d="M713.75,361.12s.24,9.29-1.59,13.53c-.58,1.32-1.48,3.75-2.46,6.48-1.07,3-2.24,6.42-3.14,9.08l-1.5,4.43s-4.13,27.75-5.2,41a2.76,2.76,0,0,1-.06.7,22.3,22.3,0,0,1-.31,2.31c-2.38,13.13-16.11,33.38-20.72,35a14.05,14.05,0,0,0-3.88,2.2c0-5.58.34-9.81,1.19-10.67,2.69-2.72,14.18-30,14.18-30l2.62.12c-.06-.38-.1-.83-.12-1.22-.21-5.25,2.76-13.32,2.76-13.32s1.71-16.14,1.71-16.84-1.47-12-1.47-12l2.94-9.07,5.63-3.25c.7-7,2.37-15.51,6.36-17.83a13.87,13.87,0,0,0,4.65-4.85c.79.09-.65-.49-.65-.49Z" transform="translate(0 0)"/><path class="cls-4" d="M715.9,355.92a8.64,8.64,0,0,0-6.19.58c-2.82,1.65-8.32,1.5-9.79,1.21s-16.75-1.92-18-1.52-3.67-1.41-5.26,1-2.32,3.73-3.91,4.34-4.41,2.52-4,2.92-4,2.82-4,2.82l8.92,23.92s-5.75,30.26-8.56,32.88-27.76,36.61-18.83,42.67a184.68,184.68,0,0,0,22.38,12.37c1,.41,4.52-5,9.41-6.75s20.06-24.42,21-37.33,5.26-41.65,5.26-41.65,5.26-15.74,7.09-20S713,359.89,713,359.89Z" transform="translate(0 0)"/><path class="cls-5" d="M765.35,486.51l-2.08,3.63s-.29,1.08-.66,2.8a2.12,2.12,0,0,1-1-.37c-3.06-2-21-17.25-21.89-30.77a201.61,201.61,0,0,1-.13-22.39c.06-1.21.12-1.93.12-2.09h0s13.94-13.92,12.35-18.86-5.26-31.34-5.26-31.34l-.54-3.46-.93-5.86-2.22-14.17,2.3.45a6.3,6.3,0,0,0,1.39,1.16l2.38,12.46,8.26,7.51,1.35,45.69-3.8,8.17s-3.09.11-7.91.24h-.47Z" transform="translate(0 0)"/><path class="cls-4" d="M773.05,411.08s-3.42-1.11-3.66,0-.86,3.52-.86,3.52.61,5.86-2,8.18-3,12.1-3,12.1-4.12,9.68-2.17,12.71c.71,1.1,1.81,6.6,2.91,13.2.7,4.12,1.39,8.65,2,12.79,1.11,7.52,1.94,13.75,1.94,13.75S766,494,762.94,492s-21-17.24-21.88-30.76a201.47,201.47,0,0,1-.16-21.81c.08-1.72.16-2.7.16-2.7s13.94-13.92,12.35-18.86-5.26-31.34-5.26-31.34l-.64-4.09-.69-4.39-.16-1-2.21-14h0c.39.07,14.11,2.63,15.92,4.12s13,3.63,13,3.63a9,9,0,0,1,6.94,5.87,7.71,7.71,0,0,1,.27.89c1.47,5.85,1,6.55,2,7.57S773.05,411.08,773.05,411.08Z" transform="translate(0 0)"/><path class="cls-5" d="M766.35,473.57c-5-.82-12.42-2.73-12.25-6.94.15-3.93,5.89-5.35,10.24-5.85C765,464.88,765.73,469.43,766.35,473.57Z" transform="translate(0 0)"/><path class="cls-6" d="M781.86,471.48c-.2.35-1,.66-2.14.93a68.76,68.76,0,0,1-8.13,1.09s-17-1.11-16.76-7.47c.18-4.56,7.86-5.77,12.17-6,1-.08,1.91-.11,2.87-.1C769.87,459.89,782.59,470.17,781.86,471.48Z" transform="translate(0 0)"/><path class="cls-5" d="M781.86,471.48c-.2.35-1,.66-2.14.93-4.43-4.89-10.61-11.17-13.64-11.72l.92-.7c1-.08,1.91-.11,2.87-.1C769.87,459.89,782.59,470.17,781.86,471.48Z" transform="translate(0 0)"/><path class="cls-4" d="M777.58,384.43l5,.61a72.7,72.7,0,0,0,6,7.57,7.47,7.47,0,0,1,2.2,4.84s7.34,9,9.66,10,5.87,7.87,5.87,7.87,5.75,3.12,5.75,6.65a49.15,49.15,0,0,0,1.1,8.78c.13.5-.85,6.76-3.3,9.9s-4.9,10-4.77,11.28-6.85,7.67-8.8,9.68a40.51,40.51,0,0,0-4.28,6l-6.48,10.09s-13.7-16.65-18.71-17.56c0,0,5.62-4.43,8.43-5.24s5.51-7.42,5.63-9,2.57-6.55,5.13-7.42,3.92-1.81,2.82-3.23,0-4.13,0-4.13-7.22-7.86-8.2-12.37-7.58-7.56-7.58-7.56l-3.79-7.67Z" transform="translate(0 0)"/><path class="cls-5" d="M795.77,422.09a18,18,0,0,1,9.87-3.09c-2.32.33-4.76.75-6.46,2.09a13.19,13.19,0,0,0-1.79,1.88c-.58.68-5.3,5.63-6,4.85C790.22,426.67,794.82,422.75,795.77,422.09Z" transform="translate(0 0)"/><path class="cls-5" d="M784.69,417.31a4.29,4.29,0,0,0,3.49-2,9.78,9.78,0,0,0,1.09-3.58,45.69,45.69,0,0,1,1.51-6.13,2.4,2.4,0,0,0-.21-2.47,7.93,7.93,0,0,0-1.08-1.83c-.9.82-1.16,2.75-1.53,3.85-.46,1.37-.88,2.75-1.28,4.12C786.47,409.89,784.81,417.31,784.69,417.31Z" transform="translate(0 0)"/><path class="cls-5" d="M780.36,376.59a9.4,9.4,0,0,1-1.69,1.43c-2,1.31-4.65,2.42-4.9,4.49a4,4,0,0,1-.3,2c-.64.91-2.21.82-3.46.65a6.92,6.92,0,0,1-2.93-.89c-1.31-.92-1.43-2.57-2.43-3.74a6.82,6.82,0,0,0-5-1.82c-1.87-.05-3.73.3-5.6.36a18,18,0,0,1-3.59-.2,11.22,11.22,0,0,1-1.16-.19,16.63,16.63,0,0,1-2.44-.69,11.28,11.28,0,0,1-1.19-.46,16.47,16.47,0,0,1-3.45-2c-1.83-1.39-3.35-3.3-3.2-5.35.09-1.26.78-2.43,1-3.67.75-3.57-2.12-6.93-5.23-9.48-1.24-1-2.56-2-3.8-3a15.4,15.4,0,0,1-4.47-5.26,13.11,13.11,0,0,1-.8-6.6,37.48,37.48,0,0,0,.23-6.78c-.92-8-9.22-14.16-17.52-17.5l-.37-.16c9.67-9.15,26.5-10.1,37.6-2.13s12.25,21.86,2.58,31a24.93,24.93,0,0,1-4.33,3.29c-.09.26-.17.51-.24.76-1.92,6.33-.65,10.18.78,12.3h0c.39.07,14.11,2.63,15.92,4.12s13,3.63,13,3.63A9,9,0,0,1,780.36,376.59Z" transform="translate(0 0)"/><path class="cls-7" d="M706.3,311.9c.55-.52,1.38-.79,1.94-1.29,1.73-1.55,0-4.08.63-6.13.68-2.27,4.06-3.26,6.88-3s5.46,1.31,8.28,1.58c4.38.4,8.62-1.16,12.89-2.08s9.43-1,12.37,1.73,2.74,7.29,6.4,9.25c1.69.9,3.82,1,5.65,1.65a11,11,0,0,1,4.78,3.77A17.07,17.07,0,0,1,769.74,330c-.31,2.39-1.15,4.71-1.49,7.11a17.3,17.3,0,0,0,.6,7.42c.77,2.47,2.44,5.15,5.43,5.94a9.75,9.75,0,0,1,2,.57c1.73.89,1.5,3,1.06,4.62l-1.78,6.77c1.71,1.07,4.37.61,6,1.74A4.13,4.13,0,0,1,783,366c1.65,3.88.22,8.19-3.59,10.84-2,1.31-4.65,2.42-4.9,4.48a3.92,3.92,0,0,1-.3,2c-.63.9-2.21.82-3.46.65a6.88,6.88,0,0,1-2.92-.89c-1.32-.93-1.43-2.58-2.43-3.74a6.82,6.82,0,0,0-5-1.82c-1.88-.05-3.73.3-5.61.37A18.76,18.76,0,0,1,743,374.34c-1.84-1.4-3.35-3.3-3.21-5.37.09-1.25.78-2.42,1-3.67.74-3.55-2.12-6.92-5.23-9.47s-6.76-4.9-8.28-8.29c-1.9-4.2-.06-8.89-.57-13.34-.92-8-9.21-14.16-17.52-17.51C707.3,315.91,704.15,313.92,706.3,311.9Z" transform="translate(0 0)"/><path class="cls-5" d="M771.7,381.17c-1.32-.94-1.43-2.58-2.43-3.74a6.83,6.83,0,0,0-5-1.83c-1.88-.05-3.74.3-5.61.37a18.76,18.76,0,0,1-11.83-3.52c-1.84-1.39-3.34-3.3-3.2-5.36.09-1.26.78-2.43,1-3.67.75-3.56-2.12-6.93-5.23-9.48s-6.75-4.9-8.28-8.29c-1.89-4.19,0-8.88-.56-13.34-.93-8-9.22-14.16-17.52-17.51C711.1,314,708,312,710.1,310c.54-.52,1.37-.79,1.93-1.29,1.73-1.54,0-4.08.64-6.12a3.17,3.17,0,0,1,.63-1.13c-2.09.32-4,1.3-4.51,2.95-.61,2,1.1,4.57-.63,6.12-.56.51-1.39.77-1.94,1.28-2.15,2,1,4,2.94,4.8,8.31,3.34,16.6,9.49,17.52,17.51.51,4.46-1.33,9.14.57,13.34,1.52,3.38,5.17,5.78,8.28,8.29s6,5.92,5.23,9.48a26.22,26.22,0,0,0-1,3.67c-.14,2,1.37,4,3.21,5.35a18.66,18.66,0,0,0,11.82,3.52c1.88-.07,3.73-.41,5.61-.37a6.87,6.87,0,0,1,5,1.83c1,1.17,1.11,2.82,2.43,3.74a6.73,6.73,0,0,0,2.92.88c1.25.19,2.83.26,3.46-.64a2,2,0,0,0,.28-1.19A6.56,6.56,0,0,1,771.7,381.17Z" transform="translate(0 0)"/><path class="cls-2" d="M626.13,332.15H557V275.93h69.22Zm-1-84.77H558c0-87.36,100.68-82.26,100.68-137.53,0-30.44-30.21-54.83-67.12-54.83s-67.11,26.29-67.11,55.7H457.29C457.16,49.67,517.05.1,591.06,0h.46c74.14,0,134.23,48.79,134.23,109.85,0,69.11-100.67,77-100.67,137.53Z" transform="translate(0 0)"/><path class="cls-1" d="M281.14,315.4H263.3V300.87h17.84Zm-.27-21.85h-17.3c0-22.52,25.95-21.21,25.95-35.47,0-7.85-7.78-14.18-17.29-14.15h0c-9.49.18-17.12,6.52-17.26,14.35h-17.3c.24-15.76,15.93-28.38,35-28.18,18.66.2,33.78,12.57,34.16,28-.05,17.82-26,19.85-26,35.45Z" transform="translate(0 0)"/><path class="cls-1" d="M416.22,416.37H398.38V401.88h17.84ZM416,394.52h-17.3c0-22.53,25.95-21.21,25.95-35.47,0-7.84-7.77-14.17-17.28-14.14h0c-9.54.15-17.22,6.51-17.35,14.37h-17.3c.24-15.76,15.93-28.38,35-28.18,18.67.19,33.79,12.56,34.17,28C441.9,376.88,416,378.91,416,394.52Z" transform="translate(0 0)"/><path class="cls-1" d="M498.36,237.63H485.43V227.15h12.93Zm-.19-15.84H485.63c0-16.32,18.81-15.37,18.81-25.7,0-5.68-5.65-10.27-12.54-10.24h0c-6.9.11-12.44,4.72-12.54,10.41H466.82c-.06-11.43,11.13-20.73,25-20.77s25.12,9.18,25.18,20.6C517,209,498.17,210.48,498.17,221.79Z" transform="translate(0 0)"/><path class="cls-1" d="M719.2,252.43h-7.31v-5.94h7.31Zm-.11-9H712c0-9.22,10.63-8.69,10.63-14.53,0-3.19-3.13-5.77-7-5.77h-.08c-3.9.07-7,2.67-7.09,5.88h-7.09c.18-6.46,6.66-11.57,14.49-11.43,7.54.14,13.63,5.12,13.86,11.34C729.72,236.22,719.09,237.09,719.09,243.48Z" transform="translate(0 0)"/><path class="cls-1" d="M831,522.53h-7.31v-5.94H831Zm-.11-8.95h-7.09c0-9.23,10.64-8.68,10.64-14.52,0-3.21-3.2-5.79-7.09-5.78s-7,2.67-7.09,5.88h-7.09c.18-6.45,6.66-11.57,14.49-11.43,7.54.14,13.63,5.13,13.86,11.34,0,7.29-10.59,8.12-10.59,14.51Z" transform="translate(0 0)"/></svg>