<?xml version="1.0" encoding="utf-8"?>
<!-- Generator: Adobe Illustrator 23.0.1, SVG Export Plug-In . SVG Version: 6.00 Build 0)  -->
<svg version="1.1" id="dd753f21-6b71-4d24-98dc-8d672633fdb2"
	 xmlns="http://www.w3.org/2000/svg" xmlns:xlink="http://www.w3.org/1999/xlink" x="0px" y="0px" viewBox="0 0 1028.5 752.5"
	 style="enable-background:new 0 0 1028.5 752.5;" xml:space="preserve">
<style type="text/css">
	.st0{opacity:0.5;fill:#DEE3F3;enable-background:new    ;}
	.st1{fill:#3E76F9;}
	.st2{opacity:0.1;enable-background:new    ;}
	.st3{fill:#F93ED4;}
	.st4{fill:#41F75F;}
	.st5{opacity:0.5;fill:#3E76F9;enable-background:new    ;}
	.st6{fill:url(#SVGID_1_);}
	.st7{fill:url(#SVGID_2_);}
	.st8{fill:url(#SVGID_3_);}
	.st9{fill:url(#SVGID_4_);}
	.st10{opacity:0.3;enable-background:new    ;}
	.st11{fill:#DEE3F3;}
	.st12{fill:none;stroke:#FC6681;stroke-width:2;stroke-miterlimit:10;}
	.st13{fill:#FC6681;}
	.st14{fill:none;stroke:#FFD037;stroke-width:2;stroke-miterlimit:10;}
	.st15{fill:#FFD037;}
	.st16{fill:#A8A8A8;}
	.st17{opacity:0.2;enable-background:new    ;}
</style>
<title>artificial_intelligence</title>
<ellipse class="st0" cx="512.3" cy="706.4" rx="256" ry="43"/>
<path class="st1" d="M450.8,259c0,0.5,0,1,0.1,1.4C450.8,259.9,450.8,259.5,450.8,259z"/>
<path class="st1" d="M579.7,228.1c0,0.1,0,0.2,0.1,0.4C579.7,228.3,579.7,228.2,579.7,228.1z"/>
<path class="st1" d="M579.4,226.8c0,0.1,0.1,0.3,0.1,0.4C579.5,227.1,579.5,226.9,579.4,226.8z"/>
<path class="st1" d="M579.6,261.4c0,0.2-0.1,0.4-0.2,0.6C579.5,261.8,579.5,261.6,579.6,261.4z"/>
<path class="st1" d="M579.7,260.3c0,0.2-0.1,0.5-0.1,0.7C579.7,260.8,579.7,260.6,579.7,260.3z"/>
<path class="st1" d="M456.7,268.8c-0.9-0.5-1.7-1-2.4-1.7C455.1,267.8,455.9,268.3,456.7,268.8z"/>
<path class="st1" d="M454.3,267c-0.3-0.3-0.6-0.6-0.9-1C453.6,266.4,453.9,266.7,454.3,267z"/>
<path class="st1" d="M644.5,478.4c-0.1-0.4-0.3-0.9-0.5-1.3C644.2,477.6,644.4,478,644.5,478.4z"/>
<path class="st1" d="M639,471.8c0.4,0.2,0.9,0.5,1.3,0.8C639.9,472.3,639.4,472,639,471.8z"/>
<path class="st1" d="M641.5,473.5c0.7,0.6,1.3,1.4,1.8,2.1C642.8,474.9,642.2,474.2,641.5,473.5z"/>
<path class="st1" d="M640.3,472.6c0.4,0.3,0.7,0.5,1,0.8C641,473.1,640.6,472.8,640.3,472.6z"/>
<path class="st1" d="M644,476.9c-0.2-0.3-0.3-0.7-0.5-1C643.6,476.3,643.8,476.6,644,476.9z"/>
<path class="st1" d="M644.8,479.8c-0.1-0.4-0.1-0.7-0.2-1.1C644.7,479.1,644.8,479.4,644.8,479.8z"/>
<path class="st1" d="M978.5,419.1h-63.7c3-2.1,4.8-5.5,4.8-9.1v-29.2c0-6.1-5-11.1-11.1-11.1l0,0h-73.2c4.6-1.5,7.7-5.7,7.7-10.5
	V330c0-3.6-1.8-7-4.8-9.1h70.3c6.1,0,11.1-5,11.1-11.1c0,0,0,0,0,0v-29.2c0-6.1-5-11.1-11.1-11.1l0,0h-78.3
	c4.6-1.5,7.7-5.7,7.7-10.5v-29.2c0-3.6-1.8-7-4.8-9.1h75.3c6.1,0,11.1-5,11.1-11.1c0,0,0,0,0,0v-29.2c0-6.1-4.9-11.1-11-11.1
	c0,0,0,0-0.1,0h-39.4c4.6-1.5,7.7-5.7,7.7-10.6v-29.2c0-6.1-5-11.1-11.1-11.1l0,0H758.8c-6.1,0-11.1,5-11.1,11.1v0
	c0-6.1-5-11.1-11.1-11.1l0,0H629.7c-4.3,0-8.2,2.5-10,6.4c0.1,0.7,0.2,1.4,0.2,2.2v29.3c0,1.6-0.3,3.2-1,4.6
	c0.5,2.5,1.9,4.8,3.8,6.4h27.5c2.6,0,5,0.9,7,2.5h12c-4.6,1.5-7.7,5.7-7.7,10.6c0-0.7-0.1-1.4-0.3-2.1c0,0,0,0.1,0,0.1v29.2
	c0,0.9-0.1,1.9-0.4,2.8c0.2,0.2,0.3,0.4,0.5,0.6c0.1-0.5,0.1-0.9,0.1-1.4c0,0.6,0.1,1.3,0.2,1.9c0.1,0.4,0.2,0.7,0.2,1.1
	c0.7,2.5,2.2,4.6,4.3,6.1h-9.5l0.2-0.2c-0.9,0-1.8-0.1-2.7-0.1c-0.3,0-0.6-0.1-0.9-0.2c-1,0.3-2.1,0.5-3.2,0.5l-65.6,2
	c-3,2.1-4.8,5.5-4.8,9.1V259c0,4.8,3.1,9.1,7.7,10.5l62.7,0.5c1.1,0,2.2,0.2,3.2,0.5c0.7,0.1,1.4,0.2,2.1,0.4h0.2
	c-0.6-0.3-1.2-0.6-1.9-0.8h15.4c-4.6,1.5-7.7,5.7-7.7,10.5c0-0.6-0.1-1.3-0.2-1.9c-0.1,0.1-0.2,0.2-0.2,0.3c0.1,0.7,0.2,1.4,0.2,2.1
	v29.2c0,1.4,0.2,1,0.2-0.5c0,3.6,1.8,7,4.8,9.1l39.1,1.2c1.3,0,2.7,0.2,3.9,0.7h9.4c-1.7,1.2-3,2.8-3.8,4.7c1,1.7,1.6,3.7,1.6,5.7
	v29.2c0,1.5-0.3,3-0.9,4.4c1.4,2.3,3.6,4,6.1,4.9h-10.3c-1.8,1.2-3.9,1.8-6,1.8h-38.8c-3.2,2-5.1,5.5-5.1,9.3
	c0-3.9-1.5,34.6-1.5,34.6c0,3.5,60.3,5,60.3,5c1.5,0,3,0.3,4.5,0.9c0.6-0.1,1.3-0.2,1.9-0.2h-0.1h9.5c-3,2.1-4.8,5.5-4.8,9.1
	c0-0.5,0-1.1-0.1-1.6c0,0.1-0.1,0.2-0.2,0.4c0.2,0.8,0.3,1.6,0.3,2.5v28c0,6.1,5,11.1,11.1,11.1l0,0h-17c-1.6,0.8-3.3,1.3-5.1,1.2
	H651c-3.7,1.9-6,5.7-6,9.8v29.2c0,6.1,5,11.1,11.1,11.1l0,0H763c6.1,0,11.1-5,11.1-11.1l0,0c0,6.1,5,11.1,11.1,11.1l0,0H892
	c6.1,0,11.1-5,11.1-11.1l0,0v-29.3c0-6.1-5-11.1-11.1-11.1l0,0h86.4c6.1,0,11.1-5,11.1-11.1v-29.2
	C989.6,424.1,984.6,419.2,978.5,419.1C978.5,419.1,978.5,419.1,978.5,419.1z M713.6,220.7c-3,2.1-4.8,5.5-4.8,9.1
	c0-3.6-1.8-7-4.8-9.1H713.6z M701.2,269.5c4.6-1.5,7.7-5.7,7.7-10.5c0,4.8,3.1,9.1,7.7,10.5H701.2z M740,169.3
	c4.6-1.5,7.7-5.7,7.7-10.6c0,4.8,3.1,9.1,7.7,10.6H740z M774,481.6c0-6.1-5-11.1-11.1-11.1l0,0h22.2C779,470.5,774,475.5,774,481.6
	C774,481.6,774,481.6,774,481.6L774,481.6z M785.7,419.1c3-2.1,4.8-5.5,4.8-9.1c0,3.6,1.8,7,4.8,9.1H785.7z M790.5,380.8
	c0-4.8-3.1-9.1-7.7-10.5h15.5C793.7,371.7,790.5,376,790.5,380.8L790.5,380.8z M785.7,318.9c3-2.1,4.8-5.5,4.8-9.1
	c0,3.6,1.8,7,4.8,9.1H785.7z M790.5,280.6c0-4.8-3.1-9.1-7.7-10.5h15.5C793.7,271.5,790.5,275.7,790.5,280.6L790.5,280.6z
	 M785.7,218.6c3-2.1,4.8-5.5,4.8-9.1c0,3.6,1.8,7,4.8,9.1H785.7z M790.5,180.3c0-4.8-3.1-9.1-7.7-10.6h15.5
	C793.7,171.2,790.5,175.5,790.5,180.3L790.5,180.3z M865.3,421.1c-3,2.1-4.8,5.5-4.8,9.1c0-3.6-1.8-7-4.8-9.1H865.3z M849.4,470.5
	c6.1,0,11.1-5,11.1-11.1l0,0c0,6.1,5,11.1,11.1,11.1l0,0H849.4z"/>
<path class="st1" d="M661.5,410"/>
<path class="st1" d="M645,481.6c0-0.5,0-0.9-0.1-1.4C644.9,480.6,645,481.1,645,481.6z"/>
<path class="st1" d="M579.8,259c0,0.4,0,0.7,0,1C579.8,259.7,579.8,259.3,579.8,259z"/>
<path class="st1" d="M450.9,260.6c0.1,0.4,0.2,0.9,0.3,1.3C451.1,261.5,451,261.1,450.9,260.6z"/>
<path class="st1" d="M327,325.9c-0.2-0.2-0.3-0.4-0.5-0.6c-0.2-0.3-0.3-0.6-0.3-0.9c0,0.8,0,1.5,0,2.3c0.3,1.1,0.5,2.2,0.5,3.3
	c0-1.1,0.2-2.2,0.5-3.2c-0.1-0.2-0.2-0.5-0.2-0.8C327,326,327,325.9,327,325.9z"/>
<path class="st1" d="M478.5,118.4H371.6c-6.1,0-11.1,5-11.1,11.1l0,0c0-6.1-5-11.1-11.1-11.1c0,0,0,0,0,0H242.6
	c-6.1,0-11.1,5-11.1,11.1v0v29.2c0,4.8,3.1,9.1,7.7,10.5h-82.9c-6.1,0-11.1,5-11.1,11.1c0,0,0,0,0,0v29.2c0,3.6,1.8,7,4.8,9.1H74.7
	c-6.1,0-11.1,5-11.1,11.1c0,0,0,0,0,0v29.2c0,6.1,5,11.1,11.1,11.1h0H153c-4.6,1.5-7.7,5.7-7.7,10.6v29.2c0,3.6,1.8,7,4.8,9.1H79.7
	c-6.1,0-11.1,5-11.1,11.1c0,0,0,0,0,0v29.2c0,6.1,5,11.1,11.1,11.1h0H153c-4.6,1.5-7.7,5.7-7.7,10.6V410c0,6.1,5,11.1,11.1,11.1l0,0
	H220c-3,2.1-4.8,5.5-4.8,9.1v29.2c0,6.1,4.9,11.1,11,11.1h-86.4c-6.1,0-11.1,5-11.1,11.1l0,0v29.2c0,6.1,5,11.1,11.1,11.1l0,0h106.9
	c6.1,0,11.1-5,11.1-11.1l0,0c0,6.1,5,11.1,11.1,11.1c0,0,0,0,0,0h106.9c6.1,0,11.1-5,11.1-11.1l0,0v-29.2c0-4.1-2.3-7.9-6-9.8h-23
	c-1.8,0-3.5-0.4-5.1-1.2h-19.5c6.1,0,11.1-5,11.1-11.1c0,0,0,0,0,0c0,4.8,2.5-28,2.5-28c0-6.1,5-11.1,11.1-11.1c0,0,0,0,0,0
	l40.8-1.2c1.2-0.8,2.2-1.8,2.9-3c-0.6-1.4-0.9-2.8-0.9-4.3v-29.2c0-2.2,0.6-4.3,1.8-6.1c-0.9-2-2.3-3.8-4.2-5h-58
	c-2.1,0-4.2-0.6-6-1.8H319c4.6-1.5,7.7-5.7,7.7-10.5l-0.4-29c0-1.3-0.1-2.5-0.1-3.5c-0.7-2.4-2.2-4.4-4.2-5.8h9.5l-0.2,0.2
	c5.4-0.3,67.1-3.9,72.1-8c-0.1-0.8-0.2-1.5-0.1-2.3c-0.1-0.6-0.1-1.1-0.1-1.7v-29.2c0-0.4,0-0.7,0-1.1c-0.7-4.1-3.6-7.5-7.6-8.8
	h13.5c1.6-0.8,3.3-1.3,5.1-1.2h30.6c3.7-1.9,6-5.7,6-9.8v-29.2c0-3.6-1.8-7-4.8-9.1l-31.8-2c-5.4,0-9-2-6.1,0h-9.5
	c3-2,4.7-5.4,4.8-9c-0.1-0.7-0.2-1.3-0.2-2v-29.3c0,0,0,0,0-0.1c-0.8-4-3.6-7.3-7.5-8.5h11.6c2-1.6,4.4-2.5,7-2.5h71.3
	c2.6-2.1,4.1-5.2,4.1-8.6v-29.2C489.7,123.4,484.7,118.4,478.5,118.4C478.6,118.4,478.6,118.4,478.5,118.4z M197.4,220.7
	c-3,2.1-4.8,5.5-4.8,9.1c0-3.6-1.8-7-4.8-9.1H197.4z M192.7,259c0,4.8,3.1,9.1,7.7,10.5H185C189.5,268.1,192.7,263.8,192.7,259
	L192.7,259z M202.4,320.9c-3,2.1-4.8,5.5-4.8,9.1c0-3.6-1.8-7-4.8-9.1H202.4z M190,369.7c4.6-1.5,7.7-5.7,7.7-10.5
	c0,4.8,3.1,9.1,7.7,10.5H190z M326.5,220.6c-3,2.1-4.8,5.5-4.8,9.1c0-3.6-1.8-7-4.8-9.1H326.5z M257.8,481.6c0-6.1-5-11.1-11.1-11.1
	c0,0,0,0,0,0h22.1C262.8,470.5,257.8,475.5,257.8,481.6C257.8,481.6,257.8,481.6,257.8,481.6z M269.5,419.1c3-2.1,4.8-5.5,4.8-9.1
	c0,3.6,1.8,7,4.8,9.1H269.5z M274.3,380.8c0-4.8-3.1-9.1-7.7-10.6H282C277.4,371.7,274.3,376,274.3,380.8z M269.5,318.9
	c3-2.1,4.8-5.5,4.8-9.1c0,3.6,1.8,7,4.8,9.1H269.5z M274.3,280.6c0-4.8-3.1-9.1-7.7-10.5H282C277.4,271.5,274.3,275.8,274.3,280.6z
	 M269.5,218.7c3-2.1,4.8-5.5,4.8-9.1c0,3.6,1.8,7,4.8,9.1H269.5z M274.3,180.3c0-4.8-3.1-9.1-7.7-10.6H282
	C277.4,171.3,274.3,175.5,274.3,180.3z M314,269.5c4.6-1.5,7.7-5.7,7.7-10.5c0,4.8,3.1,9.1,7.7,10.5H314z M352.8,169.3
	c4.6-1.5,7.7-5.7,7.7-10.6c0,4.8,3.1,9.1,7.7,10.6H352.8z"/>
<path class="st1" d="M454.4,221.6l0.2-0.1L454.4,221.6z"/>
<path class="st1" d="M453.7,222.3l-0.2,0.2L453.7,222.3z"/>
<path class="st1" d="M452.7,223.4l0.1-0.1L452.7,223.4z"/>
<path class="st1" d="M451.3,262.2c0.1,0.4,0.3,0.9,0.5,1.3C451.6,263,451.4,262.6,451.3,262.2z"/>
<path class="st1" d="M452.4,264.8c0.2,0.4,0.5,0.8,0.8,1.1C453,265.6,452.7,265.2,452.4,264.8z"/>
<path class="st1" d="M451.8,263.5c0.2,0.4,0.4,0.8,0.7,1.2C452.2,264.4,452,264,451.8,263.5z"/>
<path class="st1" d="M451.1,227.2c0-0.1,0.1-0.3,0.1-0.4C451.1,226.9,451.1,227.1,451.1,227.2z"/>
<path class="st1" d="M451.4,226c0-0.1,0.1-0.2,0.1-0.3C451.5,225.7,451.5,225.8,451.4,226z"/>
<path class="st1" d="M450.9,228.5c0-0.1,0-0.3,0.1-0.4C450.9,228.2,450.9,228.3,450.9,228.5z"/>
<path class="st1" d="M452.1,224.6L452.1,224.6z"/>
<path class="st2" d="M353,169.8H241.6c-4.9,0-8.8-4-8.8-8.8v-33.7c0-4.9,4-8.8,8.8-8.8H353c4.9,0,8.8,4,8.8,8.8V161
	C361.8,165.9,357.9,169.8,353,169.8z"/>
<path class="st2" d="M738.9,169.8H627.5c-4.9,0-8.8-4-8.8-8.8v-33.7c0-4.9,4-8.8,8.8-8.8h111.4c4.9,0,8.8,4,8.8,8.8V161
	C747.7,165.9,743.8,169.8,738.9,169.8z"/>
<path class="st2" d="M910.5,219.9H799.2c-4.9,0-8.8-4-8.8-8.8v-33.7c0-4.9,4-8.8,8.8-8.8h111.4c4.9,0,8.8,4,8.8,8.8v33.7
	C919.4,216,915.4,219.9,910.5,219.9z"/>
<path class="st2" d="M700,270H588.7c-4.9,0-8.8-4-8.8-8.8v-33.7c0-4.9,4-8.8,8.8-8.8H700c4.9,0,8.8,4,8.8,8.8v33.7
	C708.9,266.1,704.9,270,700,270z"/>
<path class="st2" d="M910.5,321.4H799.2c-4.9,0-8.8-4-8.8-8.8v-33.7c0-4.9,4-8.8,8.8-8.8h111.4c4.9,0,8.8,4,8.8,8.8v33.7
	C919.4,317.5,915.4,321.4,910.5,321.4z"/>
<path class="st2" d="M910.5,421.6H799.2c-4.9,0-8.8-4-8.8-8.8v-33.7c0-4.9,4-8.8,8.8-8.8h111.4c4.9,0,8.8,4,8.8,8.8v33.7
	C919.4,417.7,915.4,421.6,910.5,421.6z"/>
<path class="st2" d="M852.4,420.4H739.5c-3.6,0-6.7,2.4-7.7,5.8c0,0.5,0,0.9-0.1,1.4c-0.1,0.3-0.1,0.5-0.2,0.8c0,0,0,0.1,0,0.1v35.2
	c0,4.5,3.6,8.1,8.1,8.1h112.9c4.5,0,8.1-3.6,8.1-8.1v-35.2C860.5,424,856.9,420.4,852.4,420.4z"/>
<path class="st2" d="M765.2,521.9H653.8c-4.9,0-8.8-4-8.8-8.8v-33.7c0-4.9,4-8.8,8.8-8.8h111.4c4.9,0,8.8,4,8.8,8.8V513
	C774,517.9,770.1,521.9,765.2,521.9z"/>
<path class="st2" d="M394.3,219.9H282.9c-4.9,0-8.8-4-8.8-8.8v-33.7c0-4.9,4-8.8,8.8-8.8h111.4c4.9,0,8.8,4,8.8,8.8v33.7
	C403.1,216,399.2,219.9,394.3,219.9z"/>
<path class="st2" d="M314.1,270H202.7c-4.9,0-8.8-4-8.8-8.8v-33.7c0-4.9,4-8.8,8.8-8.8h111.4c4.9,0,8.8,4,8.8,8.8v33.7
	C323,266.1,319,270,314.1,270z"/>
<path class="st2" d="M265.3,321.4H153.9c-4.9,0-8.8-4-8.8-8.8v-33.7c0-4.9,4-8.8,8.8-8.8h111.4c4.9,0,8.8,4,8.8,8.8v33.7
	C274.1,317.5,270.1,321.4,265.3,321.4z"/>
<path class="st2" d="M317.9,371.5H206.5c-4.9,0-8.8-4-8.8-8.8V329c0-4.9,4-8.8,8.8-8.8h111.4c4.9,0,8.8,4,8.8,8.8v33.7
	C326.7,367.6,322.8,371.5,317.9,371.5z"/>
<path class="st2" d="M265.3,421.6H153.9c-4.9,0-8.8-4-8.8-8.8v-33.7c0-4.9,4-8.8,8.8-8.8h111.4c4.9,0,8.8,4,8.8,8.8v33.7
	C274.1,417.7,270.1,421.6,265.3,421.6z"/>
<path class="st1" d="M206.9,471.8H95.5c-4.9,0-8.8-4-8.8-8.8v-33.7c0-4.9,4-8.8,8.8-8.8h111.4c4.9,0,8.8,4,8.8,8.8V463
	C215.7,467.9,211.8,471.8,206.9,471.8z"/>
<path class="st1" d="M1100.3,372.7H989c-4.9,0-8.8-4-8.8-8.8v-33.7c0-4.9,4-8.8,8.8-8.8h111.4c4.9,0,8.8,4,8.8,8.8v33.7
	C1109.2,368.7,1105.2,372.7,1100.3,372.7z"/>
<path class="st3" d="M954.9,270.2H843.5c-4.9,0-8.8-4-8.8-8.8v-33.7c0-4.9,4-8.8,8.8-8.8h111.4c4.9,0,8.8,4,8.8,8.8v33.7
	C963.8,266.3,959.8,270.2,954.9,270.2z"/>
<path class="st4" d="M1019.7,521.1H908.3c-4.9,0-8.8-4-8.8-8.8v-33.7c0-4.9,4-8.8,8.8-8.8h111.4c4.9,0,8.8,4,8.8,8.8v33.7
	C1028.5,517.1,1024.6,521.1,1019.7,521.1z"/>
<path class="st1" d="M120.2,522H8.8C4,522,0,518,0,513.2v-33.7c0-4.9,4-8.8,8.8-8.8h111.4c4.9,0,8.8,4,8.8,8.8v33.7
	C129.1,518,125.1,522,120.2,522z"/>
<path class="st1" d="M137.5,420.7H26.2c-4.9,0-8.8-4-8.8-8.8v-33.7c0-4.9,4-8.8,8.8-8.8h111.4c4.9,0,8.8,4,8.8,8.8v33.7
	C146.4,416.8,142.4,420.7,137.5,420.7z"/>
<path class="st1" d="M137.5,321.3H26.2c-4.9,0-8.8-4-8.8-8.8v-33.7c0-4.9,4-8.8,8.8-8.8h111.4c4.9,0,8.8,4,8.8,8.8v33.7
	C146.4,317.3,142.4,321.3,137.5,321.3z"/>
<path class="st1" d="M142.1,220H30.7c-4.9,0-8.8-4-8.8-8.8v-33.7c0-4.9,4-8.8,8.8-8.8h111.4c4.9,0,8.8,4,8.8,8.8v33.7
	C150.9,216.1,147,220,142.1,220z"/>
<path class="st2" d="M142.1,220H30.7c-4.9,0-8.8-4-8.8-8.8v-33.7c0-4.9,4-8.8,8.8-8.8h111.4c4.9,0,8.8,4,8.8,8.8v33.7
	C150.9,216.1,147,220,142.1,220z"/>
<path class="st1" d="M224.2,169.9H112.8c-4.9,0-8.8-4-8.8-8.8v-33.7c0-4.9,4-8.8,8.8-8.8h111.4c4.9,0,8.8,4,8.8,8.8V161
	C233.1,165.9,229.1,169.9,224.2,169.9z"/>
<path class="st2" d="M336.7,471.8H225.3c-4.9,0-8.8-4-8.8-8.8v-33.7c0-4.9,4-8.8,8.8-8.8h111.4c4.9,0,8.8,4,8.8,8.8v33.7
	C345.5,467.8,341.6,471.8,336.7,471.8z"/>
<path class="st2" d="M249,521.9H137.6c-4.9,0-8.8-4-8.8-8.8v-33.7c0-4.9,4-8.8,8.8-8.8H249c4.9,0,8.8,4,8.8,8.8V513
	C257.8,517.9,253.9,521.9,249,521.9z"/>
<circle class="st5" cx="810.3" cy="28.9" r="28.9"/>
<path class="st0" d="M251.9,81.3h-6.9c2.7-0.1,4.7-2.4,4.6-5c-0.1-2.5-2.1-4.5-4.6-4.6h-55.7c-2.7-0.1-4.9,1.9-5,4.6
	c-0.1,2.7,1.9,4.9,4.6,5c0.1,0,0.3,0,0.4,0h6.9c-2.7,0.1-4.7,2.4-4.6,5c0.1,2.5,2.1,4.5,4.6,4.6h-9.6c-2.7-0.1-4.9,1.9-5,4.6
	c-0.1,2.7,1.9,4.9,4.6,5c0.1,0,0.3,0,0.4,0h55.7c2.7-0.1,4.7-2.4,4.6-5c-0.1-2.5-2.1-4.5-4.6-4.6h9.6c2.7-0.1,4.7-2.4,4.6-5
	C256.4,83.5,254.4,81.5,251.9,81.3L251.9,81.3z"/>
<path class="st0" d="M806.7,25.4h-5.2c2-0.1,3.6-1.8,3.5-3.9c-0.1-1.9-1.6-3.4-3.5-3.5H759c-2,0.1-3.6,1.8-3.5,3.9
	c0.1,1.9,1.6,3.4,3.5,3.5h5.2c-2-0.1-3.8,1.4-3.9,3.5s1.4,3.8,3.5,3.9c0.1,0,0.3,0,0.4,0h-7.3c-2,0.1-3.6,1.8-3.5,3.9
	c0.1,1.9,1.6,3.4,3.5,3.5h42.4c2,0.1,3.8-1.4,3.9-3.5s-1.4-3.8-3.5-3.9c-0.1,0-0.3,0-0.4,0h7.3c2,0.1,3.8-1.4,3.9-3.5
	s-1.4-3.8-3.5-3.9C806.9,25.4,806.8,25.4,806.7,25.4L806.7,25.4z"/>
<path class="st0" d="M383.9,13.3h-6.9c2.7,0.1,4.9-1.9,5-4.6c0.1-2.7-1.9-4.9-4.6-5c-0.1,0-0.3,0-0.4,0h-55.7
	c-2.7-0.1-4.9,1.9-5,4.6c-0.1,2.7,1.9,4.9,4.6,5c0.1,0,0.3,0,0.4,0h6.9c-2.7,0.1-4.7,2.4-4.6,5c0.1,2.5,2.1,4.5,4.6,4.6h-9.6
	c-2.7-0.1-4.9,1.9-5,4.6c-0.1,2.7,1.9,4.9,4.6,5c0.1,0,0.3,0,0.4,0h55.7c2.7-0.1,4.7-2.4,4.6-5c-0.1-2.5-2.1-4.5-4.6-4.6h9.6
	c2.7-0.1,4.7-2.4,4.6-5C388.4,15.5,386.4,13.5,383.9,13.3L383.9,13.3z"/>
<linearGradient id="SVGID_1_" gradientUnits="userSpaceOnUse" x1="493.91" y1="180.73" x2="493.91" y2="225.65" gradientTransform="matrix(1 0 0 -1 0 751.89)">
	<stop  offset="0" style="stop-color:#808080;stop-opacity:0.25"/>
	<stop  offset="0.54" style="stop-color:#808080;stop-opacity:0.12"/>
	<stop  offset="1" style="stop-color:#808080;stop-opacity:0.1"/>
</linearGradient>
<polygon class="st6" points="552.7,540.1 571.7,540.1 571.7,528.3 571.7,526.2 416.2,526.2 416.2,528.3 416.2,540.1 435.2,540.1 
	435.2,553.9 404.1,553.9 404.1,571.2 583.8,571.2 583.8,553.9 552.7,553.9 "/>
<linearGradient id="SVGID_2_" gradientUnits="userSpaceOnUse" x1="579.64" y1="68.98" x2="579.64" y2="533.85" gradientTransform="matrix(1 0 0 -1 -85.73 678.15)">
	<stop  offset="0" style="stop-color:#808080;stop-opacity:0.25"/>
	<stop  offset="0.54" style="stop-color:#808080;stop-opacity:0.12"/>
	<stop  offset="1" style="stop-color:#808080;stop-opacity:0.1"/>
</linearGradient>
<path class="st7" d="M680,552.7L680,552.7c1.4-18.6,0.9-34.6-1-48.4c-2.1-15.9-6.1-28.8-11.1-39.3c-10-21-24.2-32.4-36.8-38.6
	c-8.4-4.2-17.5-6.7-26.9-7.3c-0.9-6.6-7.1-11.2-13.7-10.3c-5.3,0.8-9.5,4.9-10.2,10.2V388h-65.7v-17.3h88.5c5.5,0,10-4.5,10-10
	v-90.6c0-5.5-4.5-10-10-10h-33.6v-89.3c4.8-2.2,7.9-7,7.9-12.3c0-0.1,0-0.3,0-0.4s0-0.3,0-0.4c0-7.5-6-13.5-13.5-13.5
	s-13.5,6-13.5,13.5l0,0c0,0.1,0,0.3,0,0.4s0,0.3,0,0.4c0,5,2.7,9.6,7.1,11.9v89.6H433.1v-89.6c4.4-2.3,7.1-6.9,7.1-11.9
	c0-0.1,0-0.3,0-0.4s0-0.3,0-0.4c0-7.5-6-13.5-13.5-13.5c-7.5,0-13.5,6-13.5,13.5c0,0.1,0,0.3,0,0.4s0,0.3,0,0.4
	c0,5.3,3.1,10.1,7.9,12.3v89.3h-36.5c-5.5,0-10,4.5-10,10v90.6c0,5.5,4.5,10,10,10h88.5V388h-65.7v25.5c-0.6-1.6-1.4-3.1-2.6-4.4
	l-0.3-0.3c-4.7-4.7-12.4-4.7-17.1,0c-2.3,2.3-3.5,5.3-3.5,8.6v1.7c0,0-12.4,0-27.3,7.4C344.2,432.6,330,444,320,465
	c-5,10.5-9,23.4-11.1,39.3c-1.9,13.8-2.4,29.8-1,48.4c-27.7,23,7,56.5,7,56.5c28.5,0,27.8-47.2,27.5-55.3h0.1c0,0-0.1-0.4-0.2-1.1
	l0,0l0,0c-2.1-13.2-2.6-26.6-1.7-39.9c0.8-10.2,2.7-20.9,6.7-30.6c3-7.6,7.7-14.5,13.7-20c6.5-5.8,14.5-9.6,23-11.1v7.8
	c0,6.7,5.4,12.1,12.1,12.1c5.2,0,9.8-3.3,11.4-8.2v63.5h172.7v-62.2c0.4,2.4,1.4,4.7,3.1,6.4l0.3,0.3c4.7,4.7,12.4,4.8,17.1,0.1
	c2.3-2.3,3.6-5.4,3.6-8.7v-11.1c8.3,1.6,16.1,5.4,22.5,11c6,5.6,10.7,12.4,13.7,20c4,9.7,5.9,20.4,6.7,30.6
	c0.9,13.3,0.4,26.7-1.7,39.9l0,0l0,0c-0.1,0.7-0.2,1.1-0.2,1.1h0.1c-0.3,8.1-1,55.3,27.5,55.3C673,609.2,707.7,575.7,680,552.7z"/>
<linearGradient id="SVGID_3_" gradientUnits="userSpaceOnUse" x1="448.98" y1="35.59" x2="448.98" y2="180.72" gradientTransform="matrix(1 0 0 -1 0 751.89)">
	<stop  offset="0" style="stop-color:#808080;stop-opacity:0.25"/>
	<stop  offset="0.54" style="stop-color:#808080;stop-opacity:0.12"/>
	<stop  offset="1" style="stop-color:#808080;stop-opacity:0.1"/>
</linearGradient>
<polygon class="st8" points="412.7,572.8 412.7,588.5 433.4,588.5 433.4,612.6 433.4,612.6 433.4,633.4 433.4,664.5 433.4,681.8 
	433.4,692.1 409.2,692.1 409.2,716.3 474.9,716.3 474.9,692.1 464.5,692.1 464.5,681.8 464.5,681.8 464.5,664.5 464.5,664.5 
	464.5,633.4 464.5,633.4 464.5,612.6 464.5,612.6 464.5,588.5 488.7,588.5 488.7,572.8 488.7,571.2 412.7,571.2 "/>
<linearGradient id="SVGID_4_" gradientUnits="userSpaceOnUse" x1="533.65" y1="35.59" x2="533.65" y2="180.72" gradientTransform="matrix(1 0 0 -1 0 751.89)">
	<stop  offset="0" style="stop-color:#808080;stop-opacity:0.25"/>
	<stop  offset="0.54" style="stop-color:#808080;stop-opacity:0.12"/>
	<stop  offset="1" style="stop-color:#808080;stop-opacity:0.1"/>
</linearGradient>
<polygon class="st9" points="495.6,572.8 495.6,588.5 526.7,588.5 526.7,612.6 526.7,612.6 526.7,633.4 526.7,664.5 526.7,681.8 
	526.7,692.1 502.5,692.1 502.5,716.3 568.2,716.3 568.2,692.1 557.8,692.1 557.8,681.8 557.8,664.5 557.8,633.4 557.8,612.6 
	557.8,612.6 557.8,588.5 571.7,588.5 571.7,572.8 571.7,571.2 495.6,571.2 "/>
<path class="st1" d="M390.9,264.7H597c7.2,0,13,5.8,13,13v81.7c0,7.2-5.8,13-13,13H390.9c-7.2,0-13-5.8-13-13v-81.7
	C377.9,270.5,383.7,264.7,390.9,264.7z"/>
<rect x="396.4" y="355.8" class="st2" width="195" height="2"/>
<rect x="396.4" y="281.5" class="st10" width="195" height="74"/>
<circle class="st2" cx="441.8" cy="320.1" r="26.9"/>
<circle class="st11" cx="441.8" cy="318.5" r="26.9"/>
<circle class="st2" cx="546" cy="320.1" r="26.9"/>
<circle class="st11" cx="546" cy="318.5" r="26.9"/>
<rect x="473.7" y="372.3" class="st1" width="40.4" height="23.5"/>
<rect x="409.9" y="389.1" class="st1" width="168.1" height="134.5"/>
<polygon class="st1" points="569.6,523.7 569.6,537.1 551.1,537.1 551.1,550.5 436.7,550.5 436.7,537.1 418.3,537.1 418.3,523.7 "/>
<polygon class="st10" points="569.6,523.7 569.6,537.1 551.1,537.1 551.1,550.5 436.7,550.5 436.7,537.1 418.3,537.1 418.3,523.7 
	"/>
<rect x="406.5" y="550.5" class="st1" width="174.8" height="16.8"/>
<rect x="414.9" y="567.4" class="st1" width="74" height="16.8"/>
<rect x="495.6" y="567.4" class="st1" width="74" height="16.8"/>
<rect x="411.5" y="685" class="st1" width="63.9" height="23.5"/>
<polygon class="st1" points="435.1,607.7 435.1,627.9 435.1,658.2 435.1,675 435.1,685 465.3,685 465.3,675 465.3,658.2 
	465.3,627.9 465.3,607.7 465.3,584.2 435.1,584.2 "/>
<polygon class="st1" points="525.8,584.2 525.8,607.7 525.8,627.9 525.8,658.2 525.8,675 525.8,685 556.1,685 556.1,675 
	556.1,658.2 556.1,627.9 556.1,607.7 556.1,584.2 "/>
<rect x="502.3" y="685" class="st1" width="63.9" height="23.5"/>
<path class="st1" d="M410.5,417.7v40.4c0,0.3,0,0.6,0,0.9c-0.5,6.5-6.2,11.3-12.7,10.8c-6.1-0.5-10.8-5.6-10.8-11.7v-40.4
	c0-6.5,5.3-11.8,11.8-11.8c3.1,0,6.1,1.2,8.3,3.4l0.3,0.3c1.8,2,2.9,4.5,3.1,7.1C410.5,417.1,410.5,417.4,410.5,417.7z"/>
<path class="st1" d="M601.4,421.1v40.4c0,6.5-5.2,11.8-11.7,11.8c-3.1,0-6.2-1.2-8.4-3.5l-0.3-0.3c-2-2.2-3.1-5-3.1-8v-40.3
	c0-6.5,5.3-11.8,11.8-11.8C596.1,409.3,601.4,414.6,601.4,421.1L601.4,421.1z"/>
<path class="st1" d="M386.9,419.4v31.1c-8.3,1.4-16,5.2-22.4,10.8c-5.9,5.4-10.4,12.1-13.3,19.5c-3.9,9.4-5.8,19.9-6.5,29.8
	c-1,13.4-0.3,26.8,1.9,40H313c-1.4-18.6-1-34.5,0.9-48.2c2.1-15.4,5.9-28,10.8-38.2c9.7-20.4,23.6-31.5,35.8-37.5
	C374.9,419.4,386.9,419.4,386.9,419.4z"/>
<path class="st1" d="M319.7,604.4c0,0-33.8-32.5-6.8-54.9h33.5C346.4,549.4,350,604.4,319.7,604.4z"/>
<path class="st10" d="M319.7,604.4c0,0-33.8-32.5-6.8-54.9h33.5C346.4,549.4,350,604.4,319.7,604.4z"/>
<rect x="436.8" y="409.3" class="st10" width="114.3" height="87.4"/>
<rect x="435.1" y="584.2" class="st10" width="30.3" height="23.5"/>
<rect x="435.1" y="627.9" class="st10" width="30.3" height="30.3"/>
<rect x="435.1" y="675" class="st10" width="30.3" height="10.1"/>
<rect x="525.8" y="584.2" class="st10" width="30.3" height="23.5"/>
<rect x="525.8" y="627.9" class="st10" width="30.3" height="30.3"/>
<rect x="525.8" y="675" class="st10" width="30.3" height="10.1"/>
<path class="st10" d="M386.9,419.4v31.1c-8.3,1.4-16,5.2-22.4,10.8l-4.2-34.7C374.9,419.4,386.9,419.4,386.9,419.4z"/>
<path class="st10" d="M351.3,480.8c-3.9,9.4-5.8,19.9-6.5,29.8l-30.9-8.3c2.1-15.4,5.9-28,10.8-38.2L351.3,480.8z"/>
<path class="st1" d="M600.9,419.4v31.1c8.3,1.4,16.1,5.2,22.4,10.8c5.9,5.4,10.4,12.1,13.3,19.5c3.9,9.4,5.8,19.9,6.5,29.8
	c1,13.4,0.3,26.8-1.9,40h33.6c1.4-18.6,1-34.5-0.9-48.2c-2.1-15.4-5.9-28-10.8-38.2c-9.7-20.4-23.6-31.5-35.8-37.5
	C613,419.4,600.9,419.4,600.9,419.4z"/>
<path class="st1" d="M668.1,604.4c0,0,33.8-32.5,6.8-54.9h-33.5C641.4,549.4,637.9,604.4,668.1,604.4z"/>
<path class="st10" d="M668.1,604.4c0,0,33.8-32.5,6.8-54.9h-33.5C641.4,549.4,637.9,604.4,668.1,604.4z"/>
<path class="st10" d="M600.9,419.4v31.1c8.3,1.4,16.1,5.2,22.4,10.8l4.2-34.7C613,419.4,600.9,419.4,600.9,419.4z"/>
<path class="st10" d="M636.5,480.8c3.9,9.4,5.8,19.9,6.5,29.8l30.9-8.3c-2.1-15.4-5.9-28-10.8-38.2L636.5,480.8z"/>
<rect x="473.7" y="372.3" class="st2" width="40.4" height="2.8"/>
<path class="st2" d="M581,413.1v56.3c-2-2.2-3.1-5-3.1-8v-40.3C577.8,418.1,578.9,415.3,581,413.1z"/>
<path class="st2" d="M410.4,416.8V459c-0.2,2.7-1.3,5.2-3.1,7.1v-56.4C409.1,411.7,410.2,414.2,410.4,416.8z"/>
<rect x="418.3" y="523.7" class="st2" width="151.3" height="2"/>
<rect x="414.9" y="567.4" class="st2" width="74" height="1.5"/>
<rect x="495.6" y="567.4" class="st2" width="74" height="1.5"/>
<rect x="423.1" y="165.2" class="st1" width="11.6" height="99.6"/>
<rect x="555.9" y="165.2" class="st1" width="11.6" height="99.6"/>
<circle class="st2" cx="428.5" cy="165.9" r="13.1"/>
<circle class="st1" cx="428.5" cy="165.2" r="13.1"/>
<circle class="st2" cx="562.1" cy="165.9" r="13.1"/>
<circle class="st1" cx="562.1" cy="165.2" r="13.1"/>
<path class="st12" d="M151.5,470.3c0,0,38.4,75.4,7.1,116.6s2.8,153.6,2.8,153.6"/>
<path class="st13" d="M162.9,446.7c0,14.5-10.6,26.3-10.6,26.3s-10.7-11.8-10.7-26.3s10.7-26.3,10.7-26.3S162.9,432.3,162.9,446.7z"
	/>
<path class="st14" d="M171.4,470.3c0,0-38.4,75.4-7.1,116.6s-2.8,153.6-2.8,153.6"/>
<path class="st15" d="M160.1,446.7c0,14.5,10.7,26.3,10.7,26.3s10.7-11.8,10.7-26.3s-10.7-26.3-10.7-26.3S160.1,432.3,160.1,446.7z"
	/>
<path class="st12" d="M187.1,470.3c0,0,38.4,75.4,7.1,116.6s2.8,153.6,2.8,153.6"/>
<path class="st13" d="M198.5,446.7c0,14.5-10.7,26.3-10.7,26.3s-10.7-11.8-10.7-26.3s10.7-26.3,10.7-26.3S198.5,432.3,198.5,446.7z"
	/>
<path class="st13" d="M192.5,507.1c-10.1,10.5-25.9,11.6-25.9,11.6s0.5-15.9,10.5-26.4s25.9-11.6,25.9-11.6S202.5,496.7,192.5,507.1
	z"/>
<path class="st13" d="M193.5,559.1c-10.1,10.5-25.9,11.6-25.9,11.6s0.5-15.9,10.5-26.4s25.9-11.6,25.9-11.6S203.5,548.7,193.5,559.1
	z"/>
<path class="st13" d="M138.9,587.8c9.5,11,9.2,26.9,9.2,26.9s-15.8-1.9-25.3-12.9s-9.2-26.9-9.2-26.9S129.3,576.8,138.9,587.8z"/>
<path class="st13" d="M147.7,476.9c12.1,8,16,23.4,16,23.4s-15.7,2.4-27.8-5.6s-16-23.4-16-23.4S135.6,468.8,147.7,476.9z"/>
<path class="st14" d="M207,470.3c0,0-38.4,75.4-7.1,116.6S197,740.5,197,740.5"/>
<path class="st15" d="M195.6,446.7c0,14.5,10.6,26.3,10.6,26.3s10.7-11.8,10.7-26.3s-10.7-26.3-10.7-26.3S195.6,432.3,195.6,446.7z"
	/>
<path class="st15" d="M198.7,508.3c-10.2,10.4-10.9,26.2-10.9,26.2s15.9-0.9,26.1-11.2s10.9-26.2,10.9-26.2S208.9,497.9,198.7,508.3
	z"/>
<path class="st15" d="M218.7,580.3c-10.2,10.3-10.9,26.2-10.9,26.2s15.9-0.9,26.1-11.2s10.9-26.2,10.9-26.2S228.9,569.9,218.7,580.3
	z"/>
<path class="st14" d="M189.3,564.4c0,0,23.1-36.4,55.6-37.2"/>
<path class="st12" d="M171.3,542.4c0,0-23.1-36.4-55.6-37.2"/>
<path class="st14" d="M168.3,594.4c0,0,23.1-36.4,55.6-37.2"/>
<circle class="st15" cx="243.8" cy="526.9" r="6"/>
<circle class="st13" cx="116.3" cy="505.4" r="6"/>
<path class="st12" d="M185.3,606.4c0,0-23.1-36.4-55.6-37.2"/>
<circle class="st13" cx="130.3" cy="569.4" r="6"/>
<circle class="st15" cx="224.3" cy="557.4" r="6"/>
<path class="st16" d="M313,696.7c0,0-55.7-11.1-70.6-26s-81.7-40.8-89.1-22.3c-7.4,18.6-100.3,81.7-37.1,92.9s148.5,14.8,167.1,7.4
	S313,696.7,313,696.7z"/>
<path class="st17" d="M116.2,734.3c63.1,11.1,148.5,14.8,167.1,7.4c14.1-5.7,24-32.8,27.9-45.5l1.9,0.4c0,0-11.1,44.6-29.7,52
	s-104,3.7-167.1-7.4C98,738,92.8,730.5,94.7,720.9C96.3,727.1,102.7,731.9,116.2,734.3z"/>
<path class="st13" d="M914.7,483.5c0,0,13.3,17.5-6.2,43.8c-19.5,26.4-35.6,48.6-29.1,65c0,0,29.4-48.9,53.4-49.6
	C956.8,542,941,513,914.7,483.5z"/>
<path class="st2" d="M914.7,483.5c1.2,1.7,2.1,3.5,2.7,5.5c23.4,27.5,35.8,53.1,13.4,53.7c-20.9,0.6-46,38-52,47.5
	c0.2,0.7,0.4,1.4,0.7,2.2c0,0,29.4-48.9,53.4-49.6S941,513,914.7,483.5z"/>
<path class="st15" d="M939.5,505.8c0,6.1-0.7,11.1-1.5,11.1s-1.5-5-1.5-11.1s0.9-3.2,1.7-3.2S939.5,499.6,939.5,505.8z"/>
<path class="st15" d="M948,513.1c-5.4,2.9-10.1,4.7-10.5,4s3.6-3.7,9-6.7c5.4-2.9,3.3-0.8,3.7,0S953.4,510.2,948,513.1z"/>
<path class="st13" d="M844.2,483.5c0,0-13.3,17.5,6.2,43.8c19.5,26.4,35.6,48.6,29.1,65c0,0-29.4-48.9-53.4-49.6
	S817.8,513,844.2,483.5z"/>
<path class="st2" d="M844.2,483.5c-1.2,1.7-2.1,3.5-2.7,5.5c-23.4,27.5-35.8,53.1-13.4,53.7c20.9,0.6,46,38,52,47.5
	c-0.2,0.7-0.4,1.4-0.7,2.2c0,0-29.4-48.9-53.4-49.6S817.8,513,844.2,483.5z"/>
<path class="st15" d="M819.3,505.8c0,6.1,0.7,11.1,1.5,11.1s1.5-5,1.5-11.1s-0.9-3.2-1.7-3.2S819.3,499.6,819.3,505.8z"/>
<path class="st15" d="M810.8,513.1c5.4,2.9,10.1,4.7,10.5,4s-3.6-3.7-9-6.7c-5.4-2.9-3.3-0.8-3.7,0S805.4,510.2,810.8,513.1z"/>
<path class="st16" d="M823.6,590.1c0,0,37.3-1.2,48.6-9.2s57.4-17.6,60.2-4.7s56.1,63.9,14,64.2s-97.9-6.6-109.1-13.4
	S823.6,590.1,823.6,590.1z"/>
<path class="st17" d="M947.1,635.9c-42.1,0.3-97.9-6.6-109.1-13.4c-8.5-5.2-12-23.9-13.1-32.5h-1.2c0,0,2.4,30.1,13.6,36.9
	s67,13.7,109.1,13.4c12.2-0.1,16.4-4.4,16.1-10.8C960.7,633.4,956.1,635.9,947.1,635.9z"/>
</svg>
