<svg viewBox="0 0 241.96 189.49" xmlns="http://www.w3.org/2000/svg" xmlns:xlink="http://www.w3.org/1999/xlink"><linearGradient id="a" gradientTransform="matrix(-.99997184 -.00750485 .00750485 -.99997184 1053.65 2518.15)" gradientUnits="userSpaceOnUse" x1="752.64" x2="752.64" y1="2956.18" y2="2490.98"><stop offset="0" stop-color="#808080" stop-opacity=".25"/><stop offset=".54" stop-color="#808080" stop-opacity=".12"/><stop offset="1" stop-color="#808080" stop-opacity=".1"/></linearGradient><g transform="translate(-137.96 443.32)"><path d="m357-443.32c-37.41-.25-36.9 47-36.57 55.06h-.13a8.66 8.66 0 0 1 .25 1.1 135.83 135.83 0 0 1 1.89 39.91c-1.14 10.2-3.72 20.88-9 30.55a56.54 56.54 0 0 1 -18.16 19.87 70.62 70.62 0 0 1 -30.28 10.9v32.1a113 113 0 0 0 35.66-7.17c16.33-6 35.07-17.26 48.37-38.18a108.23 108.23 0 0 0 14.9-39.2c2.62-13.78 3.41-29.78 1.73-48.39 36.55-22.74-8.66-56.55-8.66-56.55z" fill="url(#a)"/><path d="m267.17-254-.38-31.1a68.85 68.85 0 0 0 29.27-11.08 54.09 54.09 0 0 0 17.22-19.67c5-9.45 7.37-20 8.16-29.88a128.1 128.1 0 0 0 -3-40l44.1-.43c2.06 18.58 1.73 34.49-.59 48.21-2.57 15.42-7.4 28.07-13.71 38.33-12.48 20.52-30.59 31.8-46.53 37.95a106.22 106.22 0 0 1 -34.54 7.67z" fill="#3e76f9"/><path d="m353.11-439.86s44.76 32.07 9.59 54.81l-44 .42c.04.1-5.36-54.85 34.41-55.23z" fill="#f7bf41"/><path d="m267.17-254-.38-31.1a68.85 68.85 0 0 0 29.27-11.08l5.94 34.62a109.7 109.7 0 0 1 -34.83 7.56z" fill="#f93ed4"/><path d="m313.15-315.87c5-9.45 7.36-20 8.16-29.88l40.69 7.91c-2.57 15.42-7.4 28.07-13.71 38.33z" fill="#47e2aa"/></g><path d="m138.02-285.77h128.58v31.48h-128.58z" fill="none" transform="matrix(.99999194 .00401425 -.00401425 .99999194 -139.05 442.5)"/></svg>