<?xml version="1.0" encoding="utf-8"?>
<!-- Generator: Adobe Illustrator 23.0.1, SVG Export Plug-In . SVG Version: 6.00 Build 0)  -->
<svg version="1.1" id="af8363df-f336-47a7-a0a7-f658d27a6b25"
	 xmlns="http://www.w3.org/2000/svg" xmlns:xlink="http://www.w3.org/1999/xlink" x="0px" y="0px" viewBox="0 0 1124.7 770.8"
	 style="enable-background:new 0 0 1124.7 770.8;" xml:space="preserve">
<style type="text/css">
	.st0{opacity:0.1;fill:#3E76F9;enable-background:new    ;}
	.st1{opacity:0.5;fill:#DEE3F3;enable-background:new    ;}
	.st2{fill:url(#SVGID_1_);}
	.st3{fill:url(#SVGID_2_);}
	.st4{fill:url(#SVGID_3_);}
	.st5{fill:url(#SVGID_4_);}
	.st6{fill:#3E76F9;}
	.st7{opacity:0.1;enable-background:new    ;}
	.st8{opacity:0.3;enable-background:new    ;}
	.st9{fill:#DEE3F3;}
	.st10{fill:#F7BF41;enable-background:new    ;}
	.st11{fill:#F93ED4;enable-background:new    ;}
	.st12{fill:#47E2AA;enable-background:new    ;}
	.st13{fill:none;stroke:#FC6681;stroke-width:2;stroke-miterlimit:10;}
	.st14{fill:#FC6681;}
	.st15{fill:none;stroke:#FFD037;stroke-width:2;stroke-miterlimit:10;}
	.st16{fill:#FFD037;}
	.st17{fill:#A8A8A8;}
	.st18{opacity:0.2;enable-background:new    ;}
	.st19{fill:url(#SVGID_5_);}
	.st20{fill:#F7C4A7;}
	.st21{fill:#535461;}
	.st22{fill:#575988;}
	.st23{fill:#E14B5A;}
	.st24{fill:#632652;}
	.st25{opacity:0.5;fill:#FFFFFF;enable-background:new    ;}
	.st26{fill:none;stroke:#535461;stroke-width:3;stroke-miterlimit:10;}
	.st27{fill:url(#SVGID_6_);}
	.st28{opacity:0.1;}
	.st29{fill:#FFFFFF;}
	.st30{opacity:0.1;fill:none;stroke:#000000;stroke-miterlimit:10;enable-background:new    ;}
	.st31{fill:#6A5C99;}
	.st32{fill:#D6D6E3;}
</style>
<title>firmware</title>
<path class="st0" d="M1060.8,437.4c-37.7,47.9-23,117.8,0.9,173.9c8,18.8,17.1,38.6,13.7,58.7c-4.1,24.6-26.1,42.6-49.1,52.1
	c-42,17.4-92.3,13.2-130.9-10.8c-33.4-20.8-57.3-54.5-91.2-74.3c-56.8-33.2-129.1-20.6-190.7,2.2c-43.6,16.2-91.3,37.2-134.7,20.3
	c-30.5-11.9-51.6-40.8-63.1-71.5c-5.5-14.8-9.6-30.8-20.2-42.5c-6.3-7-14.5-11.9-22.9-16.1c-76.9-38.1-174-17.7-248.6-60
	C73.5,440.8,41.3,387,27,330.8s-12.6-115-9-172.9c2.6-41.1,7.2-85,33.5-116.7C79.2,7.7,126.9-4.8,170,1.6s82.2,29.1,116.5,55.9
	c43,33.5,82.8,75.1,135.5,88.7c35.9,9.2,73.7,4.2,110.7,2.4c61.9-2.9,123.9,3.6,185.4,10.7c59,6.8,118.3,14.3,174.5,33.5
	c39.7,13.6,71.6,38.2,109.1,55.4c24.5,11.2,51.1,14.3,74.3,28.6c28.5,17.6,54.7,48.2,47.4,84C1116.5,394.9,1080.8,412,1060.8,437.4z
	"/>
<path class="st1" d="M624,428.9c-3.4,3.4-4.2,8.1-5.4,12.5c-3.5,12.4-11.6,23.9-23,32.3c-8.3,6.2-19.5,13-17.5,22.2
	c0.5,2.2,1.7,4.3,2,6.5c1.4,9.6-13.3,14.7-19,23.1c-4.2,6.3-3.1,14-1.8,21.2c1.5,8.7,3.4,18,10.6,24.5c1.9,1.7,4.2,3.2,5.6,5.3
	c3,4.7,0.4,10.8,3.1,15.6c3.7,6.4,15.2,6.7,21.9,2.4s9.8-11.4,12.8-18.1c8-18,17.9-36.1,34.5-49.2c16-12.6,39.2-22.3,42-40.6
	c1.2-7.8-1.8-16.5,2.8-23.4c2.2-3.3,5.7-5.7,8.2-8.8c7.2-9.3,1.8-22.8-8.8-29.4C675.9,415.1,638,415,624,428.9z"/>
<ellipse class="st1" cx="817.4" cy="390.8" rx="155" ry="26"/>
<linearGradient id="SVGID_1_" gradientUnits="userSpaceOnUse" x1="806.245" y1="460.9698" x2="806.245" y2="488.1698" gradientTransform="matrix(1 0 0 -1 0 769.8898)">
	<stop  offset="0" style="stop-color:#808080;stop-opacity:0.25"/>
	<stop  offset="0.54" style="stop-color:#808080;stop-opacity:0.12"/>
	<stop  offset="1" style="stop-color:#808080;stop-opacity:0.1"/>
</linearGradient>
<polygon class="st2" points="841.8,290.1 853.3,290.1 853.3,283 853.3,281.7 759.2,281.7 759.2,283 759.2,290.1 770.7,290.1 
	770.7,298.5 751.8,298.5 751.8,308.9 860.7,308.9 860.7,298.5 841.8,298.5 "/>
<linearGradient id="SVGID_2_" gradientUnits="userSpaceOnUse" x1="843.9105" y1="372.5598" x2="843.9105" y2="653.8143" gradientTransform="matrix(1 0 0 -1 -37.66 704.5198)">
	<stop  offset="0" style="stop-color:#808080;stop-opacity:0.25"/>
	<stop  offset="0.54" style="stop-color:#808080;stop-opacity:0.12"/>
	<stop  offset="1" style="stop-color:#808080;stop-opacity:0.1"/>
</linearGradient>
<path class="st3" d="M918.9,297.8L918.9,297.8c0.8-9.8,0.6-19.6-0.6-29.3c-1-8.2-3.3-16.3-6.7-23.8c-6.1-12.7-14.7-19.6-22.3-23.3
	c-5.1-2.6-10.6-4.1-16.3-4.4c-0.6-4-4.3-6.8-8.3-6.2c-3.2,0.5-5.7,3-6.2,6.2V198h-39.8v-10.5h53.5c3.3,0,6.1-2.7,6.1-6.1v-54.9
	c0-3.3-2.7-6.1-6.1-6.1H852V66.5c2.9-1.3,4.8-4.2,4.8-7.4c0-0.1,0-0.2,0-0.2s0-0.2,0-0.2c-0.2-4.5-3.9-8-8.5-7.9
	c-4.3,0.1-7.7,3.6-7.9,7.9c0,0.1,0,0.2,0,0.2s0,0.2,0,0.2c0,3,1.7,5.8,4.3,7.2v54.3h-75.4V66.3c2.7-1.4,4.3-4.2,4.3-7.2
	c0-0.1,0-0.2,0-0.2s0-0.2,0-0.2c-0.2-4.5-3.9-8-8.5-7.9c-4.3,0.1-7.7,3.6-7.9,7.9c0,0.1,0,0.2,0,0.2s0,0.2,0,0.2
	c0,3.2,1.9,6.1,4.8,7.4v54.1h-22.1c-3.3,0-6.1,2.7-6.1,6.1v54.8c0,3.3,2.7,6.1,6.1,6.1h53.6V198h-39.8v15.4c-0.3-1-0.9-1.9-1.6-2.6
	l-0.2-0.2c-2.9-2.9-7.5-2.9-10.4,0c-1.4,1.4-2.2,3.2-2.1,5.2v1c-5.8,0.3-11.4,1.8-16.5,4.5c-7.6,3.8-16.2,10.6-22.3,23.4
	c-3.5,7.5-5.7,15.6-6.7,23.8c-1.2,9.7-1.4,19.5-0.6,29.3c-16.8,13.9,4.2,34.2,4.2,34.2c17.2,0,16.8-28.6,16.7-33.5h0.1
	c0,0,0-0.2-0.1-0.7l0,0l0,0c-1.2-8-1.6-16.1-1-24.2c0.4-6.4,1.8-12.6,4.1-18.5c1.8-4.6,4.6-8.8,8.3-12.1c3.9-3.5,8.7-5.8,13.9-6.7
	v4.7c0,4,3.3,7.3,7.3,7.3c3.1,0,5.9-2,6.9-5v38.4h104.6v-37.6c0.2,1.5,0.9,2.8,1.9,3.9l0.2,0.2c2.9,2.9,7.5,2.9,10.4,0
	c1.4-1.4,2.2-3.2,2.1-5.2v-6.7c5.1,0.9,9.8,3.2,13.6,6.6c3.6,3.4,6.5,7.5,8.3,12.1c2.3,5.9,3.7,12.2,4.1,18.6
	c0.6,8.1,0.2,16.2-1,24.2l0,0l0,0c-0.1,0.5-0.1,0.7-0.1,0.7h0.1c-0.2,4.9-0.6,33.5,16.7,33.5C914.7,331.9,935.7,311.7,918.9,297.8z"
	/>
<linearGradient id="SVGID_3_" gradientUnits="userSpaceOnUse" x1="779.04" y1="373.0698" x2="779.04" y2="460.9598" gradientTransform="matrix(1 0 0 -1 0 769.8898)">
	<stop  offset="0" style="stop-color:#808080;stop-opacity:0.25"/>
	<stop  offset="0.54" style="stop-color:#808080;stop-opacity:0.12"/>
	<stop  offset="1" style="stop-color:#808080;stop-opacity:0.1"/>
</linearGradient>
<polygon class="st4" points="757.1,309.9 757.1,319.4 769.6,319.4 769.6,334 769.6,334 769.6,346.6 769.6,365.4 769.6,375.9 
	769.6,382.2 755,382.2 755,396.8 794.7,396.8 794.7,382.2 788.5,382.2 788.5,375.9 788.5,375.9 788.5,365.4 788.5,365.4 
	788.5,346.6 788.5,346.6 788.5,334 788.5,334 788.5,319.4 803.1,319.4 803.1,309.9 803.1,308.9 757.1,308.9 "/>
<linearGradient id="SVGID_4_" gradientUnits="userSpaceOnUse" x1="830.31" y1="373.0698" x2="830.31" y2="460.9598" gradientTransform="matrix(1 0 0 -1 0 769.8898)">
	<stop  offset="0" style="stop-color:#808080;stop-opacity:0.25"/>
	<stop  offset="0.54" style="stop-color:#808080;stop-opacity:0.12"/>
	<stop  offset="1" style="stop-color:#808080;stop-opacity:0.1"/>
</linearGradient>
<polygon class="st5" points="807.3,309.9 807.3,319.4 826.1,319.4 826.1,334 826.1,334 826.1,346.6 826.1,365.4 826.1,375.9 
	826.1,382.2 811.5,382.2 811.5,396.8 851.2,396.8 851.2,382.2 845,382.2 845,375.9 845,365.4 845,346.6 845,334 845,334 845,319.4 
	853.3,319.4 853.3,309.9 853.3,308.9 807.3,308.9 "/>
<path class="st6" d="M749,123.3h114.6c7.2,0,13,5.8,13,13v39.2c0,7.2-5.8,13-13,13H749c-7.2,0-13-5.8-13-13v-39.2
	C736,129.2,741.8,123.3,749,123.3z"/>
<rect x="747.2" y="178.5" class="st7" width="118.1" height="1.2"/>
<rect x="747.2" y="133.5" class="st8" width="118.1" height="44.8"/>
<circle class="st7" cx="774.7" cy="156.9" r="16.3"/>
<circle class="st9" cx="774.7" cy="155.9" r="16.3"/>
<circle class="st7" cx="837.8" cy="156.9" r="16.3"/>
<circle class="st9" cx="837.8" cy="155.9" r="16.3"/>
<rect x="794" y="188.5" class="st6" width="24.4" height="14.3"/>
<rect x="755.3" y="198.7" class="st6" width="101.8" height="81.4"/>
<polygon class="st6" points="852.1,280.1 852.1,288.3 840.9,288.3 840.9,296.4 771.6,296.4 771.6,288.3 760.4,288.3 760.4,280.1 "/>
<polygon class="st8" points="852.1,280.1 852.1,288.3 840.9,288.3 840.9,296.4 771.6,296.4 771.6,288.3 760.4,288.3 760.4,280.1 "/>
<rect x="753.3" y="296.4" class="st6" width="105.9" height="10.2"/>
<rect x="758.4" y="306.6" class="st6" width="44.8" height="10.2"/>
<rect x="807.3" y="306.6" class="st6" width="44.8" height="10.2"/>
<rect x="756.4" y="377.9" class="st6" width="38.7" height="14.2"/>
<polygon class="st6" points="770.6,331.1 770.6,343.3 770.6,361.6 770.6,371.8 770.6,377.9 788.9,377.9 788.9,371.8 788.9,361.6 
	788.9,343.3 788.9,331.1 788.9,316.8 770.6,316.8 "/>
<polygon class="st6" points="825.6,316.8 825.6,331.1 825.6,343.3 825.6,361.6 825.6,371.8 825.6,377.9 843.9,377.9 843.9,371.8 
	843.9,361.6 843.9,343.3 843.9,331.1 843.9,316.8 "/>
<rect x="811.3" y="377.9" class="st6" width="38.7" height="14.2"/>
<path class="st6" d="M755.7,216v24.4c0,0.2,0,0.4,0,0.5c-0.4,3.9-3.8,6.8-7.7,6.5c-3.6-0.3-6.4-3.4-6.5-7V216c0-3.9,3.2-7.1,7.1-7.1
	c1.9,0,3.7,0.8,5,2.1l0.2,0.2c1.1,1.2,1.8,2.7,1.9,4.3C755.7,215.6,755.7,215.8,755.7,216z"/>
<path class="st6" d="M871.3,218v24.4c0,3.9-3.2,7.1-7.1,7.1c-1.9,0-3.7-0.8-5-2.1l-0.2-0.2c-1.2-1.3-1.9-3-1.9-4.8V218
	c0.1-3.9,3.5-7,7.4-6.9C868.2,211.3,871.2,214.3,871.3,218z"/>
<path class="st6" d="M741.5,217v18.8c-5,0.9-9.7,3.1-13.5,6.5c-3.5,3.3-6.3,7.3-8.1,11.8c-2.3,5.8-3.6,11.8-4,18
	c-0.6,8.1-0.2,16.2,1.1,24.2h-20.3c-0.8-9.7-0.7-19.5,0.5-29.2c1-8,3.2-15.8,6.5-23.2c5.9-12.4,14.3-19.1,21.7-22.7
	C730.4,218.8,735.9,217.3,741.5,217z"/>
<path class="st6" d="M700.7,329c0,0-20.5-19.7-4.1-33.3h20.3C716.9,295.8,719.1,329,700.7,329z"/>
<path class="st10" d="M700.7,329c0,0-20.5-19.7-4.1-33.3h20.3C716.9,295.8,719.1,329,700.7,329z"/>
<rect x="771.6" y="210.9" class="st8" width="69.2" height="52.9"/>
<rect x="770.6" y="316.8" class="st11" width="18.3" height="14.2"/>
<rect x="770.6" y="343.3" class="st10" width="18.3" height="18.3"/>
<rect x="770.6" y="371.8" class="st12" width="18.3" height="6.1"/>
<rect x="825.6" y="316.8" class="st10" width="18.3" height="14.2"/>
<rect x="825.6" y="343.3" class="st12" width="18.3" height="18.3"/>
<rect x="825.6" y="371.8" class="st11" width="18.3" height="6.1"/>
<path class="st11" d="M741.5,217v18.8c-5,0.9-9.7,3.1-13.5,6.5l-2.5-21C730.4,218.8,735.9,217.3,741.5,217z"/>
<path class="st12" d="M719.9,254.2c-2.3,5.8-3.6,11.8-4,18l-18.7-5c1-8,3.2-15.8,6.5-23.2L719.9,254.2z"/>
<path class="st6" d="M871,217v18.8c5,0.9,9.7,3.1,13.5,6.5c3.5,3.3,6.3,7.3,8.1,11.8c2.3,5.8,3.6,11.8,4,18
	c0.6,8.1,0.2,16.2-1.1,24.2h20.4c0.9-9.7,0.7-19.5-0.5-29.2c-1-8-3.2-15.8-6.5-23.2c-5.9-12.4-14.3-19.1-21.7-22.7
	C882.1,218.8,876.6,217.3,871,217z"/>
<path class="st6" d="M911.8,329c0,0,20.5-19.7,4.1-33.3h-20.3C895.6,295.8,893.4,329,911.8,329z"/>
<path class="st11" d="M911.8,329c0,0,20.5-19.7,4.1-33.3h-20.3C895.6,295.8,893.4,329,911.8,329z"/>
<path class="st10" d="M871,217v18.8c5,0.9,9.7,3.1,13.5,6.5l2.5-21C882.1,218.8,876.6,217.3,871,217z"/>
<path class="st12" d="M892.6,254.2c2.3,5.8,3.6,11.8,4,18l18.7-5c-1-8-3.2-15.8-6.5-23.2L892.6,254.2z"/>
<rect x="794" y="188.5" class="st7" width="24.4" height="1.7"/>
<path class="st7" d="M859,213.2v34.1c-1.2-1.3-1.9-3-1.9-4.8V218C857.1,216.2,857.7,214.5,859,213.2z"/>
<path class="st7" d="M755.7,215.4V241c-0.1,1.6-0.8,3.1-1.9,4.3v-34.2C754.9,212.3,755.6,213.8,755.7,215.4z"/>
<rect x="760.4" y="280.1" class="st7" width="91.6" height="1.2"/>
<rect x="758.4" y="306.6" class="st7" width="44.8" height="0.9"/>
<rect x="807.3" y="306.6" class="st7" width="44.8" height="0.9"/>
<rect x="763.4" y="63" class="st6" width="7" height="60.3"/>
<rect x="843.8" y="63" class="st6" width="7" height="60.3"/>
<circle class="st7" cx="766.7" cy="63.5" r="8"/>
<circle class="st6" cx="766.7" cy="63" r="8"/>
<circle class="st7" cx="847.5" cy="63.5" r="8"/>
<circle class="st6" cx="847.5" cy="63" r="8"/>
<path class="st13" d="M598.9,247.8c0,0,23.3,45.7,4.3,70.6s1.7,93,1.7,93"/>
<path class="st14" d="M605.8,233.6c0,8.8-6.5,15.9-6.5,15.9s-6.5-7.1-6.5-15.9s6.5-15.9,6.5-15.9S605.8,224.8,605.8,233.6z"/>
<path class="st15" d="M611,247.8c0,0-23.3,45.7-4.3,70.6s-1.7,93-1.7,93"/>
<path class="st16" d="M604.1,233.6c0,8.8,6.5,15.9,6.5,15.9s6.5-7.1,6.5-15.9s-6.5-15.9-6.5-15.9S604.1,224.8,604.1,233.6z"/>
<path class="st13" d="M620.4,247.8c0,0,23.3,45.7,4.3,70.6s1.7,93,1.7,93"/>
<path class="st14" d="M627.3,233.6c0,8.8-6.5,15.9-6.5,15.9s-6.5-7.1-6.5-15.9s6.4-15.9,6.4-15.9S627.3,224.8,627.3,233.6z"/>
<path class="st14" d="M623.7,270.1c-6.1,6.3-15.7,7-15.7,7s0.3-9.6,6.4-16c6.1-6.4,15.7-7,15.7-7S629.8,263.8,623.7,270.1z"/>
<path class="st14" d="M624.3,301.6c-6.1,6.3-15.7,7-15.7,7s0.3-9.6,6.4-16s15.7-7,15.7-7S630.4,295.3,624.3,301.6z"/>
<path class="st14" d="M591.2,319c5.8,6.6,5.6,16.3,5.6,16.3s-9.5-1.1-15.3-7.8s-5.6-16.3-5.6-16.3S585.5,312.3,591.2,319z"/>
<path class="st14" d="M596.6,251.8c7.3,4.9,9.7,14.2,9.7,14.2s-9.5,1.4-16.8-3.4s-9.7-14.2-9.7-14.2S589.2,246.9,596.6,251.8z"/>
<path class="st15" d="M632.5,247.8c0,0-23.3,45.7-4.3,70.6s-1.7,93-1.7,93"/>
<path class="st16" d="M625.6,233.6c0,8.8,6.5,15.9,6.5,15.9s6.5-7.1,6.5-15.9s-6.5-15.9-6.5-15.9S625.6,224.8,625.6,233.6z"/>
<path class="st16" d="M627.5,270.8c-6.2,6.3-6.6,15.9-6.6,15.9s9.6-0.5,15.8-6.8s6.6-15.9,6.6-15.9S633.6,264.6,627.5,270.8z"/>
<path class="st16" d="M639.6,314.4c-6.2,6.3-6.6,15.9-6.6,15.9s9.6-0.5,15.8-6.8s6.6-15.9,6.6-15.9S645.8,308.2,639.6,314.4z"/>
<path class="st15" d="M621.8,304.8c0,0,14-22.1,33.7-22.5"/>
<path class="st13" d="M610.9,291.5c0,0-14-22.1-33.7-22.5"/>
<path class="st15" d="M609,323c0,0,14-22.1,33.7-22.5"/>
<circle class="st16" cx="654.8" cy="282.1" r="3.6"/>
<circle class="st14" cx="577.5" cy="269.1" r="3.6"/>
<path class="st13" d="M619.3,330.3c0,0-14-22.1-33.7-22.5"/>
<circle class="st14" cx="586" cy="307.9" r="3.6"/>
<circle class="st16" cx="642.9" cy="300.6" r="3.6"/>
<path class="st17" d="M696.7,384.9c0,0-33.7-6.8-42.7-15.7s-49.5-24.7-54-13.5s-60.7,49.5-22.5,56.2s90,9,101.2,4.5
	S696.7,384.9,696.7,384.9z"/>
<path class="st18" d="M577.5,407.7c38.2,6.8,90,9,101.2,4.5c8.6-3.4,14.5-19.9,16.9-27.5l1.1,0.2c0,0-6.8,27-18,31.5
	s-63,2.2-101.2-4.5c-11-2-14.2-6.5-13-12.3C565.5,403.4,569.3,406.3,577.5,407.7z"/>
<path class="st14" d="M1061,255.8c0,0,8.1,10.6-3.7,26.5s-21.6,29.4-17.6,39.4c0,0,17.8-29.6,32.3-30S1077,273.6,1061,255.8z"/>
<path class="st7" d="M1061,255.8c0.7,1,1.3,2.1,1.7,3.3c14.2,16.6,21.7,32.1,8.1,32.5c-12.7,0.4-27.9,23-31.5,28.8
	c0.1,0.4,0.3,0.9,0.4,1.3c0,0,17.8-29.6,32.3-30S1077,273.6,1061,255.8z"/>
<path class="st16" d="M1076.1,269.3c0,3.7-0.4,6.7-0.9,6.7s-0.9-3-0.9-6.7s0.5-2,1-2S1076.1,265.6,1076.1,269.3z"/>
<path class="st16" d="M1081.2,273.8c-3.3,1.8-6.1,2.9-6.4,2.4s2.2-2.3,5.5-4s2-0.5,2.2,0S1084.5,272,1081.2,273.8z"/>
<path class="st14" d="M1018.3,255.8c0,0-8.1,10.6,3.7,26.5c11.8,16,21.5,29.4,17.6,39.4c0,0-17.8-29.6-32.3-30
	S1002.4,273.6,1018.3,255.8z"/>
<path class="st7" d="M1018.3,255.8c-0.7,1-1.3,2.1-1.7,3.3c-14.2,16.6-21.7,32.1-8.1,32.5c12.7,0.4,27.9,23,31.5,28.8
	c-0.1,0.4-0.3,0.9-0.4,1.3c0,0-17.8-29.6-32.3-30S1002.4,273.6,1018.3,255.8z"/>
<path class="st16" d="M1003.3,269.3c0,3.7,0.4,6.7,0.9,6.7s0.9-3,0.9-6.7s-0.5-2-1-2S1003.3,265.6,1003.3,269.3z"/>
<path class="st16" d="M998.2,273.8c3.3,1.8,6.1,2.9,6.4,2.4s-2.2-2.3-5.5-4s-2-0.5-2.2,0S994.9,272,998.2,273.8z"/>
<path class="st17" d="M1005.9,320.4c0,0,22.6-0.7,29.4-5.5s34.8-10.6,36.4-2.9s34,38.7,8.4,38.9s-59.3-4-66.1-8.1
	S1005.9,320.4,1005.9,320.4z"/>
<path class="st18" d="M1080.7,348.1c-25.5,0.2-59.3-4-66.1-8.1c-5.2-3.1-7.2-14.5-7.9-19.7h-0.8c0,0,1.4,18.2,8.2,22.4
	s40.6,8.3,66.1,8.1c7.4-0.1,9.9-2.7,9.8-6.6C1089,346.6,1086.2,348.1,1080.7,348.1z"/>
<rect x="834" y="105.4" transform="matrix(0.9545 -0.2982 0.2982 0.9545 6.8446 264.7441)" class="st6" width="74" height="9"/>
<path class="st17" d="M936.4,428.9c0,0-38.7-7.7-49-18.1s-56.8-28.4-62-15.5s-69.7,56.8-25.8,64.5s103.3,10.3,116.2,5.2
	S936.4,428.9,936.4,428.9z"/>
<path class="st18" d="M799.6,455.1c43.9,7.7,103.3,10.3,116.2,5.2c9.8-3.9,16.7-22.8,19.4-31.6l1.3,0.3c0,0-7.7,31-20.7,36.1
	s-72.3,2.6-116.2-5.2c-12.7-2.2-16.3-7.5-14.9-14.1C785.8,450.1,790.2,453.5,799.6,455.1z"/>
<linearGradient id="SVGID_5_" gradientUnits="userSpaceOnUse" x1="969.1344" y1="213.6797" x2="969.1344" y2="632.7665" gradientTransform="matrix(1 0 0 -1 -37.66 704.5198)">
	<stop  offset="0" style="stop-color:#808080;stop-opacity:0.25"/>
	<stop  offset="0.54" style="stop-color:#808080;stop-opacity:0.12"/>
	<stop  offset="1" style="stop-color:#808080;stop-opacity:0.1"/>
</linearGradient>
<path class="st19" d="M1022.4,91.3c-0.7-1.7-1.8-3.2-3.2-4.4c-10.4-9.5-27.2-6.6-40.1-12.4c-3-1.3-6-3.2-9.2-2.7
	c-4.5,0.7-8.7,5.8-12.6,3.6l0.3,0.9l-0.3-0.1l2.9,8.8c1.1,3.4,2.3,6.9,4.4,9.7c-10.5,9.2-11.6,25.2-2.4,35.7
	c2.4,2.7,5.3,4.9,8.6,6.4l0.4,0.9l0.4,0.2c0.9,2,1.5,4,1.9,6.1c-3.3,0.5-9.2,4.2-14.9,9.6l-11.5-0.4c-7.4-0.2-14.6-2.7-20.6-7
	l-34.3-24.6c-2.4,0.2-4.7,1.3-6.6,2.9c-4.3-4.4-7.9-9.1-7.6-11.8c0,0-16-29.8-21.7-14.9s10.9,30.6,10.9,30.6l10.6,13.7
	c-0.4,2.4-0.7,4.8-0.8,7.3c13,14.9,58.7,28.4,58.7,28.4l7.1,0.3v0.4c-0.4,1.9-0.7,3.8-0.6,5.7c0,0.3,0,0.6,0,0.9s0,0.4,0,0.6
	c0.4,23.8,3.6,96.6,3.6,96.6c0.6-0.3,1.3-0.5,2-0.8l-0.5,6.5c0,0-30.4,4.3-52.9,12.8S871.1,319,871.1,319v87.8
	c-6.4,3.3-16.5,7.6-21.7,5.3c-5.6-2.5-8.7-0.4-9.3,1.8l0,0c-0.1,0.4-0.1,0.9,0,1.3l0,0c0,0.2,0.1,0.4,0.2,0.6l0,0
	c0.1,0.2,0.2,0.4,0.4,0.5c2.2,2.1,49.3,20.6,60.2,17.8c0.3-0.1,0.7-0.2,1-0.3l0.3-0.1c0.2-0.1,0.4-0.2,0.6-0.3s0.2-0.1,0.3-0.2
	s0.3-0.2,0.5-0.3s0.2-0.2,0.3-0.3s0.3-0.2,0.4-0.4s0.2-0.2,0.3-0.3s0.2-0.3,0.4-0.4s0.2-0.2,0.2-0.3s0.2-0.3,0.3-0.5
	s0.1-0.2,0.2-0.4s0.2-0.4,0.3-0.5s0.1-0.2,0.2-0.4s0.2-0.4,0.2-0.6l0.1-0.4c0.1-0.2,0.2-0.4,0.2-0.7l0.1-0.4
	c0.1-0.2,0.1-0.5,0.2-0.7l0.1-0.3c0.1-0.3,0.1-0.5,0.2-0.8v-0.3c0-0.3,0.1-0.6,0.1-0.9V424c0-0.3,0.1-0.6,0.1-0.9v-0.2
	c0-0.3,0-0.7,0.1-1v-0.1c0-0.4,0-0.7,0-1.1v-0.1c0-4.2-0.5-8.5-1.4-12.6l0,0l2.6-74.8c14.3,0.2,28.6-0.3,42.8-1.5l1.6,35.7
	c0,0,0,23.5,8,34.1c6.8,9.1,14.7,49.5,16.8,60.9c-2.9,5.6-8.5,12.5-18.3,12.3c0,0-18.4-1.6-17.3,3.5l0,0c0,0.1,0.1,0.3,0.1,0.4l0,0
	c0.1,0.1,0.1,0.3,0.2,0.4l0,0c0.1,0.1,0.2,0.3,0.2,0.4l0.1,0.1c0.1,0.2,0.2,0.3,0.4,0.5l0,0l0.4,0.4l0.1,0.1
	c0.2,0.2,0.3,0.3,0.5,0.5c9.4,8.5,64.5,10,64.5,10v-0.2c0,0,0-0.1,0-0.2l0,0c0-2.5-0.4-15.4-3.7-25.2h0.8c0,0-8-71.8-14.5-80.3
	c0,0-1.7-37.8,2.2-61.6l0.7-0.3c18.3-6.8,19.6-23.6,17.7-36c3.5,1.1,5.5,1.9,5.5,1.9s-0.1-0.5-0.2-1.5l0.2,0.1c0,0-0.3-2.3-0.9-5.8
	c-1.3-9.7-3.8-26.6-6.5-34.6c-0.4-1.8-0.8-3.3-1.2-4.4c-1.6-4.8-2.6-9.7-3.2-14.8c-0.7-6.5-1.1-13-1.1-19.6c0.1-8.7,0.7-17.5,2-26.1
	c1.1-7.6,2.1-16.1,2-22.1c0.1-2.1-0.1-4.2-0.4-6.2c-1-4.4-5.2-7.3-9.7-9.1c-0.3-0.1-0.6-0.2-0.9-0.3c0.1-1.7,0.2-3.6,0.4-5.6
	c1.1,0.7,2.4,1,3.7,0.8c1.9-0.4,3.3-2,4.5-3.5c6.4-7.9,13-16.1,15.5-25.9c1-4.4,1.4-8.9,1.4-13.3c0-0.2,0-0.5,0-0.7
	C1023.1,94.6,1022.9,92.9,1022.4,91.3z"/>
<path class="st20" d="M963.9,129.8c0,0,9.7,14.6,7.7,21.6s22.9,2.8,22.9,2.8s0.7-27.1,5.6-33.4S963.9,129.8,963.9,129.8z"/>
<path class="st20" d="M899.6,139.2c0,0-20.2-16.7-19.5-22.9c0,0-15.3-29.2-20.9-14.6s10.4,29.9,10.4,29.9l19.5,25.7L899.6,139.2z"/>
<path class="st21" d="M879.1,400.9c0,0-18.8,11.8-26.4,8.4s-10.4,2.1-8.3,4.2s47.3,20.2,57.7,17.4s5.1-25.5,5.1-25.5L879.1,400.9z"
	/>
<path class="st21" d="M978.5,451.6c0,0-4.5,19.1-20.2,18.8c0,0-23.6-2.1-14.6,6.3s61.9,9.7,61.9,9.7s0-28.5-9.7-34.8
	S978.5,451.6,978.5,451.6z"/>
<path class="st22" d="M950,316.8l2.1,48.7c0,0,0,22.9,7.7,33.4s16.7,62.6,16.7,62.6h26.4c0,0-7.7-70.2-13.9-78.6
	c0,0-2.8-61.9,7-75.8L950,316.8z"/>
<path class="st7" d="M950,316.8l2.1,48.7c0,0,0,22.9,7.7,33.4s16.7,62.6,16.7,62.6h26.4c0,0-7.7-70.2-13.9-78.6c0,0-2.8-61.9,7-75.8
	L950,316.8z"/>
<path class="st22" d="M1005,273c0,0,16,38.2-13.2,49.4s-82,9.7-82,9.7l-2.8,80.6c0,0-32.7,4.2-33.4-6.3v-88.3c0,0,0.7-9.7,22.2-18.1
	s50.7-12.5,50.7-12.5l1.4-18.1L1005,273z"/>
<path class="st7" d="M979.3,147c5.6-0.6,11.2,0.2,16.3,2.3c4.3,1.8,8.4,4.6,9.3,8.9c1.1,5.1-0.1,16.6-1.5,26.4
	c-2.2,15.3-2.5,30.8-0.8,46.1c0.7,6.4,1.7,12,3.1,14.4c4.2,7.6,8.3,43.8,8.3,43.8s-45.9-17.4-68.8-7c0,0-3.1-71.3-3.5-94.5
	c-0.3-18,22.6-38.6,30.2-39.3C976.4,147.8,974.9,147.5,979.3,147z"/>
<path class="st23" d="M979.3,145.6c5.6-0.6,11.2,0.2,16.3,2.3c4.3,1.8,8.4,4.6,9.3,8.9c1.1,5.1-0.1,16.6-1.5,26.4
	c-2.2,15.3-2.5,30.8-0.8,46.1c0.5,4.9,1.6,9.7,3.1,14.4c3.1,9.4,8.3,43.8,8.3,43.8s-45.9-17.4-68.8-7c0,0-3.1-71.3-3.5-94.5
	c-0.3-18,22.6-38.6,30.2-39.3C976.4,146.4,974.9,146.1,979.3,145.6z"/>
<path class="st7" d="M991.7,184l-49.4-2.8c0,0-3.1-24.2,4-23.9l48.8,1.7C995.2,159,1005.7,171.5,991.7,184z"/>
<path class="st23" d="M991.7,182.6l-56.3-2.8c0,0-43.8-13.2-56.3-27.8c0,0,0.7-25.7,14.6-27.1l32.9,24.1c5.7,4.2,12.6,6.6,19.7,6.9
	l48.8,1.7C995.2,157.6,1005.7,170.1,991.7,182.6z"/>
<path class="st7" d="M994.2,132.9c0.8-6.6,3.8-8.8,5.9-11.5c4.9-6.3-36.2,9-36.2,9c2.1,3.3,4,6.7,5.5,10.2c3.3,1.5,6.8,2.3,10.4,2.3
	C986,143,989.9,136.5,994.2,132.9z"/>
<circle class="st20" cx="979.9" cy="117.3" r="25"/>
<path class="st7" d="M964.1,99.7c-2.7-2.9-4-6.8-5.2-10.6l-2.8-8.6c3.8,2.2,7.8-2.8,12.1-3.5c3.1-0.5,6,1.3,8.9,2.6
	c12.4,5.7,28.5,2.9,38.5,12.1c1.4,1.2,2.4,2.7,3.1,4.3c0.5,1.6,0.7,3.2,0.6,4.9c0.1,4.4-0.4,8.8-1.3,13.1
	c-2.4,9.6-8.7,17.6-14.8,25.4c-1.2,1.5-2.5,3-4.3,3.4c-3.6,0.8-6.3-3.1-7.7-6.5c-1.8-4.5-3.2-9.2-4-14c-0.2-2-0.8-4-1.7-5.8
	c-2.2-3.8-7.5-7.4-10.7-10.4S967.1,103,964.1,99.7z"/>
<path class="st24" d="M964.1,99c-2.7-2.9-4-6.8-5.2-10.6l-2.8-8.6c3.8,2.2,7.8-2.8,12.1-3.5c3.1-0.5,6,1.3,8.9,2.6
	c12.4,5.7,28.5,2.9,38.5,12.1c1.4,1.2,2.4,2.7,3.1,4.3c0.5,1.6,0.7,3.2,0.6,4.9c0.1,4.4-0.4,8.8-1.3,13.1
	c-2.4,9.6-8.7,17.6-14.8,25.4c-1.2,1.5-2.5,3-4.3,3.4c-3.6,0.8-6.3-3.1-7.7-6.5c-1.8-4.5-3.2-9.2-4-14c-0.2-2-0.8-4-1.7-5.9
	c-2.2-3.8-7.5-7.4-10.7-10.4S967.1,102.3,964.1,99z"/>
<ellipse class="st20" cx="986.5" cy="120.1" rx="2.1" ry="4.5"/>
<path class="st7" d="M999,240.6c0,0-1.4,4.2-8.3,3.5s-27.1-2.1-27.1,0"/>
<path class="st25" d="M943.8,476c-0.9-0.7-1.6-1.8-2-2.9c-0.2,0.9,0.4,2.1,2,3.6c9,8.3,61.9,9.7,61.9,9.7s0-0.2,0-0.7
	C1005.3,485.7,952.8,484.3,943.8,476z"/>
<path class="st25" d="M902.1,429.4c-10.4,2.8-55.6-15.3-57.7-17.4c-0.3-0.3-0.5-0.6-0.6-1c-0.2,0.8,0,1.8,0.6,2.4
	c2.1,2.1,47.3,20.2,57.7,17.4c5.4-1.4,6.6-8.2,6.5-14.4C908.4,422.2,907,428.1,902.1,429.4z"/>
<path class="st26" d="M735.1,146.8c0,0-60.5-17.9-64.5,33.1s16,135,0,162s-73.1,66-43,69.5s45,8.5,36,26.5c-9,18-56,35-46,48
	s15,29,5,45s-45,26-39,37s28,17,17,29s-42.9,39.3-30.4,39.2"/>
<linearGradient id="SVGID_6_" gradientUnits="userSpaceOnUse" x1="355.6566" y1="78.2297" x2="355.6566" y2="470.8898" gradientTransform="matrix(1 0 0 -1 -37.66 704.5198)">
	<stop  offset="0" style="stop-color:#808080;stop-opacity:0.25"/>
	<stop  offset="0.54" style="stop-color:#808080;stop-opacity:0.12"/>
	<stop  offset="1" style="stop-color:#808080;stop-opacity:0.1"/>
</linearGradient>
<path class="st27" d="M505.5,482.7c-2.4-13.5-3.9-27.2-4.5-41l0,0c-1-23.3-16.4-43.4-38.7-50.3c-4-1.2-8.3-2.4-13.1-3.4
	c-42.1-9-54.9-1.1-56.4-0.1c-1.2-2.3-2.3-4.6-3.2-7c-0.1-0.2-0.1-0.5-0.2-0.7c8.3-8.9,13.4-20.3,14.4-32.5c7-7.1,11.1-15.7,11.1-25
	c0-8-3-15.4-8.4-21.9v-12.5c0-30.2-24.5-54.7-54.7-54.7h-4.4c-30.2,0-54.7,24.5-54.7,54.7v13.6c-4.8,5.9-7.5,13.3-7.6,20.9
	c0,9.1,3.9,17.5,10.7,24.5c0.9,12.6,6.2,24.5,15,33.5c0.3,2,0.6,4.3,0.9,6.6l-75.4,15.9c0,0-29.1,1.2-47.8,39.8
	c-15.8,32.7-47.3,116.7-56.7,141.7l0,0c-1.7,4.5-2.6,7.1-2.6,7.1s0.3-0.3,0.9-0.8l-0.9,2.4c0,0,0.5-0.5,1.3-1.2
	c-1.3,10.5-1.5,28.4,12.2,30.7c11.5,1.9,41.1,2.7,63.5,3l0,0h1.6c14.8,0.2,26.1,0.2,26.1,0.2v-0.2h240.7v-2.5c0-2.2-0.5-4.5-1.3-6.5
	l0.3-0.4c1.3,1.7,2.1,3.7,2.5,5.8c0,0.2-0.1,0.4-0.1,0.6l0.1-0.4c0.1,0.7,0,1.3-0.1,2c0,0,30.9-79.5,30.5-127
	C506.7,492.7,506.4,487.7,505.5,482.7z M313.1,398.2c-0.4-2.3-0.7-4.6-0.8-6.9v-0.1C312.6,393.5,312.8,395.8,313.1,398.2z
	 M219.5,569v19l-11.9,2.5L219.5,569z"/>
<path class="st23" d="M348.5,241.3L348.5,241.3c30.2,0,54.7,24.5,54.7,54.7c0,0,0,0,0,0v23.3l0,0H293.8l0,0V296
	C293.8,265.8,318.3,241.3,348.5,241.3L348.5,241.3z"/>
<ellipse class="st23" cx="348.9" cy="327" rx="62.4" ry="42.9"/>
<path class="st20" d="M308.9,368.5c0,0,13,68.1,0,86.5s39.8,25.6,39.8,25.6l54.7-19.9l7.6-49c0,0-33.3-18.8-26.4-56.6L308.9,368.5z"
	/>
<path class="st20" d="M470.3,598c0,0,3.4,14.9-15.3,17.6c-11.1,1.6-22.3,1.5-33.4-0.4l-4.1-37.5h43.6L470.3,598z"/>
<path class="st20" d="M139.3,578.9c0,0-8.3,33.6,10.5,36.7s87.6,3,87.6,3v-39.8l-31.2,6.7l-29.3-28.1L139.3,578.9z"/>
<path class="st7" d="M312.9,390.5l-73.3,15.5c0,0-27.9,1.1-45.9,38.3s-57,143.1-57,143.1s33.3-33.7,72.3,2.3l26-47l-5.7,74.6h201.6
	v-35.2c0,0,42.1,22.6,39,35.2c0,0,36-92.8,28.3-135c-2.3-13-3.8-26.2-4.3-39.5l0,0c-0.9-22.3-15.8-41.7-37.2-48.3
	c-3.8-1.2-8-2.3-12.6-3.2c-43.2-9.2-54.3,0-54.3,0s-8.4,27.2-8.2,39.6c0.2,15.9-22.6,26.4-22.6,26.4s-33.7-8-35.2-14.5
	S310.2,398.1,312.9,390.5z"/>
<path class="st22" d="M312.9,388.9l-73.3,15.5c0,0-27.9,1.1-45.9,38.3s-57,143.1-57,143.1s33.3-33.7,72.3,2.3l26-47l-5.7,74.6h201.6
	v-35.2c0,0,42.1,22.6,39,35.2c0,0,36-92.8,28.3-135c-2.3-13-3.8-26.2-4.3-39.5l0,0c-0.9-22.3-15.8-41.7-37.2-48.3
	c-3.8-1.2-8-2.3-12.6-3.2c-43.2-9.2-54.3,0-54.3,0s-8.4,27.2-8.2,39.6c0.2,15.9-22.6,26.4-22.6,26.4s-33.7-8-35.2-14.5
	S310.2,396.6,312.9,388.9z"/>
<path class="st7" d="M387.8,385.6c-3.1-8.7-3.8-18.1-2-27.2L310,371.9c0,0,1.1,5.7,2.3,14.3c19.9,20.7,52.8,21.3,73.5,1.4
	C386.5,386.9,387.1,386.3,387.8,385.6L387.8,385.6z"/>
<path class="st20" d="M400.7,346.6c0.3,28.7-22.7,52.3-51.4,52.6s-52.3-22.7-52.6-51.4c0-0.4,0-0.8,0-1.3c0-19.9,11.3-38,29.2-46.8
	c1.6-0.8,3.2-1.4,4.8-2.1c8.6-3.1,17.8-4,26.8-2.5l0,0c23.7,4,41.6,23.8,43.1,47.9C400.7,344.3,400.7,345.5,400.7,346.6z"/>
<g class="st28">
	<path d="M330.5,299.1L330.5,299.1c-1.6,0.6-3.2,1.3-4.7,2.1c-17.9,8.7-29.2,26.9-29.2,46.8c0,0.4,0,0.8,0,1.3
		c1.6,0,3.2-0.4,4.7-1.1c12.7-5.9,20.3-24,23.3-36.7C325.7,306.8,326.7,301.7,330.5,299.1z"/>
	<path d="M370.3,300.5c-4.1-1.9-8.5-3.2-12.9-4c3.7,0.8,6.9,2.9,9.3,5.8c1.2,1.6,2.1,3.3,2.8,5.1c-14-6.1-30-5.8-43.8,0.9
		c3.3,7.2,13.4,11.1,20.1,13.7c7.4,2.9,14.9,5.5,22.5,7.8l-6.7-5.4l15.1,2.4c0.2-3-0.2-6-1-8.9c2.9,2.3,6.7,3.1,9.9,5.1
		c5.9,3.7,8.3,10.9,11.5,17c0.7,1.7,1.9,3.2,3.4,4.3C399.3,325.3,387.7,308.5,370.3,300.5z"/>
</g>
<path class="st24" d="M330.5,297.9L330.5,297.9c-1.6,0.6-3.2,1.3-4.7,2.1c-17.8,8.7-29.1,26.8-29.2,46.7c0,0.4,0,0.8,0,1.3
	c1.6,0,3.2-0.4,4.7-1.1c12.7-5.9,20.3-24,23.3-36.7C325.7,305.6,326.7,300.5,330.5,297.9z"/>
<path class="st24" d="M370.3,299.4c-4.1-1.9-8.5-3.2-12.9-4c3.7,0.8,6.9,2.9,9.3,5.8c1.2,1.6,2.1,3.3,2.8,5.1
	c-14-6.1-30-5.8-43.8,0.9c3.3,7.2,13.4,11.1,20.1,13.7c7.4,2.9,14.9,5.5,22.5,7.8l-6.7-5.4l15.1,2.4c0.2-3-0.2-6-1-8.9
	c2.9,2.3,6.7,3.1,9.9,5.1c5.9,3.7,8.3,10.9,11.5,17c0.7,1.7,1.9,3.2,3.4,4.3C399.3,324.1,387.7,307.3,370.3,299.4z"/>
<path class="st7" d="M290.7,338.1c0,0,53.6-66.6,115.5,0l-5.4-14.9c0,0-29.1-42.5-49.7-33.3s-40.9,15.7-40.9,15.7L290.7,338.1z"/>
<path class="st23" d="M290.7,336.9c0,0,53.6-66.6,115.5,0l-5.4-14.9c0,0-29.1-42.5-49.7-33.3s-40.9,15.7-40.9,15.7L290.7,336.9z"/>
<path class="st7" d="M246.7,480.4c0,0-11.5,30.6,4.6,58.2s-14.1,39-14.1,39"/>
<path class="st7" d="M432.6,452.8c0,0,19.9,25.2,6.9,47.8s-12.2,76.9-12.2,76.9"/>
<path class="st21" d="M229.1,600.1h221.1c10.1,0,18.4,8.2,18.4,18.4l0,0l0,0H210.8l0,0l0,0C210.8,608.3,219,600.1,229.1,600.1z"/>
<path class="st21" d="M262.4,473.9H417c21.5,0,39,17.5,39,39v91.5l0,0H223.4l0,0v-91.5C223.4,491.3,240.8,473.9,262.4,473.9z"/>
<circle class="st29" cx="339.5" cy="544.8" r="13.8"/>
<path class="st30" d="M293.8,306.9c0,0,52.6-52.6,109.4-1"/>
<rect x="411.2" y="303.5" class="st31" width="5.3" height="30"/>
<path class="st16" d="M404.1,322.9L404.1,322.9c10.1,0,18.2,8.2,18.2,18.2v1.2c0,10.1-8.2,18.2-18.2,18.2l0,0l0,0V322.9L404.1,322.9
	z"/>
<path class="st31" d="M404.7,321.1L404.7,321.1c2.3,0,4.1,1.8,4.1,4.1v32.9c0,2.3-1.8,4.1-4.1,4.1h0c-2.3,0-4.1-1.8-4.1-4.1v-32.9
	C400.6,323,402.5,321.1,404.7,321.1z"/>
<rect x="279.9" y="304.1" class="st31" width="5.3" height="30"/>
<path class="st16" d="M292.3,361.1L292.3,361.1c-10.1,0-18.2-8.2-18.2-18.2v-1.2c0-10.1,8.2-18.2,18.2-18.2l0,0l0,0V361.1
	L292.3,361.1L292.3,361.1z"/>
<path class="st31" d="M291.7,362.9L291.7,362.9c-2.3,0-4.1-1.8-4.1-4.1v-32.9c0-2.3,1.8-4.1,4.1-4.1h0c2.3,0,4.1,1.8,4.1,4.1v32.9
	C295.8,361,293.9,362.9,291.7,362.9z"/>
<path class="st16" d="M410.6,271.5c-7.2-14.9-22.8-32.9-56.4-34.3l0,0h-0.4l0,0l-11.9,0.6v0.1c-33.4,1.5-48.9,19.5-56,34.3
	c-4.7,10.1-7.3,21-7.4,32.1l4.1-0.1l4.1-0.1c0.2-9.9,2.4-19.7,6.6-28.6c9.1-18.6,25.7-28.5,49.6-29.4l0,0l10.5-0.6l0,0
	c23.8,0.9,40.5,10.8,49.6,29.4c4.2,9,6.5,18.7,6.7,28.6l4.1,0.1l4.1,0.1C417.8,292.5,415.3,281.5,410.6,271.5z"/>
<rect x="37.6" y="618.7" class="st32" width="560.8" height="150.6"/>
<rect x="37.6" y="628.8" class="st7" width="560.8" height="19.5"/>
<rect y="616.5" class="st32" width="636" height="19.5"/>
<path class="st26" d="M435.5,567.9c0,0,24,44,84,32c60-12,31,111,31,111s-9.8,58.7-2.9,58.3"/>
</svg>
