<svg viewBox="0 0 1124.7 770.8" xmlns="http://www.w3.org/2000/svg" xmlns:xlink="http://www.w3.org/1999/xlink"><linearGradient id="a" gradientTransform="translate(0 -72)" gradientUnits="userSpaceOnUse" x1="806.25" x2="806.25" y1="380.9" y2="353.7"><stop offset="0" stop-color="#808080" stop-opacity=".25"/><stop offset=".54" stop-color="#808080" stop-opacity=".12"/><stop offset="1" stop-color="#808080" stop-opacity=".1"/></linearGradient><linearGradient id="b" gradientTransform="translate(-37.66 -137.37)" x1="843.76" x2="843.76" xlink:href="#a" y1="469.37" y2="188.17"/><linearGradient id="c" x1="779.05" x2="779.05" xlink:href="#a" y1="468.8" y2="380.9"/><linearGradient id="d" x1="830.3" x2="830.3" xlink:href="#a" y1="468.8" y2="380.9"/><linearGradient id="e" gradientTransform="translate(-37.66 -137.37)" x1="969.27" x2="969.27" xlink:href="#a" y1="628.37" y2="209.09"/><linearGradient id="f" gradientTransform="translate(-37.66 -137.37)" x1="355.54" x2="355.54" xlink:href="#a" y1="763.57" y2="370.97"/><path d="m201.13 521.45c-11.08-65.59-70.53-131-125.77-178.13-18.5-15.82-38.36-32.18-50.77-54.32-15.16-27-14.46-55.1-7-74.87 13.55-36.13 47.81-53.74 89.07-45.91 35.72 6.8 74.82 31 110.13 36.55 59.19 9.34 95-35.09 116.86-85.32 15.42-35.63 29.93-78 69.05-79.52 27.51-1.07 61.42 19.41 90.67 45.92 14.07 12.8 28.14 27.44 43.15 34.83 9 4.45 17.57 5.9 25.81 6.56 75.19 5.61 120.82-57.62 197.6-46.69 52 7.36 110.7 48.57 160 100s90.66 112.61 130.07 173.62c28 43.32 56.73 90.4 63.22 134.39 6.91 46.46-13.72 80.07-45.09 92.27s-72 5.94-112.61-6.64c-50.82-15.66-105.5-41-148-32-28.92 6.2-48.8 27.79-70.48 45.76-36.36 29.94-79.55 50.27-122.86 69.77-41.54 18.72-83.77 36.85-132.5 41.62-34.45 3.33-72-8-107.65-9.35-23.28-.83-42 7.57-66.74 3-30.37-5.66-68.67-25.66-89.92-65.59-20.24-38.05-10.37-71.16-16.24-105.95z" fill="#f9c03f" opacity=".6"/><path d="m624 428.9c-3.4 3.4-4.2 8.1-5.4 12.5-3.5 12.4-11.6 23.9-23 32.3-8.3 6.2-19.5 13-17.5 22.2.5 2.2 1.7 4.3 2 6.5 1.4 9.6-13.3 14.7-19 23.1-4.2 6.3-3.1 14-1.8 21.2 1.5 8.7 3.4 18 10.6 24.5 1.9 1.7 4.2 3.2 5.6 5.3 3 4.7.4 10.8 3.1 15.6 3.7 6.4 15.2 6.7 21.9 2.4s9.8-11.4 12.8-18.1c8-18 17.9-36.1 34.5-49.2 16-12.6 39.2-22.3 42-40.6 1.2-7.8-1.8-16.5 2.8-23.4 2.2-3.3 5.7-5.7 8.2-8.8 7.2-9.3 1.8-22.8-8.8-29.4-16.1-9.9-54-10-68 3.9z" fill="#dee3f3" opacity=".5"/><ellipse cx="817.4" cy="390.8" fill="#dee3f3" opacity=".5" rx="155" ry="26"/><path d="m841.8 290.1h11.5v-7.1-1.3h-94.1v1.3 7.1h11.5v8.4h-18.9v10.4h108.9v-10.4h-18.9z" fill="url(#a)"/><path d="m918.9 297.8a143.4 143.4 0 0 0 -.6-29.3 82 82 0 0 0 -6.7-23.8c-6.1-12.7-14.7-19.6-22.3-23.3a40.42 40.42 0 0 0 -16.3-4.4 7.33 7.33 0 0 0 -8.3-6.2 7.43 7.43 0 0 0 -6.2 6.2v-19h-39.8v-10.5h53.5a6.12 6.12 0 0 0 6.1-6.1v-54.9a6.12 6.12 0 0 0 -6.1-6.1h-20.2v-53.9a8.13 8.13 0 0 0 4.8-7.4v-.4a8.21 8.21 0 0 0 -16.4 0v.4a8.25 8.25 0 0 0 4.3 7.2v54.3h-75.4v-54.3a8.06 8.06 0 0 0 4.3-7.2v-.4a8.21 8.21 0 0 0 -16.4 0v.4a8.13 8.13 0 0 0 4.8 7.4v54.1h-22.1a6.12 6.12 0 0 0 -6.1 6.1v54.8a6.12 6.12 0 0 0 6.1 6.1h53.6v10.4h-39.8v15.4a6.33 6.33 0 0 0 -1.6-2.6l-.2-.2a7.3 7.3 0 0 0 -10.4 0 6.79 6.79 0 0 0 -2.1 5.2v1a39.47 39.47 0 0 0 -16.5 4.5c-7.6 3.8-16.2 10.6-22.3 23.4a79 79 0 0 0 -6.7 23.8 143.4 143.4 0 0 0 -.6 29.3c-16.8 13.9 4.2 34.2 4.2 34.2 17.2 0 16.8-28.6 16.7-33.5h.1a4.18 4.18 0 0 0 -.1-.7 108.82 108.82 0 0 1 -1-24.2 61.33 61.33 0 0 1 4.1-18.5 31.61 31.61 0 0 1 8.3-12.1 27.85 27.85 0 0 1 13.9-6.7v4.7a7.28 7.28 0 0 0 14.2 2.3v38.4h104.6v-37.6a7.18 7.18 0 0 0 1.9 3.9l.2.2a7.3 7.3 0 0 0 10.4 0 6.79 6.79 0 0 0 2.1-5.2v-6.7a27.57 27.57 0 0 1 13.6 6.6 33.58 33.58 0 0 1 8.3 12.1 62 62 0 0 1 4.1 18.6 108.82 108.82 0 0 1 -1 24.2 4.18 4.18 0 0 0 -.1.7h.1c-.2 4.9-.6 33.5 16.7 33.5.1-.1 21.1-20.3 4.3-34.2z" fill="url(#b)"/><path d="m757.1 309.9v9.5h12.5v14.6 12.6 18.8 10.5 6.3h-14.6v14.6h39.7v-14.6h-6.2v-6.3-10.5-18.8-12.6-14.6h14.6v-9.5-1h-46z" fill="url(#c)"/><path d="m807.3 309.9v9.5h18.8v14.6 12.6 18.8 10.5 6.3h-14.6v14.6h39.7v-14.6h-6.2v-6.3-10.5-18.8-12.6-14.6h8.3v-9.5-1h-46z" fill="url(#d)"/><path d="m749 123.3h114.6a13 13 0 0 1 13 13v39.2a13 13 0 0 1 -13 13h-114.6a13 13 0 0 1 -13-13v-39.2a13 13 0 0 1 13-13z" fill="#3e76f9"/><path d="m747.2 178.5h118.1v1.2h-118.1z" opacity=".1"/><path d="m747.2 133.5h118.1v44.8h-118.1z" opacity=".3"/><circle cx="774.7" cy="156.9" opacity=".1" r="16.3"/><circle cx="774.7" cy="155.9" fill="#dee3f3" r="16.3"/><circle cx="837.8" cy="156.9" opacity=".1" r="16.3"/><circle cx="837.8" cy="155.9" fill="#dee3f3" r="16.3"/><g fill="#3e76f9"><path d="m794 188.5h24.4v14.3h-24.4z"/><path d="m755.3 198.7h101.8v81.4h-101.8z"/><path d="m852.1 280.1v8.2h-11.2v8.1h-69.3v-8.1h-11.2v-8.2z"/></g><path d="m852.1 280.1v8.2h-11.2v8.1h-69.3v-8.1h-11.2v-8.2z" opacity=".3"/><g fill="#3e76f9"><path d="m753.3 296.4h105.9v10.2h-105.9z"/><path d="m758.4 306.6h44.8v10.2h-44.8z"/><path d="m807.3 306.6h44.8v10.2h-44.8z"/><path d="m756.4 377.9h38.7v14.2h-38.7z"/><path d="m770.6 331.1v12.2 18.3 10.2 6.1h18.3v-6.1-10.2-18.3-12.2-14.3h-18.3z"/><path d="m825.6 316.8v14.3 12.2 18.3 10.2 6.1h18.3v-6.1-10.2-18.3-12.2-14.3z"/><path d="m811.3 377.9h38.7v14.2h-38.7z"/><path d="m755.7 216v24.9a7.11 7.11 0 0 1 -14.2-.5v-24.4a7.07 7.07 0 0 1 12.1-5l.2.2a7 7 0 0 1 1.9 4.3z"/><path d="m871.3 218v24.4a7.07 7.07 0 0 1 -12.1 5l-.2-.2a7.08 7.08 0 0 1 -1.9-4.8v-24.4a7.1 7.1 0 0 1 14.2 0z"/><path d="m741.5 217v18.8a27.51 27.51 0 0 0 -13.5 6.5 33.21 33.21 0 0 0 -8.1 11.8 58.74 58.74 0 0 0 -4 18 103.17 103.17 0 0 0 1.1 24.2h-20.3a142.54 142.54 0 0 1 .5-29.2 81.86 81.86 0 0 1 6.5-23.2c5.9-12.4 14.3-19.1 21.7-22.7a42.67 42.67 0 0 1 16.1-4.2z"/><path d="m700.7 329s-20.5-19.7-4.1-33.3h20.3c0 .1 2.2 33.3-16.2 33.3z"/></g><path d="m700.7 329s-20.5-19.7-4.1-33.3h20.3c0 .1 2.2 33.3-16.2 33.3z" fill="#f7bf41"/><path d="m771.6 210.9h69.2v52.9h-69.2z" opacity=".3"/><path d="m770.6 316.8h18.3v14.2h-18.3z" fill="#f93ed4"/><path d="m770.6 343.3h18.3v18.3h-18.3z" fill="#f7bf41"/><path d="m770.6 371.8h18.3v6.1h-18.3z" fill="#47e2aa"/><path d="m825.6 316.8h18.3v14.2h-18.3z" fill="#f7bf41"/><path d="m825.6 343.3h18.3v18.3h-18.3z" fill="#47e2aa"/><path d="m825.6 371.8h18.3v6.1h-18.3z" fill="#f93ed4"/><path d="m741.5 217v18.8a27.51 27.51 0 0 0 -13.5 6.5l-2.5-21a40.1 40.1 0 0 1 16-4.3z" fill="#f93ed4"/><path d="m719.9 254.2a58.74 58.74 0 0 0 -4 18l-18.7-5a81.86 81.86 0 0 1 6.5-23.2z" fill="#47e2aa"/><path d="m871 217v18.8a27.51 27.51 0 0 1 13.5 6.5 33.21 33.21 0 0 1 8.1 11.8 58.74 58.74 0 0 1 4 18 103.17 103.17 0 0 1 -1.1 24.2h20.4a135.79 135.79 0 0 0 -.5-29.2 81.86 81.86 0 0 0 -6.5-23.2c-5.9-12.4-14.3-19.1-21.7-22.7a43.66 43.66 0 0 0 -16.2-4.2z" fill="#3e76f9"/><path d="m911.8 329s20.5-19.7 4.1-33.3h-20.3c0 .1-2.2 33.3 16.2 33.3z" fill="#3e76f9"/><path d="m911.8 329s20.5-19.7 4.1-33.3h-20.3c0 .1-2.2 33.3 16.2 33.3z" fill="#f93ed4"/><path d="m871 217v18.8a27.51 27.51 0 0 1 13.5 6.5l2.5-21a40.1 40.1 0 0 0 -16-4.3z" fill="#f7bf41"/><path d="m892.6 254.2a58.74 58.74 0 0 1 4 18l18.7-5a81.86 81.86 0 0 0 -6.5-23.2z" fill="#47e2aa"/><path d="m794 188.5h24.4v1.7h-24.4z" opacity=".1"/><path d="m859 213.2v34.1a7.08 7.08 0 0 1 -1.9-4.8v-24.5a6.64 6.64 0 0 1 1.9-4.8z" opacity=".1"/><path d="m755.7 215.4v25.6a7 7 0 0 1 -1.9 4.3v-34.2a7 7 0 0 1 1.9 4.3z" opacity=".1"/><path d="m760.4 280.1h91.6v1.2h-91.6z" opacity=".1"/><path d="m758.4 306.6h44.8v.9h-44.8z" opacity=".1"/><path d="m807.3 306.6h44.8v.9h-44.8z" opacity=".1"/><path d="m763.4 63h7v60.3h-7z" fill="#3e76f9"/><path d="m843.8 63h7v60.3h-7z" fill="#3e76f9"/><circle cx="766.7" cy="63.5" opacity=".1" r="8"/><circle cx="766.7" cy="63" fill="#3e76f9" r="8"/><circle cx="847.5" cy="63.5" opacity=".1" r="8"/><circle cx="847.5" cy="63" fill="#3e76f9" r="8"/><path d="m598.9 247.8s23.3 45.7 4.3 70.6 1.7 93 1.7 93" fill="none" stroke="#fc6681" stroke-miterlimit="10" stroke-width="2"/><path d="m605.8 233.6c0 8.8-6.5 15.9-6.5 15.9s-6.5-7.1-6.5-15.9 6.5-15.9 6.5-15.9 6.5 7.1 6.5 15.9z" fill="#fc6681"/><path d="m611 247.8s-23.3 45.7-4.3 70.6-1.7 93-1.7 93" fill="none" stroke="#ffd037" stroke-miterlimit="10" stroke-width="2"/><path d="m604.1 233.6c0 8.8 6.5 15.9 6.5 15.9s6.5-7.1 6.5-15.9-6.5-15.9-6.5-15.9-6.5 7.1-6.5 15.9z" fill="#ffd037"/><path d="m620.4 247.8s23.3 45.7 4.3 70.6 1.7 93 1.7 93" fill="none" stroke="#fc6681" stroke-miterlimit="10" stroke-width="2"/><g fill="#fc6681"><path d="m627.3 233.6c0 8.8-6.5 15.9-6.5 15.9s-6.5-7.1-6.5-15.9 6.4-15.9 6.4-15.9 6.6 7.1 6.6 15.9z"/><path d="m623.7 270.1c-6.1 6.3-15.7 7-15.7 7s.3-9.6 6.4-16 15.7-7 15.7-7-.3 9.7-6.4 16z"/><path d="m624.3 301.6c-6.1 6.3-15.7 7-15.7 7s.3-9.6 6.4-16 15.7-7 15.7-7-.3 9.7-6.4 16z"/><path d="m591.2 319c5.8 6.6 5.6 16.3 5.6 16.3s-9.5-1.1-15.3-7.8-5.6-16.3-5.6-16.3 9.6 1.1 15.3 7.8z"/><path d="m596.6 251.8c7.3 4.9 9.7 14.2 9.7 14.2s-9.5 1.4-16.8-3.4-9.7-14.2-9.7-14.2 9.4-1.5 16.8 3.4z"/></g><path d="m632.5 247.8s-23.3 45.7-4.3 70.6-1.7 93-1.7 93" fill="none" stroke="#ffd037" stroke-miterlimit="10" stroke-width="2"/><g fill="#ffd037"><path d="m625.6 233.6c0 8.8 6.5 15.9 6.5 15.9s6.5-7.1 6.5-15.9-6.5-15.9-6.5-15.9-6.5 7.1-6.5 15.9z"/><path d="m627.5 270.8c-6.2 6.3-6.6 15.9-6.6 15.9s9.6-.5 15.8-6.8 6.6-15.9 6.6-15.9-9.7.6-15.8 6.8z"/><path d="m639.6 314.4c-6.2 6.3-6.6 15.9-6.6 15.9s9.6-.5 15.8-6.8 6.6-15.9 6.6-15.9-9.6.6-15.8 6.8z"/></g><g fill="none" stroke-miterlimit="10" stroke-width="2"><path d="m621.8 304.8s14-22.1 33.7-22.5" stroke="#ffd037"/><path d="m610.9 291.5s-14-22.1-33.7-22.5" stroke="#fc6681"/><path d="m609 323s14-22.1 33.7-22.5" stroke="#ffd037"/></g><circle cx="654.8" cy="282.1" fill="#ffd037" r="3.6"/><circle cx="577.5" cy="269.1" fill="#fc6681" r="3.6"/><path d="m619.3 330.3s-14-22.1-33.7-22.5" fill="none" stroke="#fc6681" stroke-miterlimit="10" stroke-width="2"/><circle cx="586" cy="307.9" fill="#fc6681" r="3.6"/><circle cx="642.9" cy="300.6" fill="#ffd037" r="3.6"/><path d="m696.7 384.9s-33.7-6.8-42.7-15.7-49.5-24.7-54-13.5-60.7 49.5-22.5 56.2 90 9 101.2 4.5 18-31.5 18-31.5z" fill="#a8a8a8"/><path d="m577.5 407.7c38.2 6.8 90 9 101.2 4.5 8.6-3.4 14.5-19.9 16.9-27.5l1.1.2s-6.8 27-18 31.5-63 2.2-101.2-4.5c-11-2-14.2-6.5-13-12.3 1 3.8 4.8 6.7 13 8.1z" opacity=".2"/><path d="m1061 255.8s8.1 10.6-3.7 26.5-21.6 29.4-17.6 39.4c0 0 17.8-29.6 32.3-30s5-18.1-11-35.9z" fill="#fc6681"/><path d="m1061 255.8a12.89 12.89 0 0 1 1.7 3.3c14.2 16.6 21.7 32.1 8.1 32.5-12.7.4-27.9 23-31.5 28.8.1.4.3.9.4 1.3 0 0 17.8-29.6 32.3-30s5-18.1-11-35.9z" opacity=".1"/><path d="m1076.1 269.3c0 3.7-.4 6.7-.9 6.7s-.9-3-.9-6.7.5-2 1-2 .8-1.7.8 2z" fill="#ffd037"/><path d="m1081.2 273.8c-3.3 1.8-6.1 2.9-6.4 2.4s2.2-2.3 5.5-4 2-.5 2.2 0 2-.2-1.3 1.6z" fill="#ffd037"/><path d="m1018.3 255.8s-8.1 10.6 3.7 26.5 21.5 29.4 17.6 39.4c0 0-17.8-29.6-32.3-30s-4.9-18.1 11-35.9z" fill="#fc6681"/><path d="m1018.3 255.8a12.89 12.89 0 0 0 -1.7 3.3c-14.2 16.6-21.7 32.1-8.1 32.5 12.7.4 27.9 23 31.5 28.8-.1.4-.3.9-.4 1.3 0 0-17.8-29.6-32.3-30s-4.9-18.1 11-35.9z" opacity=".1"/><path d="m1003.3 269.3c0 3.7.4 6.7.9 6.7s.9-3 .9-6.7-.5-2-1-2-.8-1.7-.8 2z" fill="#ffd037"/><path d="m998.2 273.8c3.3 1.8 6.1 2.9 6.4 2.4s-2.2-2.3-5.5-4-2-.5-2.2 0-2-.2 1.3 1.6z" fill="#ffd037"/><path d="m1005.9 320.4s22.6-.7 29.4-5.5 34.8-10.6 36.4-2.9 34 38.7 8.4 38.9-59.3-4-66.1-8.1-8.1-22.4-8.1-22.4z" fill="#a8a8a8"/><path d="m1080.7 348.1c-25.5.2-59.3-4-66.1-8.1-5.2-3.1-7.2-14.5-7.9-19.7h-.8s1.4 18.2 8.2 22.4 40.6 8.3 66.1 8.1c7.4-.1 9.9-2.7 9.8-6.6-1 2.4-3.8 3.9-9.3 3.9z" opacity=".2"/><path d="m833.99 105.41h74v9h-74z" fill="#3e76f9" transform="matrix(.95 -.3 .3 .95 6.85 264.73)"/><path d="m936.4 428.9s-38.7-7.7-49-18.1-56.8-28.4-62-15.5-69.7 56.8-25.8 64.5 103.3 10.3 116.2 5.2 20.6-36.1 20.6-36.1z" fill="#a8a8a8"/><path d="m799.6 455.1c43.9 7.7 103.3 10.3 116.2 5.2 9.8-3.9 16.7-22.8 19.4-31.6l1.3.3s-7.7 31-20.7 36.1-72.3 2.6-116.2-5.2c-12.7-2.2-16.3-7.5-14.9-14.1 1.1 4.3 5.5 7.7 14.9 9.3z" opacity=".2"/><path d="m1022.4 91.3a11.63 11.63 0 0 0 -3.2-4.4c-10.4-9.5-27.2-6.6-40.1-12.4-3-1.3-6-3.2-9.2-2.7-4.5.7-8.7 5.8-12.6 3.6l.3.9-.3-.1 2.9 8.8c1.1 3.4 2.3 6.9 4.4 9.7a25.32 25.32 0 0 0 -2.4 35.7 25.82 25.82 0 0 0 8.6 6.4l.4.9.4.2a26.93 26.93 0 0 1 1.9 6.1c-3.3.5-9.2 4.2-14.9 9.6l-11.5-.4a37.23 37.23 0 0 1 -20.6-7l-34.3-24.6a12 12 0 0 0 -6.6 2.9c-4.3-4.4-7.9-9.1-7.6-11.8 0 0-16-29.8-21.7-14.9s10.9 30.6 10.9 30.6l10.6 13.7a58.21 58.21 0 0 0 -.8 7.3c13 14.9 58.7 28.4 58.7 28.4l7.1.3v.4a22.11 22.11 0 0 0 -.6 5.7v1.5c.4 23.8 3.6 96.6 3.6 96.6.6-.3 1.3-.5 2-.8l-.5 6.5s-30.4 4.3-52.9 12.8-23.3 18.2-23.3 18.2v87.8c-6.4 3.3-16.5 7.6-21.7 5.3-5.6-2.5-8.7-.4-9.3 1.8a2.85 2.85 0 0 0 0 1.3 1.42 1.42 0 0 0 .2.6 1 1 0 0 0 .4.5c2.2 2.1 49.3 20.6 60.2 17.8l1-.3.3-.1.6-.3a.77.77 0 0 0 .3-.2 2.19 2.19 0 0 1 .5-.3c.2-.1.2-.2.3-.3s.3-.2.4-.4.2-.2.3-.3.2-.3.4-.4.2-.2.2-.3.2-.3.3-.5l.2-.4a2.19 2.19 0 0 1 .3-.5c.1-.1.1-.2.2-.4a1.42 1.42 0 0 0 .2-.6l.1-.4a1.45 1.45 0 0 0 .2-.7l.1-.4c.1-.2.1-.5.2-.7l.1-.3c.1-.3.1-.5.2-.8v-.3c0-.3.1-.6.1-.9v-.3c0-.3.1-.6.1-.9v-.2a3.4 3.4 0 0 1 .1-1v-1.3a59.33 59.33 0 0 0 -1.4-12.6l2.6-74.8c14.3.2 28.6-.3 42.8-1.5l1.6 35.7s0 23.5 8 34.1c6.8 9.1 14.7 49.5 16.8 60.9-2.9 5.6-8.5 12.5-18.3 12.3 0 0-18.4-1.6-17.3 3.5 0 .1.1.3.1.4.1.1.1.3.2.4a.76.76 0 0 1 .2.4l.1.1a1.76 1.76 0 0 0 .4.5l.4.4.1.1.5.5c9.4 8.5 64.5 10 64.5 10v-.4c0-2.5-.4-15.4-3.7-25.2h.8s-8-71.8-14.5-80.3c0 0-1.7-37.8 2.2-61.6l.7-.3c18.3-6.8 19.6-23.6 17.7-36 3.5 1.1 5.5 1.9 5.5 1.9s-.1-.5-.2-1.5l.2.1s-.3-2.3-.9-5.8c-1.3-9.7-3.8-26.6-6.5-34.6a37.21 37.21 0 0 0 -1.2-4.4 73.62 73.62 0 0 1 -3.2-14.8 182.47 182.47 0 0 1 -1.1-19.6 189.91 189.91 0 0 1 2-26.1c1.1-7.6 2.1-16.1 2-22.1a31.8 31.8 0 0 0 -.4-6.2c-1-4.4-5.2-7.3-9.7-9.1l-.9-.3c.1-1.7.2-3.6.4-5.6a5.35 5.35 0 0 0 3.7.8c1.9-.4 3.3-2 4.5-3.5 6.4-7.9 13-16.1 15.5-25.9a60.13 60.13 0 0 0 1.4-13.3v-.7a21 21 0 0 0 -.8-5.2z" fill="url(#e)"/><path d="m963.9 129.8s9.7 14.6 7.7 21.6 22.9 2.8 22.9 2.8.7-27.1 5.6-33.4-36.2 9-36.2 9z" fill="#f7c4a7"/><path d="m899.6 139.2s-20.2-16.7-19.5-22.9c0 0-15.3-29.2-20.9-14.6s10.4 29.9 10.4 29.9l19.5 25.7z" fill="#f7c4a7"/><path d="m879.1 400.9s-18.8 11.8-26.4 8.4-10.4 2.1-8.3 4.2 47.3 20.2 57.7 17.4 5.1-25.5 5.1-25.5z" fill="#535461"/><path d="m978.5 451.6s-4.5 19.1-20.2 18.8c0 0-23.6-2.1-14.6 6.3s61.9 9.7 61.9 9.7 0-28.5-9.7-34.8-17.4 0-17.4 0z" fill="#535461"/><path d="m950 316.8 2.1 48.7s0 22.9 7.7 33.4 16.7 62.6 16.7 62.6h26.4s-7.7-70.2-13.9-78.6c0 0-2.8-61.9 7-75.8z" fill="#575988"/><path d="m950 316.8 2.1 48.7s0 22.9 7.7 33.4 16.7 62.6 16.7 62.6h26.4s-7.7-70.2-13.9-78.6c0 0-2.8-61.9 7-75.8z" opacity=".1"/><path d="m1005 273s16 38.2-13.2 49.4-82 9.7-82 9.7l-2.8 80.6s-32.7 4.2-33.4-6.3v-88.3s.7-9.7 22.2-18.1 50.7-12.5 50.7-12.5l1.4-18.1z" fill="#575988"/><path d="m979.3 147a33.44 33.44 0 0 1 16.3 2.3c4.3 1.8 8.4 4.6 9.3 8.9 1.1 5.1-.1 16.6-1.5 26.4a182.45 182.45 0 0 0 -.8 46.1c.7 6.4 1.7 12 3.1 14.4 4.2 7.6 8.3 43.8 8.3 43.8s-45.9-17.4-68.8-7c0 0-3.1-71.3-3.5-94.5-.3-18 22.6-38.6 30.2-39.3 4.5-.3 3-.6 7.4-1.1z" opacity=".1"/><path d="m979.3 145.6a33.44 33.44 0 0 1 16.3 2.3c4.3 1.8 8.4 4.6 9.3 8.9 1.1 5.1-.1 16.6-1.5 26.4a182.45 182.45 0 0 0 -.8 46.1 71.12 71.12 0 0 0 3.1 14.4c3.1 9.4 8.3 43.8 8.3 43.8s-45.9-17.4-68.8-7c0 0-3.1-71.3-3.5-94.5-.3-18 22.6-38.6 30.2-39.3 4.5-.3 3-.6 7.4-1.1z" fill="#e14b5a"/><path d="m991.7 184-49.4-2.8s-3.1-24.2 4-23.9l48.8 1.7c.1 0 10.6 12.5-3.4 25z" opacity=".1"/><path d="m991.7 182.6-56.3-2.8s-43.8-13.2-56.3-27.8c0 0 .7-25.7 14.6-27.1l32.9 24.1a35.83 35.83 0 0 0 19.7 6.9l48.8 1.7c.1 0 10.6 12.5-3.4 25z" fill="#e14b5a"/><path d="m994.2 132.9c.8-6.6 3.8-8.8 5.9-11.5 4.9-6.3-36.2 9-36.2 9a72 72 0 0 1 5.5 10.2 25 25 0 0 0 10.4 2.3c6.2.1 10.1-6.4 14.4-10z" opacity=".1"/><circle cx="979.9" cy="117.3" fill="#f7c4a7" r="25"/><path d="m964.1 99.7c-2.7-2.9-4-6.8-5.2-10.6l-2.8-8.6c3.8 2.2 7.8-2.8 12.1-3.5 3.1-.5 6 1.3 8.9 2.6 12.4 5.7 28.5 2.9 38.5 12.1a11.83 11.83 0 0 1 3.1 4.3 13.48 13.48 0 0 1 .6 4.9 57.67 57.67 0 0 1 -1.3 13.1c-2.4 9.6-8.7 17.6-14.8 25.4-1.2 1.5-2.5 3-4.3 3.4-3.6.8-6.3-3.1-7.7-6.5a67.89 67.89 0 0 1 -4-14 16.86 16.86 0 0 0 -1.7-5.8c-2.2-3.8-7.5-7.4-10.7-10.4s-7.7-3.1-10.7-6.4z" opacity=".1"/><path d="m964.1 99c-2.7-2.9-4-6.8-5.2-10.6l-2.8-8.6c3.8 2.2 7.8-2.8 12.1-3.5 3.1-.5 6 1.3 8.9 2.6 12.4 5.7 28.5 2.9 38.5 12.1a11.83 11.83 0 0 1 3.1 4.3 13.48 13.48 0 0 1 .6 4.9 57.67 57.67 0 0 1 -1.3 13.1c-2.4 9.6-8.7 17.6-14.8 25.4-1.2 1.5-2.5 3-4.3 3.4-3.6.8-6.3-3.1-7.7-6.5a67.89 67.89 0 0 1 -4-14 18.07 18.07 0 0 0 -1.7-5.9c-2.2-3.8-7.5-7.4-10.7-10.4s-7.7-3-10.7-6.3z" fill="#632652"/><ellipse cx="986.5" cy="120.1" fill="#f7c4a7" rx="2.1" ry="4.5"/><path d="m999 240.6s-1.4 4.2-8.3 3.5-27.1-2.1-27.1 0" opacity=".1"/><path d="m943.8 476a6.6 6.6 0 0 1 -2-2.9c-.2.9.4 2.1 2 3.6 9 8.3 61.9 9.7 61.9 9.7v-.7c-.4 0-52.9-1.4-61.9-9.7z" fill="#fff" opacity=".5"/><path d="m902.1 429.4c-10.4 2.8-55.6-15.3-57.7-17.4a2.07 2.07 0 0 1 -.6-1 2.63 2.63 0 0 0 .6 2.4c2.1 2.1 47.3 20.2 57.7 17.4 5.4-1.4 6.6-8.2 6.5-14.4-.2 5.8-1.6 11.7-6.5 13z" fill="#fff" opacity=".5"/><path d="m735.1 146.8s-60.5-17.9-64.5 33.1 16 135 0 162-73.1 66-43 69.5 45 8.5 36 26.5-56 35-46 48 15 29 5 45-45 26-39 37 28 17 17 29-42.9 39.3-30.4 39.2" fill="none" stroke="#535461" stroke-miterlimit="10" stroke-width="3"/><path d="m505.5 482.7a311.59 311.59 0 0 1 -4.5-41 55 55 0 0 0 -38.7-50.3c-4-1.2-8.3-2.4-13.1-3.4-42.1-9-54.9-1.1-56.4-.1a62.86 62.86 0 0 1 -3.2-7c-.1-.2-.1-.5-.2-.7a54.08 54.08 0 0 0 14.4-32.5c7-7.1 11.1-15.7 11.1-25 0-8-3-15.4-8.4-21.9v-12.5a54.71 54.71 0 0 0 -54.7-54.7h-4.4a54.71 54.71 0 0 0 -54.7 54.7v13.6a33.92 33.92 0 0 0 -7.6 20.9c0 9.1 3.9 17.5 10.7 24.5a53.36 53.36 0 0 0 15 33.5c.3 2 .6 4.3.9 6.6l-75.4 15.9s-29.1 1.2-47.8 39.8c-15.8 32.7-47.3 116.7-56.7 141.7-1.7 4.5-2.6 7.1-2.6 7.1s.3-.3.9-.8l-.9 2.4s.5-.5 1.3-1.2c-1.3 10.5-1.5 28.4 12.2 30.7 11.5 1.9 41.1 2.7 63.5 3h1.6c14.8.2 26.1.2 26.1.2v-.2h240.7v-2.5a17.94 17.94 0 0 0 -1.3-6.5l.3-.4a13.69 13.69 0 0 1 2.5 5.8c0 .2-.1.4-.1.6l.1-.4a6.73 6.73 0 0 1 -.1 2s30.9-79.5 30.5-127a68.35 68.35 0 0 0 -1-14.9zm-192.4-84.5a54 54 0 0 1 -.8-6.9v-.1c.3 2.3.5 4.6.8 7zm-93.6 170.8v19l-11.9 2.5z" fill="url(#f)"/><path d="m348.5 241.3a54.71 54.71 0 0 1 54.7 54.7v23.3h-109.4v-23.3a54.71 54.71 0 0 1 54.7-54.7z" fill="#e14b5a"/><ellipse cx="348.9" cy="327" fill="#e14b5a" rx="62.4" ry="42.9"/><g fill="#f7c4a7"><path d="m308.9 368.5s13 68.1 0 86.5 39.8 25.6 39.8 25.6l54.7-19.9 7.6-49s-33.3-18.8-26.4-56.6z"/><path d="m470.3 598s3.4 14.9-15.3 17.6a106.92 106.92 0 0 1 -33.4-.4l-4.1-37.5h43.6z"/><path d="m139.3 578.9s-8.3 33.6 10.5 36.7 87.6 3 87.6 3v-39.8l-31.2 6.7-29.3-28.1z"/></g><path d="m312.9 390.5-73.3 15.5s-27.9 1.1-45.9 38.3-57 143.1-57 143.1 33.3-33.7 72.3 2.3l26-47-5.7 74.6h201.6v-35.2s42.1 22.6 39 35.2c0 0 36-92.8 28.3-135a289.19 289.19 0 0 1 -4.3-39.5 52.82 52.82 0 0 0 -37.2-48.3 115.41 115.41 0 0 0 -12.6-3.2c-43.2-9.2-54.3 0-54.3 0s-8.4 27.2-8.2 39.6c.2 15.9-22.6 26.4-22.6 26.4s-33.7-8-35.2-14.5-13.6-44.7-10.9-52.3z" opacity=".1"/><path d="m312.9 388.9-73.3 15.5s-27.9 1.1-45.9 38.3-57 143.1-57 143.1 33.3-33.7 72.3 2.3l26-47-5.7 74.6h201.6v-35.2s42.1 22.6 39 35.2c0 0 36-92.8 28.3-135a289.19 289.19 0 0 1 -4.3-39.5 52.82 52.82 0 0 0 -37.2-48.3 115.41 115.41 0 0 0 -12.6-3.2c-43.2-9.2-54.3 0-54.3 0s-8.4 27.2-8.2 39.6c.2 15.9-22.6 26.4-22.6 26.4s-33.7-8-35.2-14.5-13.6-44.6-10.9-52.3z" fill="#575988"/><path d="m387.8 385.6a51.36 51.36 0 0 1 -2-27.2l-75.8 13.5s1.1 5.7 2.3 14.3a52 52 0 0 0 73.5 1.4z" opacity=".1"/><path d="m400.7 346.6a52 52 0 0 1 -104 1.2v-1.3a52.11 52.11 0 0 1 29.2-46.8c1.6-.8 3.2-1.4 4.8-2.1a53.17 53.17 0 0 1 26.8-2.5 51.83 51.83 0 0 1 43.1 47.9c.1 1.3.1 2.5.1 3.6z" fill="#f7c4a7"/><g opacity=".1"><path d="m330.5 299.1a39.58 39.58 0 0 0 -4.7 2.1 52 52 0 0 0 -29.2 46.8v1.3a11.16 11.16 0 0 0 4.7-1.1c12.7-5.9 20.3-24 23.3-36.7 1.1-4.7 2.1-9.8 5.9-12.4z"/><path d="m370.3 300.5a53.57 53.57 0 0 0 -12.9-4 16.68 16.68 0 0 1 9.3 5.8 21.21 21.21 0 0 1 2.8 5.1 52.38 52.38 0 0 0 -43.8.9c3.3 7.2 13.4 11.1 20.1 13.7q11.1 4.35 22.5 7.8l-6.7-5.4 15.1 2.4a26.79 26.79 0 0 0 -1-8.9c2.9 2.3 6.7 3.1 9.9 5.1 5.9 3.7 8.3 10.9 11.5 17a10.21 10.21 0 0 0 3.4 4.3 51.86 51.86 0 0 0 -30.2-43.8z"/></g><path d="m330.5 297.9a39.58 39.58 0 0 0 -4.7 2.1 52.2 52.2 0 0 0 -29.2 46.7v1.3a11.16 11.16 0 0 0 4.7-1.1c12.7-5.9 20.3-24 23.3-36.7 1.1-4.6 2.1-9.7 5.9-12.3z" fill="#632652"/><path d="m370.3 299.4a53.57 53.57 0 0 0 -12.9-4 16.68 16.68 0 0 1 9.3 5.8 21.21 21.21 0 0 1 2.8 5.1 52.38 52.38 0 0 0 -43.8.9c3.3 7.2 13.4 11.1 20.1 13.7q11.1 4.35 22.5 7.8l-6.7-5.4 15.1 2.4a26.79 26.79 0 0 0 -1-8.9c2.9 2.3 6.7 3.1 9.9 5.1 5.9 3.7 8.3 10.9 11.5 17a10.21 10.21 0 0 0 3.4 4.3 51.6 51.6 0 0 0 -30.2-43.8z" fill="#632652"/><path d="m290.7 338.1s53.6-66.6 115.5 0l-5.4-14.9s-29.1-42.5-49.7-33.3-40.9 15.7-40.9 15.7z" opacity=".1"/><path d="m290.7 336.9s53.6-66.6 115.5 0l-5.4-14.9s-29.1-42.5-49.7-33.3-40.9 15.7-40.9 15.7z" fill="#e14b5a"/><path d="m246.7 480.4s-11.5 30.6 4.6 58.2-14.1 39-14.1 39" opacity=".1"/><path d="m432.6 452.8s19.9 25.2 6.9 47.8-12.2 76.9-12.2 76.9" opacity=".1"/><path d="m229.1 600.1h221.1a18.42 18.42 0 0 1 18.4 18.4h-257.8a18.33 18.33 0 0 1 18.3-18.4z" fill="#535461"/><path d="m262.4 473.9h154.6a39.05 39.05 0 0 1 39 39v91.5h-232.6v-91.5a38.92 38.92 0 0 1 39-39z" fill="#535461"/><circle cx="339.5" cy="544.8" fill="#fff" r="13.8"/><path d="m293.8 306.9s52.6-52.6 109.4-1" fill="none" opacity=".1" stroke="#000" stroke-miterlimit="10"/><path d="m411.2 303.5h5.3v30h-5.3z" fill="#6a5c99"/><path d="m404.1 322.9a18.2 18.2 0 0 1 18.2 18.2v1.2a18.2 18.2 0 0 1 -18.2 18.2z" fill="#f25136"/><path d="m404.7 321.1a4.06 4.06 0 0 1 4.1 4.1v32.9a4.06 4.06 0 0 1 -4.1 4.1 4.06 4.06 0 0 1 -4.1-4.1v-32.9a4.19 4.19 0 0 1 4.1-4.1z" fill="#6a5c99"/><path d="m279.9 304.1h5.3v30h-5.3z" fill="#6a5c99"/><path d="m292.3 361.1a18.2 18.2 0 0 1 -18.2-18.2v-1.2a18.2 18.2 0 0 1 18.2-18.2z" fill="#f25136"/><path d="m291.7 362.9a4.06 4.06 0 0 1 -4.1-4.1v-32.9a4.06 4.06 0 0 1 4.1-4.1 4.06 4.06 0 0 1 4.1 4.1v32.9a4.19 4.19 0 0 1 -4.1 4.1z" fill="#6a5c99"/><path d="m410.6 271.5c-7.2-14.9-22.8-32.9-56.4-34.3h-.4l-11.9.6v.1c-33.4 1.5-48.9 19.5-56 34.3a77.73 77.73 0 0 0 -7.4 32.1l4.1-.1 4.1-.1a70.43 70.43 0 0 1 6.6-28.6c9.1-18.6 25.7-28.5 49.6-29.4l10.5-.6c23.8.9 40.5 10.8 49.6 29.4a70.92 70.92 0 0 1 6.7 28.6l4.1.1 4.1.1a77.37 77.37 0 0 0 -7.3-32.2z" fill="#f25136"/><path d="m37.6 618.7h560.8v150.6h-560.8z" fill="#d6d6e3"/><path d="m37.6 628.8h560.8v19.5h-560.8z" opacity=".1"/><path d="m0 616.5h636v19.5h-636z" fill="#d6d6e3"/><path d="m435.5 567.9s24 44 84 32 31 111 31 111-9.8 58.7-2.9 58.3" fill="none" stroke="#535461" stroke-miterlimit="10" stroke-width="3"/></svg>